<?xml version="1.0" standalone="no"?>
<!DOCTYPE svg PUBLIC "-//W3C//DTD SVG 1.1//EN" "http://www.w3.org/Graphics/SVG/1.1/DTD/svg11.dtd" >
<svg xmlns="http://www.w3.org/2000/svg" xmlns:xlink="http://www.w3.org/1999/xlink" version="1.1">
<metadata>
Created by FontForge 20200427 at Fri Mar 27 09:34:34 2020
 By www
hello honey - Personal Use (c) (Ef Studio), All Rights Reserved
</metadata>
<defs>
<font id="hellohoneyPersonalUse" horiz-adv-x="674" >
  <font-face 
    font-family="hello honey - Personal Use"
    font-weight="400"
    font-stretch="normal"
    units-per-em="1000"
    panose-1="2 0 5 0 0 0 0 0 0 0"
    ascent="750"
    descent="-250"
    x-height="324"
    cap-height="656"
    bbox="-286 -253 5977 820"
    underline-thickness="50"
    underline-position="-100"
    unicode-range="U+001D-E088"
  />
<missing-glyph horiz-adv-x="500" 
 />
    <glyph glyph-name="Th" unicode="Th" horiz-adv-x="889" 
d="M390 -129q-25 0 -28 19q-10 67 -10 180q0 92 4 168q6 130 18.5 251.5t22.5 160.5q-81 19 -141 19q-47 0 -84 -10q-103 -28 -144 -127q-14 -33 -14 -70q0 -49 23 -86.5t68 -46.5h1q5 0 11 11t13 12h4q12 0 17 -14l1 -6q0 -15 -19 -18l-14 -1q-21 0 -40 8q-39 16 -59 55
t-20 86q0 40 14 76q45 107 154 135q42 11 89 11q79 0 184 -31q91 -27 176 -43q39 42 98 46h4q50 0 50 -34v-1q0 -19 -16 -30t-37 -11q-20 1 -65 8q-46 -98 -46 -308q0 -76 8 -134q41 157 97 180q10 4 27 4q22 0 30 -9q12 -13 12 -52q0 -32 -12 -120q-13 -78 -13 -119
q0 -45 15 -46h1q13 0 38 55.5t53 135.5t29 81q2 6 8 6h2q4 -1 4 -6l-1 -4q-4 -9 -16.5 -46t-26 -74t-30 -75.5t-33 -63t-30.5 -24.5h-1q-21 1 -30 2.5t-21 8.5t-17 21q-9 21 -9 62q0 44 13.5 130t13.5 104q0 11 -1 14q-24 -10 -50 -59q-27 -56 -45 -143v-1q0 -15 -25 -20
l-14 -2q-22 0 -25 13q-15 72 -15 170q0 100 16.5 190.5t48.5 137.5q-79 16 -135 32q-24 -151 -40 -387q-9 -144 -9 -226q0 -65 5 -118v-2q0 -11 -11.5 -18t-25.5 -7zM717 595q13 0 25 7t12 19v1q0 19 -32 19h-6q-22 -1 -34.5 -9.5t-23.5 -29.5q29 -5 59 -7z" />
    <glyph glyph-name="ff" unicode="ff" horiz-adv-x="499" 
d="M79 316q50 17 90 80.5t51 126.5q2 10 2 28q0 63 -45 63h-3q-31 -4 -54 -72t-30 -123t-11 -103zM311 311q45 15 81.5 72.5t45.5 114.5q2 18 2 26q0 55 -40 55h-3q-21 -2 -38 -35.5t-26.5 -84t-14.5 -84.5t-7 -64zM341 -29q25 8 25 66q0 86 -59 131q2 -191 34 -197zM91 -79
q-19 0 -36 17q-55 59 -55 265q0 130 26 246.5t70 158.5q21 21 73 21l15 -1q53 -5 53 -77q0 -17 -3 -32q-11 -69 -56.5 -136t-99.5 -83q-4 -55 -4 -122h2q45 0 126 54l39 26q5 106 27 194t58 122q19 19 68 19l12 -1q47 -4 47 -69q0 -11 -2 -29q-10 -63 -51 -123.5t-90 -74.5
q-4 -74 -4 -110h11q48 0 100.5 23t83.5 51q4 2 5 2q7 0 7 -7q0 -2 -3 -5q-31 -29 -85 -52.5t-103 -24.5q57 -50 57 -136q0 -32 -9.5 -54t-26.5 -26q-12 -3 -21 -3q-18 0 -32 15q-50 54 -50 242v28q-4 -3 -8.5 -6t-10 -6.5t-8.5 -5.5q-28 -20 -66.5 -38t-55.5 -20
q31 -27 47 -68t16 -82q0 -34 -11 -59t-29 -29t-23 -4zM112 -61q27 10 27 74q0 95 -65 145q1 -86 10.5 -150.5t27.5 -68.5z" />
    <glyph glyph-name="ht" unicode="ht" horiz-adv-x="577" 
d="M180 504q7 23 8 41q2 18 2 26q0 45 -27 45q-48 -1 -75 -105q66 -4 92 -7zM65 316q33 16 63.5 66t47.5 108q-89 6 -91 6q-17 -76 -20 -180zM426 -108q-16 0 -30 8q-53 35 -53 299q-78 -229 -117 -229h-1q-20 1 -30 2t-21.5 8t-16.5 21q-9 21 -9 62q0 44 13.5 130t13.5 104
q0 11 -1 14q-27 -11 -50 -59q-27 -56 -45 -143v-1q0 -15 -25 -20q-10 -2 -15 -2q-23 0 -24 13q-15 65 -15 175q0 90 13 167q7 36 13 58q-82 0 -105 -11q-4 -2 -4 -10v-4q0 -13 -7 -20q-7 -4 -15 -4q-13 0 -18 11l-2 7q0 14 39 34q25 11 98 11h19q28 86 78 107q27 11 54 11
q42 -1 42 -63l-2 -24q-1 -18 -8 -41q42 -4 164 -17q8 70 18 126q3 20 35 20h4q30 -4 30 -22v-4q-11 -64 -18 -127q126 -14 186 -14q125 0 186 45q8 5 8 13q0 2 -1 6t-1 7q0 6 6 12t13 6t12 -4.5t5 -11.5q0 -6 -4 -13q-9 -11 -24 -23q-62 -51 -200 -51q-68 0 -187 13
q-18 -164 -18 -324q0 -220 35 -230q22 7 49 78.5t52.5 161.5t33.5 108q1 4 6 4l4 -1q4 -1 4 -5l-1 -4q-9 -22 -36 -116.5t-55 -164.5t-55 -76q-9 -3 -20 -3zM228 -16q8 0 20 18.5t27.5 56.5t25 63.5t26 71.5t17.5 49q1 112 14 228q-111 12 -166 17q-19 -64 -54.5 -118.5
t-72.5 -69.5h-1v-20q0 -73 8 -134q16 65 39 113q28 54 58 67q10 4 26 4q23 0 31 -9q12 -13 12 -51q0 -26 -13 -121q-12 -72 -12 -118t14 -47h1z" />
    <glyph glyph-name="ll" unicode="ll" horiz-adv-x="473" 
d="M317 319q39 31 70.5 89.5t40.5 112.5q3 18 3 34q0 51 -35 55h-2q-43 0 -66 -163q-8 -65 -11 -128zM71 290q44 35 79.5 102t46.5 128q4 28 4 38q0 60 -41 64h-2q-48 0 -75 -186q-9 -68 -12 -146zM86 -31q-33 0 -47 23q-39 66 -39 240q0 132 24 248t64 145q19 13 58 13
l16 -1q54 -7 54 -80q0 -12 -4 -40q-12 -68 -53 -140t-89 -106v-34q0 -243 30 -252q23 4 50.5 49.5t62.5 123.5t43 92v22q0 115 20.5 215t55.5 126q16 11 51 11l14 -1q47 -6 47 -70q0 -17 -3 -35q-11 -60 -46.5 -123t-77.5 -92v-34q0 -218 25 -227q16 3 37 32t36 59.5
t34.5 73t23.5 50.5q3 5 6 5h2q4 -2 4 -7l-1 -4q-93 -211 -137 -221l-15 -2q-30 0 -43 21q-27 46 -32 170l-25 -55t-31.5 -67t-29.5 -56t-34.5 -50t-31.5 -20q-6 -2 -19 -2z" />
    <glyph glyph-name="rr" unicode="rr" horiz-adv-x="492" 
d="M131 -25h-6q-26 0 -36 12q-16 20 -16 68q0 35 9.5 92t9.5 62l-1 4q-3 6 -21.5 11t-37.5 10.5t-35 26t-16 54.5q0 13 3 30q6 35 22.5 52.5t35.5 17.5q4 0 12 -2q20 -9 20 -38l-1 -15q-7 -54 -34 -81q6 -3 51.5 -9.5t56.5 -26.5q6 -11 6 -22q0 -2 -8 -42q-26 -118 -26 -159
q0 -30 12 -30q6 0 13.5 6.5t15.5 18.5t15.5 25.5t16.5 33.5t16 35t16 38t14 36t13 33.5t10 26.5q-25 20 -25 59q0 13 3 28q5 30 20 45.5t32 15.5q5 0 11 -2q17 -6 17 -32l-1 -15q-5 -45 -30 -72q11 -4 33.5 -6t39 -7t23.5 -19q5 -7 5 -19q0 -5 -7 -38q-23 -112 -23 -141
q0 -27 11 -27q10 1 24.5 21t29.5 53.5t27.5 64t25.5 64t17 42.5q1 4 6 4l4 -1q3 -1 3 -6v-2q-5 -11 -18.5 -46t-26.5 -66.5t-29.5 -65t-32.5 -54t-30 -21.5l-11 -1q-18 0 -27 11q-14 18 -14 60q0 31 8.5 81.5t8.5 55.5l-1 4q-2 5 -11 8t-24 7t-25 9q-3 -8 -14.5 -37.5
t-18.5 -47.5t-19.5 -47.5t-23 -48.5t-22.5 -38.5t-23.5 -29.5t-21.5 -11zM276 277q25 22 31 70v8q0 19 -10 22h-3q-10 0 -19.5 -14t-11.5 -37l-1 -15q0 -23 14 -34zM26 286q28 25 34 79l1 10q0 21 -12 24h-2q-12 0 -23 -16t-13 -42l-1 -16q0 -27 16 -39z" />
    <glyph glyph-name="ss" unicode="ss" horiz-adv-x="472" 
d="M67 -88q-23 0 -39.5 15t-19.5 39v7q0 38 32 91t64 84q-13 16 -37 34t-41 35t-24 38q-3 11 -3 22q0 35 29 61.5t65 26.5l13 -1q21 -3 33.5 -15t12.5 -30q0 -13 -7 -27q-6 -10 -16 -10l-5 1q-8 3 -8 12l1 5q2 7 11 9t9 10q0 24 -32 30l-12 1q-22 0 -38 -11.5t-16 -32.5v-3
q1 -21 17.5 -38.5t45 -39t43.5 -37.5q38 32 87 67q-3 9 -3 19q0 30 25.5 52.5t56.5 22.5l11 -1q18 -2 28.5 -12t10.5 -25q0 -11 -6 -24q-4 -10 -14 -10l-4 1q-7 5 -7 11l1 4q2 6 9.5 8t7.5 8q0 22 -27 27l-10 1q-19 0 -33 -10t-14 -28v-3q1 -19 16.5 -35.5t41.5 -36
t39 -33.5q56 43 113 71h3q3 0 5 -3q1 -1 1 -4t-3 -5q-55 -26 -111 -69q25 -32 25 -80l-2 -25q-8 -45 -34.5 -79.5t-60.5 -38.5h-8q-22 0 -37 15.5t-15 39.5q0 11 3 23q17 54 84 121q-11 14 -44 40.5t-43 44.5q-27 -18 -83 -66q35 -46 35 -105l-2 -22q-8 -52 -39 -92t-71 -44
zM289 -29q7 0 11 1q22 8 33.5 38.5t13.5 66.5v9q0 36 -15 61q-66 -66 -80 -118q-2 -10 -2 -16q0 -18 10.5 -30t28.5 -12zM68 -73q8 0 13 1q25 10 38.5 45t15.5 76v5q0 44 -23 82q-29 -30 -59 -79.5t-30 -82.5v-6q2 -18 14.5 -29.5t30.5 -11.5z" />
    <glyph glyph-name="tt" unicode="tt" horiz-adv-x="443" 
d="M85 -29q-17 0 -29 8q-48 32 -56 224l-1 63q0 98 9 195q-98 5 -111 5q-49 0 -75 -9q-8 -2 -8 -9l1 -11q0 -8 -6 -15q-3 -5 -12 -5q-5 0 -13 4q-9 5 -9 14q0 7 6 15q26 30 123 30q32 0 106 -4q6 71 18 136q3 20 35 20q14 0 24.5 -6t10.5 -16v-4q-12 -67 -19 -131
q44 -4 159 -13q7 69 18 131q3 18 33 18q33 0 33 -21v-3q-11 -65 -18 -129q124 -13 197 -13q100 0 153 20q18 7 39 24q3 2 3 12v10q0 12 5 17q4 4 11 4q9 0 13 -4q5 -5 5 -12t-4 -14q-20 -31 -64 -49q-53 -22 -163 -22q-83 0 -197 12q-10 -108 -10 -207l1 -57q5 -165 35 -174
q12 4 26 24t29 57t24 60t23 67l15 44q3 5 7 5h2q4 -3 4 -6v-3q-3 -8 -17.5 -52.5t-24 -70t-25 -61t-31 -55t-30.5 -23.5q-12 -2 -20 -2q-17 0 -28 7q-45 31 -52 211v8q-5 -13 -14 -39.5t-15 -44.5t-15.5 -43t-18 -42t-18.5 -33.5t-20.5 -26.5t-21.5 -12q-11 -3 -22 -3z
M105 -11q22 6 45 54.5t48 123.5t31 88v23q0 85 8 170q-29 3 -82.5 6.5t-76.5 5.5q-12 -111 -12 -227l1 -60q5 -175 38 -184z" />
    <glyph glyph-name="oo" unicode="oo" horiz-adv-x="392" 
d="M66 211q22 0 48 6v13q0 45 -16.5 67t-40.5 22q-21 0 -39 -15.5t-19 -36.5l2 6q3 12 23 12l11 -2q21 -6 21 -22l-1 -6q-5 -17 -8 -43zM269 217q18 0 41 5v12q0 40 -14.5 59t-35.5 19q-18 0 -34 -13.5t-17 -32.5l2 5q3 10 21 10l9 -1q18 -5 18 -18l-1 -6q-3 -13 -6 -38
q5 -1 17 -1zM258 91q12 0 25 23q21 37 26 94q-19 -4 -40 -4q-13 0 -19 1q-3 -30 -3 -62q2 -45 11 -52zM52 53h-7q-23 0 -32 10q-28 28 -28 99q0 16 1.5 32.5t3 27t1.5 11.5l-3 6q-3 6 -6.5 15.5t-3.5 19.5q0 12 4 21q19 47 67 47q32 0 56 -29.5t24 -84.5v-8q36 11 66 31
q-4 12 -4 21q0 10 4 19q17 41 58 41q29 0 50 -26t21 -74v-7q41 11 69 35q2 2 4 2q3 0 5 -2t2 -5q0 -2 -2 -4q-31 -27 -79 -40q-8 -65 -28 -102q-18 -32 -39 -32q-26 0 -35 9q-24 25 -24 86q0 10 0.5 19.5t1.5 17.5t2 14t1 9l1 4l-1 2q-32 -22 -74 -33q-8 -73 -31 -116
q-21 -36 -45 -36zM54 68q15 0 28 26q24 38 31 107q-25 -5 -44 -5l-24 2q-3 -34 -3 -71q2 -51 12 -59z" />
    <glyph glyph-name="hellohoney" unicode="hellohoney" horiz-adv-x="5997" 
d="M1327 -29q-28 1 -44.5 6.5t-23.5 25.5q-9 24 -9 61q0 44 13.5 130t13.5 105q0 10 -1 14q-54 -24 -94 -202v-1q0 -22 -39 -22q-23 0 -24 12q-15 69 -15 163v15q-89 -55 -230 -55q-104 0 -325.5 41t-306.5 41q-128 0 -193 -76q-6 -7 -14 -7q-15 0 -15 15q0 8 7 16
q57 67 210 67q89 0 310 -41t326 -41q143 0 231 58q6 281 108 325q24 10 53 10q42 0 42 -64q-4 -80 -46 -163t-93 -103h-1v-20q0 -73 8 -134q39 157 97 180q10 4 26 4q22 0 30 -9q12 -12 12 -51q0 -27 -13 -120q-12 -102 -12 -117q0 -46 16 -49q14 0 38.5 55.5t52.5 135
t29 81.5q2 6 7 6q7 -1 7 -7v-3q-1 -3 -30 -86.5t-57 -139.5t-50 -56h-1zM1293 569q0 47 -26 47q-29 -1 -50 -35t-30.5 -88t-13.5 -95t-5 -81q47 23 83.5 100.5t41.5 151.5zM1514 63q-37 9 -56 46t-19 86q0 52 19.5 97.5t50.5 57.5q15 5 29 5l15 -1q39 -4 39 -44
q0 -10 -3 -19q-5 -21 -21 -36.5t-36 -15.5q-8 0 -20 5q-9 -42 -9 -94q0 -72 28 -75h5q37 0 76 63q28 48 55 120q2 5 7 5l5 -1q3 -1 3 -6v-3q-34 -85 -57 -122q-41 -68 -84 -71q-13 0 -27 3zM1575 293q2 6 2 16q0 26 -25 30q-20 -2 -37 -80q7 -5 17 -5q14 0 25.5 11.5
t17.5 27.5zM1707 -7q-40 65 -40 240q0 132 24.5 249t64.5 146q19 13 58 13l16 -1q54 -7 54 -81q0 -12 -4 -40q-12 -68 -53 -140.5t-89 -106.5v-34q0 -243 30 -253q23 5 50.5 50.5t62.5 123t43 92.5v22q0 116 20.5 216.5t56.5 126.5q17 11 51 11l14 -1q47 -6 47 -71
q0 -17 -3 -35q-11 -60 -46.5 -123t-77.5 -92v-35q0 -218 25 -227q16 3 37 32t36 59.5t34.5 73t23.5 50.5q2 5 6 5h2q4 -2 4 -7l-1 -4q-93 -211 -137 -221l-15 -2q-31 0 -44 21q-27 46 -32 170q-6 -12 -25.5 -55.5t-31 -67t-29.5 -56t-34.5 -50t-31.5 -20.5q-6 -2 -19 -2
q-34 0 -47 24zM1865 522q4 28 4 38q0 61 -41 65h-2q-48 0 -75 -187q-9 -68 -12 -146q44 35 79.5 102t46.5 128zM2097 523q3 18 3 34q0 52 -35 56h-2q-43 0 -66 -164q-8 -65 -11 -128q39 31 70.5 89.5t40.5 112.5zM2241 91q-19 -36 -52 -37q-24 0 -34 10q-27 28 -27 98
q0 16 1.5 33t2.5 27l2 11l-3 6q-3 6 -6.5 16t-3.5 20q0 27 21.5 47t49.5 20q32 0 55.5 -28t23.5 -82q0 -68 -24 -127q63 -66 119 -96t129 -30q143 0 314 105q-94 70 -158 158t-64 180q0 34 10 67q12 42 46 67t75 25q44 0 81.5 -32.5t54.5 -96.5q20 60 57.5 91t79.5 31
q48 0 78 -38.5t30 -93.5q0 -98 -82.5 -198t-181.5 -160q144 -100 292 -100l28 1q111 9 207 86.5t154 187.5q2 4 6 4q8 0 8 -8l-1 -3q-61 -113 -159.5 -193t-213.5 -88l-31 -1q-150 0 -303 105q-175 -109 -336 -109q-70 0 -125 28.5t-120 96.5zM2256 232q0 45 -16 66t-40 21
q-22 0 -39.5 -15t-18.5 -37q6 19 25 19q12 -2 17 -3.5t9.5 -6.5t4.5 -14q-10 -65 -11 -81q16 -25 49 -63q20 58 20 114zM2229 103q-19 22 -44 54v-29q0 -50 12 -59q18 1 32 34zM3067 432q0 23 -4 43q-7 35 -29.5 55t-51.5 20q-36 0 -69 -31.5t-54 -93.5q-2 -5 -6 -5
q-7 0 -9 6q-14 64 -47.5 97t-73.5 33q-31 0 -56 -20t-37 -56q-10 -30 -10 -64q0 -85 58.5 -173.5t143.5 -149.5q99 63 172 153t73 186zM3738 -29q-19 1 -29.5 2.5t-22 8.5t-16.5 21q-9 24 -9 62q0 44 13 129t13 104q0 10 -1 14q-24 -9 -49 -60q-28 -58 -44 -141v-1
q0 -16 -25 -21q-5 -1 -15 -1q-23 0 -24 12q-15 65 -15 175q0 89 13 166q27 150 95 180q24 10 54 10q42 0 42 -62l-2 -25q-8 -70 -49.5 -147t-87.5 -96h-1v-26q0 -80 8 -128q16 65 38 112q28 56 58 68q10 4 26 4q23 0 31 -9q11 -14 11 -52q0 -33 -12 -119q-13 -78 -13 -119
q0 -44 15 -47h1q9 0 22.5 23.5t29 61.5t28.5 73.5t25 71t15 42.5q2 6 7 6l3 -1q5 -2 5 -6l-1 -3q-4 -9 -16.5 -46t-26 -74t-30 -75.5t-33 -62.5t-30.5 -24h-1zM3701 544l2 26q0 46 -26 46h-1q-28 0 -48.5 -35.5t-30.5 -90t-14 -95.5t-5 -78q42 20 78.5 91.5t44.5 135.5z
M3908 54q-24 0 -34 10q-27 27 -27 98q0 11 0.5 22t1.5 19.5t2 15t1 10.5l1 4q-13 26 -13 41q0 13 4 22q19 47 66 47q32 0 55.5 -29.5t23.5 -84.5v-8q49 15 80 40q2 2 5 2q4 0 5 -3q2 -2 2 -5q0 -2 -3 -5q-36 -30 -89 -45q-7 -70 -32 -115q-19 -36 -44 -36h-5zM3975 217v12
q0 46 -16.5 68.5t-40.5 22.5q-21 0 -39 -15.5t-19 -37.5q2 4 2 6q3 13 22 13l12 -2q21 -6 21 -22l-1 -6q-5 -17 -8 -43q6 -1 20 -1q20 0 47 5zM3943 95q23 41 30 107q-25 -5 -44 -5q-9 0 -23 2q-3 -34 -3 -71q2 -51 12 -59q13 1 28 26zM4252 -3q-27 18 -27 106
q0 57 12.5 161.5t12.5 118.5q0 11 -2 12q-62 -13 -124 -314q-3 -13 -4.5 -18t-7.5 -10.5t-17 -5.5q-26 0 -29 22q-5 32 -5 109q0 76 5 109q4 24 33 24h3q11 -1 19.5 -8t8.5 -18l-6 -133q59 259 130 259h2q28 -2 38 -29q7 -21 7 -61q0 -41 -9.5 -134.5t-9.5 -126.5
q0 -54 18 -54l5 1q9 3 21 22.5t24.5 52t22.5 61t22 66t16 49.5q2 5 7 5q7 0 8 -7l-1 -3q-4 -13 -17 -52t-23 -68t-23.5 -62.5t-27 -54t-25.5 -23.5q-5 -2 -22 -2q-25 0 -35 6zM4475 63q-37 9 -56 46t-19 86q0 52 19.5 97.5t50.5 57.5q15 5 29 5l15 -1q39 -4 39 -44
q0 -10 -3 -19q-5 -21 -21 -36.5t-36 -15.5q-8 0 -20 5q-9 -42 -9 -94q0 -72 28 -75h5q37 0 76 63q28 48 55 120q2 5 7 5l4 -1q3 -1 3 -6v-3q-28 -77 -56 -122q-41 -68 -84 -71q-14 0 -27 3zM4536 293q2 6 2 16q0 26 -25 30q-20 -2 -37 -80q8 -5 17 -5q14 0 25.5 11.5
t17.5 27.5zM4724 -191q-67 7 -67 81q4 64 35.5 112t94.5 108l1 35q0 75 -5 143q-15 -55 -44 -119t-56 -67h-7q-54 0 -54 89q0 35 18 134q3 15 30 15q16 0 28 -7t12 -19q-2 -17 -13.5 -75.5t-11.5 -91.5q0 -11 2 -29q25 15 58.5 104.5t33.5 113.5q0 12 12 20t26 8
q25 0 29 -23q10 -53 10 -170q159 141 345 141q76 0 259 -35q208 -40 301 -40q123 0 187 76q7 7 14 7q15 0 15 -14q0 -8 -7 -16q-57 -66 -210 -68q-91 0 -302 39q-181 37 -257 37q-103 0 -187 -40q-72 -32 -159 -107q-5 -221 -46 -294q-27 -48 -77 -48h-8zM4787 89
q-54 -51 -83 -98t-31 -102q0 -60 51 -65q57 7 63 265z" />
    <glyph glyph-name=".notdef" horiz-adv-x="500" 
 />
    <glyph glyph-name=".null" horiz-adv-x="0" 
 />
    <glyph glyph-name=".null" horiz-adv-x="0" 
 />
    <glyph glyph-name="nonmarkingreturn" horiz-adv-x="508" 
 />
    <glyph glyph-name="space" unicode=" " horiz-adv-x="400" 
 />
    <glyph glyph-name="space" unicode="&#xa0;" horiz-adv-x="400" 
 />
    <glyph glyph-name="exclam" unicode="!" horiz-adv-x="206" 
d="M88 88q-17 0 -20 12q-16 71 -16 207q3 232 16 299q6 22 33 22q36 -2 36 -24v-3q-27 -116 -27 -365q0 -64 2 -132q0 -14 -24 -16zM94 -8q-11 0 -18.5 7.5t-7.5 18.5q0 10 7.5 17.5t18.5 7.5q10 0 17.5 -7.5t7.5 -17.5q0 -11 -7.5 -18.5t-17.5 -7.5z" />
    <glyph glyph-name="quotedbl" unicode="&#x22;" horiz-adv-x="127" 
d="M37 544q-11 0 -12 6q-4 24 -4 51l1 26q2 9 16 9q15 0 15 -11q0 -9 -1.5 -31t-1.5 -32v-11q0 -4 -13 -7zM82 544q-10 0 -12 6q-4 24 -4 51l1 26q1 9 16 9t15 -11q0 -9 -1.5 -31t-1.5 -32v-11q0 -4 -13 -7z" />
    <glyph glyph-name="numbersign" unicode="#" horiz-adv-x="520" 
d="M175 7q-27 0 -28 13q-5 65 -5 162h-97q-12 0 -14 15q0 15 15 15h96l2 118l-94 1q-13 0 -15 14q0 15 15 15h95q4 109 12 156q3 18 30 18q29 0 29 -19v-1q-8 -58 -13 -154l93 -1q5 116 12 157q3 18 30 18q29 0 29 -18q-1 -13 -6 -66.5t-6 -90.5q65 0 93 -1q15 0 15 -14
q0 -15 -15 -15h-95l-2 -119h93q14 0 14 -15q0 -14 -14 -14h-93q0 -101 4 -154q0 -19 -29 -19q-27 0 -28 12q-5 65 -5 161l-94 1q0 -28 0.5 -57t2 -58t1.5 -41q0 -17 -28 -19zM293 211l2 118l-93 1l-2 -119h93z" />
    <glyph glyph-name="dollar" unicode="$" horiz-adv-x="360" 
d="M178 -29q-15 0 -15 14l-2 45h-11q-46 0 -81.5 23.5t-35.5 62.5q0 43 21 43q15 -3 15 -13l-2 -7q-3 -6 -11 -10t-8 -8v-4q0 -32 30.5 -52.5t70.5 -20.5h12v79l1 128l-6 3q-37 24 -56.5 39t-39 43.5t-19.5 60.5q2 59 39 90.5t98 31.5q1 4 1.5 15t1.5 17t3 13.5t6 11t10 3.5
q14 -2 14 -15q-1 -8 -3.5 -23.5t-3.5 -24.5q41 -8 67 -30.5t26 -55.5q0 -39 -17 -39q-16 2 -16 12q2 8 10 15.5t8 13.5q-1 27 -24 44.5t-56 24.5q-12 -103 -12 -199q30 -18 45.5 -29t36 -29.5t29.5 -40t10 -49.5q0 -44 -35.5 -76.5t-87.5 -43.5l1 -48q0 -15 -14 -15zM191 50
q64 22 65 88q0 46 -65 93l-1 -96zM164 321v3q3 102 12 180q-34 -2 -56.5 -29.5t-22.5 -61.5q0 -50 67 -92z" />
    <glyph glyph-name="percent" unicode="%" horiz-adv-x="414" 
d="M116 363l5 1q22 9 34 38.5t12 64.5q0 79 -39 87q-15 0 -27.5 -31t-14.5 -70q0 -13 2 -31t9 -38.5t19 -20.5zM64 -52q-14 0 -25 7.5t-11 19.5l1 8q26 73 136.5 306.5t152.5 304.5q6 7 17 7q13 0 26 -9t13 -19q0 -5 -2 -7q-152 -273 -286 -606q-4 -12 -22 -12zM303 6
q23 0 35.5 34.5t14.5 74.5q0 74 -40 82q-16 0 -28.5 -35.5t-13.5 -79.5q0 -29 8 -52t24 -24zM291 -11h-2q-35 1 -52.5 30t-18.5 71q0 48 22.5 86.5t58.5 38.5q35 -1 51.5 -30t16.5 -72q-1 -46 -20 -85t-56 -39zM106 346h-3q-35 1 -52.5 30t-17.5 71q1 50 23 87.5t58 37.5
q36 -1 52 -30.5t16 -71.5q-1 -46 -20 -85t-56 -39z" />
    <glyph glyph-name="ampersand" unicode="&#x26;" horiz-adv-x="460" 
d="M211 -43h-2q-85 1 -135 52t-50 131q2 85 40 138t113 63q-89 38 -89 127q1 57 35.5 90.5t90.5 33.5q45 -1 73.5 -26.5t28.5 -67.5l-1 -12q-2 -15 -15 -15q-15 0 -15 13q1 11 8.5 16t7.5 8q-1 27 -25 47.5t-50 20.5q-39 0 -60 -34t-23 -85q0 -83 73 -114q5 -3 5 -8
q0 -7 -8 -7h-4q-103 0 -121 -165l-1 -25q0 -39 10 -74t35.5 -62.5t63.5 -29.5l15 -1q75 0 119.5 41.5t44.5 111.5q0 45 -18 84t-54 39q-9 0 -19 -3q-71 -25 -71 -71v-9q0 -3 7 -7.5t8 -9.5q0 -12 -13 -14q-7 0 -12 9q-5 15 -5 33q0 21 9.5 37t30 27t34.5 16t41 13
q118 31 118 101q0 25 -14 44t-36 19l-9 -1q-2 0 -6.5 -8.5t-11.5 -9.5q-12 0 -13 12q0 22 40 22q28 0 46.5 -23t18.5 -54q0 -32 -20 -56q-28 -36 -98 -57q27 -12 44.5 -49t17.5 -82q0 -69 -44 -119t-135 -50z" />
    <glyph glyph-name="quotesingle" unicode="'" horiz-adv-x="116" 
d="M62 544q-10 0 -12 6q-4 24 -4 51l1 26q1 9 16 9t15 -11q0 -9 -1.5 -31t-1.5 -32v-11q0 -4 -13 -7z" />
    <glyph glyph-name="parenleft" unicode="(" horiz-adv-x="221" 
d="M177 -27h-2q-42 3 -71 52t-40 111.5t-11 130.5q2 148 36.5 247t99.5 103q8 0 8 -7t-5 -8q-49 -18 -74 -157q-12 -74 -14 -185q0 -230 76 -274q3 -2 3 -7q0 -6 -6 -6z" />
    <glyph glyph-name="parenright" unicode=")" horiz-adv-x="191" 
d="M21 -27h-1q-7 0 -7 6t5 8q49 18 74 157q13 72 15 192q0 104 -14 161q-20 82 -62 106q-4 3 -4 7q2 7 8 7q32 -3 57 -32t38.5 -73.5t20.5 -93t7 -97.5q-2 -146 -36.5 -245t-100.5 -103z" />
    <glyph glyph-name="asterisk" unicode="*" horiz-adv-x="158" 
d="M72 511q-3 0 -5 1t-3.5 2t-2 3.5t-0.5 4.5t-0.5 6.5t-0.5 6.5l1 17l-20 -17q-3 -4 -8 -4q-11 0 -11 12q0 3 3 8l31 25q-6 6 -15 13t-13 11t-4 8t4 7.5t8 3.5q7 0 27 -20l2 25q2 10 11 10q12 -2 12 -12l-2 -23q24 18 28 18q12 0 12 -11q0 -6 -5 -9l-29 -21q4 -4 10.5 -9
t10 -8t6.5 -6.5t3 -6.5q0 -11 -11 -11q-4 0 -7 3l-21 16l-1 -17l1 -14q0 -12 -11 -12z" />
    <glyph glyph-name="plus" unicode="+" horiz-adv-x="333" 
d="M156 122q-14 0 -15 15l2 91h-83q-11 0 -11 11t11 11h83l3 73q2 14 15 14q14 0 14 -14q0 -12 -1 -36t-1 -37h83q11 0 11 -11t-11 -11h-84l-1 -91q0 -15 -15 -15z" />
    <glyph glyph-name="comma" unicode="," horiz-adv-x="107" 
d="M36 -46q-4 0 -6 5l1 3q13 11 17 26h-2q-10 0 -16.5 6.5t-6.5 16.5t7 17t17 7q9 0 16 -6.5t8 -17.5q0 -18 -11 -35.5t-24 -21.5z" />
    <glyph glyph-name="hyphen" unicode="-" horiz-adv-x="392" 
d="M285 228h-191q-11 0 -11 11t11 11h191q11 0 11 -11t-11 -11z" />
    <glyph glyph-name="hyphen" unicode="&#xad;" horiz-adv-x="392" 
d="M285 228h-191q-11 0 -11 11t11 11h191q11 0 11 -11t-11 -11z" />
    <glyph glyph-name="period" unicode="." horiz-adv-x="95" 
d="M45 -13q-10 0 -17 7.5t-7 16.5q0 10 7 17t17 7t17 -7t7 -17t-7 -17t-17 -7z" />
    <glyph glyph-name="slash" unicode="/" horiz-adv-x="333" 
d="M46 5l-5 2q-10 3 -10 14q0 3 2 9q26 73 117.5 283t126.5 263q5 5 12 5q19 0 19 -17l-1 -6q-96 -171 -245 -543q-5 -10 -16 -10z" />
    <glyph glyph-name="zero" unicode="0" horiz-adv-x="325" 
d="M143 -20q-143 0 -143 253l1 43q11 282 160 282q41 0 70 -27t42.5 -71t19 -84t5.5 -83q0 -38 -3 -74t-13 -81.5t-26 -78.5t-45.5 -56t-67.5 -23zM143 -5q42 0 71.5 31.5t43.5 81.5t20 93.5t6 85.5q0 38 -4.5 75t-16 81.5t-37.5 72t-64 27.5q-34 0 -58 -61t-31.5 -117.5
t-8.5 -94.5l-1 -61q0 -214 80 -214z" />
    <glyph glyph-name="one" unicode="1" horiz-adv-x="312" 
d="M261 -16h-27.5t-65.5 0.5t-70 0.5q-22 0 -43 -0.5t-34 -0.5h-15q-6 0 -6 8q0 6 6 7t101 1q0 315 16 515q-40 -54 -94 -61q-14 0 -14 13q0 14 15 17q5 0 9.5 -5.5t6.5 -5.5l2 1q48 18 79 77q6 12 28 12q33 -2 33 -22q0 -9 -11 -232t-12 -309q88 0 97 -1q7 0 7 -9
q-2 -6 -8 -6z" />
    <glyph glyph-name="two" unicode="2" horiz-adv-x="360" 
d="M9 -19h-2q-7 0 -7 8q0 3 3 5q30 21 77 82t89 135q80 144 85 244q0 45 -23 67t-73 22q-48 -1 -77.5 -35.5t-30.5 -80.5q0 -3 9 -7.5t10 -14.5q0 -17 -16 -17q-13 0 -17 19l-1 18q0 53 35 92.5t88 39.5h18q67 0 102.5 -28.5t36.5 -94.5q0 -94 -71.5 -221t-150.5 -210
q48 2 89 2q101 0 130 -7q6 -1 6 -8t-7 -7h-2q-25 7 -120 7h-32q-108 0 -148 -10z" />
    <glyph glyph-name="three" unicode="3" horiz-adv-x="338" 
d="M132 -20q-16 0 -34 3q-39 7 -66.5 34t-31.5 66q0 6 7 6q5 0 7 -6q6 -39 36.5 -63t68.5 -24q54 1 84.5 50.5t30.5 115.5q0 53 -22 94t-68 41h-2q-6 0 -8 6q0 7 5 8q38 17 59.5 57t23.5 87q0 37 -15.5 62.5t-50.5 25.5q-47 -1 -81 -26.5t-35 -69.5q0 -3 8 -6.5t9 -16.5
q0 -12 -17 -15q-15 0 -15 35q0 52 40 82.5t94 31.5q52 0 88 -30t36 -79q-6 -98 -98 -139q55 -9 83 -50t28 -96q0 -79 -44.5 -131.5t-119.5 -52.5z" />
    <glyph glyph-name="four" unicode="4" horiz-adv-x="344" 
d="M268 -20q-27 0 -28 16l1 171q-9 0 -68 0.5t-112.5 0.5t-55.5 1q-5 2 -5 7l1 3q30 64 77.5 186t64.5 180q3 13 21 13q13 0 24 -7t11 -16q-4 -24 -64 -155t-95 -197l201 -1q6 196 12 285q1 20 30 20q30 0 30 -21q-1 -24 -5.5 -126.5t-7.5 -195.5t-3 -147q0 -17 -29 -17z
" />
    <glyph glyph-name="five" unicode="5" horiz-adv-x="306" 
d="M111 -20q-40 0 -70.5 19.5t-40.5 58.5q0 7 7 7q4 0 8 -4q19 -61 86 -66q31 0 53.5 23t33 59.5t15.5 68.5t5 63q0 152 -85 152q-23 0 -53 -12q-6 -2 -19 -9.5t-23.5 -13t-12.5 -5.5q-7 0 -7 8q2 111 9 222q0 7 7 7h2q62 -14 117 -15q58 0 87 9q3 1 5.5 9t7.5 10q2 1 6 1
q14 0 17 -14q0 -13 -13 -16q-53 -13 -110 -13q-30 0 -70 5l-7 -171q34 14 71 14q35 0 62 -15q74 -42 74 -157q-1 -54 -16 -102.5t-53 -85.5t-93 -37z" />
    <glyph glyph-name="six" unicode="6" horiz-adv-x="328" 
d="M142 -19h-8q-134 14 -134 229q0 39 3 70q3 35 10 69.5t21 73t33.5 67.5t50.5 48t69 20q64 0 90 -44q2 -6 2 -10q0 -13 -13 -13q-5 0 -9.5 3.5t-4.5 7.5q0 2 1.5 6.5t1.5 6.5t-1 3q-25 25 -62 25h-7q-30 -2 -53.5 -32.5t-37 -76.5t-20.5 -82.5t-10 -67.5q-2 -38 -2 -58
q34 65 107 65q54 -2 89.5 -36t35.5 -99q-1 -77 -40 -126t-112 -49zM154 -5q60 0 92.5 49t32.5 114q-1 54 -31.5 85.5t-77.5 33.5q-42 0 -71.5 -27.5t-37.5 -69.5q7 -177 77 -184z" />
    <glyph glyph-name="seven" unicode="7" horiz-adv-x="334" 
d="M35 -20q-13 0 -24 6t-11 14q4 60 90.5 257.5t150.5 283.5q-48 -6 -103 -6q-82 0 -118 8q-7 2 -7 11q0 13 13 13q7 0 9 -6t5 -6q37 -5 98 -5q72 0 119 8h3q11 0 26 -11t15 -22q0 -3 -2 -7q-86 -138 -141.5 -258t-103.5 -269q-4 -11 -19 -11z" />
    <glyph glyph-name="eight" unicode="8" horiz-adv-x="322" 
d="M141 -19h-7q-58 0 -95.5 33t-38.5 91q0 51 32 94t85 87q-25 25 -34 35t-26 31.5t-23 41.5t-6 43q5 66 36.5 93.5t97.5 27.5q102 -2 102 -91q-1 -76 -91 -154q35 -33 53 -54t35.5 -56.5t17.5 -72.5q0 -63 -38 -105t-100 -44zM162 324q86 74 87 143q0 37 -22.5 56.5
t-60.5 20.5q-39 0 -59 -21q-19 -19 -22 -67q0 -61 77 -132zM140 -4q27 1 46 22.5t26.5 48t7.5 54.5q0 11 -1.5 21t-5.5 20t-7 18t-11 18.5t-11.5 16t-13.5 16.5t-13 14.5t-15 16t-14 14.5q-33 -28 -53.5 -48.5t-40 -55t-19.5 -67.5q1 -51 34 -80t84 -29h7z" />
    <glyph glyph-name="nine" unicode="9" horiz-adv-x="336" 
d="M111 -19h-4q-66 0 -90 44q-2 3 -2 10q0 13 12 13q5 0 9.5 -3.5t4.5 -7.5q0 -3 -1 -7t-1 -5q0 -3 1 -4q22 -25 62 -25h7q29 2 53 33t37 76t20.5 82.5t9.5 67.5l3 59q-17 -32 -46 -49.5t-61 -17.5q-53 2 -89 36.5t-36 97.5q0 78 37.5 127.5t111.5 49.5q42 -1 72.5 -22.5
t45 -57t21 -72.5t6.5 -80q0 -37 -3 -67q-4 -44 -14.5 -87t-30.5 -88t-55 -73.5t-80 -29.5zM124 262q42 0 71 27t37 70q-3 176 -76 185l-15 1q-60 0 -93 -48t-33 -113q1 -57 30.5 -88.5t78.5 -33.5z" />
    <glyph glyph-name="colon" unicode=":" horiz-adv-x="140" 
d="M75 145q-10 0 -17 7.5t-7 16.5q0 10 7 17t17 7t17 -7t7 -17t-7 -17t-17 -7zM75 336q-10 0 -17 7t-7 17t7 17t17 7t17 -7t7 -17t-7 -17t-17 -7z" />
    <glyph glyph-name="semicolon" unicode=";" horiz-adv-x="130" 
d="M47 113q-4 0 -7 5q0 1 2 3q14 14 16 26l-2 -1q-9 0 -15.5 7t-6.5 17t7 17t17 7q8 0 15.5 -6.5t7.5 -17.5q0 -18 -10.5 -35t-23.5 -22zM54 336q-10 0 -17 7.5t-7 16.5q0 10 7 17t17 7t17 -7t7 -17t-7 -17t-17 -7z" />
    <glyph glyph-name="semicolon" unicode="&#x37e;" horiz-adv-x="130" 
d="M47 113q-4 0 -7 5q0 1 2 3q14 14 16 26l-2 -1q-9 0 -15.5 7t-6.5 17t7 17t17 7q8 0 15.5 -6.5t7.5 -17.5q0 -18 -10.5 -35t-23.5 -22zM54 336q-10 0 -17 7.5t-7 16.5q0 10 7 17t17 7t17 -7t7 -17t-7 -17t-17 -7z" />
    <glyph glyph-name="less" unicode="&#x3c;" horiz-adv-x="265" 
d="M223 101l-4 2q-6 4 -92.5 53.5t-95.5 55.5q-2 1 -2 5l-1 2q0 3 3 4l189 141l4 1q8 0 8 -7q0 -4 -3 -5l-170 -127l173 -100q4 -3 4 -9q0 -16 -13 -16z" />
    <glyph glyph-name="equal" unicode="=" horiz-adv-x="308" 
d="M255 253h-205q-11 0 -11 11t11 11h205q10 0 10 -11t-10 -11zM255 185h-205q-11 0 -11 11t11 11h205q10 0 10 -11t-10 -11z" />
    <glyph glyph-name="greater" unicode="&#x3e;" horiz-adv-x="258" 
d="M31 101q-8 0 -8 8q0 3 3 5l170 127l-173 99q-5 4 -5 10t4 11t10 5l4 -2q7 -4 93.5 -53.5t94.5 -55.5q3 -3 3 -6t-3 -6l-189 -141q-1 -1 -4 -1z" />
    <glyph glyph-name="question" unicode="?" horiz-adv-x="350" 
d="M137 78h-3q-14 0 -17 13q-6 29 -6 56q0 93 58 175q5 8 21.5 30.5t23 32t18.5 30t17.5 34t10.5 32.5t6 37q0 45 -25.5 73t-71.5 29q-53 0 -87 -37.5t-34 -89.5q0 -21 8 -45q4 -12 11 -12h3q6 0 8 -9q0 -6 -4.5 -10.5t-9.5 -4.5q-7 0 -12 9q-19 37 -19 74q0 59 42 100.5
t105 41.5q60 -1 97 -35.5t37 -87.5q-1 -38 -12.5 -71.5t-23 -51t-36 -49.5t-34.5 -46q-53 -78 -53 -175l1 -27q0 -14 -19 -16zM138 -17q-10 0 -17 7.5t-7 16.5q0 10 7 17t17 7t17 -7t7 -17t-7 -17t-17 -7z" />
    <glyph glyph-name="at" unicode="@" horiz-adv-x="550" 
d="M216 187q13 1 27 31.5t31.5 89t18.5 62.5q-10 29 -35 38q-14 -9 -29.5 -80.5t-15.5 -116.5q0 -18 3 -24zM281 16q-17 0 -33 3q-104 15 -164.5 82.5t-60.5 168.5l2 34q11 111 82 178t175 67q39 0 72 -8q75 -17 116 -74t41 -139l-1 -22q-5 -69 -46 -140t-103 -71
q-30 0 -47 10q-33 20 -33 121q0 15 3 66q-36 -115 -64 -120h-7q-28 0 -42 25.5t-14 66.5q0 30 8 65.5t29 65.5t50 30q33 0 54 -31q2 3 3.5 8t2.5 7q6 21 25 21q30 -4 30 -24q-1 -8 -7.5 -48t-12.5 -89t-6 -90q0 -68 22 -69q10 0 15 1q36 9 59 75.5t28 119.5l2 30
q0 75 -35.5 132.5t-105.5 62.5l-18 1q-93 0 -148 -65t-71 -166q-4 -32 -4 -47q0 -96 56.5 -159.5t149.5 -63.5q77 0 143 57q2 2 5 2q7 0 7 -8q0 -4 -2 -5q-72 -61 -155 -61z" />
    <glyph glyph-name="A" unicode="A" 
d="M533 -131h-4q-21 0 -50 10t-41 22q-41 45 -41 178q0 87 19 217l-62 2q-60 0 -108 -8q-32 -207 -56 -275q-31 -94 -79 -108q-11 -3 -22 -3q-42 0 -65.5 44.5t-23.5 100.5q0 61 20 108t55 76t74 46t84 24q9 56 15 90.5t16 79.5t18.5 73t22 58t28 46.5t34 28t42.5 12.5
q28 0 46.5 -14.5t27.5 -43t12 -58t3 -70.5q0 -86 -12 -197h17q41 0 62 6q2 1 2 5v3q0 16 13 16q14 0 14 -14q0 -3 -2 -7q-14 -23 -82 -23h-25q0 -2 -7 -53t-11 -99.5t-4 -91.5q0 -163 69 -166q34 1 59.5 64t49.5 169.5t35 139.5q1 5 6 5q8 0 8 -7l-1 -3q-8 -23 -33.5 -135.5
t-54 -178.5t-68.5 -69zM248 306q49 7 105 7l64 -2q24 209 24 266q0 98 -37 98q-33 -2 -58 -29.5t-43.5 -86t-29 -110.5t-25.5 -143zM90 -81q5 0 17 2q59 18 96 206q9 48 27 161q-95 -17 -155.5 -76t-60.5 -163q0 -53 20.5 -91.5t55.5 -38.5z" />
    <glyph glyph-name="B" unicode="B" horiz-adv-x="527" 
d="M220 -190q-29 0 -47.5 20.5t-18.5 52.5q0 59 59 132t144 134q-7 58 -50 91t-102 33l-16 -1q-12 0 -13 6q0 7 10 12q47 30 95 112t51 166q0 38 -11 68.5t-38 30.5l-4 -1q-31 -7 -57.5 -32.5t-45 -67.5t-33.5 -86t-25 -105t-16.5 -108t-11 -111t-6 -96.5t-3.5 -81.5
q-2 -34 -2 -42q0 -9 -10 -14.5t-24 -6.5q-23 0 -24 19q-21 118 -21 306q0 174 19 281q3 25 33 25q35 -2 35 -28v-4q-23 -192 -23 -323q0 -57 6 -131q29 574 203 620q8 4 27 4l18 -2q38 -7 58.5 -40.5t20.5 -76.5q0 -10 -2 -30q-15 -82 -61 -139.5t-121 -106.5l24 1
q148 0 178 -102l118 74q7 0 7 -8q0 -3 -3 -6l-119 -75q3 -18 3 -40q0 -83 -37 -168q-30 -71 -76.5 -113t-87.5 -42zM211 -175q28 2 62.5 48t59.5 117.5t25 136.5v4q-113 -83 -167 -177q-22 -39 -22 -72q0 -46 42 -57z" />
    <glyph glyph-name="C" unicode="C" horiz-adv-x="398" 
d="M177 -166q-78 0 -128 102q-49 102 -49 253q0 106 25 209q66 244 220 248q42 0 65 -32.5t23 -83.5q0 -35 -13 -65.5t-28 -30.5q-16 0 -16 19q0 8 5.5 13.5t11.5 5.5l11 -1q4 0 5 4q10 27 10 56q0 42 -18 70.5t-55 29.5q-30 0 -55.5 -21.5t-44 -58.5t-31.5 -77t-22 -87
q-19 -97 -19 -195q0 -124 33.5 -231.5t90.5 -110.5q25 5 47.5 22t41.5 50.5t32 60t27.5 75t20 69.5t17.5 69q8 40 15 60q3 6 8 6q7 0 7 -7l-1 -3l-15 -59q-38 -151 -65 -215q-57 -129 -134 -142q-14 -2 -22 -2z" />
    <glyph glyph-name="D" unicode="D" horiz-adv-x="527" 
d="M220 -189q-30 0 -48.5 19.5t-18.5 52.5q0 58 58.5 131t141.5 131q11 85 11 174q0 105 -17 187q-28 126 -81 126q-157 -62 -187 -689q-1 -15 -9 -20.5t-26 -6.5q-21 0 -24 19q-20 120 -20 303q0 176 19 284q3 24 33 24q34 -2 34 -26v-5q-22 -185 -22 -324q0 -65 6 -143
q42 559 202 602q12 3 24 3q77 0 113 -132q24 -94 24 -230q0 -49 -3 -94l102 64q2 1 4 1q7 0 7 -7q0 -5 -3 -6l-112 -70q-5 -48 -18 -103t-36.5 -118.5t-64 -105t-89.5 -41.5zM222 -174q25 2 48.5 37t39 88.5t24.5 95.5t15 78q-111 -85 -158 -170q-23 -38 -23 -73
q0 -24 14 -40t36 -16h4z" />
    <glyph glyph-name="E" unicode="E" horiz-adv-x="462" 
d="M181 -174q-89 0 -135 62.5t-46 154.5q0 99 51 183t135 101q-58 22 -90.5 64t-32.5 96q0 71 43 124t114 53q135 -8 135 -151q-1 -24 -4.5 -33.5t-14.5 -9.5q-17 2 -17 18q0 11 11 17t11 10q-1 57 -27.5 93.5t-82.5 39.5q-48 0 -77.5 -54.5t-29.5 -112.5q0 -55 25 -98.5
t76 -50.5q6 -2 6 -8q0 -8 -7 -9q-39 -5 -71 -33t-50.5 -68t-28 -82t-9.5 -80q0 -81 39 -145t105 -64h3q37 5 69.5 29t54 56.5t42 79.5t33 86.5t28 88.5t26.5 75q1 4 6 4q8 0 8 -7v-3q-14 -32 -33.5 -94t-37.5 -110.5t-43.5 -99.5t-64 -82.5t-87.5 -37.5q-22 -2 -32 -2z" />
    <glyph glyph-name="F" unicode="F" horiz-adv-x="437" 
d="M288 -126h-4q-29 0 -30 19q-6 73 -6 153q0 87 11 289q-22 0 -60 -2q-8 0 -8 8q0 7 7 7q40 2 62 2q15 232 29 297l-47 2q-43 0 -80 -7.5t-71 -24t-54.5 -49t-22.5 -77.5q0 -57 31 -85l4 -2q2 0 8 3.5t12 3.5q5 0 8 -1q9 -3 9 -14q0 -17 -16 -17q-34 5 -52 36t-18 72
q8 177 241 177q46 0 159 -13q110 -12 136 -12q39 0 75 15l2 1q7 0 7 -8q0 -4 -4 -7q-35 -15 -80 -15q-27 0 -184 16q-16 -99 -28 -290h64q7 0 7 -7q0 -8 -7 -8h-65q-10 -150 -10 -285q0 -27 6 -153q0 -20 -31 -24z" />
    <glyph glyph-name="G" unicode="G" horiz-adv-x="485" 
d="M224 -151q-31 0 -52.5 25t-21.5 61q0 94 164 222q8 91 8 174l-2 77q-8 -47 -19.5 -91.5t-31.5 -98.5t-50.5 -91t-67.5 -46q-17 -4 -36 -4q-57 0 -86 51.5t-29 133.5q0 88 28 175t83.5 148.5t124.5 63.5q69 0 69 -55q-2 -30 -20 -30q-18 2 -18 18q1 9 11 16t10 9
q-4 27 -49 27l-11 -1q-33 -4 -72 -63.5t-66 -147t-27 -163.5q0 -39 5 -67q4 -21 10.5 -41t20.5 -39.5t31 -19.5q42 3 76.5 44t55.5 104t33.5 122.5t18.5 117.5q0 26 37 28q29 0 33 -22q2 -6 2 -68q0 -119 -7 -214q57 37 106 57l3 1q8 0 8 -8q0 -4 -5 -7q-51 -20 -114 -62
q-26 -301 -131 -333q-10 -3 -22 -3zM203 -129q11 0 27 14q62 59 82 251q-96 -77 -132 -146q-14 -26 -14 -57q0 -42 28 -60q6 -2 9 -2z" />
    <glyph glyph-name="H" unicode="H" horiz-adv-x="712" 
d="M534 -145q-37 0 -52 15q-32 30 -52 122.5t-26 213.5q-36 -17 -147 -54q-18 -177 -85 -234q-37 -30 -89 -30q-38 0 -60.5 23t-22.5 61q0 25 10 48q23 62 176 121q7 68 7 145q0 212 -49 295q-4 4 -4 11q0 14 15 26t31 12q20 0 30 -20q48 -117 48 -322q0 -57 -5 -120
q98 33 145 53l-1 51q0 69 3 121t12 114t30.5 103t54.5 56q27 13 64 13q54 0 54 -95q-4 -97 -41 -185.5t-103 -146.5q0 -34 2.5 -82.5t9.5 -123t25.5 -124.5t45.5 -50q33 3 62.5 73.5t57 181.5t34.5 130q1 5 6 5q8 0 8 -7v-3q-6 -16 -32.5 -124t-58 -184.5t-68.5 -84.5
q-20 -4 -35 -4zM72 -96q33 0 59 40q36 57 53 181q-139 -54 -161 -110q-9 -23 -9 -42q0 -30 17.5 -49.5t40.5 -19.5zM477 271q60 58 95 149.5t35 168.5q0 37 -11 56t-28 19q-22 0 -44 -31.5t-31 -87.5q-17 -87 -17 -253z" />
    <glyph glyph-name="I" unicode="I" horiz-adv-x="291" 
d="M174 -103h-5q-35 0 -35 19q0 70 17.5 301t17.5 318q0 102 -18 105q-38 -3 -86 -78q-49 -73 -50 -132q0 -12 6 -12q2 0 6.5 1t6.5 1q14 0 14 -17q0 -8 -6 -15t-14 -7q-10 0 -18.5 13t-9.5 33q0 59 52 143q30 46 55 65t55 21q27 0 46.5 -14t22.5 -40q4 -28 4 -76
q0 -80 -16.5 -289.5t-16.5 -294.5v-26q0 -16 -28 -19z" />
    <glyph glyph-name="J" unicode="J" horiz-adv-x="372" 
d="M73 -132q-34 0 -53.5 24t-19.5 59q7 99 105 147l90 45q7 62 7 140q0 146 -20 292q-10 79 -35 79l-6 -1q-42 -22 -78 -77.5t-36 -109.5q0 -17 5 -35q2 -6 13 -6.5t15 -5.5q3 -5 3 -9q0 -7 -5 -13t-14 -6q-14 0 -23 24.5t-9 51.5q0 64 44.5 127t95.5 79q18 5 29 5
q40 0 55 -45q15 -44 25.5 -133.5t10.5 -183.5q0 -76 -7 -133q79 46 108 77q3 2 5 2q5 0 7 -6q0 -4 -2 -6q-42 -40 -120 -86q-29 -247 -152 -289q-20 -7 -38 -7zM56 -114q30 0 56 27.5t42 69t25.5 78t13.5 65.5q-13 -7 -81 -41q-90 -44 -97 -135q0 -51 39 -64h2z" />
    <glyph glyph-name="K" unicode="K" horiz-adv-x="436" 
d="M52 -103q-17 0 -24 13q-12 29 -20 131t-8 224q0 292 32 376q7 17 37 17q46 -3 46 -29v-4q-32 -168 -39 -370q27 22 48.5 77t34 106.5t39.5 96t66 50.5l11 1q19 0 39 -14t20 -27q0 -7 -6 -12t-14 -5q-15 0 -15 14q0 3 1 8.5t1 7.5q0 13 -26 13l-9 -1q-33 -5 -56.5 -44
t-35.5 -86t-32 -101.5t-43 -81.5l9 1q22 0 45 -14q28 -19 60.5 -87t59 -127t43.5 -63q31 6 54.5 63.5t41.5 133.5t26 93q2 5 6 5q8 0 8 -7l-1 -4q-6 -14 -25 -94.5t-45.5 -139t-62.5 -64.5q-4 -1 -17 -1q-29 0 -44 7q-20 10 -44.5 54.5t-43.5 92t-43.5 86t-45.5 38.5l-5 -1
v-57q0 -56 1.5 -105.5t3.5 -75t4 -48.5t2 -24q0 -18 -34 -22z" />
    <glyph glyph-name="L" unicode="L" horiz-adv-x="400" 
d="M416 -107q-35 0 -74.5 14.5t-91.5 41t-74 35.5q-22 -50 -47.5 -65t-61.5 -15q-29 0 -48 12.5t-19 37.5q0 24 28.5 42t72.5 18l20 -1q18 56 33 234q11 127 11 252q0 28 -2 73.5t-2 58.5q0 26 31 28q33 0 36 -24q9 -65 9 -191q0 -308 -56 -447q26 -10 73.5 -34.5
t86.5 -39.5t75 -15t69 17q7 3 7.5 15.5t5.5 16.5t12 4t12 -5t5 -12q0 -12 -27 -28q-42 -23 -84 -23zM66 -82q7 1 13 6t12 17t9 17.5t9 22t6 17.5q-11 3 -24 3q-29 0 -52 -12.5t-24 -35.5q0 -14 11.5 -25t31.5 -11z" />
    <glyph glyph-name="M" unicode="M" horiz-adv-x="829" 
d="M658 -113q-52 0 -67 33q-15 37 -15 136q0 91 15.5 286.5t15.5 243.5q0 54 -12 54q-37 -10 -84.5 -106t-84 -211.5t-60.5 -200.5t-26 -96q-3 -18 -35 -18q-19 1 -24 10t-5 30v10q0 56 7.5 170t7.5 169q0 117 -23 117l-4 -1q-50 -20 -105.5 -207.5t-81.5 -386.5
q-2 -21 -34 -21q-29 0 -30 14q-13 103 -13 250q1 178 19 365q3 28 46 28q38 -2 38 -26l-1 -5q-30 -172 -30 -425q0 -70 1 -103q34 198 86.5 360.5t106.5 172.5q5 1 13 1q75 0 75 -214q0 -47 -11 -220q151 538 251 559l14 2q43 0 59 -48.5t16 -145.5q0 -72 -12 -222
q-17 -195 -17 -250q0 -88 18 -88q22 1 50 67t60 161t47 126q3 5 7 5q7 0 7 -7l-1 -4q-14 -31 -48 -130.5t-64 -164t-56 -68.5z" />
    <glyph glyph-name="N" unicode="N" horiz-adv-x="563" 
d="M402 -130q-30 0 -43 6q-69 33 -69 217q0 116 37 370q2 12 11 83t9 84v2q-45 -2 -93.5 -94t-84.5 -219.5t-60 -234t-32 -165.5q-1 -21 -34 -21q-29 0 -30 14q-13 103 -13 250q1 191 20 365q1 13 14 20.5t30 7.5q15 0 27 -7t12 -19l-1 -5q-27 -165 -30 -403q0 -47 2 -131
q14 78 47.5 212.5t76.5 245.5q40 103 77 151t83 49q32 0 41 -14q16 -23 16 -97q0 -67 -19 -254t-19 -262q0 -135 45 -135q2 0 5 0.5t4 0.5q21 6 47.5 76.5t54 172t34.5 121.5q3 5 7 5q8 0 8 -6l-1 -4q-7 -18 -34 -120.5t-56 -176.5t-56 -82q-11 -3 -33 -3z" />
    <glyph glyph-name="O" unicode="O" horiz-adv-x="513" 
d="M190 134q59 0 147 30q5 50 5 97q0 122 -27 212q-40 152 -130 152q-90 -4 -139 -114q-31 -72 -31 -162q0 -79 27 -133q9 158 48 255q6 15 28 15q14 0 25.5 -8.5t11.5 -21.5q0 -1 -2 -9q-12 -36 -26.5 -124t-17.5 -173q36 -16 81 -16zM217 -107q96 22 118 255
q-82 -28 -145 -28q-46 0 -81 14v-23q0 -215 108 -218zM198 -123q-12 0 -19 1q-138 21 -138 276v35q-41 61 -41 160q0 92 32 168q26 60 63 90.5t92 32.5q66 0 112.5 -55.5t67 -137.5t20.5 -179q0 -38 -5 -85q76 34 131 77q2 2 5 2q7 0 7 -8q0 -3 -3 -6q-61 -47 -141 -82
q-16 -126 -62.5 -207.5t-120.5 -81.5z" />
    <glyph glyph-name="P" unicode="P" horiz-adv-x="477" 
d="M45 -112h-4q-29 0 -29 19q-12 131 -12 261q0 185 25 348q1 7 11.5 12.5t24.5 5.5q35 0 35 -21v-5q-12 -60 -19 -214q12 64 28 120t37 107.5t49 81.5t59 30h16q30 0 49.5 -7t33.5 -30q33 -53 33 -145q0 -114 -44 -212q105 6 140 22l3 1q7 0 7 -8q0 -4 -4 -7
q-34 -16 -154 -24q-30 -58 -71 -88q-23 -16 -74 -16q-22 0 -34 11.5t-12 29.5q0 34 39 54q25 14 84 19q40 112 40 247q0 139 -53 139q-32 -1 -61.5 -44.5t-51.5 -114t-37 -136t-26 -134.5l-1 -105q0 -100 5 -173q0 -10 -9.5 -16.5t-22.5 -7.5zM183 134q19 2 48 39
q13 18 24 45q-49 -6 -70 -17q-32 -17 -32 -41t30 -26z" />
    <glyph glyph-name="Q" unicode="Q" horiz-adv-x="544" 
d="M222 134q67 0 147 31q5 50 5 97q0 121 -26 211q-43 152 -132 152q-90 -4 -138 -114q-31 -72 -31 -163q0 -79 27 -132q11 163 48 255q6 16 28 16q14 0 25.5 -8.5t11.5 -22.5q0 -2 -2 -8q-11 -34 -26 -123t-18 -175q36 -16 81 -16zM486 -167q-25 0 -57.5 11.5t-55.5 23.5
t-64 35l-4 3q-32 -29 -73 -29q-59 5 -90.5 33t-50.5 86l-16 1q-31 0 -65 -15l-3 -1q-7 0 -7 8q0 4 4 7q33 15 70 15h13q-14 59 -14 140v38q-40 58 -40 160q0 93 31 168q27 60 64 90t93 33q66 0 112 -56.5t66 -138t20 -177.5q0 -40 -5 -85q76 34 131 77q2 2 5 2q8 0 8 -7
q0 -3 -4 -6q-55 -44 -141 -82q-23 -176 -96 -251q39 -22 61.5 -34t53 -22.5t54.5 -10.5t44 10q4 2 5 18.5t15 16.5q6 0 12.5 -4.5t6.5 -11.5q0 -17 -27.5 -31t-55.5 -14zM300 -75q53 60 67 223q-80 -29 -144 -29q-47 0 -82 15v-26q0 -65 11 -110q58 -20 148 -73zM249 -106
q22 4 41 20q-85 48 -133 66q25 -85 92 -86z" />
    <glyph glyph-name="R" unicode="R" horiz-adv-x="471" 
d="M48 -111h-7q-26 0 -29 18q-12 138 -12 274q0 193 26 359q3 20 37 20q36 -2 36 -22q-17 -171 -20 -232q28 142 66 233q28 69 56 96t71 28q40 0 63.5 -12t35.5 -49q14 -44 14 -87q0 -94 -56 -176.5t-138 -110.5q31 -3 50 -19q23 -21 41 -63t26.5 -79.5t20 -66.5t25.5 -30
q26 0 46.5 50.5t51.5 160.5q3 10 4 15q8 35 17 61q1 5 6 5q8 0 8 -7v-2q-3 -8 -17 -60q-17 -63 -26 -92t-24 -68.5t-29.5 -56.5t-31.5 -20q-2 0 -13.5 -1.5t-17.5 -1.5q-19 0 -36 9q-25 14 -42.5 51.5t-25.5 75t-25 73t-41 47.5q-9 5 -20.5 6.5t-17 2.5t-5.5 6q0 8 8 9
q67 15 111.5 62.5t61 105.5t16.5 126q0 50 -13 85t-41 35q-33 -1 -63.5 -45t-53.5 -117t-38.5 -141t-27.5 -143l-1 -105q0 -34 5 -184q0 -9 -9.5 -15.5t-21.5 -7.5z" />
    <glyph glyph-name="S" unicode="S" horiz-adv-x="541" 
d="M214 -103q-18 0 -39 3q-36 9 -56.5 38.5t-20.5 67.5q0 15 3 28q6 27 20.5 47.5t30.5 32.5t43.5 23t48.5 16.5t58.5 15t61.5 16.5q-9 39 -37 68t-62 47t-67.5 38.5t-56.5 54t-25 80.5q-63 13 -106 38q-10 6 -10 16q0 8 5.5 14.5t12.5 6.5q9 0 13.5 -6t4.5 -12l-1 -11
q0 -3 3 -5q44 -19 78 -26q4 74 61 126t133 52q40 0 62.5 -22t23.5 -59q0 -57 -55 -87q-57 -33 -141 -33h-14q5 -33 28.5 -57.5t55 -41.5t64 -36t60.5 -50t40 -73q61 21 111 54l4 1q7 0 7 -8q0 -3 -3 -6q-52 -33 -115 -56q5 -25 5 -46q0 -88 -57.5 -161.5t-144.5 -85.5
q-20 -2 -27 -2zM197 480q67 0 125.5 26t58.5 78q-1 29 -18.5 48t-46.5 19q-59 0 -95.5 -49t-36.5 -111v-11h13zM199 -88q51 0 111 61.5t60 155.5q0 20 -3 41l-58 -15q-38 -9 -57 -14.5t-47 -16t-42.5 -22t-28 -30t-19.5 -42.5q-3 -12 -3 -24q0 -39 24 -66.5t63 -27.5z" />
    <glyph glyph-name="T" unicode="T" horiz-adv-x="440" 
d="M300 -127q-26 0 -27 19q-11 65 -11 179q0 156 16.5 341.5t29.5 237.5q-101 16 -168 16q-65 0 -96 -13q-7 -2 -7 -12v-11q0 -16 -17 -16q-7 0 -13.5 4.5t-6.5 11.5q0 8 8 16q30 35 133 35q76 0 194 -21q137 -26 215 -27q37 0 52 5q5 1 6.5 10.5t4.5 12.5q5 5 10 5
q6 0 11 -5t5 -12q0 -15 -25 -23t-65 -8q-60 2 -166 19q-19 -112 -35 -297t-16 -329q0 -33 5 -113q0 -11 -11.5 -18t-25.5 -7z" />
    <glyph glyph-name="U" unicode="U" horiz-adv-x="486" 
d="M337 -130q-21 0 -35 15q-57 52 -57 325q0 120 11 255q-86 -413 -141 -414l-13 -1q-30 0 -43 15q-59 64 -59 296q0 152 22 262q3 20 35 20q43 -2 43 -27v-3q-25 -125 -25 -287l1 -51q1 -21 2.5 -49t6 -66t12.5 -64.5t18 -29.5q56 6 158 565q1 21 38 21q37 -2 37 -27v-7
q-20 -105 -33 -302q-3 -57 -3 -147q0 -283 36 -283q15 0 40 69t55 167.5t46 135.5q1 4 6 4q8 0 8 -8v-2q-17 -37 -48 -138.5t-58 -171t-48 -71.5z" />
    <glyph glyph-name="V" unicode="V" horiz-adv-x="443" 
d="M202 -127q-32 0 -43 14q-36 38 -60 159t-49 304t-49 285l-1 6q0 21 38 23q35 0 44 -25q27 -90 54.5 -282.5t48 -329.5t39.5 -137q41 12 79 145.5t76 332.5t53 253l1 4q0 5 -6 13t-6 14q0 8 6.5 14t13.5 6q17 -2 17 -15q-3 -17 -14 -47q-17 -56 -43.5 -190t-48.5 -243
t-56 -201t-69 -100q-11 -3 -25 -3z" />
    <glyph glyph-name="W" unicode="W" horiz-adv-x="664" 
d="M419 -136q-25 0 -41 9q-103 65 -120 481q-8 -50 -25 -132t-49 -177t-58 -97h-17q-28 0 -41 8q-66 51 -68 271q0 122 18.5 260t31.5 175q6 13 36 13q16 -1 25.5 -3t16.5 -9t7 -18l-1 -6q-49 -222 -52 -452q0 -216 46 -223q26 0 77 207.5t51 280.5v3q0 32 47 36
q35 0 35 -32q0 -45 3.5 -119.5t12.5 -188t32 -191t55 -77.5l8 1q61 27 106 213.5t45 375.5q0 91 -11 149q-1 5 -14.5 11t-16.5 24q0 22 21 25q3 0 6 -1t5 -3t4 -4.5t3 -6t2 -6.5t1.5 -7.5t1 -6.5t1 -6.5t0.5 -6.5q11 -62 11 -159q0 -200 -49 -396t-121 -213q-14 -2 -25 -2z
" />
    <glyph glyph-name="X" unicode="X" horiz-adv-x="572" 
d="M18 -120q-8 0 -13 5.5t-5 12.5q0 6 3 10q4 7 16 7.5t15 4.5q24 37 83.5 134t77.5 125q-54 193 -79 470q0 28 52 32q36 0 37 -27q10 -187 49 -380q208 328 275 406q7 9 16 9q16 0 16 -19q0 -7 -5 -11.5t-11 -4.5l-13 1q-4 0 -7 -3q-69 -89 -266 -399q7 -32 18.5 -75
t32.5 -110.5t47 -112t49 -44.5h4q17 9 35 34.5t37.5 71t31 75.5t31.5 85l30 80q2 5 7 5q7 0 7 -7v-3q-8 -20 -27 -72t-35.5 -94.5t-37.5 -88.5t-44 -74t-44 -31l-21 -2q-28 0 -54 17q-67 48 -125 253q-77 -122 -167 -270q-6 -10 -16 -10z" />
    <glyph glyph-name="Y" unicode="Y" horiz-adv-x="441" 
d="M157 -138l-12 1q-46 5 -69.5 32.5t-23.5 66.5q0 35 18 67t51.5 59t67.5 46.5t80 41.5q5 60 5 149q0 137 -12 257q-80 -415 -145 -442q-12 -6 -26 -6q-20 0 -36 10q-55 33 -55 216q0 79 9.5 162t17.5 105q8 21 38 21q38 -2 38 -28l-1 -4q-25 -135 -27 -323q0 -142 31 -142
q2 0 6 2q22 10 46 71.5t45 152.5t32.5 146.5t20.5 108.5v1q0 14 13.5 23t30.5 9q30 0 30 -23q14 -142 14 -289q0 -86 -5 -146q82 36 106 53q2 2 5 2q7 0 7 -8q0 -4 -3 -5q-25 -19 -116 -59q-18 -200 -79 -276q-42 -52 -102 -52zM147 -123q20 1 41 25t33 48q33 68 47 209
q-201 -94 -201 -197q0 -33 20 -57t60 -28z" />
    <glyph glyph-name="Z" unicode="Z" horiz-adv-x="643" 
d="M576 -135q-63 0 -187 54.5t-144 60.5q-51 -58 -88 -84.5t-82 -28.5q-29 0 -52 13t-23 38q0 21 19.5 45t52.5 35q36 14 77 14q23 0 40 -4q91 110 191 269q-40 10 -74 10q-60 0 -99 -35q-2 -2 -5 -2q-7 0 -7 8q0 3 2 5q46 39 108 39q37 0 83 -12q138 224 138 313l-2 16
q-10 50 -113 50q-74 0 -129 -17q-61 -19 -101 -52.5t-40 -75.5l1 -14q1 -7 11 -9t12 -11q0 -6 -5 -12t-11 -6q-10 0 -16.5 17t-6.5 35q0 50 47.5 88t110 55.5t123.5 17.5q74 0 121 -23q37 -17 50 -35t13 -42q0 -98 -131 -314q42 -10 69 -10q7 0 13 1t12.5 2.5t11.5 2.5
q7 0 7 -8q0 -13 -44 -13q-29 0 -77 12q-94 -149 -196 -266q38 -12 102.5 -43t118.5 -50.5t99 -19.5q40 0 76 18q6 3 7 13.5t5 13.5q3 3 8 3q6 0 11.5 -5.5t5.5 -10.5q0 -8 -11 -16q-46 -30 -102 -30zM42 -107q50 0 136 102l-28 2q-38 0 -73 -13q-30 -11 -46 -30t-16 -36
q0 -25 27 -25z" />
    <glyph glyph-name="bracketleft" unicode="[" horiz-adv-x="188" 
d="M142 -28h-85q-8 0 -8 9v631q0 8 8 8h85q7 0 7 -7q0 -8 -7 -8h-41v-618h41q7 0 7 -7q0 -8 -7 -8z" />
    <glyph glyph-name="backslash" unicode="\" horiz-adv-x="337" 
d="M283 9q-11 0 -14 10q-145 361 -245 542q-2 6 -2 7q0 17 19 17q8 0 12 -6q36 -53 127 -261.5t117 -283.5q2 -4 2 -9q0 -16 -16 -16z" />
    <glyph glyph-name="bracketright" unicode="]" horiz-adv-x="168" 
d="M115 -28h-85q-7 0 -7 7q0 8 7 8h41v618h-41q-7 0 -7 7q0 8 7 8h85q8 0 8 -9v-631q0 -8 -8 -8z" />
    <glyph glyph-name="asciicircum" unicode="^" horiz-adv-x="217" 
d="M155 510q-8 0 -11 7q-4 10 -11 28.5t-13 33.5t-12 28q-6 -12 -20 -36l-28 -56q-2 -5 -7 -5q-7 1 -7 7q2 8 6.5 18t11.5 22.5t11 20.5q27 55 38 55q5 0 7 -3q11 -19 45 -105l1 -5q0 -8 -11 -10z" />
    <glyph glyph-name="underscore" unicode="_" horiz-adv-x="473" 
d="M404 -47h-348q-13 0 -15 13q0 16 15 16h348q14 0 14 -14q0 -15 -14 -15z" />
    <glyph glyph-name="grave" unicode="`" horiz-adv-x="145" 
d="M108 549q-4 0 -6 2t-27.5 23.5t-37.5 33.5q-2 2 -2 5q0 6 6.5 13t12.5 7q4 0 6 -3l56 -64q2 -2 2 -6t-3 -7.5t-7 -3.5z" />
    <glyph glyph-name="a" unicode="a" horiz-adv-x="310" 
d="M175 4q-13 0 -23 7q-30 19 -30 135q0 22 3 76q-42 -135 -72 -139l-8 -1q-58 0 -58 99l1 25q5 51 29 97t64 46l13 -1q25 -5 41 -30l4 19q5 18 31 18q12 0 21 -6.5t9 -18.5l-1 -4q-19 -180 -19 -237q0 -29 3 -49q2 -19 6 -19q16 5 40.5 51t51 110.5t31.5 75.5q3 4 7 4
q7 0 7 -7q0 -2 -1 -4q-4 -8 -32.5 -77.5t-53.5 -115t-46 -51.5q-9 -3 -18 -3zM51 97q8 0 17.5 16.5t19.5 43.5t18 52t15.5 51.5t9.5 32.5q-5 16 -15 26q-12 10 -23 14q-15 -9 -31.5 -86t-16.5 -125q0 -18 3 -24z" />
    <glyph glyph-name="b" unicode="b" horiz-adv-x="368" 
d="M143 -34l-9 1q-30 1 -30 44q8 63 85 138l1 28q0 124 -23 135q-31 -8 -57 -60q-27 -55 -37 -146q-1 -14 -30 -19q-17 0 -23 15q-21 75 -21 195q0 59 8 125q23 149 89 192q19 10 52 10l17 -1q44 0 44 -69q-2 -69 -44.5 -149t-99.5 -108v-47q0 -28 2 -80q10 50 30 88
q17 37 36 52.5t49 17.5q41 0 58.5 -37.5t18.5 -85.5q57 37 114 56l4 1q4 0 6 -5l1 -3q0 -5 -6 -7q-61 -20 -118 -59q0 -5 -1 -7q-1 -84 -30 -144q-12 -26 -36.5 -48.5t-49.5 -22.5zM135 -19q42 8 53 145q-64 -68 -69 -125q0 -19 16 -20zM65 314q54 31 91 104.5t39 141.5
q0 47 -31 48q-55 0 -80 -120q-16 -74 -19 -174z" />
    <glyph glyph-name="c" unicode="c" horiz-adv-x="230" 
d="M72 -12q-10 0 -15 1q-75 17 -75 157q0 26 4 58q10 67 39 113.5t69 46.5h6q19 -2 32 -14.5t13 -31.5v-5q-2 -15 -7 -25q-4 -9 -13 -9l-6 2q-7 3 -7 11q0 5 1 7q2 5 9 8t8 6l1 6q0 17 -19 27h-1q-8 0 -17.5 -20t-17 -49.5t-12.5 -51t-7 -35.5q-7 -52 -7 -96q0 -90 31 -91
q33 0 65.5 55.5t57.5 125.5t28 75q3 3 6 3t5 -2t2 -5t-1 -4q-2 -4 -26.5 -73t-58.5 -126.5t-71 -62.5q-5 -1 -16 -1z" />
    <glyph glyph-name="d" unicode="d" horiz-adv-x="365" 
d="M45 104q6 0 12.5 4.5t13 14t12.5 19.5t12.5 26t11 27.5t10.5 29.5t8.5 27.5t8 26.5t6.5 21q-17 26 -52 33q-15 -6 -30 -83t-15 -125q0 -13 2 -21zM206 1q-20 0 -30 12q-38 45 -38 198v32q-50 -154 -94 -154q-29 0 -41.5 32.5t-12.5 73.5q0 17 2 31q8 51 31.5 86.5
t56.5 35.5h5q34 -3 58 -27q8 96 28 175.5t46 107.5q23 25 70 25q31 -1 51 -20.5t20 -62.5v-3q-2 -68 -49 -145.5t-105 -104.5q-4 -48 -4 -120q0 -156 27 -156h1q10 1 24 19.5t36 60.5t35.5 70.5t42.5 89.5q2 5 7 5q2 0 4 -1q4 -2 4 -6q0 -1 -1 -3q-84 -176 -113 -217
q-23 -32 -39 -33zM206 310q53 29 94.5 102.5t42.5 132.5v3q0 65 -55 65h-2q-28 -1 -49.5 -99.5t-30.5 -203.5z" />
    <glyph glyph-name="e" unicode="e" horiz-adv-x="218" 
d="M83 253q13 0 25 11.5t18 26.5q2 6 2 16q0 26 -25 30q-19 -1 -37 -79q8 -5 17 -5zM92 59q-14 0 -27 3q-37 9 -56 46t-19 86q0 52 19.5 97t50.5 57q15 5 29 5l15 -1q39 -4 39 -44q0 -10 -3 -19q-6 -21 -22 -36t-35 -15q-8 0 -20 5q-9 -42 -9 -94q0 -72 28 -75h5q37 0 76 63
q28 48 55 120q2 5 7 5l4 -1q3 -1 3 -6v-3q-28 -77 -56 -122q-41 -68 -84 -71z" />
    <glyph glyph-name="f" unicode="f" horiz-adv-x="282" 
d="M76 316q50 17 90 80t50 126q2 10 2 28q0 62 -45 62h-3q-68 -8 -94 -296zM109 -58q27 10 27 73q0 40 -16 79t-49 64q4 -211 38 -216zM88 -77q-18 0 -35 17q-55 59 -55 266q0 129 25.5 244t69.5 156q21 21 73 21l14 -1q53 -5 53 -76q0 -17 -3 -32q-11 -69 -56 -135.5
t-99 -82.5q-4 -53 -4 -121l13 -1q52 0 110 25.5t92 56.5q2 2 5 2q7 0 7 -8q0 -3 -2 -5q-36 -32 -95.5 -58t-112.5 -27q63 -54 63 -149q0 -34 -11 -59t-29 -29t-23 -4z" />
    <glyph glyph-name="g" unicode="g" horiz-adv-x="312" 
d="M87 -191h-8q-67 7 -67 80l1 13q5 56 39 105t90 102v33l-1 78q-12 -54 -29 -92q-27 -62 -64 -66h-5q-28 0 -42 31t-14 79q0 54 17 103.5t44 64.5q11 6 32 6l11 -1q26 -4 43 -22l-1 11q0 11 12 19t26 8q25 0 29 -22q10 -55 10 -148v-21q6 5 47 39.5t59 50.5q2 2 5 2
q7 0 7 -8q0 -3 -2 -5q-20 -17 -61 -52t-55 -47q-5 -218 -47 -293q-26 -48 -76 -48zM53 78q25 8 45 56q31 68 39 154v1q0 14 -16 26t-31 15q-17 -3 -29.5 -79.5t-12.5 -137.5q0 -35 5 -35zM79 -176q56 7 62 264q-106 -102 -113 -188l-1 -14q0 -57 52 -62z" />
    <glyph glyph-name="h" unicode="h" horiz-adv-x="345" 
d="M64 315q42 20 78.5 91.5t44.5 135.5l2 25q0 46 -26 46h-1q-28 0 -48.5 -35t-30.5 -89.5t-14 -95.5t-5 -78zM225 -29h-1q-19 1 -29.5 2.5t-22 8.5t-16.5 20q-9 24 -9 62q0 44 13 129t13 103q0 10 -1 14q-23 -9 -49 -59q-28 -58 -44 -141v-1q0 -16 -25 -21q-5 -1 -15 -1
q-23 0 -24 12q-15 65 -15 175q0 88 13 165q26 149 95 179q24 10 54 10q42 0 42 -62l-2 -24q-8 -70 -49.5 -147t-87.5 -96h-1v-25q0 -80 8 -128q16 65 38 112q29 56 58 67q10 4 26 4q23 0 31 -9q11 -14 11 -51q0 -33 -12 -119q-13 -78 -13 -119q0 -45 15 -46h1q8 0 22 23.5
t29 61.5t28 73t25 70.5t15 42.5q2 6 7 6l3 -1q5 -2 5 -6l-1 -3q-4 -9 -16.5 -46t-26 -73.5t-29.5 -75t-33 -62.5t-30 -24z" />
    <glyph glyph-name="i" unicode="i" horiz-adv-x="165" 
d="M65 68q-15 0 -26 3q-42 15 -42 135q0 56 5 78q1 23 33 23h3q12 0 21 -5.5t9 -14.5v-1q0 -6 -4 -55.5t-4 -78.5q0 -69 20 -69q11 0 21 11.5t20.5 35.5t16.5 40t16.5 49t12.5 38t7 5l4 -1q3 -1 3 -6v-3q-2 -6 -13.5 -41t-18 -51.5t-18.5 -41.5t-24.5 -36.5t-26.5 -12.5z
M40 346q-10 0 -18 8t-8 18q0 11 8 19q9 7 18 7q10 0 19 -7q7 -9 7 -19t-8 -18t-18 -8z" />
    <glyph glyph-name="j" unicode="j" horiz-adv-x="177" 
d="M31 358q-12 0 -19.5 8t-7.5 18q0 11 8 19q9 7 19 7q9 0 18 -7q8 -8 8 -19q0 -10 -7.5 -18t-18.5 -8zM-33 -168q-21 0 -38 10q-35 20 -35 70q0 8 2 24q3 18 10.5 37t17 36t20 33t21 28.5t19 22t13.5 15.5l5 5v40q0 84 -4 144v1q0 19 33 23h3q30 0 31 -22q4 -52 4 -122
q57 46 113 84q1 1 4 1t6 -3q1 -1 1 -4t-3 -6q-73 -51 -120 -92q0 -275 -69 -316q-13 -9 -34 -9zM-48 -151q15 1 25.5 31t15 76t6.5 77t3 58q-80 -87 -92 -157l-2 -20q0 -57 44 -65z" />
    <glyph glyph-name="k" unicode="k" horiz-adv-x="374" 
d="M232 -29q-24 0 -36 7q-24 14 -36 70t-23 111.5t-34 67.5q-20 -61 -32 -129q-1 -18 -29 -20h-4q-25 0 -26 17q-12 47 -12 160q0 105 12 184q23 159 81 183q18 7 37 7h5q63 0 63 -74q-1 -62 -44 -140t-92 -108v-39q0 -71 4 -120q8 35 20.5 74.5t32.5 86t48 78t58 33.5h6
q25 0 38.5 -18.5t13.5 -46.5q0 -29 -14 -59q-31 -65 -96 -75q19 -20 28.5 -79.5t16.5 -107.5t23 -48h1q15 6 30 26.5t30.5 54.5t26 61.5t25.5 70.5t21 58q2 5 7 5l3 -1q5 -2 5 -6l-1 -3q-5 -13 -21.5 -60.5t-27 -73.5t-27 -62t-33 -56t-33.5 -27q-4 -2 -15 -2zM122 240
q28 0 54.5 26t38.5 58q17 40 17 64q0 16 -11 16l-5 -1q-56 -15 -108 -161zM63 325q43 32 81 103.5t39 127.5q0 58 -47 59q-30 -6 -49 -90.5t-24 -199.5z" />
    <glyph glyph-name="l" unicode="l" horiz-adv-x="256" 
d="M70 290q44 34 79.5 101t46.5 128q4 26 4 38q0 59 -41 63h-2q-49 0 -74 -185q-10 -62 -13 -145zM87 -30q-33 0 -48 23q-39 64 -39 242q0 131 23.5 245t63.5 143q19 13 58 13l16 -1q53 -7 53 -79q0 -21 -4 -41q-12 -67 -52.5 -138.5t-88.5 -105.5v-28q0 -247 30 -257
q24 5 53.5 54.5t62.5 124.5t43 93q3 4 7 4q2 0 4 -1q3 -1 3 -6q0 -3 -1 -4q-9 -17 -43.5 -94t-65.5 -127.5t-58 -57.5q-10 -2 -17 -2z" />
    <glyph glyph-name="m" unicode="m" horiz-adv-x="500" 
d="M370 -9q-18 0 -27 5q-27 14 -27 99q0 42 8 123.5t8 100.5q0 13 -1 17q-41 -29 -100 -178q-6 -14 -24 -14l-13 2q-15 4 -15 88q0 38 3.5 103t3.5 74l-1 8q-41 -16 -77 -134q-32 -97 -50 -214q-3 -25 -27 -25h-2q-24 0 -27 22q-4 40 -4 108q0 76 5 109q4 24 33 24
q12 0 21 -7.5t9 -19.5l-6 -119q22 91 34 128q46 145 101 145q11 0 23 -6q25 -14 25 -97q0 -33 -9 -128q64 153 117 153h5q35 -5 35 -99q0 -37 -6.5 -112t-6.5 -98q0 -41 12 -41h2q8 3 20.5 24t26 54.5t25 64t23.5 64t15 42.5q2 5 7 5l3 -1q4 -1 4 -6v-3q-6 -14 -19 -51
t-24 -67t-25 -63t-28 -53.5t-25 -23.5t-25 -3z" />
    <glyph glyph-name="n" unicode="n" horiz-adv-x="344" 
d="M222 -10q-24 0 -35 6q-27 18 -27 106q0 57 12.5 161t12.5 118q0 11 -2 12q-62 -13 -124 -313q-3 -13 -4.5 -18t-7.5 -10.5t-17 -5.5q-26 0 -29 22q-4 38 -4 109q0 76 5 108q3 24 32 24h3q11 -1 19.5 -8t8.5 -18l-6 -132q59 258 130 258h2q28 -2 38 -29q7 -21 7 -61
t-9.5 -133.5t-9.5 -126.5q0 -54 18 -54l5 1q9 3 21 22.5t24 52t22 61.5t21.5 65.5t16.5 49.5q2 5 7 5q7 0 8 -7l-1 -3q-5 -14 -17 -52.5t-22.5 -67.5t-23.5 -62.5t-26.5 -54t-25.5 -23.5q-5 -2 -22 -2z" />
    <glyph glyph-name="o" unicode="o" horiz-adv-x="204" 
d="M68 211q20 0 47 5v12q0 45 -16.5 67.5t-40.5 22.5q-21 0 -39 -15.5t-19 -36.5q2 4 2 6q3 12 22 12l12 -2q21 -6 21 -21l-1 -6q-5 -17 -8 -43q6 -1 20 -1zM55 68q13 1 28 26q23 41 30 107q-25 -5 -44 -5q-9 0 -23 2q-3 -34 -3 -71q2 -51 12 -59zM53 53h-5q-24 0 -34 10
q-27 27 -27 98q0 11 0.5 22t1.5 19.5t2 15t1 10.5l1 4q-13 26 -13 41q0 12 4 21q19 47 66 47q32 0 55.5 -29t23.5 -84v-8q50 15 79 40q2 2 5 2t5 -3q2 -2 2 -5q0 -2 -3 -5q-34 -30 -88 -45q-7 -70 -32 -115q-19 -36 -44 -36z" />
    <glyph glyph-name="p" unicode="p" horiz-adv-x="327" 
d="M24 -167q-23 0 -24 16q-7 55 -7 203q2 163 10 241q2 25 33 25h3q12 0 21 -6t9 -17l-4 -49q9 29 25 59q32 57 74 57q35 -1 50.5 -37.5t15.5 -84.5q0 -16 -2 -36q95 52 103 57q2 1 4 1q5 0 7 -4q1 -1 1 -3q0 -4 -4 -7q-10 -7 -115 -62q-9 -43 -30.5 -80.5t-50.5 -53.5
q-13 -8 -27 -8q-17 0 -27 15q-7 10 -7 22q0 36 79 85q8 35 8 104q0 74 -20 75q-27 -10 -49 -52q-30 -61 -42 -138q-9 -58 -9 -217l1 -85q0 -20 -26 -20zM116 59q20 1 41 87q-59 -38 -59 -65q0 -9 4 -14q5 -8 14 -8z" />
    <glyph glyph-name="q" unicode="q" horiz-adv-x="305" 
d="M192 -168q-20 0 -32 6q-43 23 -43 199q0 91 10 193q-45 -143 -78 -147l-8 -1q-28 0 -41.5 26t-13.5 66q0 33 7 62q11 48 35.5 81t55.5 33l14 -2q24 -5 38 -28q1 4 1 11q3 24 33 24q29 -2 29 -22v-4q-16 -165 -19 -245q17 19 36 43.5t31.5 42.5t32 47t28.5 42q2 3 5 3
t5 -2q3 -2 3 -6q0 -3 -1 -4q-9 -13 -29 -43t-33 -49t-33 -44t-38 -44q28 -8 45 -49t19 -89v-12q0 -79 -31 -85q-12 -3 -28 -3zM45 97q15 1 32 38t35.5 95.5t20.5 63.5q-5 15 -15 25q-8 9 -21 14q-18 -10 -39 -107q-16 -71 -16 -108q0 -15 3 -21zM217 -151q19 4 19 69v11
q-1 39 -15 81t-42 46v-36q0 -171 35 -171h3z" />
    <glyph glyph-name="r" unicode="r" horiz-adv-x="259" 
d="M114 -24q-21 0 -31 13q-16 20 -16 68q0 34 9.5 91t9.5 61l-1 4q-3 6 -21 11t-37 10.5t-35 26t-16 54.5q0 13 3 30q6 34 22.5 51.5t35.5 17.5q4 0 12 -2q20 -9 20 -38l-1 -15q-9 -52 -34 -81q12 -5 37.5 -7t43.5 -7.5t26 -20.5q6 -11 6 -22q0 -5 -1.5 -11.5t-3.5 -15.5
t-3 -15q-26 -116 -26 -157q0 -30 12 -30t27.5 22t32 57.5t30 69t27.5 70t19 47.5q1 4 7 4l3 -1q4 -2 4 -7v-2q-5 -11 -20 -50t-29 -72.5t-31.5 -70.5t-35.5 -59t-33 -23zM20 286q29 24 35 78v9q0 22 -11 25h-3q-11 0 -22 -16t-13 -42l-1 -16q0 -26 15 -38z" />
    <glyph glyph-name="s" unicode="s" horiz-adv-x="264" 
d="M77 -88h-8q-26 0 -43.5 17.5t-17.5 45.5q0 14 4 26q20 64 96 140q-11 13 -54 48.5t-52 62.5q-3 10 -3 22q0 35 29 61.5t65 26.5l12 -1q21 -3 33.5 -15t12.5 -29q0 -13 -7 -27q-6 -11 -16 -11l-5 1q-8 4 -8 12l1 5q2 7 11 9t9 10q0 25 -32 30l-12 1q-21 0 -37 -11.5
t-16 -32.5v-3q1 -21 18.5 -39.5t47.5 -41.5t45 -39q64 55 120 81l3 1q4 0 6 -4l1 -4q0 -5 -4 -6q-57 -28 -116 -79q28 -38 28 -92q0 -10 -2 -30q-8 -51 -39 -90.5t-70 -44.5zM68 -73q8 0 13 1q26 10 39 45t14 75l1 15q0 37 -18 66q-77 -80 -92 -136q-2 -6 -2 -18
q0 -21 12 -34.5t33 -13.5z" />
    <glyph glyph-name="t" unicode="t" horiz-adv-x="228" 
d="M86 -28q-16 0 -28 8q-49 32 -56 223l-1 63q0 107 10 203q-86 8 -123 8q-80 0 -128 -21q-4 -2 -4 -10v-4q0 -13 -7 -20q-8 -5 -16 -5q-12 0 -17 11q-1 2 -1 7q0 18 38 34q48 22 136 22q48 0 123 -7q8 66 18 126q3 19 35 19h4q30 -2 30 -22v-4q-11 -66 -18 -126
q126 -14 184 -14q125 0 186 45q8 5 8 12q0 2 -1.5 6.5t-1.5 7.5q0 4 6 12q5 5 13 5q18 0 18 -15q0 -5 -5 -13q-7 -9 -23 -23q-62 -51 -199 -51q-69 0 -186 13q-12 -125 -12 -245v-44q7 -174 38 -183q22 6 46 56t48.5 124.5t29.5 86.5q3 5 7 5l4 -1q4 -2 4 -7l-1 -3
q-7 -16 -33 -94.5t-51 -127t-52 -54.5q-10 -3 -22 -3z" />
    <glyph glyph-name="u" unicode="u" horiz-adv-x="312" 
d="M182 -25q-13 0 -21 4q-31 14 -31 146q0 32 4 108q-46 -148 -74 -163q-8 -3 -17 -3q-17 0 -24 5q-22 15 -22 106q0 63 5 103q3 24 33 24q17 -1 22.5 -7.5t5.5 -19.5l-1 -19q-9 -67 -9 -145q0 -24 3 -29q27 21 85 221q6 18 26 18l8 -1q25 -4 25 -23v-3q-3 -22 -8 -104
t-5 -139t6 -63q40 2 110 236l10 30q2 5 7 5l4 -1q3 -2 3 -6v-3q-2 -4 -9 -30q-15 -48 -23.5 -72.5t-27.5 -73.5t-38 -74t-36 -26z" />
    <glyph glyph-name="v" unicode="v" horiz-adv-x="317" 
d="M97 -9h-1q-26 0 -37 8q-31 21 -45 98t-14 154l1 33q2 22 32 22h3q32 0 32 -27v-2q-1 -8 -1 -57q0 -213 29 -214h2q26 0 53 56t47 138q-29 16 -49.5 58t-21.5 105v4q0 38 12.5 65.5t34.5 32.5l9 1q49 0 49 -113v-19q-3 -58 -17 -125q4 -1 11 -1q23 0 50.5 17t43.5 34
q3 3 5 3q3 0 5 -2q3 -3 3 -6t-2 -5q-19 -20 -49 -38t-56 -18l-14 2q-20 -85 -51.5 -144.5t-63.5 -59.5zM201 216q13 58 16 120v16q0 100 -32 100l-6 -1q-22 -7 -22 -81q0 -48 12 -93.5t32 -60.5z" />
    <glyph glyph-name="w" unicode="w" horiz-adv-x="448" 
d="M227 -18h-4q-22 2 -34 9q-50 29 -50 166v21q-34 -127 -73 -132h-5q-9 0 -17 2q-25 9 -36 59t-11 111q0 47 5 70q4 21 32 21h6q29 -4 29 -23v-2q-9 -40 -9 -138v-23q2 -53 10 -61q17 8 31.5 45t27 90t13.5 56q3 18 32 18h4q31 -2 31 -22v-4q-8 -40 -8 -146q0 -97 20 -101
l7 -1q35 0 62 59.5t41 144.5q-35 5 -62 44t-32 97l-1 19q0 44 16 72.5t47 28.5h2q29 -1 41.5 -40.5t13.5 -86.5v-18q0 -56 -8 -103q58 2 103 46q2 2 4 2q3 0 5 -2q4 -2 4 -5t-3 -6q-51 -49 -112 -49h-3q-16 -92 -47 -155t-72 -63zM333 215q8 56 8 102v20q0 34 -9 70.5
t-33 39.5h-2q-31 0 -31 -75l1 -29q4 -48 21.5 -86t44.5 -42z" />
    <glyph glyph-name="x" unicode="x" horiz-adv-x="289" 
d="M-60 -41q-4 0 -7 3q-5 5 -5 11t5 10q5 3 7 3l8 -1q4 0 8 4q22 25 86 141q-29 74 -54 183l-1 7q0 22 25 29l13 2q20 0 25 -15q7 -22 18 -67t16 -62q71 139 92 156q4 4 10 4q15 0 15 -14q0 -5 -2 -8q-3 -7 -11 -7l-6 1q-6 0 -9 -5q-16 -24 -83 -147v-1q0 -18 28.5 -86.5
t50.5 -70.5q17 0 35 33.5t47 101.5q5 11 7 17q19 46 33 76q2 5 6 5l4 -1q4 -2 4 -7l-1 -3q-13 -27 -32 -76q-12 -30 -17.5 -42t-16 -36t-17 -34.5t-16 -24t-17.5 -18.5t-17 -5h-9q-38 0 -54 10q-29 16 -59 87q-58 -106 -86 -137q-16 -16 -23 -16z" />
    <glyph glyph-name="y" unicode="y" horiz-adv-x="329" 
d="M103 -191h-8q-66 5 -66 80l1 18q11 91 128 202v34q0 63 -4 143q-16 -55 -44.5 -118.5t-55.5 -66.5h-7q-23 0 -34 12q-19 20 -19 77q0 67 18 133q3 14 31 14h7q30 -4 30 -25v-4q-2 -14 -9 -48.5t-11 -63.5t-4 -51q0 -20 2 -28q25 15 58.5 104t33.5 113q0 21 28 27l9 1
q26 0 30 -23q10 -53 10 -169q6 5 47 39.5t59 50.5q2 2 4 2q3 0 6 -3q2 -2 2 -5q0 -2 -3 -5q-19 -17 -116 -99q-5 -220 -46 -293q-28 -48 -77 -48zM95 -176q57 7 63 264q-107 -103 -114 -188v-11q0 -60 51 -65z" />
    <glyph glyph-name="z" unicode="z" horiz-adv-x="268" 
d="M78 -178h-9q-23 0 -31 3q-36 11 -36 62v9q9 85 140 233q-9 49 -35 49h-5q-19 -2 -56 -19l-3 -1q-8 0 -8 8q0 4 3 5q25 20 45.5 68t20.5 83q0 31 -19 31h-4q-24 -6 -42 -27q-19 -22 -24 -54v-1q0 -2 5 -6t5 -10q-2 -12 -13 -12h-3q-11 3 -11 12q0 7 2 19q7 36 28 62
q28 34 69 34h6q24 -3 40 -21.5t16 -48.5v-2q-1 -53 -71 -108q19 6 38 6q36 0 56 -23q52 53 90 87q2 2 5 2q2 0 6 -4q1 -1 1 -4t-2 -5q-39 -35 -92 -89q16 -29 16 -82t-15 -109t-45.5 -98.5t-67.5 -48.5zM51 -163q39 1 66 96.5t27 165.5v10q-120 -137 -127 -215v-8
q0 -46 34 -49z" />
    <glyph glyph-name="braceleft" unicode="{" horiz-adv-x="183" 
d="M130 -24q-45 4 -60.5 41t-15.5 100l3 107q0 71 -30 75q-7 2 -7 7q0 6 6 7q9 3 15.5 9.5t10 19t6 21.5t3.5 29.5t1.5 29.5t0.5 33v20.5t0.5 24.5t1.5 23.5t3 25t5.5 21.5t9 21t13 15t17.5 11.5t23 3.5l10 -1q6 0 6 -6q0 -8 -5 -8h-2q-16 0 -21.5 -36.5t-8.5 -105.5v-8
q0 -6 -0.5 -28t-1 -31t-4 -26.5t-9 -26.5t-16.5 -20t-26 -17q51 -20 51 -100l-2 -93q0 -103 27 -124q4 -1 4 -6q-3 -8 -8 -8z" />
    <glyph glyph-name="bar" unicode="|" horiz-adv-x="179" 
d="M86 -76q-15 0 -15 15v49q0 104 2.5 356t2.5 302q0 14 15 14q14 0 14 -13v-1q0 -88 -2.5 -332t-2.5 -333v-42q0 -15 -14 -15z" />
    <glyph glyph-name="braceright" unicode="}" horiz-adv-x="193" 
d="M49 -24l-10 1q-6 0 -6 6q0 8 6 8h1q16 0 21.5 36.5t8.5 105.5v8q0 6 0.5 28t1 31t4 26.5t9 26.5t16.5 20t26 17q-52 20 -52 102l2 95q0 100 -27 120q-3 1 -3 6q2 8 8 8q76 -7 76 -138q-1 -22 -2 -41.5t-1.5 -33.5t-0.5 -35q0 -73 30 -75q7 -1 7 -7q0 -5 -5 -7
q-24 -8 -30.5 -43t-6.5 -99v-20.5t-0.5 -24.5t-1.5 -23.5t-3 -25t-5.5 -21.5t-9 -21t-13 -15t-17.5 -11.5t-23 -3.5z" />
    <glyph glyph-name="asciitilde" unicode="~" horiz-adv-x="400" 
d="M244 246q-26 0 -54 25q-20 17 -37 17q-18 0 -53 -30q-2 -2 -6 -2q-10 0 -10 7q0 1 2 5q40 50 82 50q21 0 50.5 -21t36.5 -21q17 0 53 31l6 2q8 -4 8 -7l-2 -4q-44 -52 -76 -52z" />
    <glyph glyph-name="exclamdown" unicode="&#xa1;" horiz-adv-x="206" 
d="M101 533q17 0 20 -12q16 -71 16 -208q-3 -230 -16 -298q-4 -23 -33 -23q-36 4 -36 24v4q27 109 27 365q0 97 -2 132q0 14 24 16zM96 628q10 0 17.5 -7.5t7.5 -17.5q0 -11 -7.5 -18t-17.5 -7q-11 0 -18.5 7.5t-7.5 17.5t7.5 17.5t18.5 7.5z" />
    <glyph glyph-name="cent" unicode="&#xa2;" horiz-adv-x="300" 
d="M90 -55h-2q-13 2 -13 15l23 117q-39 17 -58.5 56.5t-19.5 87.5q0 72 39.5 125.5t103.5 53.5h8q26 108 36 145q2 11 13 11q15 -3 15 -15q-5 -27 -17 -74t-18 -72q46 -18 55 -59q0 -10 -14 -13q-10 0 -11 11q0 3 1.5 7t1.5 6q0 18 -37 33q-49 -216 -66 -295q1 -1 3 -1
l11 -1q38 0 68 24.5t44 63.5q1 4 7 4q7 0 7 -6v-3q-16 -44 -49.5 -71t-77.5 -27l-13 1q-1 1 -3 1q-7 -30 -22 -113q-1 -12 -15 -12zM103 101q14 70 64 284q-34 0 -56 -40t-31 -92q-6 -25 -6 -55q0 -65 29 -97z" />
    <glyph glyph-name="sterling" unicode="&#xa3;" horiz-adv-x="428" 
d="M48 -4q-6 0 -8 7q0 4 4 7q88 51 88 188l-1 39l-54 1q-11 0 -11 11t12 11h52q-9 102 -9 115q0 51 13 82q14 36 46 58t74 24q47 0 81.5 -33t34.5 -78q-1 -11 -1.5 -15.5t-3 -7t-7.5 -2.5q-12 1 -12 12q0 5 5 9t5 6q-4 40 -32 67.5t-70 27.5q-76 -8 -76 -136q0 -26 4 -73
t4 -56h85q12 0 12 -11t-12 -11h-84v-39q0 -138 -58 -186h221q7 0 7 -8q0 -7 -7 -7l-166 1q-69 0 -136 -3z" />
    <glyph glyph-name="currency" unicode="&#xa4;" horiz-adv-x="235" 
d="M182 148q-4 0 -5 3l-25 22q-16 -11 -37 -11q-27 0 -49 15l-23 -21q-3 -3 -6 -3q-7 0 -7 8q0 3 2 5l24 21q-20 25 -20 59q0 45 25 74l-23 22q-2 1 -2 5q0 8 7 8l6 -2l23 -22q19 16 45 16q25 0 44 -15l27 20q1 1 4 1q4 0 7 -8q0 -4 -2 -5l-25 -19q20 -25 20 -64
q0 -47 -28 -75l23 -21q2 -4 2 -5q0 -8 -7 -8zM128 179q23 6 35.5 27.5t13.5 49.5q0 27 -12.5 48.5t-35.5 26.5q-17 -1 -28.5 -27t-11.5 -58q0 -62 39 -67z" />
    <glyph glyph-name="yen" unicode="&#xa5;" horiz-adv-x="357" 
d="M167 1q-18 0 -18 15l2 170h-79q-11 0 -11 12q0 11 11 11q29 -1 79 -1q0 22 1 33h-78q-12 0 -12 11q2 12 12 12q29 -1 80 -1q-27 66 -116 259l-2 7q0 14 15 14q8 0 14 -8q7 -16 53.5 -119t60.5 -136q12 22 67 127.5t71 133.5q1 3 6 3q7 -2 7 -8v-3q-16 -28 -73.5 -137.5
t-69.5 -131.5h84q8 0 10 -13q0 -9 -10 -9l-82 -1q0 -22 -1 -32h81q11 0 11 -12q-2 -10 -11 -10l-82 -1l-2 -171q0 -6 -6 -10t-12 -4z" />
    <glyph glyph-name="section" unicode="&#xa7;" horiz-adv-x="404" 
d="M192 -121l-13 1q-53 4 -96.5 27t-43.5 69q2 21 16 21q15 -2 15 -15q-1 -8 -7.5 -13.5t-6.5 -7.5l1 -1q10 -31 48.5 -49t76.5 -18q60 2 89 41t29 87v12q-3 32 -29 57t-60.5 43t-69 36.5t-58 47.5t-23.5 67q1 46 35.5 78t80.5 38q-2 2 -16 11t-17.5 11t-15.5 10.5t-16 12
t-14 12t-13 14t-9.5 14t-9 16t-4.5 16.5t-2 19q2 65 56 101.5t125 36.5q57 -2 92.5 -24t35.5 -62q0 -33 -16 -33q-12 1 -12 13q1 8 7.5 12.5t6.5 7.5q0 33 -31.5 51t-69.5 21q-46 -2 -86.5 -33.5t-41.5 -76.5q0 -28 20.5 -52t50.5 -43t60.5 -38.5t52.5 -48t24 -62.5v-7
q0 -40 -30.5 -72t-73.5 -36q40 -21 56.5 -31.5t40.5 -30t33.5 -42t10.5 -52.5q0 -66 -54 -111t-124 -45zM214 199q0 1 13 10t26.5 28t13.5 45q-2 35 -19 58t-55 49q-60 -21 -63 -100q0 -21 15 -40t30 -28.5t39 -21.5z" />
    <glyph glyph-name="dieresis" unicode="&#xa8;" horiz-adv-x="171" 
d="M48 549q-10 0 -17 7t-7 17t7 17t17 7t17 -7t7 -17t-7 -17t-17 -7zM122 549q-10 0 -17 7t-7 17t7 17t17 7t17 -7t7 -17t-7 -17t-17 -7z" />
    <glyph glyph-name="copyright" unicode="&#xa9;" horiz-adv-x="559" 
d="M290 139q-37 1 -64 32t-27 84l2 21q4 50 29 91t70 41q45 -2 54 -39q0 -7 -10 -9q-9 0 -10 7l2 10q-10 14 -34 16q-15 0 -29.5 -44.5t-16.5 -71.5q-5 -25 -5 -50q0 -73 40 -73q41 0 61 51q1 4 6 4q7 -2 7 -3q1 -1 1 -4v-2q-23 -61 -76 -61zM269 24q114 0 179.5 80
t65.5 186q0 64 -26 118.5t-76 84.5q-50 25 -98 25q-99 -3 -161.5 -77.5t-62.5 -189.5q0 -97 44.5 -161.5t134.5 -65.5zM266 9h-10q-101 4 -160.5 76t-59.5 175q0 116 68 197t189 81q115 -3 175.5 -72.5t60.5 -174.5q0 -112 -70.5 -197t-192.5 -85z" />
    <glyph glyph-name="guillemotleft" unicode="&#xab;" horiz-adv-x="264" 
d="M127 122q-3 0 -5 3l-89 81q-3 2 -3 5q0 2 2 6l90 106q2 2 5 2q8 0 8 -8l-1 -4l-81 -95l82 -74q2 -2 2 -8q0 -14 -10 -14zM210 122q-4 0 -5 3l-89 81q-3 2 -3 6l2 5l90 106q2 2 4 2q8 0 8 -8l-1 -4l-81 -95l82 -74q2 -2 2 -8q0 -14 -9 -14z" />
    <glyph glyph-name="registered" unicode="&#xae;" horiz-adv-x="266" 
d="M115 484q-6 2 -7 7q0 34 13 83q-10 -8 -14 -9q-6 0 -6 6q0 10 13.5 17.5t26.5 7.5q15 0 25.5 -8t10.5 -22q-5 -34 -38 -36l27 -31q2 -2 2 -6q-3 -8 -8 -8q-2 0 -4 3l-30 33q-3 -21 -3 -29t-8 -8zM132 544q27 0 30 21q0 16 -19 16h-4q-5 -7 -9 -37h2zM134 440
q41 0 63.5 31.5t24.5 74.5q0 32 -20.5 54t-52.5 23q-35 0 -58 -25t-25 -71q0 -84 68 -87zM131 426h-5q-42 1 -66 32.5t-24 73.5q2 49 30 78.5t74 29.5q43 -2 70 -27.5t27 -65.5q-2 -53 -28.5 -87t-77.5 -34z" />
    <glyph glyph-name="plusminus" unicode="&#xb1;" horiz-adv-x="262" 
d="M123 126q-14 0 -14 15l1 91h-77q-11 0 -11 10q0 12 11 12h78l2 73q2 14 15 14q15 0 15 -15l-3 -72h79q11 0 11 -12q0 -10 -11 -10h-79l-2 -93q0 -13 -15 -13zM211 88h-177q-11 0 -11 10q0 12 11 12h177q11 0 11 -10q-2 -12 -11 -12z" />
    <glyph glyph-name="acute" unicode="&#xb4;" horiz-adv-x="156" 
d="M48 549q-11 0 -11 11q0 2 2 4l56 65q3 3 6 3q7 0 13.5 -6.5t6.5 -12.5q0 -3 -3 -6q-12 -12 -37.5 -33.5t-27.5 -23.5q-3 -1 -5 -1z" />
    <glyph glyph-name="mu" unicode="&#xb5;" horiz-adv-x="311" 
d="M65 -158q-22 0 -22 14l-1 37q0 217 10 455q0 10 9 15.5t20 5.5q28 0 28 -19q0 -5 -2.5 -34.5t-4 -65.5t-1.5 -69q1 -100 54 -100q22 0 38 20.5t20 60.5q6 84 6 148l-1 41q0 19 27 21q6 0 10.5 -1t7.5 -4t4.5 -6t2.5 -9.5t1 -10.5t0.5 -13.5t0.5 -15.5q0 -33 -4.5 -88.5
t-5.5 -76.5q0 -59 25 -73q3 -3 3 -6q-1 -6 -7 -6q-13 1 -26.5 16t-15.5 29q-11 -21 -35 -31.5t-47 -10.5q-36 0 -60 24l-1 -223q0 -11 -10 -17.5t-23 -6.5z" />
    <glyph glyph-name="cedilla" unicode="&#xb8;" horiz-adv-x="137" 
d="M67 -63q-22 0 -26 17q0 5 8 7q3 0 8.5 -5t9.5 -5q13 0 16 22q0 14 -14 14q-3 0 -13 -2q-7 1 -7 6l8 38q1 6 7 6q7 -1 7 -7l-5 -26l4 1q14 0 24 -9t10 -22q-1 -16 -11.5 -25.5t-25.5 -9.5z" />
    <glyph glyph-name="guillemotright" unicode="&#xbb;" horiz-adv-x="223" 
d="M103 122q-8 0 -8 8l2 5l81 95l-82 74q-3 1 -3 7q0 14 10 14q2 0 6 -2l89 -81q2 -4 2 -6q0 -3 -2 -5l-89 -106q-3 -3 -6 -3zM21 122q-8 0 -8 8l2 5l80 95l-81 74q-4 3 -4 7q0 14 10 14q2 0 6 -2l89 -81q2 -4 2 -7t-1 -4l-90 -106q-3 -3 -5 -3z" />
    <glyph glyph-name="questiondown" unicode="&#xbf;" horiz-adv-x="350" 
d="M210 543h3q14 0 17 -13q6 -28 6 -56q0 -93 -58 -175q-5 -7 -25.5 -36t-27.5 -40t-19.5 -34.5t-17.5 -43.5t-6 -42q0 -46 25 -74t72 -29q52 0 86 37.5t34 89.5q0 20 -8 46q-4 12 -11 12l-2 -1q-7 0 -8 10q0 6 4 10.5t9 4.5q7 0 12 -9q19 -37 19 -74q0 -59 -42 -101
t-105 -42q-60 2 -97 36t-37 87q1 38 13 71.5t23.5 51.5t35.5 49.5t34 46.5q53 77 53 174l-1 27q0 15 19 17zM209 637q10 0 17 -7t7 -17t-7 -17t-17 -7t-17 7t-7 17t7 17t17 7z" />
    <glyph glyph-name="Agrave" unicode="&#xc0;" 
d="M533 -131h-4q-21 0 -50 10t-41 22q-41 45 -41 178q0 87 19 217l-62 2q-60 0 -108 -8q-32 -207 -56 -275q-31 -94 -79 -108q-11 -3 -22 -3q-42 0 -65.5 44.5t-23.5 100.5q0 61 20 108t55 76t74 46t84 24q9 56 15 90.5t16 79.5t18.5 73t22 58t28 46.5t34 28t42.5 12.5
q28 0 46.5 -14.5t27.5 -43t12 -58t3 -70.5q0 -86 -12 -197h17q41 0 62 6q2 1 2 5v3q0 16 13 16q14 0 14 -14q0 -3 -2 -7q-14 -23 -82 -23h-25q0 -2 -7 -53t-11 -99.5t-4 -91.5q0 -163 69 -166q34 1 59.5 64t49.5 169.5t35 139.5q1 5 6 5q8 0 8 -7l-1 -3q-8 -23 -33.5 -135.5
t-54 -178.5t-68.5 -69zM248 306q49 7 105 7l64 -2q24 209 24 266q0 98 -37 98q-33 -2 -58 -29.5t-43.5 -86t-29 -110.5t-25.5 -143zM90 -81q5 0 17 2q59 18 96 206q9 48 27 161q-95 -17 -155.5 -76t-60.5 -163q0 -53 20.5 -91.5t55.5 -38.5zM461 716q-3 0 -5 1
q-53 45 -66 57q-2 4 -2 6q0 6 6.5 12.5t13.5 6.5q3 0 6 -3l55 -65q2 -1 2 -5q0 -10 -10 -10z" />
    <glyph glyph-name="Aacute" unicode="&#xc1;" 
d="M533 -131h-4q-21 0 -50 10t-41 22q-41 45 -41 178q0 87 19 217l-62 2q-60 0 -108 -8q-32 -207 -56 -275q-31 -94 -79 -108q-11 -3 -22 -3q-42 0 -65.5 44.5t-23.5 100.5q0 61 20 108t55 76t74 46t84 24q9 56 15 90.5t16 79.5t18.5 73t22 58t28 46.5t34 28t42.5 12.5
q28 0 46.5 -14.5t27.5 -43t12 -58t3 -70.5q0 -86 -12 -197h17q41 0 62 6q2 1 2 5v3q0 16 13 16q14 0 14 -14q0 -3 -2 -7q-14 -23 -82 -23h-25q0 -2 -7 -53t-11 -99.5t-4 -91.5q0 -163 69 -166q34 1 59.5 64t49.5 169.5t35 139.5q1 5 6 5q8 0 8 -7l-1 -3q-8 -23 -33.5 -135.5
t-54 -178.5t-68.5 -69zM248 306q49 7 105 7l64 -2q24 209 24 266q0 98 -37 98q-33 -2 -58 -29.5t-43.5 -86t-29 -110.5t-25.5 -143zM90 -81q5 0 17 2q59 18 96 206q9 48 27 161q-95 -17 -155.5 -76t-60.5 -163q0 -53 20.5 -91.5t55.5 -38.5zM390 737q-11 0 -11 11q0 2 2 4
l56 65q3 3 6 3q7 0 13.5 -6.5t6.5 -12.5q0 -3 -3 -6q-12 -12 -37.5 -33.5t-27.5 -23.5z" />
    <glyph glyph-name="Acircumflex" unicode="&#xc2;" 
d="M533 -131h-4q-21 0 -50 10t-41 22q-41 45 -41 178q0 87 19 217l-62 2q-60 0 -108 -8q-32 -207 -56 -275q-31 -94 -79 -108q-11 -3 -22 -3q-42 0 -65.5 44.5t-23.5 100.5q0 61 20 108t55 76t74 46t84 24q9 56 15 90.5t16 79.5t18.5 73t22 58t28 46.5t34 28t42.5 12.5
q28 0 46.5 -14.5t27.5 -43t12 -58t3 -70.5q0 -86 -12 -197h17q41 0 62 6q2 1 2 5v3q0 16 13 16q14 0 14 -14q0 -3 -2 -7q-14 -23 -82 -23h-25q0 -2 -7 -53t-11 -99.5t-4 -91.5q0 -163 69 -166q34 1 59.5 64t49.5 169.5t35 139.5q1 5 6 5q8 0 8 -7l-1 -3q-8 -23 -33.5 -135.5
t-54 -178.5t-68.5 -69zM248 306q49 7 105 7l64 -2q24 209 24 266q0 98 -37 98q-33 -2 -58 -29.5t-43.5 -86t-29 -110.5t-25.5 -143zM90 -81q5 0 17 2q59 18 96 206q9 48 27 161q-95 -17 -155.5 -76t-60.5 -163q0 -53 20.5 -91.5t55.5 -38.5zM448 739q-3 0 -5 2l-24 31
l-27 -31q-4 -2 -5 -2q-8 0 -8 7q0 4 2 5l32 38q4 6 14 6l4 -2l30 -38q1 -1 1 -3q0 -4 -4.5 -8.5t-9.5 -4.5z" />
    <glyph glyph-name="Atilde" unicode="&#xc3;" 
d="M533 -131h-4q-21 0 -50 10t-41 22q-41 45 -41 178q0 87 19 217l-62 2q-60 0 -108 -8q-32 -207 -56 -275q-31 -94 -79 -108q-11 -3 -22 -3q-42 0 -65.5 44.5t-23.5 100.5q0 61 20 108t55 76t74 46t84 24q9 56 15 90.5t16 79.5t18.5 73t22 58t28 46.5t34 28t42.5 12.5
q28 0 46.5 -14.5t27.5 -43t12 -58t3 -70.5q0 -86 -12 -197h17q41 0 62 6q2 1 2 5v3q0 16 13 16q14 0 14 -14q0 -3 -2 -7q-14 -23 -82 -23h-25q0 -2 -7 -53t-11 -99.5t-4 -91.5q0 -163 69 -166q34 1 59.5 64t49.5 169.5t35 139.5q1 5 6 5q8 0 8 -7l-1 -3q-8 -23 -33.5 -135.5
t-54 -178.5t-68.5 -69zM248 306q49 7 105 7l64 -2q24 209 24 266q0 98 -37 98q-33 -2 -58 -29.5t-43.5 -86t-29 -110.5t-25.5 -143zM90 -81q5 0 17 2q59 18 96 206q9 48 27 161q-95 -17 -155.5 -76t-60.5 -163q0 -53 20.5 -91.5t55.5 -38.5zM441 736q-10 0 -22.5 10
t-18.5 10q-4 0 -10.5 -7.5t-9.5 -7.5q-9 3 -9 9q6 30 30 32q7 0 27 -13q10 -6 15 -6q7 0 13 11q4 7 8 7q8 -1 8 -11v-3q-11 -31 -31 -31z" />
    <glyph glyph-name="Adieresis" unicode="&#xc4;" 
d="M533 -131h-4q-21 0 -50 10t-41 22q-41 45 -41 178q0 87 19 217l-62 2q-60 0 -108 -8q-32 -207 -56 -275q-31 -94 -79 -108q-11 -3 -22 -3q-42 0 -65.5 44.5t-23.5 100.5q0 61 20 108t55 76t74 46t84 24q9 56 15 90.5t16 79.5t18.5 73t22 58t28 46.5t34 28t42.5 12.5
q28 0 46.5 -14.5t27.5 -43t12 -58t3 -70.5q0 -86 -12 -197h17q41 0 62 6q2 1 2 5v3q0 16 13 16q14 0 14 -14q0 -3 -2 -7q-14 -23 -82 -23h-25q0 -2 -7 -53t-11 -99.5t-4 -91.5q0 -163 69 -166q34 1 59.5 64t49.5 169.5t35 139.5q1 5 6 5q8 0 8 -7l-1 -3q-8 -23 -33.5 -135.5
t-54 -178.5t-68.5 -69zM248 306q49 7 105 7l64 -2q24 209 24 266q0 98 -37 98q-33 -2 -58 -29.5t-43.5 -86t-29 -110.5t-25.5 -143zM90 -81q5 0 17 2q59 18 96 206q9 48 27 161q-95 -17 -155.5 -76t-60.5 -163q0 -53 20.5 -91.5t55.5 -38.5zM390 744q-10 0 -17 7t-7 17t7 17
t17 7t17 -7t7 -17t-7 -17t-17 -7zM464 744q-10 0 -17 7t-7 17t7 17t17 7t17 -7t7 -17t-7 -17t-17 -7z" />
    <glyph glyph-name="Aring" unicode="&#xc5;" 
d="M533 -131h-4q-21 0 -50 10t-41 22q-41 45 -41 178q0 87 19 217l-62 2q-60 0 -108 -8q-32 -207 -56 -275q-31 -94 -79 -108q-11 -3 -22 -3q-42 0 -65.5 44.5t-23.5 100.5q0 61 20 108t55 76t74 46t84 24q9 56 15 90.5t16 79.5t18.5 73t22 58t28 46.5t34 28t42.5 12.5
q28 0 46.5 -14.5t27.5 -43t12 -58t3 -70.5q0 -86 -12 -197h17q41 0 62 6q2 1 2 5v3q0 16 13 16q14 0 14 -14q0 -3 -2 -7q-14 -23 -82 -23h-25q0 -2 -7 -53t-11 -99.5t-4 -91.5q0 -163 69 -166q34 1 59.5 64t49.5 169.5t35 139.5q1 5 6 5q8 0 8 -7l-1 -3q-8 -23 -33.5 -135.5
t-54 -178.5t-68.5 -69zM248 306q49 7 105 7l64 -2q24 209 24 266q0 98 -37 98q-33 -2 -58 -29.5t-43.5 -86t-29 -110.5t-25.5 -143zM90 -81q5 0 17 2q59 18 96 206q9 48 27 161q-95 -17 -155.5 -76t-60.5 -163q0 -53 20.5 -91.5t55.5 -38.5zM425 746q8 0 12.5 7.5t4.5 16.5
q0 20 -15 20q-13 0 -13 -23q0 -21 11 -21zM424 730h-2q-13 0 -22 9.5t-9 25.5q1 42 34 42q33 -2 33 -37q-1 -19 -10.5 -29.5t-23.5 -10.5z" />
    <glyph glyph-name="AE" unicode="&#xc6;" horiz-adv-x="1062" 
d="M248 306q49 7 105 7l64 -2q1 15 5 40q5 42 13 120q6 60 6 106q0 22 -1 38q-2 23 -9 42q-7 18 -27 18q-68 -8 -101 -112q-32 -102 -55 -257zM90 -81q5 0 17 2q51 21 78 125q26 107 44 232q0 7 1 10q-60 -11 -106 -38q-50 -29 -79 -77q-31 -49 -31 -124q0 -48 20 -90
q19 -40 56 -40zM612 -36v-2q-30 -84 -79 -93h-4q-21 0 -48 10q-31 10 -43 22q-22 25 -31 72q-10 44 -10 106q0 102 19 217l-62 2q-49 0 -108 -8q0 -4 -1 -10t-2 -10q-18 -133 -46 -235q-28 -106 -86 -128q-11 -3 -22 -3q-30 0 -50 23q-21 24 -29 56q-10 31 -10 66
q0 84 35 137q34 52 88 81q52 28 110 36q22 166 60 274q36 106 116 114q38 0 58 -26q19 -26 25 -69t6 -91q0 -65 -4 -113q-3 -35 -8 -84h17q39 0 62 6l2 2v3v3q0 4 3 10t10 6q8 0 11 -4t3 -10q0 -3 -2 -7q-7 -13 -29 -18q-25 -5 -53 -5h-25q0 -1 -1.5 -13l-2.5 -20
q-6 -42 -12 -97q-6 -57 -6 -114q0 -65 15 -113q13 -48 54 -53q40 6 66 80q2 5 4 14t4 13q-4 23 -4 52q0 93 49 178q7 13 25 37q3 3 4 3q42 49 108 66q-123 51 -123 160q0 47 19 86q18 41 54 66q34 25 84 25q135 -4 135 -151q0 -24 -4 -33q-4 -10 -15 -10q-8 2 -12 6
q-5 5 -5 12q0 9 4 13q5 5 9 6q3 1 7 3q2 2 2 5q-2 56 -26 92q-25 36 -84 41q-35 0 -59 -27q-24 -29 -36 -67q-12 -39 -12 -73q0 -48 23 -94q22 -44 78 -55q4 -2 5 -3q1 -2 1 -5t-2 -5q-1 -2 -5 -4q-55 -7 -90 -52q-35 -44 -52 -104q-17 -62 -17 -107q0 -48 17 -97
q16 -49 49 -80q32 -32 78 -32h3q61 9 102 59t69 118q27 69 48 138q14 48 34 100q1 4 6 4q2 0 6 -2q2 -2 2 -5v-3q-23 -57 -41 -115q-20 -67 -48 -136q-27 -68 -69 -116q-43 -48 -108 -57q-22 -2 -32 -2q-62 0 -102 31q-39 29 -59 80q-4 9 -10 27z" />
    <glyph glyph-name="Ccedilla" unicode="&#xc7;" horiz-adv-x="398" 
d="M141 -199l8 36q-29 8 -48 27q-33 30 -52 72q-27 59 -37 121q-12 65 -12 132q0 113 25 209q26 104 77 172q53 72 143 76q43 0 66 -33q22 -34 22 -83q0 -36 -13 -65q-13 -31 -28 -31q-6 0 -11 6q-5 7 -5 13q0 9 6 14q7 5 11 5l11 -1q4 0 5 4q10 24 10 56q0 37 -17 68
q-17 30 -56 32q-42 0 -72 -37q-29 -36 -49 -93q-21 -59 -32 -114q-19 -92 -19 -195q0 -70 14 -151q13 -79 42 -133q27 -53 68 -58q52 12 88 69q36 58 58 130q24 77 38 139l2 8q8 38 15 60q3 6 8 6q1 0 5 -2q2 -2 2 -5l-1 -3l-15 -59q0 -3 -1.5 -9l-2.5 -10q-15 -60 -36 -130
q-23 -73 -62 -135q-39 -60 -97 -73q-14 -2 -22 -2q-10 0 -15 1l-4 -23l4 1q14 0 24 -9t10 -22q-8 -35 -37 -35q-8 0 -15 4q-8 3 -11 13q0 4 2 6q1 1 6 1q3 0 4 -1t4 -3q3 -3 5 -4q2 -2 5 -2q13 0 16 22q-2 14 -14 14h-4q-3 0 -4 -1t-5 -1q-7 1 -7 6z" />
    <glyph glyph-name="Egrave" unicode="&#xc8;" horiz-adv-x="462" 
d="M181 -174q-89 0 -135 62.5t-46 154.5q0 99 51 183t135 101q-58 22 -90.5 64t-32.5 96q0 71 43 124t114 53q135 -8 135 -151q-1 -24 -4.5 -33.5t-14.5 -9.5q-17 2 -17 18q0 11 11 17t11 10q-1 57 -27.5 93.5t-82.5 39.5q-48 0 -77.5 -54.5t-29.5 -112.5q0 -55 25 -98.5
t76 -50.5q6 -2 6 -8q0 -8 -7 -9q-39 -5 -71 -33t-50.5 -68t-28 -82t-9.5 -80q0 -81 39 -145t105 -64h3q37 5 69.5 29t54 56.5t42 79.5t33 86.5t28 88.5t26.5 75q1 4 6 4q8 0 8 -7v-3q-14 -32 -33.5 -94t-37.5 -110.5t-43.5 -99.5t-64 -82.5t-87.5 -37.5q-22 -2 -32 -2z
M288 707q-3 0 -5 1q-53 45 -66 57q-2 4 -2 6q0 6 6.5 12.5t13.5 6.5q3 0 6 -3l55 -65q2 -1 2 -5q0 -10 -10 -10z" />
    <glyph glyph-name="Eacute" unicode="&#xc9;" horiz-adv-x="462" 
d="M181 -174q-89 0 -135 62.5t-46 154.5q0 99 51 183t135 101q-58 22 -90.5 64t-32.5 96q0 71 43 124t114 53q135 -8 135 -151q-1 -24 -4.5 -33.5t-14.5 -9.5q-17 2 -17 18q0 11 11 17t11 10q-1 57 -27.5 93.5t-82.5 39.5q-48 0 -77.5 -54.5t-29.5 -112.5q0 -55 25 -98.5
t76 -50.5q6 -2 6 -8q0 -8 -7 -9q-39 -5 -71 -33t-50.5 -68t-28 -82t-9.5 -80q0 -81 39 -145t105 -64h3q37 5 69.5 29t54 56.5t42 79.5t33 86.5t28 88.5t26.5 75q1 4 6 4q8 0 8 -7v-3q-14 -32 -33.5 -94t-37.5 -110.5t-43.5 -99.5t-64 -82.5t-87.5 -37.5q-22 -2 -32 -2z
M217 715q-11 0 -11 11q0 2 2 4l56 65q3 3 6 3q7 0 13.5 -6.5t6.5 -12.5q0 -3 -3 -6q-12 -12 -37.5 -33.5t-27.5 -23.5z" />
    <glyph glyph-name="Ecircumflex" unicode="&#xca;" horiz-adv-x="462" 
d="M181 -174q-89 0 -135 62.5t-46 154.5q0 99 51 183t135 101q-58 22 -90.5 64t-32.5 96q0 71 43 124t114 53q135 -8 135 -151q-1 -24 -4.5 -33.5t-14.5 -9.5q-17 2 -17 18q0 11 11 17t11 10q-1 57 -27.5 93.5t-82.5 39.5q-48 0 -77.5 -54.5t-29.5 -112.5q0 -55 25 -98.5
t76 -50.5q6 -2 6 -8q0 -8 -7 -9q-39 -5 -71 -33t-50.5 -68t-28 -82t-9.5 -80q0 -81 39 -145t105 -64h3q37 5 69.5 29t54 56.5t42 79.5t33 86.5t28 88.5t26.5 75q1 4 6 4q8 0 8 -7v-3q-14 -32 -33.5 -94t-37.5 -110.5t-43.5 -99.5t-64 -82.5t-87.5 -37.5q-22 -2 -32 -2z
M283 716q-3 0 -5 2l-24 31l-27 -31q-4 -2 -5 -2q-8 0 -8 7q0 4 2 5l32 38q4 6 14 6l4 -2l30 -38q1 -1 1 -3q0 -4 -4.5 -8.5t-9.5 -4.5z" />
    <glyph glyph-name="Edieresis" unicode="&#xcb;" horiz-adv-x="462" 
d="M181 -174q-89 0 -135 62.5t-46 154.5q0 99 51 183t135 101q-58 22 -90.5 64t-32.5 96q0 71 43 124t114 53q135 -8 135 -151q-1 -24 -4.5 -33.5t-14.5 -9.5q-17 2 -17 18q0 11 11 17t11 10q-1 57 -27.5 93.5t-82.5 39.5q-48 0 -77.5 -54.5t-29.5 -112.5q0 -55 25 -98.5
t76 -50.5q6 -2 6 -8q0 -8 -7 -9q-39 -5 -71 -33t-50.5 -68t-28 -82t-9.5 -80q0 -81 39 -145t105 -64h3q37 5 69.5 29t54 56.5t42 79.5t33 86.5t28 88.5t26.5 75q1 4 6 4q8 0 8 -7v-3q-14 -32 -33.5 -94t-37.5 -110.5t-43.5 -99.5t-64 -82.5t-87.5 -37.5q-22 -2 -32 -2z
M209 714q-10 0 -17 7t-7 17t7 17t17 7t17 -7t7 -17t-7 -17t-17 -7zM283 714q-10 0 -17 7t-7 17t7 17t17 7t17 -7t7 -17t-7 -17t-17 -7z" />
    <glyph glyph-name="Igrave" unicode="&#xcc;" horiz-adv-x="291" 
d="M174 -103h-5q-35 0 -35 19q0 70 17.5 301t17.5 318q0 102 -18 105q-38 -3 -86 -78q-49 -73 -50 -132q0 -12 6 -12q2 0 6.5 1t6.5 1q14 0 14 -17q0 -8 -6 -15t-14 -7q-10 0 -18.5 13t-9.5 33q0 59 52 143q30 46 55 65t55 21q27 0 46.5 -14t22.5 -40q4 -28 4 -76
q0 -80 -16.5 -289.5t-16.5 -294.5v-26q0 -16 -28 -19zM236 692q-3 0 -5 1q-53 45 -66 57q-2 4 -2 6q0 6 6.5 12.5t13.5 6.5q3 0 6 -3l55 -65q2 -1 2 -5q0 -10 -10 -10z" />
    <glyph glyph-name="Iacute" unicode="&#xcd;" horiz-adv-x="291" 
d="M174 -103h-5q-35 0 -35 19q0 70 17.5 301t17.5 318q0 102 -18 105q-38 -3 -86 -78q-49 -73 -50 -132q0 -12 6 -12q2 0 6.5 1t6.5 1q14 0 14 -17q0 -8 -6 -15t-14 -7q-10 0 -18.5 13t-9.5 33q0 59 52 143q30 46 55 65t55 21q27 0 46.5 -14t22.5 -40q4 -28 4 -76
q0 -80 -16.5 -289.5t-16.5 -294.5v-26q0 -16 -28 -19zM161 701q-11 0 -11 11q0 2 2 4l56 65q3 3 6 3q7 0 13.5 -6.5t6.5 -12.5q0 -3 -3 -6q-12 -12 -37.5 -33.5t-27.5 -23.5z" />
    <glyph glyph-name="Icircumflex" unicode="&#xce;" horiz-adv-x="291" 
d="M174 -103h-5q-35 0 -35 19q0 70 17.5 301t17.5 318q0 102 -18 105q-38 -3 -86 -78q-49 -73 -50 -132q0 -12 6 -12q2 0 6.5 1t6.5 1q14 0 14 -17q0 -8 -6 -15t-14 -7q-10 0 -18.5 13t-9.5 33q0 59 52 143q30 46 55 65t55 21q27 0 46.5 -14t22.5 -40q4 -28 4 -76
q0 -80 -16.5 -289.5t-16.5 -294.5v-26q0 -16 -28 -19zM225 699q-3 0 -5 2l-24 31l-27 -31q-4 -2 -5 -2q-8 0 -8 7q0 4 2 5l32 38q4 6 14 6l4 -2l30 -38q1 -1 1 -3q0 -4 -4.5 -8.5t-9.5 -4.5z" />
    <glyph glyph-name="Idieresis" unicode="&#xcf;" horiz-adv-x="291" 
d="M174 -103h-5q-35 0 -35 19q0 70 17.5 301t17.5 318q0 102 -18 105q-38 -3 -86 -78q-49 -73 -50 -132q0 -12 6 -12q2 0 6.5 1t6.5 1q14 0 14 -17q0 -8 -6 -15t-14 -7q-10 0 -18.5 13t-9.5 33q0 59 52 143q30 46 55 65t55 21q27 0 46.5 -14t22.5 -40q4 -28 4 -76
q0 -80 -16.5 -289.5t-16.5 -294.5v-26q0 -16 -28 -19zM159 696q-10 0 -17 7t-7 17t7 17t17 7t17 -7t7 -17t-7 -17t-17 -7zM233 696q-10 0 -17 7t-7 17t7 17t17 7t17 -7t7 -17t-7 -17t-17 -7z" />
    <glyph glyph-name="Eth" unicode="&#xd0;" horiz-adv-x="527" 
d="M222 -174q36 6 63 64q26 59 42 127q15 63 22 108q-98 -69 -158 -170q-23 -38 -23 -73q0 -23 14 -40q13 -16 36 -16h4zM70 332h34q20 104 54 189q40 105 114 129q14 3 24 3q31 0 54 -20q22 -19 36 -50q14 -32 23 -62q24 -107 24 -230q0 -49 -3 -94l102 64q1 0 2 1h2
q3 0 5 -2q2 -4 2 -5q0 -5 -3 -6l-112 -70q-6 -50 -17 -102q-13 -58 -38 -121q-26 -63 -62 -103q-37 -42 -91 -42q-29 0 -48 19t-19 53q0 62 60 134t140 128q11 88 11 174q0 93 -17 187q-3 15 -14 51q-12 33 -26 52q-17 23 -41 23q-57 -25 -94 -112q-35 -84 -53 -188h5
q4 0 7 -3t3 -8q0 -4 -3 -7q-3 -4 -7 -4h-9q-19 -111 -26 -205q-9 -125 -10 -162q-2 -17 -10 -21q-9 -6 -25 -6q-7 0 -15 5t-9 14q-20 138 -20 303q0 49 1 72h-45q-4 0 -7 4q-3 3 -3 7q0 5 3 8t7 3h46q3 99 17 190q1 12 12 18t21 6q12 0 24 -5q10 -6 10 -21v-5
q-13 -123 -16 -183zM100 310h-32q-4 -60 -4 -119q0 -87 6 -143q6 99 26 237q0 4 2 12.5t2 12.5z" />
    <glyph glyph-name="Ntilde" unicode="&#xd1;" horiz-adv-x="563" 
d="M402 -130q-30 0 -43 6q-69 33 -69 217q0 116 37 370q2 12 11 83t9 84v2q-45 -2 -93.5 -94t-84.5 -219.5t-60 -234t-32 -165.5q-1 -21 -34 -21q-29 0 -30 14q-13 103 -13 250q1 191 20 365q1 13 14 20.5t30 7.5q15 0 27 -7t12 -19l-1 -5q-27 -165 -30 -403q0 -47 2 -131
q14 78 47.5 212.5t76.5 245.5q40 103 77 151t83 49q32 0 41 -14q16 -23 16 -97q0 -67 -19 -254t-19 -262q0 -135 45 -135q2 0 5 0.5t4 0.5q21 6 47.5 76.5t54 172t34.5 121.5q3 5 7 5q8 0 8 -6l-1 -4q-7 -18 -34 -120.5t-56 -176.5t-56 -82q-11 -3 -33 -3zM248 683
q-10 0 -22.5 10t-18.5 10q-4 0 -10.5 -7.5t-9.5 -7.5q-9 3 -9 9q6 30 30 32q7 0 27 -13q10 -6 15 -6q8 0 13 11q3 7 8 7q8 -1 8 -11v-3q-11 -31 -31 -31z" />
    <glyph glyph-name="Ograve" unicode="&#xd2;" horiz-adv-x="513" 
d="M190 134q59 0 147 30q5 50 5 97q0 122 -27 212q-40 152 -130 152q-90 -4 -139 -114q-31 -72 -31 -162q0 -79 27 -133q9 158 48 255q6 15 28 15q14 0 25.5 -8.5t11.5 -21.5q0 -1 -2 -9q-12 -36 -26.5 -124t-17.5 -173q36 -16 81 -16zM217 -107q96 22 118 255
q-82 -28 -145 -28q-46 0 -81 14v-23q0 -215 108 -218zM198 -123q-12 0 -19 1q-138 21 -138 276v35q-41 61 -41 160q0 92 32 168q26 60 63 90.5t92 32.5q66 0 112.5 -55.5t67 -137.5t20.5 -179q0 -38 -5 -85q76 34 131 77q2 2 5 2q7 0 7 -8q0 -3 -3 -6q-61 -47 -141 -82
q-16 -126 -62.5 -207.5t-120.5 -81.5zM272 682q-3 0 -5 1q-53 45 -66 57q-2 4 -2 6q0 6 6.5 12.5t13.5 6.5q3 0 6 -3l55 -65q2 -1 2 -5q0 -10 -10 -10z" />
    <glyph glyph-name="Oacute" unicode="&#xd3;" horiz-adv-x="513" 
d="M190 134q59 0 147 30q5 50 5 97q0 122 -27 212q-40 152 -130 152q-90 -4 -139 -114q-31 -72 -31 -162q0 -79 27 -133q9 158 48 255q6 15 28 15q14 0 25.5 -8.5t11.5 -21.5q0 -1 -2 -9q-12 -36 -26.5 -124t-17.5 -173q36 -16 81 -16zM217 -107q96 22 118 255
q-82 -28 -145 -28q-46 0 -81 14v-23q0 -215 108 -218zM198 -123q-12 0 -19 1q-138 21 -138 276v35q-41 61 -41 160q0 92 32 168q26 60 63 90.5t92 32.5q66 0 112.5 -55.5t67 -137.5t20.5 -179q0 -38 -5 -85q76 34 131 77q2 2 5 2q7 0 7 -8q0 -3 -3 -6q-61 -47 -141 -82
q-16 -126 -62.5 -207.5t-120.5 -81.5zM196 687q-11 0 -11 11q0 2 2 4l56 65q3 3 6 3q7 0 13.5 -6.5t6.5 -12.5q0 -3 -3 -6q-12 -12 -37.5 -33.5t-27.5 -23.5z" />
    <glyph glyph-name="Ocircumflex" unicode="&#xd4;" horiz-adv-x="513" 
d="M190 134q59 0 147 30q5 50 5 97q0 122 -27 212q-40 152 -130 152q-90 -4 -139 -114q-31 -72 -31 -162q0 -79 27 -133q9 158 48 255q6 15 28 15q14 0 25.5 -8.5t11.5 -21.5q0 -1 -2 -9q-12 -36 -26.5 -124t-17.5 -173q36 -16 81 -16zM217 -107q96 22 118 255
q-82 -28 -145 -28q-46 0 -81 14v-23q0 -215 108 -218zM198 -123q-12 0 -19 1q-138 21 -138 276v35q-41 61 -41 160q0 92 32 168q26 60 63 90.5t92 32.5q66 0 112.5 -55.5t67 -137.5t20.5 -179q0 -38 -5 -85q76 34 131 77q2 2 5 2q7 0 7 -8q0 -3 -3 -6q-61 -47 -141 -82
q-16 -126 -62.5 -207.5t-120.5 -81.5zM246 688q-3 0 -5 2l-24 31l-27 -31q-4 -2 -5 -2q-8 0 -8 7q0 4 2 5l32 38q4 6 14 6l4 -2l30 -38q1 -1 1 -3q0 -4 -4.5 -8.5t-9.5 -4.5z" />
    <glyph glyph-name="Otilde" unicode="&#xd5;" horiz-adv-x="513" 
d="M190 134q59 0 147 30q5 50 5 97q0 122 -27 212q-40 152 -130 152q-90 -4 -139 -114q-31 -72 -31 -162q0 -79 27 -133q9 158 48 255q6 15 28 15q14 0 25.5 -8.5t11.5 -21.5q0 -1 -2 -9q-12 -36 -26.5 -124t-17.5 -173q36 -16 81 -16zM217 -107q96 22 118 255
q-82 -28 -145 -28q-46 0 -81 14v-23q0 -215 108 -218zM198 -123q-12 0 -19 1q-138 21 -138 276v35q-41 61 -41 160q0 92 32 168q26 60 63 90.5t92 32.5q66 0 112.5 -55.5t67 -137.5t20.5 -179q0 -38 -5 -85q76 34 131 77q2 2 5 2q7 0 7 -8q0 -3 -3 -6q-61 -47 -141 -82
q-16 -126 -62.5 -207.5t-120.5 -81.5zM240 691q-10 0 -22.5 10t-18.5 10q-4 0 -10.5 -7.5t-9.5 -7.5q-9 3 -9 9q6 30 30 32q7 0 27 -13q10 -6 15 -6q8 0 13 11q3 7 8 7q8 -1 8 -11v-3q-11 -31 -31 -31z" />
    <glyph glyph-name="Odieresis" unicode="&#xd6;" horiz-adv-x="513" 
d="M190 134q59 0 147 30q5 50 5 97q0 122 -27 212q-40 152 -130 152q-90 -4 -139 -114q-31 -72 -31 -162q0 -79 27 -133q9 158 48 255q6 15 28 15q14 0 25.5 -8.5t11.5 -21.5q0 -1 -2 -9q-12 -36 -26.5 -124t-17.5 -173q36 -16 81 -16zM217 -107q96 22 118 255
q-82 -28 -145 -28q-46 0 -81 14v-23q0 -215 108 -218zM198 -123q-12 0 -19 1q-138 21 -138 276v35q-41 61 -41 160q0 92 32 168q26 60 63 90.5t92 32.5q66 0 112.5 -55.5t67 -137.5t20.5 -179q0 -38 -5 -85q76 34 131 77q2 2 5 2q7 0 7 -8q0 -3 -3 -6q-61 -47 -141 -82
q-16 -126 -62.5 -207.5t-120.5 -81.5zM189 704q-10 0 -17 7t-7 17t7 17t17 7t17 -7t7 -17t-7 -17t-17 -7zM263 704q-10 0 -17 7t-7 17t7 17t17 7t17 -7t7 -17t-7 -17t-17 -7z" />
    <glyph glyph-name="multiply" unicode="&#xd7;" horiz-adv-x="252" 
d="M184 162q-4 0 -7 4l-52 58l-54 -58q-4 -4 -8 -4q-5 0 -8.5 4t-3.5 8t4 8l56 59l-53 60q-4 3 -4 7q0 11 12 11q4 0 9 -3l51 -59l55 57q3 3 8 3q4 0 7.5 -3.5t3.5 -7.5t-3 -7q-1 -1 -23 -23.5t-33 -35.5l52 -60q3 -3 3 -7t-4 -7.5t-8 -3.5z" />
    <glyph glyph-name="Oslash" unicode="&#xd8;" horiz-adv-x="513" 
d="M330 412q-41 -82 -95 -204q-4 -9 -15 -34.5t-17 -39.5q31 2 63 9q39 9 71 21q5 50 5 97q0 51 -6 107q-2 23 -6 44zM114 34q3 8 10 23.5t10 23.5q5 14 17 42q-28 6 -42 11v-23q0 -30 5 -77zM197 120q-61 -147 -66 -158q10 -20 16 -29q22 -35 70 -40q45 13 71 60
q24 46 34 101q10 51 13 94q-37 -13 -70 -20q-29 -6 -68 -8zM157 136q25 58 109 247q45 98 46 100q-8 30 -21 59q-16 33 -42 59q-26 24 -64 24q-53 -3 -85 -34q-35 -32 -54 -80q-31 -74 -31 -162q0 -71 27 -133q4 75 19 151q13 66 29 104q3 7 11 12q7 3 17 3q12 0 25 -8
q12 -8 12 -22q0 -3 -2 -9q-9 -29 -24 -112q-16 -90 -20 -185q19 -9 48 -14zM335 529q9 18 37 65q1 1 7 5q6 2 9 2q4 0 16 -5q10 -4 10 -17l-3 -9q-24 -44 -52 -100q4 -16 7 -24q21 -86 21 -178q0 -38 -5 -85q87 40 131 77q1 0 1 1l2 1h2q3 0 5 -2q2 -4 2 -6q0 -3 -3 -6
q-51 -40 -141 -82q-11 -78 -33 -142q-22 -65 -60 -106t-90 -41q-12 0 -19 1q-41 7 -69 32q-21 -52 -23 -58q-1 -5 -7 -9q-5 -4 -13 -4l-7 2q-13 4 -13 20q0 2 2 10q14 37 31 78q-22 41 -30 90q-9 60 -9 115v35q-20 30 -31 74q-10 40 -10 86q0 90 32 168q47 117 155 123
q69 0 113 -54q21 -27 35 -57z" />
    <glyph glyph-name="Ugrave" unicode="&#xd9;" horiz-adv-x="486" 
d="M337 -130q-21 0 -35 15q-57 52 -57 325q0 120 11 255q-86 -413 -141 -414l-13 -1q-30 0 -43 15q-59 64 -59 296q0 152 22 262q3 20 35 20q43 -2 43 -27v-3q-25 -125 -25 -287l1 -51q1 -21 2.5 -49t6 -66t12.5 -64.5t18 -29.5q56 6 158 565q1 21 38 21q37 -2 37 -27v-7
q-20 -105 -33 -302q-3 -57 -3 -147q0 -283 36 -283q15 0 40 69t55 167.5t46 135.5q1 4 6 4q8 0 8 -8v-2q-17 -37 -48 -138.5t-58 -171t-48 -71.5zM232 696q-3 0 -5 1q-53 45 -66 57q-2 4 -2 6q0 6 6.5 12.5t13.5 6.5q3 0 6 -3l55 -65q2 -1 2 -5q0 -10 -10 -10z" />
    <glyph glyph-name="Uacute" unicode="&#xda;" horiz-adv-x="486" 
d="M337 -130q-21 0 -35 15q-57 52 -57 325q0 120 11 255q-86 -413 -141 -414l-13 -1q-30 0 -43 15q-59 64 -59 296q0 152 22 262q3 20 35 20q43 -2 43 -27v-3q-25 -125 -25 -287l1 -51q1 -21 2.5 -49t6 -66t12.5 -64.5t18 -29.5q56 6 158 565q1 21 38 21q37 -2 37 -27v-7
q-20 -105 -33 -302q-3 -57 -3 -147q0 -283 36 -283q15 0 40 69t55 167.5t46 135.5q1 4 6 4q8 0 8 -8v-2q-17 -37 -48 -138.5t-58 -171t-48 -71.5zM182 696q-11 0 -11 11q0 2 2 4l56 65q3 3 6 3q7 0 13.5 -6.5t6.5 -12.5q0 -3 -3 -6q-12 -12 -37.5 -33.5t-27.5 -23.5z" />
    <glyph glyph-name="Ucircumflex" unicode="&#xdb;" horiz-adv-x="486" 
d="M337 -130q-21 0 -35 15q-57 52 -57 325q0 120 11 255q-86 -413 -141 -414l-13 -1q-30 0 -43 15q-59 64 -59 296q0 152 22 262q3 20 35 20q43 -2 43 -27v-3q-25 -125 -25 -287l1 -51q1 -21 2.5 -49t6 -66t12.5 -64.5t18 -29.5q56 6 158 565q1 21 38 21q37 -2 37 -27v-7
q-20 -105 -33 -302q-3 -57 -3 -147q0 -283 36 -283q15 0 40 69t55 167.5t46 135.5q1 4 6 4q8 0 8 -8v-2q-17 -37 -48 -138.5t-58 -171t-48 -71.5zM233 698q-3 0 -5 2l-24 31l-27 -31q-4 -2 -5 -2q-8 0 -8 7q0 4 2 5l32 38q4 6 14 6l4 -2l30 -38q1 -1 1 -3q0 -4 -4.5 -8.5
t-9.5 -4.5z" />
    <glyph glyph-name="Udieresis" unicode="&#xdc;" horiz-adv-x="486" 
d="M337 -130q-21 0 -35 15q-57 52 -57 325q0 120 11 255q-86 -413 -141 -414l-13 -1q-30 0 -43 15q-59 64 -59 296q0 152 22 262q3 20 35 20q43 -2 43 -27v-3q-25 -125 -25 -287l1 -51q1 -21 2.5 -49t6 -66t12.5 -64.5t18 -29.5q56 6 158 565q1 21 38 21q37 -2 37 -27v-7
q-20 -105 -33 -302q-3 -57 -3 -147q0 -283 36 -283q15 0 40 69t55 167.5t46 135.5q1 4 6 4q8 0 8 -8v-2q-17 -37 -48 -138.5t-58 -171t-48 -71.5zM165 716q-10 0 -17 7t-7 17t7 17t17 7t17 -7t7 -17t-7 -17t-17 -7zM239 716q-10 0 -17 7t-7 17t7 17t17 7t17 -7t7 -17t-7 -17
t-17 -7z" />
    <glyph glyph-name="Yacute" unicode="&#xdd;" horiz-adv-x="441" 
d="M157 -138l-12 1q-46 5 -69.5 32.5t-23.5 66.5q0 35 18 67t51.5 59t67.5 46.5t80 41.5q5 60 5 149q0 137 -12 257q-80 -415 -145 -442q-12 -6 -26 -6q-20 0 -36 10q-55 33 -55 216q0 79 9.5 162t17.5 105q8 21 38 21q38 -2 38 -28l-1 -4q-25 -135 -27 -323q0 -142 31 -142
q2 0 6 2q22 10 46 71.5t45 152.5t32.5 146.5t20.5 108.5v1q0 14 13.5 23t30.5 9q30 0 30 -23q14 -142 14 -289q0 -86 -5 -146q82 36 106 53q2 2 5 2q7 0 7 -8q0 -4 -3 -5q-25 -19 -116 -59q-18 -200 -79 -276q-42 -52 -102 -52zM147 -123q20 1 41 25t33 48q33 68 47 209
q-201 -94 -201 -197q0 -33 20 -57t60 -28zM178 702q-11 0 -11 11q0 2 2 4l56 65q3 3 6 3q7 0 13.5 -6.5t6.5 -12.5q0 -3 -3 -6q-12 -12 -37.5 -33.5t-27.5 -23.5z" />
    <glyph glyph-name="Thorn" unicode="&#xde;" horiz-adv-x="322" 
d="M20 -105q-20 0 -20 20l-1 145q0 332 23 520q3 21 28 21t25 -21l-1 -6q-4 -20 -7 -58t-6.5 -103t-3.5 -73q14 59 48 99t70 40q98 -1 98 -131q-2 -86 -33.5 -148.5t-92.5 -62.5l-13 1q-20 2 -45 21t-40 39q-4 -71 -4 -190l1 -91q0 -9 -8 -15.5t-18 -6.5zM137 160
q30 0 54 53.5t29 118.5l2 40q0 89 -51 89q-39 0 -78 -71t-43 -170q14 -20 40.5 -39.5t46.5 -20.5z" />
    <glyph glyph-name="germandbls" unicode="&#xdf;" horiz-adv-x="373" 
d="M31 -59h-3q-22 0 -23 19q-8 65 -8 190q0 103 6 178q16 217 137 228l16 1q93 0 93 -87q-1 -52 -27.5 -104t-64.5 -81q96 -4 115 -87q69 55 105 64q5 0 7 -9q0 -5 -4 -6q-45 -16 -105 -66l1 -21q0 -70 -39 -137.5t-81 -67.5q-15 0 -27.5 10.5t-12.5 26.5q0 54 102 156v5
q0 117 -82 117h-6q-6 0 -7 5q-1 2 -1 3t2 5q29 25 48 75t20 98q0 85 -46 85q-74 -4 -85 -195q-1 -8 -1 -12q-7 -105 -7 -231q0 -50 2 -136q0 -22 -24 -26zM159 -30q43 40 57 155q-85 -88 -85 -132q0 -11 7.5 -17t17.5 -6h3z" />
    <glyph glyph-name="agrave" unicode="&#xe0;" horiz-adv-x="310" 
d="M175 4q-13 0 -23 7q-30 19 -30 135q0 22 3 76q-42 -135 -72 -139l-8 -1q-58 0 -58 99l1 25q5 51 29 97t64 46l13 -1q25 -5 41 -30l4 19q5 18 31 18q12 0 21 -6.5t9 -18.5l-1 -4q-19 -180 -19 -237q0 -29 3 -49q2 -19 6 -19q16 5 40.5 51t51 110.5t31.5 75.5q3 4 7 4
q7 0 7 -7q0 -2 -1 -4q-4 -8 -32.5 -77.5t-53.5 -115t-46 -51.5q-9 -3 -18 -3zM51 97q8 0 17.5 16.5t19.5 43.5t18 52t15.5 51.5t9.5 32.5q-5 16 -15 26q-12 10 -23 14q-15 -9 -31.5 -86t-16.5 -125q0 -18 3 -24zM154 398q-3 0 -5 1q-53 45 -66 57q-2 4 -2 6q0 6 6.5 12.5
t13.5 6.5q3 0 6 -3l55 -65q2 -1 2 -5q0 -10 -10 -10z" />
    <glyph glyph-name="aacute" unicode="&#xe1;" horiz-adv-x="310" 
d="M175 4q-13 0 -23 7q-30 19 -30 135q0 22 3 76q-42 -135 -72 -139l-8 -1q-58 0 -58 99l1 25q5 51 29 97t64 46l13 -1q25 -5 41 -30l4 19q5 18 31 18q12 0 21 -6.5t9 -18.5l-1 -4q-19 -180 -19 -237q0 -29 3 -49q2 -19 6 -19q16 5 40.5 51t51 110.5t31.5 75.5q3 4 7 4
q7 0 7 -7q0 -2 -1 -4q-4 -8 -32.5 -77.5t-53.5 -115t-46 -51.5q-9 -3 -18 -3zM51 97q8 0 17.5 16.5t19.5 43.5t18 52t15.5 51.5t9.5 32.5q-5 16 -15 26q-12 10 -23 14q-15 -9 -31.5 -86t-16.5 -125q0 -18 3 -24zM94 396q-11 0 -11 11q0 2 2 4l56 65q3 3 6 3q7 0 13.5 -6.5
t6.5 -12.5q0 -3 -3 -6q-12 -12 -37.5 -33.5t-27.5 -23.5z" />
    <glyph glyph-name="acircumflex" unicode="&#xe2;" horiz-adv-x="310" 
d="M175 4q-13 0 -23 7q-30 19 -30 135q0 22 3 76q-42 -135 -72 -139l-8 -1q-58 0 -58 99l1 25q5 51 29 97t64 46l13 -1q25 -5 41 -30l4 19q5 18 31 18q12 0 21 -6.5t9 -18.5l-1 -4q-19 -180 -19 -237q0 -29 3 -49q2 -19 6 -19q16 5 40.5 51t51 110.5t31.5 75.5q3 4 7 4
q7 0 7 -7q0 -2 -1 -4q-4 -8 -32.5 -77.5t-53.5 -115t-46 -51.5q-9 -3 -18 -3zM51 97q8 0 17.5 16.5t19.5 43.5t18 52t15.5 51.5t9.5 32.5q-5 16 -15 26q-12 10 -23 14q-15 -9 -31.5 -86t-16.5 -125q0 -18 3 -24zM149 403q-3 0 -5 2l-24 31l-27 -31q-4 -2 -5 -2q-8 0 -8 7
q0 4 2 5l32 38q4 6 14 6l4 -2l30 -38q1 -1 1 -3q0 -4 -4.5 -8.5t-9.5 -4.5z" />
    <glyph glyph-name="atilde" unicode="&#xe3;" horiz-adv-x="310" 
d="M175 4q-13 0 -23 7q-30 19 -30 135q0 22 3 76q-42 -135 -72 -139l-8 -1q-58 0 -58 99l1 25q5 51 29 97t64 46l13 -1q25 -5 41 -30l4 19q5 18 31 18q12 0 21 -6.5t9 -18.5l-1 -4q-19 -180 -19 -237q0 -29 3 -49q2 -19 6 -19q16 5 40.5 51t51 110.5t31.5 75.5q3 4 7 4
q7 0 7 -7q0 -2 -1 -4q-4 -8 -32.5 -77.5t-53.5 -115t-46 -51.5q-9 -3 -18 -3zM51 97q8 0 17.5 16.5t19.5 43.5t18 52t15.5 51.5t9.5 32.5q-5 16 -15 26q-12 10 -23 14q-15 -9 -31.5 -86t-16.5 -125q0 -18 3 -24zM138 395q-10 0 -22.5 10t-18.5 10q-4 0 -10.5 -7.5t-9.5 -7.5
q-9 3 -9 9q6 30 30 32q7 0 27 -13q10 -6 15 -6q8 0 13 11q3 7 8 7q8 -1 8 -11v-3q-11 -31 -31 -31z" />
    <glyph glyph-name="adieresis" unicode="&#xe4;" horiz-adv-x="310" 
d="M175 4q-13 0 -23 7q-30 19 -30 135q0 22 3 76q-42 -135 -72 -139l-8 -1q-58 0 -58 99l1 25q5 51 29 97t64 46l13 -1q25 -5 41 -30l4 19q5 18 31 18q12 0 21 -6.5t9 -18.5l-1 -4q-19 -180 -19 -237q0 -29 3 -49q2 -19 6 -19q16 5 40.5 51t51 110.5t31.5 75.5q3 4 7 4
q7 0 7 -7q0 -2 -1 -4q-4 -8 -32.5 -77.5t-53.5 -115t-46 -51.5q-9 -3 -18 -3zM51 97q8 0 17.5 16.5t19.5 43.5t18 52t15.5 51.5t9.5 32.5q-5 16 -15 26q-12 10 -23 14q-15 -9 -31.5 -86t-16.5 -125q0 -18 3 -24zM86 398q-10 0 -17 7t-7 17t7 17t17 7t17 -7t7 -17t-7 -17
t-17 -7zM160 398q-10 0 -17 7t-7 17t7 17t17 7t17 -7t7 -17t-7 -17t-17 -7z" />
    <glyph glyph-name="aring" unicode="&#xe5;" horiz-adv-x="310" 
d="M175 4q-13 0 -23 7q-30 19 -30 135q0 22 3 76q-42 -135 -72 -139l-8 -1q-58 0 -58 99l1 25q5 51 29 97t64 46l13 -1q25 -5 41 -30l4 19q5 18 31 18q12 0 21 -6.5t9 -18.5l-1 -4q-19 -180 -19 -237q0 -29 3 -49q2 -19 6 -19q16 5 40.5 51t51 110.5t31.5 75.5q3 4 7 4
q7 0 7 -7q0 -2 -1 -4q-4 -8 -32.5 -77.5t-53.5 -115t-46 -51.5q-9 -3 -18 -3zM51 97q8 0 17.5 16.5t19.5 43.5t18 52t15.5 51.5t9.5 32.5q-5 16 -15 26q-12 10 -23 14q-15 -9 -31.5 -86t-16.5 -125q0 -18 3 -24zM120 416q8 0 12.5 7.5t4.5 16.5q0 20 -15 20q-13 0 -13 -23
q0 -21 11 -21zM119 400h-2q-13 0 -22 9.5t-9 25.5q2 42 34 42q33 -2 33 -37q-1 -19 -10.5 -29.5t-23.5 -10.5z" />
    <glyph glyph-name="ae" unicode="&#xe6;" horiz-adv-x="340" 
d="M207 253q18 0 31.5 18t13.5 37q0 24 -26 30q-18 -2 -36 -80q10 -5 17 -5zM216 60h-8q-45 0 -68.5 37.5t-25.5 88.5q-33 -99 -60 -103l-8 -1q-32 0 -45.5 30.5t-13.5 72.5l1 22q6 52 29.5 97.5t63.5 45.5q24 -3 35.5 -11t25.5 -31q26 45 71 45q29 -2 41.5 -12.5
t12.5 -33.5q0 -25 -18 -47t-42 -22q-8 0 -20 5q-9 -42 -9 -95q0 -73 32 -74q64 0 132 183q2 5 7 5q7 -1 7 -8v-2q-69 -190 -140 -192zM52 97q12 0 28 38.5t33.5 97t18.5 60.5q-11 32 -38 40q-15 -9 -31.5 -85t-16.5 -125q0 -17 3 -25z" />
    <glyph glyph-name="ccedilla" unicode="&#xe7;" horiz-adv-x="230" 
d="M48 -48l8 37q-43 13 -58 60q-16 45 -16 97q0 35 4 58q11 68 38 113q29 47 70 47h6q18 -1 32 -14q13 -12 13 -32v-5q-1 -2 -1 -6t-1 -6q-2 -8 -5 -13q-4 -9 -13 -9l-6 2q-7 4 -7 11q0 4 1 7q1 4 5 6t5 3q1 0 2.5 0.5t2.5 1.5l1 1q1 1 1 2l1 6q0 8 -5 16q-4 5 -14 11h-1
q-13 0 -23 -34q-14 -39 -20 -71q-10 -41 -11 -51q-3 -26 -4 -39q-3 -27 -3 -57q0 -37 7 -62q6 -28 24 -29q43 6 76 74q32 65 54 130q13 38 21 52q3 3 6 3t5 -2l2 -4q0 -4 -1 -5q-5 -9 -18 -46q-18 -56 -55 -132q-34 -72 -83 -84q-5 -1 -16 -1h-2l-5 -25l4 1q13 0 24 -9
q10 -9 10 -22q-8 -35 -37 -35q-8 0 -15 4q-8 3 -11 13q0 4 2 6q1 1 6 1q3 0 4 -1t4 -3q3 -3 5 -4q2 -2 5 -2q13 0 16 22q-2 14 -14 14h-4q-3 0 -4 -1t-5 -1q-7 1 -7 6z" />
    <glyph glyph-name="egrave" unicode="&#xe8;" horiz-adv-x="218" 
d="M83 253q13 0 25 11.5t18 26.5q2 6 2 16q0 26 -25 30q-19 -1 -37 -79q8 -5 17 -5zM92 59q-14 0 -27 3q-37 9 -56 46t-19 86q0 52 19.5 97t50.5 57q15 5 29 5l15 -1q39 -4 39 -44q0 -10 -3 -19q-6 -21 -22 -36t-35 -15q-8 0 -20 5q-9 -42 -9 -94q0 -72 28 -75h5q37 0 76 63
q28 48 55 120q2 5 7 5l4 -1q3 -1 3 -6v-3q-28 -77 -56 -122q-41 -68 -84 -71zM135 378q-3 0 -5 1q-53 45 -66 57q-2 4 -2 6q0 6 6.5 12.5t13.5 6.5q3 0 6 -3l55 -65q2 -1 2 -5q0 -10 -10 -10z" />
    <glyph glyph-name="eacute" unicode="&#xe9;" horiz-adv-x="218" 
d="M83 253q13 0 25 11.5t18 26.5q2 6 2 16q0 26 -25 30q-19 -1 -37 -79q8 -5 17 -5zM92 59q-14 0 -27 3q-37 9 -56 46t-19 86q0 52 19.5 97t50.5 57q15 5 29 5l15 -1q39 -4 39 -44q0 -10 -3 -19q-6 -21 -22 -36t-35 -15q-8 0 -20 5q-9 -42 -9 -94q0 -72 28 -75h5q37 0 76 63
q28 48 55 120q2 5 7 5l4 -1q3 -1 3 -6v-3q-28 -77 -56 -122q-41 -68 -84 -71zM77 381q-11 0 -11 11q0 2 2 4l56 65q3 3 6 3q7 0 13.5 -6.5t6.5 -12.5q0 -3 -3 -6q-12 -12 -37.5 -33.5t-27.5 -23.5z" />
    <glyph glyph-name="ecircumflex" unicode="&#xea;" horiz-adv-x="218" 
d="M83 253q13 0 25 11.5t18 26.5q2 6 2 16q0 26 -25 30q-19 -1 -37 -79q8 -5 17 -5zM92 59q-14 0 -27 3q-37 9 -56 46t-19 86q0 52 19.5 97t50.5 57q15 5 29 5l15 -1q39 -4 39 -44q0 -10 -3 -19q-6 -21 -22 -36t-35 -15q-8 0 -20 5q-9 -42 -9 -94q0 -72 28 -75h5q37 0 76 63
q28 48 55 120q2 5 7 5l4 -1q3 -1 3 -6v-3q-28 -77 -56 -122q-41 -68 -84 -71zM136 382q-3 0 -5 2l-24 31l-27 -31q-4 -2 -5 -2q-8 0 -8 7q0 4 2 5l32 38q4 6 14 6l4 -2l30 -38q1 -1 1 -3q0 -4 -4.5 -8.5t-9.5 -4.5z" />
    <glyph glyph-name="edieresis" unicode="&#xeb;" horiz-adv-x="218" 
d="M83 253q13 0 25 11.5t18 26.5q2 6 2 16q0 26 -25 30q-19 -1 -37 -79q8 -5 17 -5zM92 59q-14 0 -27 3q-37 9 -56 46t-19 86q0 52 19.5 97t50.5 57q15 5 29 5l15 -1q39 -4 39 -44q0 -10 -3 -19q-6 -21 -22 -36t-35 -15q-8 0 -20 5q-9 -42 -9 -94q0 -72 28 -75h5q37 0 76 63
q28 48 55 120q2 5 7 5l4 -1q3 -1 3 -6v-3q-28 -77 -56 -122q-41 -68 -84 -71zM63 389q-10 0 -17 7t-7 17t7 17t17 7t17 -7t7 -17t-7 -17t-17 -7zM137 389q-10 0 -17 7t-7 17t7 17t17 7t17 -7t7 -17t-7 -17t-17 -7z" />
    <glyph glyph-name="igrave" unicode="&#xec;" horiz-adv-x="165" 
d="M65 68q-15 0 -26 3q-42 15 -42 135q0 56 5 78q1 23 33 23h3q12 0 21 -5.5t9 -14.5v-1q0 -6 -4 -55.5t-4 -78.5q0 -69 20 -69q11 0 21 11.5t20.5 35.5t16.5 40t16.5 49t12.5 38t7 5l4 -1q3 -1 3 -6v-3q-2 -6 -13.5 -41t-18 -51.5t-18.5 -41.5t-24.5 -36.5t-26.5 -12.5z
M82 346q-3 0 -5 1q-53 45 -66 57q-2 4 -2 6q0 6 6.5 12.5t13.5 6.5q3 0 6 -3l55 -65q2 -1 2 -5q0 -10 -10 -10z" />
    <glyph glyph-name="iacute" unicode="&#xed;" horiz-adv-x="165" 
d="M65 68q-15 0 -26 3q-42 15 -42 135q0 56 5 78q1 23 33 23h3q12 0 21 -5.5t9 -14.5v-1q0 -6 -4 -55.5t-4 -78.5q0 -69 20 -69q11 0 21 11.5t20.5 35.5t16.5 40t16.5 49t12.5 38t7 5l4 -1q3 -1 3 -6v-3q-2 -6 -13.5 -41t-18 -51.5t-18.5 -41.5t-24.5 -36.5t-26.5 -12.5z
M11 344q-11 0 -11 11q0 2 2 4l56 65q3 3 6 3q7 0 13.5 -6.5t6.5 -12.5q0 -3 -3 -6q-12 -12 -37.5 -33.5t-27.5 -23.5z" />
    <glyph glyph-name="icircumflex" unicode="&#xee;" horiz-adv-x="165" 
d="M65 68q-15 0 -26 3q-42 15 -42 135q0 56 5 78q1 23 33 23h3q12 0 21 -5.5t9 -14.5v-1q0 -6 -4 -55.5t-4 -78.5q0 -69 20 -69q11 0 21 11.5t20.5 35.5t16.5 40t16.5 49t12.5 38t7 5l4 -1q3 -1 3 -6v-3q-2 -6 -13.5 -41t-18 -51.5t-18.5 -41.5t-24.5 -36.5t-26.5 -12.5z
M72 350q-3 0 -5 2l-24 31l-27 -31q-4 -2 -5 -2q-8 0 -8 7q0 4 2 5l32 38q4 6 14 6l4 -2l30 -38q1 -1 1 -3q0 -4 -4.5 -8.5t-9.5 -4.5z" />
    <glyph glyph-name="idieresis" unicode="&#xef;" horiz-adv-x="165" 
d="M65 68q-15 0 -26 3q-42 15 -42 135q0 56 5 78q1 23 33 23h3q12 0 21 -5.5t9 -14.5v-1q0 -6 -4 -55.5t-4 -78.5q0 -69 20 -69q11 0 21 11.5t20.5 35.5t16.5 40t16.5 49t12.5 38t7 5l4 -1q3 -1 3 -6v-3q-2 -6 -13.5 -41t-18 -51.5t-18.5 -41.5t-24.5 -36.5t-26.5 -12.5z
M7 347q-10 0 -17 7t-7 17t7 17t17 7t17 -7t7 -17t-7 -17t-17 -7zM81 347q-10 0 -17 7t-7 17t7 17t17 7t17 -7t7 -17t-7 -17t-17 -7z" />
    <glyph glyph-name="eth" unicode="&#xf0;" horiz-adv-x="365" 
d="M45 104q18 0 35 32q18 33 32 74q15 46 23 74q5 14 5 16q-19 28 -52 33q-10 -7 -21 -45q-8 -29 -17 -86q-7 -45 -7 -77q0 -11 2 -21zM227 467h60q3 0 8 -3q3 -3 3 -8q0 -4 -3 -7q-4 -4 -8 -4h-64q-1 -3 -1 -10q-13 -86 -16 -125q56 35 96 104q40 71 41 131v3q0 28 -13 47
q-14 18 -42 18h-2q-21 -3 -37 -55q-12 -36 -22 -91zM96 467h68q4 18 7 27q20 80 46 110q11 11 29 18t41 7q27 0 50 -18q21 -19 21 -65v-3q-4 -71 -48 -144q-46 -75 -106 -106q0 -1 -2 -44q-2 -46 -2 -76q0 -57 6 -106q5 -50 21 -50h1q21 6 58 76q40 76 77 159q1 1 3 5
q1 2 3 4q1 1 4 1h2l1 -1h1q4 -1 4 -6v-1q-1 -1 -1 -2l-10 -22q-42 -88 -78 -156q-38 -68 -64 -72l-22 -1q-16 0 -30 12q-20 26 -29 79q-9 52 -9 119v32q-7 -23 -25 -69q-12 -31 -31 -60q-16 -25 -38 -25t-33 18q-11 16 -16 42q-5 27 -5 46q0 15 2 31q7 46 31 86q23 36 57 36
h5q33 -2 58 -27q7 74 17 124h-64q-5 0 -8 4q-3 3 -3 7q0 5 4 8q3 3 7 3z" />
    <glyph glyph-name="ntilde" unicode="&#xf1;" horiz-adv-x="344" 
d="M222 -10q-24 0 -35 6q-27 18 -27 106q0 57 12.5 161t12.5 118q0 11 -2 12q-62 -13 -124 -313q-3 -13 -4.5 -18t-7.5 -10.5t-17 -5.5q-26 0 -29 22q-4 38 -4 109q0 76 5 108q3 24 32 24h3q11 -1 19.5 -8t8.5 -18l-6 -132q59 258 130 258h2q28 -2 38 -29q7 -21 7 -61
t-9.5 -133.5t-9.5 -126.5q0 -54 18 -54l5 1q9 3 21 22.5t24 52t22 61.5t21.5 65.5t16.5 49.5q2 5 7 5q7 0 8 -7l-1 -3q-5 -14 -17 -52.5t-22.5 -67.5t-23.5 -62.5t-26.5 -54t-25.5 -23.5q-5 -2 -22 -2zM194 440q-10 0 -22.5 10t-18.5 10q-4 0 -10.5 -7.5t-9.5 -7.5
q-9 3 -9 9q6 30 30 32q7 0 27 -13q10 -6 15 -6q8 0 13 11q3 7 8 7q8 -1 8 -11v-3q-11 -31 -31 -31z" />
    <glyph glyph-name="ograve" unicode="&#xf2;" horiz-adv-x="204" 
d="M68 211q20 0 47 5v12q0 45 -16.5 67.5t-40.5 22.5q-21 0 -39 -15.5t-19 -36.5q2 4 2 6q3 12 22 12l12 -2q21 -6 21 -21l-1 -6q-5 -17 -8 -43q6 -1 20 -1zM55 68q13 1 28 26q23 41 30 107q-25 -5 -44 -5q-9 0 -23 2q-3 -34 -3 -71q2 -51 12 -59zM53 53h-5q-24 0 -34 10
q-27 27 -27 98q0 11 0.5 22t1.5 19.5t2 15t1 10.5l1 4q-13 26 -13 41q0 12 4 21q19 47 66 47q32 0 55.5 -29t23.5 -84v-8q50 15 79 40q2 2 5 2t5 -3q2 -2 2 -5q0 -2 -3 -5q-34 -30 -88 -45q-7 -70 -32 -115q-19 -36 -44 -36zM114 375q-3 0 -5 1q-53 45 -66 57q-2 4 -2 6
q0 6 6.5 12.5t13.5 6.5q3 0 6 -3l55 -65q2 -1 2 -5q0 -10 -10 -10z" />
    <glyph glyph-name="oacute" unicode="&#xf3;" horiz-adv-x="204" 
d="M68 211q20 0 47 5v12q0 45 -16.5 67.5t-40.5 22.5q-21 0 -39 -15.5t-19 -36.5q2 4 2 6q3 12 22 12l12 -2q21 -6 21 -21l-1 -6q-5 -17 -8 -43q6 -1 20 -1zM55 68q13 1 28 26q23 41 30 107q-25 -5 -44 -5q-9 0 -23 2q-3 -34 -3 -71q2 -51 12 -59zM53 53h-5q-24 0 -34 10
q-27 27 -27 98q0 11 0.5 22t1.5 19.5t2 15t1 10.5l1 4q-13 26 -13 41q0 12 4 21q19 47 66 47q32 0 55.5 -29t23.5 -84v-8q50 15 79 40q2 2 5 2t5 -3q2 -2 2 -5q0 -2 -3 -5q-34 -30 -88 -45q-7 -70 -32 -115q-19 -36 -44 -36zM38 388q-11 0 -11 11q0 2 2 4l56 65q3 3 6 3
q7 0 13.5 -6.5t6.5 -12.5q0 -3 -3 -6q-12 -12 -37.5 -33.5t-27.5 -23.5z" />
    <glyph glyph-name="ocircumflex" unicode="&#xf4;" horiz-adv-x="204" 
d="M68 211q20 0 47 5v12q0 45 -16.5 67.5t-40.5 22.5q-21 0 -39 -15.5t-19 -36.5q2 4 2 6q3 12 22 12l12 -2q21 -6 21 -21l-1 -6q-5 -17 -8 -43q6 -1 20 -1zM55 68q13 1 28 26q23 41 30 107q-25 -5 -44 -5q-9 0 -23 2q-3 -34 -3 -71q2 -51 12 -59zM53 53h-5q-24 0 -34 10
q-27 27 -27 98q0 11 0.5 22t1.5 19.5t2 15t1 10.5l1 4q-13 26 -13 41q0 12 4 21q19 47 66 47q32 0 55.5 -29t23.5 -84v-8q50 15 79 40q2 2 5 2t5 -3q2 -2 2 -5q0 -2 -3 -5q-34 -30 -88 -45q-7 -70 -32 -115q-19 -36 -44 -36zM100 382q-3 0 -5 2l-24 31l-27 -31q-4 -2 -5 -2
q-8 0 -8 7q0 4 2 5l32 38q4 6 14 6l4 -2l30 -38q1 -1 1 -3q0 -4 -4.5 -8.5t-9.5 -4.5z" />
    <glyph glyph-name="otilde" unicode="&#xf5;" horiz-adv-x="204" 
d="M68 211q20 0 47 5v12q0 45 -16.5 67.5t-40.5 22.5q-21 0 -39 -15.5t-19 -36.5q2 4 2 6q3 12 22 12l12 -2q21 -6 21 -21l-1 -6q-5 -17 -8 -43q6 -1 20 -1zM55 68q13 1 28 26q23 41 30 107q-25 -5 -44 -5q-9 0 -23 2q-3 -34 -3 -71q2 -51 12 -59zM53 53h-5q-24 0 -34 10
q-27 27 -27 98q0 11 0.5 22t1.5 19.5t2 15t1 10.5l1 4q-13 26 -13 41q0 12 4 21q19 47 66 47q32 0 55.5 -29t23.5 -84v-8q50 15 79 40q2 2 5 2t5 -3q2 -2 2 -5q0 -2 -3 -5q-34 -30 -88 -45q-7 -70 -32 -115q-19 -36 -44 -36zM89 379q-10 0 -22.5 10t-18.5 10
q-4 0 -10.5 -7.5t-9.5 -7.5q-9 3 -9 9q6 30 30 32q7 0 27 -13q10 -6 15 -6q7 0 13 11q4 7 8 7q8 -1 8 -11v-3q-11 -31 -31 -31z" />
    <glyph glyph-name="odieresis" unicode="&#xf6;" horiz-adv-x="204" 
d="M68 211q20 0 47 5v12q0 45 -16.5 67.5t-40.5 22.5q-21 0 -39 -15.5t-19 -36.5q2 4 2 6q3 12 22 12l12 -2q21 -6 21 -21l-1 -6q-5 -17 -8 -43q6 -1 20 -1zM55 68q13 1 28 26q23 41 30 107q-25 -5 -44 -5q-9 0 -23 2q-3 -34 -3 -71q2 -51 12 -59zM53 53h-5q-24 0 -34 10
q-27 27 -27 98q0 11 0.5 22t1.5 19.5t2 15t1 10.5l1 4q-13 26 -13 41q0 12 4 21q19 47 66 47q32 0 55.5 -29t23.5 -84v-8q50 15 79 40q2 2 5 2t5 -3q2 -2 2 -5q0 -2 -3 -5q-34 -30 -88 -45q-7 -70 -32 -115q-19 -36 -44 -36zM36 374q-10 0 -17 7t-7 17t7 17t17 7t17 -7
t7 -17t-7 -17t-17 -7zM110 374q-10 0 -17 7t-7 17t7 17t17 7t17 -7t7 -17t-7 -17t-17 -7z" />
    <glyph glyph-name="divide" unicode="&#xf7;" horiz-adv-x="1000" 
d="M570 228h-191q-15 0 -15 15q0 14 14 14l192 1q14 0 14 -15t-14 -15zM476 119q-10 0 -17 7t-7 17t7 17t17 7t17 -7t7 -17t-7 -17t-17 -7zM476 309q-10 0 -17 7t-7 17t7 17t17 7t17 -7t7 -17t-7 -17t-17 -7z" />
    <glyph glyph-name="oslash" unicode="&#xf8;" horiz-adv-x="204" 
d="M108 278l-28 -67q24 2 35 5v12q0 32 -7 50zM74 196l-31 -71q2 -25 4 -36q1 -16 8 -21q14 3 28 26q23 47 30 107q-13 -3 -39 -5zM49 212l40 93q-13 13 -31 13q-21 0 -38 -14q-17 -15 -20 -38q2 4 2 6q1 6 8 9q6 3 14 3l12 -2q7 -1 15 -7q6 -5 6 -14l-1 -6q-5 -18 -8 -43h1
zM-27 36l24 55q-2 4 -4 16q-6 27 -6 54q0 25 3 45q2 21 3 25v1l-1 1l-7 14q-5 12 -5 26q0 12 4 21q11 24 28 35q18 12 38 12q26 0 46 -19l15 34q3 6 7 7q4 2 5 2q2 0 6 -2q6 -2 8 -5q2 -4 2 -5q0 -2 -2 -8l-21 -49q13 -25 13 -68v-8q47 14 79 40l1 1q1 1 2 1h2q3 0 5 -3
q2 -2 2 -5q0 -2 -3 -5q-38 -32 -88 -45q-1 -17 -10 -54q-6 -28 -22 -61q-17 -36 -44 -36h-5q-6 0 -18 2q-10 2 -14 6l-16 -36q-3 -7 -7 -8q-3 -1 -8 -1h-3q-7 3 -8 7q-2 2 -2 7q0 4 1 6z" />
    <glyph glyph-name="ugrave" unicode="&#xf9;" horiz-adv-x="312" 
d="M182 -25q-13 0 -21 4q-31 14 -31 146q0 32 4 108q-46 -148 -74 -163q-8 -3 -17 -3q-17 0 -24 5q-22 15 -22 106q0 63 5 103q3 24 33 24q17 -1 22.5 -7.5t5.5 -19.5l-1 -19q-9 -67 -9 -145q0 -24 3 -29q27 21 85 221q6 18 26 18l8 -1q25 -4 25 -23v-3q-3 -22 -8 -104
t-5 -139t6 -63q40 2 110 236l10 30q2 5 7 5l4 -1q3 -2 3 -6v-3q-2 -4 -9 -30q-15 -48 -23.5 -72.5t-27.5 -73.5t-38 -74t-36 -26zM144 362q-3 0 -5 1q-53 45 -66 57q-2 4 -2 6q0 6 6.5 12.5t13.5 6.5q3 0 6 -3l55 -65q2 -1 2 -5q0 -10 -10 -10z" />
    <glyph glyph-name="uacute" unicode="&#xfa;" horiz-adv-x="312" 
d="M182 -25q-13 0 -21 4q-31 14 -31 146q0 32 4 108q-46 -148 -74 -163q-8 -3 -17 -3q-17 0 -24 5q-22 15 -22 106q0 63 5 103q3 24 33 24q17 -1 22.5 -7.5t5.5 -19.5l-1 -19q-9 -67 -9 -145q0 -24 3 -29q27 21 85 221q6 18 26 18l8 -1q25 -4 25 -23v-3q-3 -22 -8 -104
t-5 -139t6 -63q40 2 110 236l10 30q2 5 7 5l4 -1q3 -2 3 -6v-3q-2 -4 -9 -30q-15 -48 -23.5 -72.5t-27.5 -73.5t-38 -74t-36 -26zM85 354q-11 0 -11 11q0 2 2 4l56 65q3 3 6 3q7 0 13.5 -6.5t6.5 -12.5q0 -3 -3 -6q-12 -12 -37.5 -33.5t-27.5 -23.5z" />
    <glyph glyph-name="ucircumflex" unicode="&#xfb;" horiz-adv-x="312" 
d="M182 -25q-13 0 -21 4q-31 14 -31 146q0 32 4 108q-46 -148 -74 -163q-8 -3 -17 -3q-17 0 -24 5q-22 15 -22 106q0 63 5 103q3 24 33 24q17 -1 22.5 -7.5t5.5 -19.5l-1 -19q-9 -67 -9 -145q0 -24 3 -29q27 21 85 221q6 18 26 18l8 -1q25 -4 25 -23v-3q-3 -22 -8 -104
t-5 -139t6 -63q40 2 110 236l10 30q2 5 7 5l4 -1q3 -2 3 -6v-3q-2 -4 -9 -30q-15 -48 -23.5 -72.5t-27.5 -73.5t-38 -74t-36 -26zM141 374q-3 0 -5 2l-24 31l-27 -31q-4 -2 -5 -2q-8 0 -8 7q0 4 2 5l32 38q4 6 14 6l4 -2l30 -38q1 -1 1 -3q0 -4 -4.5 -8.5t-9.5 -4.5z" />
    <glyph glyph-name="udieresis" unicode="&#xfc;" horiz-adv-x="312" 
d="M182 -25q-13 0 -21 4q-31 14 -31 146q0 32 4 108q-46 -148 -74 -163q-8 -3 -17 -3q-17 0 -24 5q-22 15 -22 106q0 63 5 103q3 24 33 24q17 -1 22.5 -7.5t5.5 -19.5l-1 -19q-9 -67 -9 -145q0 -24 3 -29q27 21 85 221q6 18 26 18l8 -1q25 -4 25 -23v-3q-3 -22 -8 -104
t-5 -139t6 -63q40 2 110 236l10 30q2 5 7 5l4 -1q3 -2 3 -6v-3q-2 -4 -9 -30q-15 -48 -23.5 -72.5t-27.5 -73.5t-38 -74t-36 -26zM79 374q-10 0 -17 7t-7 17t7 17t17 7t17 -7t7 -17t-7 -17t-17 -7zM153 374q-10 0 -17 7t-7 17t7 17t17 7t17 -7t7 -17t-7 -17t-17 -7z" />
    <glyph glyph-name="yacute" unicode="&#xfd;" horiz-adv-x="329" 
d="M103 -191h-8q-66 5 -66 80l1 18q11 91 128 202v34q0 63 -4 143q-16 -55 -44.5 -118.5t-55.5 -66.5h-7q-23 0 -34 12q-19 20 -19 77q0 67 18 133q3 14 31 14h7q30 -4 30 -25v-4q-2 -14 -9 -48.5t-11 -63.5t-4 -51q0 -20 2 -28q25 15 58.5 104t33.5 113q0 21 28 27l9 1
q26 0 30 -23q10 -53 10 -169q6 5 47 39.5t59 50.5q2 2 4 2q3 0 6 -3q2 -2 2 -5q0 -2 -3 -5q-19 -17 -116 -99q-5 -220 -46 -293q-28 -48 -77 -48zM95 -176q57 7 63 264q-107 -103 -114 -188v-11q0 -60 51 -65zM99 396q-11 0 -11 11q0 2 2 4l56 65q3 3 6 3q7 0 13.5 -6.5
t6.5 -12.5q0 -3 -3 -6q-12 -12 -37.5 -33.5t-27.5 -23.5z" />
    <glyph glyph-name="thorn" unicode="&#xfe;" horiz-adv-x="294" 
d="M14 -165q-31 0 -31 160q0 102 12 216.5t29 169.5q4 13 26 13q26 -2 26 -19q0 -5 -1 -8q-32 -129 -39 -209q48 123 102 132l12 1q29 0 43.5 -24t14.5 -57l-1 -14q51 26 88 63q1 2 4 2q6 0 6 -6q0 -2 -3 -5q-38 -40 -98 -70q-11 -47 -44 -91t-69 -44q-27 0 -32 31
q0 40 87 93q9 32 9 62q0 37 -17 44q-37 -10 -68.5 -78.5t-42.5 -124.5q-5 -58 -5 -108q0 -35 6 -113q0 -13 -14 -16zM88 59q12 1 28.5 29.5t24.5 60.5q-28 -16 -48 -36.5t-20 -35.5q3 -16 15 -18z" />
    <glyph glyph-name="ydieresis" unicode="&#xff;" horiz-adv-x="329" 
d="M103 -191h-8q-66 5 -66 80l1 18q11 91 128 202v34q0 63 -4 143q-16 -55 -44.5 -118.5t-55.5 -66.5h-7q-23 0 -34 12q-19 20 -19 77q0 67 18 133q3 14 31 14h7q30 -4 30 -25v-4q-2 -14 -9 -48.5t-11 -63.5t-4 -51q0 -20 2 -28q25 15 58.5 104t33.5 113q0 21 28 27l9 1
q26 0 30 -23q10 -53 10 -169q6 5 47 39.5t59 50.5q2 2 4 2q3 0 6 -3q2 -2 2 -5q0 -2 -3 -5q-19 -17 -116 -99q-5 -220 -46 -293q-28 -48 -77 -48zM95 -176q57 7 63 264q-107 -103 -114 -188v-11q0 -60 51 -65zM89 403q-10 0 -17 7t-7 17t7 17t17 7t17 -7t7 -17t-7 -17
t-17 -7zM163 403q-10 0 -17 7t-7 17t7 17t17 7t17 -7t7 -17t-7 -17t-17 -7z" />
    <glyph glyph-name="dotlessi" unicode="&#x131;" horiz-adv-x="165" 
d="M65 68q-15 0 -26 3q-42 15 -42 135q0 56 5 78q1 23 33 23h3q12 0 21 -5.5t9 -14.5v-1q0 -6 -4 -55.5t-4 -78.5q0 -69 20 -69q11 0 21 11.5t20.5 35.5t16.5 40t16.5 49t12.5 38t7 5l4 -1q3 -1 3 -6v-3q-2 -6 -13.5 -41t-18 -51.5t-18.5 -41.5t-24.5 -36.5t-26.5 -12.5z
" />
    <glyph glyph-name="OE" unicode="&#x152;" horiz-adv-x="894" 
d="M190 134q38 0 76 9q39 9 71 21q5 50 5 97q0 51 -6 107t-21 105q-7 35 -24 69q-16 33 -42 59q-26 24 -64 24q-53 -3 -85 -34q-35 -32 -54 -80q-31 -74 -31 -162q0 -71 27 -133q4 75 19 151q13 66 29 104q3 7 11 12q7 3 17 3q12 0 25 -8q12 -8 12 -22q0 -3 -2 -9
q-9 -29 -24 -112q-16 -90 -20 -185q36 -16 81 -16zM217 -107q45 13 71 60q24 46 34 101q10 51 13 94q-37 -13 -70 -20q-40 -8 -75 -8q-41 0 -81 14v-23q0 -45 7 -91q8 -52 31 -87q22 -35 70 -40zM482 220q-39 -25 -101 -54q-11 -78 -33 -142q-22 -65 -60 -106t-90 -41
q-12 0 -19 1q-60 10 -90 56q-30 45 -39 105t-9 115v35q-20 30 -31 74q-10 40 -10 86q0 90 32 168q47 117 155 123q69 0 113 -54q44 -56 66 -140q21 -86 21 -178q0 -38 -5 -85q78 37 123 71q45 55 115 73q-123 51 -123 160q0 47 19 86q18 41 54 66q34 25 84 25
q135 -4 135 -151q0 -24 -4 -33q-4 -10 -15 -10q-8 2 -12 6q-5 5 -5 12q0 9 4 13q5 5 9 6q3 1 7 3q2 2 2 5q-2 56 -26 92q-25 36 -84 41q-35 0 -59 -27q-24 -29 -36 -67q-12 -39 -12 -73q0 -48 23 -94q22 -44 78 -55q4 -2 5 -3q1 -2 1 -5t-2 -5q-1 -2 -5 -4q-55 -7 -90 -52
q-35 -44 -52 -104q-17 -62 -17 -107q0 -48 17 -97q16 -49 49 -80q32 -32 78 -32h3q61 9 102 59t69 118q27 69 48 138q14 48 34 100q1 4 6 4q2 0 6 -2q2 -2 2 -5v-3q-23 -57 -41 -115q-20 -67 -48 -136q-27 -68 -69 -116q-43 -48 -108 -57q-22 -2 -32 -2q-62 0 -102 31
q-39 29 -59 80t-20 106q0 93 48 177z" />
    <glyph glyph-name="oe" unicode="&#x153;" horiz-adv-x="342" 
d="M68 211q19 0 46 5l1 14q0 45 -16.5 66.5t-40.5 21.5q-22 0 -39.5 -15t-18.5 -37q1 6 8 12t16 6q13 -2 17 -3t9.5 -6t5.5 -13q-1 -5 -3.5 -20t-4.5 -30q6 -1 20 -1zM209 253q18 0 31.5 18t13.5 37q0 26 -26 30q-18 -1 -36 -80q10 -5 17 -5zM53 53h-6q-23 0 -34 11
q-27 30 -27 99q0 10 0.5 21t1.5 19.5t2 15t2 10.5v4l-3 6q-3 6 -6.5 15.5t-3.5 19.5q0 26 21.5 46.5t48.5 20.5q26 0 47.5 -19.5t29.5 -56.5q25 88 88 88q30 -2 42.5 -12t12.5 -33q0 -25 -18 -47.5t-43 -22.5q-8 0 -20 5q-9 -59 -9 -94q0 -74 32 -75q22 0 42 17t37.5 49
t28.5 56.5t24 60.5q1 5 8 5q7 -2 7 -7l-1 -3q-28 -77 -55 -122q-23 -37 -43.5 -53t-48.5 -17q-37 0 -59.5 26.5t-31.5 66.5q-23 -98 -66 -100zM54 68q20 2 36.5 42.5t22.5 90.5q-20 -4 -43 -4l-24 1q-3 -28 -3 -58q2 -64 11 -72z" />
    <glyph glyph-name="Scaron" unicode="&#x160;" horiz-adv-x="541" 
d="M214 -103q-18 0 -39 3q-36 9 -56.5 38.5t-20.5 67.5q0 15 3 28q6 27 20.5 47.5t30.5 32.5t43.5 23t48.5 16.5t58.5 15t61.5 16.5q-9 39 -37 68t-62 47t-67.5 38.5t-56.5 54t-25 80.5q-63 13 -106 38q-10 6 -10 16q0 8 5.5 14.5t12.5 6.5q9 0 13.5 -6t4.5 -12l-1 -11
q0 -3 3 -5q44 -19 78 -26q4 74 61 126t133 52q40 0 62.5 -22t23.5 -59q0 -57 -55 -87q-57 -33 -141 -33h-14q5 -33 28.5 -57.5t55 -41.5t64 -36t60.5 -50t40 -73q61 21 111 54l4 1q7 0 7 -8q0 -3 -3 -6q-52 -33 -115 -56q5 -25 5 -46q0 -88 -57.5 -161.5t-144.5 -85.5
q-20 -2 -27 -2zM197 480q67 0 125.5 26t58.5 78q-1 29 -18.5 48t-46.5 19q-59 0 -95.5 -49t-36.5 -111v-11h13zM199 -88q51 0 111 61.5t60 155.5q0 20 -3 41l-58 -15q-38 -9 -57 -14.5t-47 -16t-42.5 -22t-28 -30t-19.5 -42.5q-3 -12 -3 -24q0 -39 24 -66.5t63 -27.5z
M351 760q5 0 9.5 -4.5t4.5 -8.5q0 -2 -1 -3l-30 -38l-4 -2q-10 0 -14 6l-32 38q-2 1 -2 5q0 7 8 7q1 0 5 -2l27 -31l24 31q2 2 5 2z" />
    <glyph glyph-name="scaron" unicode="&#x161;" horiz-adv-x="264" 
d="M77 -88h-8q-26 0 -43.5 17.5t-17.5 45.5q0 14 4 26q20 64 96 140q-11 13 -54 48.5t-52 62.5q-3 10 -3 22q0 35 29 61.5t65 26.5l12 -1q21 -3 33.5 -15t12.5 -29q0 -13 -7 -27q-6 -11 -16 -11l-5 1q-8 4 -8 12l1 5q2 7 11 9t9 10q0 25 -32 30l-12 1q-21 0 -37 -11.5
t-16 -32.5v-3q1 -21 18.5 -39.5t47.5 -41.5t45 -39q64 55 120 81l3 1q4 0 6 -4l1 -4q0 -5 -4 -6q-57 -28 -116 -79q28 -38 28 -92q0 -10 -2 -30q-8 -51 -39 -90.5t-70 -44.5zM68 -73q8 0 13 1q26 10 39 45t14 75l1 15q0 37 -18 66q-77 -80 -92 -136q-2 -6 -2 -18
q0 -21 12 -34.5t33 -13.5zM117 453q5 0 9.5 -4.5t4.5 -8.5q0 -2 -1 -3l-30 -38l-4 -2q-10 0 -14 6l-32 38q-2 1 -2 5q0 7 8 7q1 0 5 -2l27 -31l24 31q2 2 5 2z" />
    <glyph glyph-name="Ydieresis" unicode="&#x178;" horiz-adv-x="441" 
d="M157 -138l-12 1q-46 5 -69.5 32.5t-23.5 66.5q0 35 18 67t51.5 59t67.5 46.5t80 41.5q5 60 5 149q0 137 -12 257q-80 -415 -145 -442q-12 -6 -26 -6q-20 0 -36 10q-55 33 -55 216q0 79 9.5 162t17.5 105q8 21 38 21q38 -2 38 -28l-1 -4q-25 -135 -27 -323q0 -142 31 -142
q2 0 6 2q22 10 46 71.5t45 152.5t32.5 146.5t20.5 108.5v1q0 14 13.5 23t30.5 9q30 0 30 -23q14 -142 14 -289q0 -86 -5 -146q82 36 106 53q2 2 5 2q7 0 7 -8q0 -4 -3 -5q-25 -19 -116 -59q-18 -200 -79 -276q-42 -52 -102 -52zM147 -123q20 1 41 25t33 48q33 68 47 209
q-201 -94 -201 -197q0 -33 20 -57t60 -28zM155 720q-10 0 -17 7t-7 17t7 17t17 7t17 -7t7 -17t-7 -17t-17 -7zM229 720q-10 0 -17 7t-7 17t7 17t17 7t17 -7t7 -17t-7 -17t-17 -7z" />
    <glyph glyph-name="Zcaron" unicode="&#x17d;" horiz-adv-x="643" 
d="M576 -135q-63 0 -187 54.5t-144 60.5q-51 -58 -88 -84.5t-82 -28.5q-29 0 -52 13t-23 38q0 21 19.5 45t52.5 35q36 14 77 14q23 0 40 -4q91 110 191 269q-40 10 -74 10q-60 0 -99 -35q-2 -2 -5 -2q-7 0 -7 8q0 3 2 5q46 39 108 39q37 0 83 -12q138 224 138 313l-2 16
q-10 50 -113 50q-74 0 -129 -17q-61 -19 -101 -52.5t-40 -75.5l1 -14q1 -7 11 -9t12 -11q0 -6 -5 -12t-11 -6q-10 0 -16.5 17t-6.5 35q0 50 47.5 88t110 55.5t123.5 17.5q74 0 121 -23q37 -17 50 -35t13 -42q0 -98 -131 -314q42 -10 69 -10q7 0 13 1t12.5 2.5t11.5 2.5
q7 0 7 -8q0 -13 -44 -13q-29 0 -77 12q-94 -149 -196 -266q38 -12 102.5 -43t118.5 -50.5t99 -19.5q40 0 76 18q6 3 7 13.5t5 13.5q3 3 8 3q6 0 11.5 -5.5t5.5 -10.5q0 -8 -11 -16q-46 -30 -102 -30zM42 -107q50 0 136 102l-28 2q-38 0 -73 -13q-30 -11 -46 -30t-16 -36
q0 -25 27 -25zM443 797q5 0 9.5 -4.5t4.5 -8.5q0 -2 -1 -3l-30 -38l-4 -2q-10 0 -14 6l-32 38q-2 1 -2 5q0 7 8 7q1 0 5 -2l27 -31l24 31q2 2 5 2z" />
    <glyph glyph-name="zcaron" unicode="&#x17e;" horiz-adv-x="268" 
d="M78 -178h-9q-23 0 -31 3q-36 11 -36 62v9q9 85 140 233q-9 49 -35 49h-5q-19 -2 -56 -19l-3 -1q-8 0 -8 8q0 4 3 5q25 20 45.5 68t20.5 83q0 31 -19 31h-4q-24 -6 -42 -27q-19 -22 -24 -54v-1q0 -2 5 -6t5 -10q-2 -12 -13 -12h-3q-11 3 -11 12q0 7 2 19q7 36 28 62
q28 34 69 34h6q24 -3 40 -21.5t16 -48.5v-2q-1 -53 -71 -108q19 6 38 6q36 0 56 -23q52 53 90 87q2 2 5 2q2 0 6 -4q1 -1 1 -4t-2 -5q-39 -35 -92 -89q16 -29 16 -82t-15 -109t-45.5 -98.5t-67.5 -48.5zM51 -163q39 1 66 96.5t27 165.5v10q-120 -137 -127 -215v-8
q0 -46 34 -49zM129 470q5 0 9.5 -4.5t4.5 -8.5q0 -2 -1 -3l-30 -38l-4 -2q-10 0 -14 6l-32 38q-2 1 -2 5q0 7 8 7q1 0 5 -2l27 -31l24 31q2 2 5 2z" />
    <glyph glyph-name="circumflex" unicode="&#x2c6;" horiz-adv-x="145" 
d="M99 548q-3 0 -5 2l-24 31l-27 -31q-4 -2 -5 -2q-8 0 -8 7q0 4 2 5l32 38q4 6 14 6l4 -2l30 -38q1 -1 1 -3q0 -4 -4.5 -8.5t-9.5 -4.5z" />
    <glyph glyph-name="caron" unicode="&#x2c7;" horiz-adv-x="139" 
d="M93 605q5 0 9.5 -4.5t4.5 -8.5q0 -2 -1 -3l-30 -38l-4 -2q-10 0 -14 6l-32 38q-2 1 -2 5q0 7 8 7q1 0 5 -2l27 -31l24 31q2 2 5 2z" />
    <glyph glyph-name="ring" unicode="&#x2da;" horiz-adv-x="124" 
d="M60 564q8 0 12.5 7.5t4.5 16.5q0 20 -15 20q-13 0 -13 -23q0 -21 11 -21zM59 548h-2q-13 0 -22 9.5t-9 25.5q2 42 34 42q33 -2 33 -37q-1 -19 -10.5 -29.5t-23.5 -10.5z" />
    <glyph glyph-name="tilde" unicode="&#x2dc;" horiz-adv-x="152" 
d="M103 549q-10 0 -22.5 10t-18.5 10q-4 0 -10.5 -7.5t-9.5 -7.5q-9 3 -9 9q6 30 30 32q7 0 27 -13q10 -6 15 -6q7 0 13 11q4 7 8 7q8 -1 8 -11v-3q-11 -31 -31 -31z" />
    <glyph glyph-name="quoteleft" unicode="&#x2018;" horiz-adv-x="90" 
d="M48 560q-9 0 -16.5 6.5t-7.5 17.5q0 19 11 35.5t25 21.5q2 0 5 -5q-15 -20 -18 -28q11 0 18 -7t7 -17t-7 -17t-17 -7z" />
    <glyph glyph-name="quoteright" unicode="&#x2019;" horiz-adv-x="87" 
d="M25 558q-6 0 -6 5q0 2 1 3q12 12 16 26h-2q-9 0 -15.5 7t-6.5 16q0 10 6.5 17t16.5 7q9 0 16.5 -6t7.5 -17q0 -18 -10.5 -35.5t-23.5 -22.5z" />
    <glyph glyph-name="quotesinglbase" unicode="&#x201a;" horiz-adv-x="97" 
d="M39 9h-1q-4 0 -4 5q0 2 1 2q13 15 16 26h-2q-10 0 -16.5 7t-6.5 17t7 17t17 7q9 0 16.5 -6.5t7.5 -17.5q0 -18 -11 -35.5t-24 -21.5z" />
    <glyph glyph-name="quotedblleft" unicode="&#x201c;" horiz-adv-x="150" 
d="M42 559q-9 0 -16.5 6.5t-7.5 17.5q0 19 11 36.5t25 20.5q2 0 4 -5q0 -2 -1 -2q-13 -15 -16 -26q11 0 18 -7t7 -17t-7 -17t-17 -7zM101 559q-9 0 -16 6.5t-7 17.5q0 19 11 36.5t25 20.5q2 0 4 -5q0 -2 -1 -2q-14 -16 -16 -26q10 0 17 -7t7 -17t-7 -17t-17 -7z" />
    <glyph glyph-name="quotedblright" unicode="&#x201d;" horiz-adv-x="139" 
d="M25 558l-4 2q-1 1 -1 3t1 3q12 12 16 26h-2q-10 0 -16.5 7t-6.5 16q0 10 7 17t17 7q9 0 16.5 -6t7.5 -17q0 -19 -10.5 -36t-24.5 -22zM86 558l-5 2l-1 2q2 3 9 12.5t9 17.5h-2q-10 0 -16.5 7t-6.5 16q0 10 7 17t17 7q9 0 16.5 -6t7.5 -17q0 -18 -11 -35.5t-24 -22.5z" />
    <glyph glyph-name="quotedblbase" unicode="&#x201e;" horiz-adv-x="149" 
d="M29 9h-2q-2 0 -4 5q1 5 8.5 13.5t9.5 14.5h-2q-10 0 -16.5 7t-6.5 17t7 17t17 7q23 0 23 -26q0 -18 -10.5 -34.5t-23.5 -20.5zM90 9h-2q-2 0 -4 5q0 2 1 2q13 15 16 26h-2q-10 0 -16 7t-6 17t7 17t17 7q9 0 16 -6.5t7 -17.5q0 -18 -10.5 -35.5t-23.5 -21.5z" />
    <glyph glyph-name="bullet" unicode="&#x2022;" horiz-adv-x="281" 
d="M136 171q-25 0 -42 18t-17 41q0 25 17 42t42 17q24 0 41 -17.5t17 -41.5t-17 -41.5t-41 -17.5z" />
    <glyph glyph-name="perthousand" unicode="&#x2030;" horiz-adv-x="573" 
d="M120 367l6 1q41 19 45 106q0 75 -40 84q-16 0 -28 -31.5t-13 -70.5q0 -13 2 -30.5t9 -38t19 -20.5zM479 10q21 0 35 34t15 62v12q0 76 -40 83q-17 0 -28 -33t-13 -79q0 -79 31 -79zM469 -7h-3q-35 1 -53 30t-18 71q2 51 23.5 88t57.5 37q36 -1 52.5 -30.5t16.5 -71.5
q-1 -46 -20 -85t-56 -39zM67 -48q-14 0 -25 7.5t-11 18.5l2 9q27 74 137 307.5t153 303.5q3 7 14 7q13 0 27 -9.5t14 -19.5q0 -2 -2 -6q-151 -272 -285 -606q-5 -12 -24 -12zM306 10q24 0 36.5 35t13.5 73q0 75 -40 83q-16 0 -28.5 -35.5t-13.5 -79.5q0 -29 8 -52.5
t24 -23.5zM296 -7h-3q-35 1 -53 30t-19 70q0 48 23 87t59 39q35 -1 51.5 -31t16.5 -71q-1 -45 -19.5 -84.5t-55.5 -39.5zM110 349h-2q-35 2 -53.5 31t-18.5 70q1 50 23.5 88t58.5 38q35 -1 51.5 -32t16.5 -70q-1 -46 -20 -85.5t-56 -39.5z" />
    <glyph glyph-name="guilsinglleft" unicode="&#x2039;" horiz-adv-x="193" 
d="M138 122q-3 0 -5 2l-89 81q-3 3 -3 6l2 5l90 106q1 3 5 3q2 0 5 -2.5t3 -5.5l-2 -5l-80 -95l81 -74q3 -3 3 -7q0 -14 -10 -14z" />
    <glyph glyph-name="guilsinglright" unicode="&#x203a;" horiz-adv-x="176" 
d="M43 122q-8 0 -8 8l2 4l81 95l-82 74q-3 3 -3 8q3 14 10 14q3 0 6 -3l89 -81q2 -2 2 -5q0 -2 -2 -6l-89 -106q-4 -2 -6 -2z" />
    <glyph glyph-name="Euro" unicode="&#x20ac;" horiz-adv-x="433" 
d="M259 -2h-2q-66 0 -114.5 63.5t-53.5 162.5h-52q-10 0 -12 11q0 11 12 11h51q0 38 5 67h-56q-9 0 -11 10q0 12 11 12h60q18 95 66.5 150t125.5 59q32 0 61 -15t41 -41q2 -6 2 -8q0 -12 -14 -13q-15 0 -15 12q0 3 2.5 8t2.5 7q0 1 -1 2v2q-28 32 -82 32q-25 0 -46 -21
t-35 -54t-22.5 -62.5t-13.5 -57.5l84 1q11 0 11 -12q0 -11 -11 -11h-88l-5 -67h93q11 0 11 -10q0 -12 -11 -12h-94q0 -31 4.5 -61t14.5 -63t31 -56.5t50 -30.5q58 1 105 54q3 4 3 8l-1 8q0 12 14 12q12 0 12 -11q0 -6 -5 -13q-59 -71 -128 -73z" />
    <glyph glyph-name="trademark" unicode="&#x2122;" horiz-adv-x="533" 
d="M150 394q-13 0 -13 14l2 175h-67q-14 0 -14 15q0 14 14 14h165q9 0 11 -3.5t3 -13.5q0 -12 -14 -12h-69l-2 -175q0 -14 -16 -14zM290 390q-12 4 -12 16v186q0 15 15 15q9 0 13 -9l53 -141q36 114 43 143q1 11 13 11q14 0 14 -13l7 -191q0 -9 -13 -13q-15 0 -15 14l-4 94
l-30 -94q-3 -7 -15 -12q-9 0 -12 12l-39 108l-2 -110q0 -16 -16 -16z" />
    <glyph glyph-name="a.1" unicode="&#xe000;" horiz-adv-x="1417" 
d="M382 -35q-111 0 -168 35q-90 56 -90 178l2 43q-42 -135 -73 -139l-8 -1q-31 0 -44.5 30.5t-13.5 72.5l1 22q6 52 29.5 97.5t63.5 45.5q35 0 55 -32q4 21 10.5 29t25.5 8q28 0 28 -24q0 -5 -5.5 -30.5t-10.5 -62.5t-5 -74q0 -13 2 -41q15 -141 216 -141q155 0 318 102
q-94 71 -158 158.5t-64 178.5q0 34 10 67q12 42 46 66.5t75 24.5q45 0 82 -32t53 -96q20 60 57.5 90.5t79.5 30.5q48 0 78 -38.5t30 -93.5q0 -67 -44.5 -140.5t-101 -126t-117.5 -90.5q144 -98 288 -98l30 1q111 8 206 85.5t154 186.5q1 4 6 4q8 0 8 -8l-1 -3
q-61 -113 -159 -192t-213 -88l-30 -1q-152 0 -302 104q-172 -108 -346 -108zM728 91q61 40 113 88t91.5 116t39.5 134q0 23 -4 43q-7 35 -29.5 55t-51.5 20q-36 0 -69 -31t-54 -93q-2 -5 -7 -5t-7 6q-14 63 -47.5 96t-73.5 33q-45 0 -74 -41t-29 -99q0 -84 58.5 -172
t143.5 -150zM52 96q12 0 28 38.5t33.5 97t18.5 60.5q-11 33 -39 40q-15 -9 -31 -84.5t-16 -124.5q0 -19 3 -26z" />
    <glyph glyph-name="b.1" unicode="&#xe002;" horiz-adv-x="1486" 
d="M141 -35l-7 1q-30 3 -30 37q2 35 26 66t56 33q5 57 5 75q0 123 -23 134q-33 -7 -58 -60q-25 -49 -37 -145q-1 -8 -9.5 -13.5t-18.5 -5.5q-20 0 -24 15q-21 75 -21 194q0 109 23 197t74 120q15 10 54 10h15q43 -1 43 -64q-1 -72 -42.5 -152.5t-101.5 -109.5v-34
q0 -31 2 -93q18 72 43.5 113.5t71.5 44.5q76 0 78 -136q0 -66 -16 -117q51 -31 80.5 -47t75.5 -30t91 -14q136 1 293 99q-94 71 -158 158.5t-64 178.5q0 34 10 67q13 42 47 66.5t74 24.5q45 0 82 -32t53 -96q20 60 57.5 90.5t79.5 30.5q48 0 78.5 -38.5t30.5 -93.5
q0 -67 -44.5 -140.5t-101 -126t-117.5 -90.5q144 -98 287 -98l30 1q112 8 206.5 85t153.5 187q3 4 7 4q7 0 7 -7l-1 -4q-60 -113 -158 -192t-214 -88l-30 -1q-152 0 -302 104q-161 -103 -305 -104q-66 0 -123.5 23.5t-128.5 68.5q-13 -35 -40 -65.5t-59 -30.5zM798 91
q99 64 171 153t72 185q0 23 -4 43q-7 35 -29 55t-51 20q-36 0 -69 -31t-54 -93q-2 -5 -8 -5t-7 6q-14 63 -47.5 96t-73.5 33q-31 0 -56 -20t-37 -56q-10 -29 -10 -63q0 -84 59 -172.5t144 -150.5zM135 -19q39 7 49 106q-24 -5 -44.5 -31.5t-20.5 -52.5q0 -21 16 -22zM65 314
q51 29 89.5 103t40.5 137q0 54 -30 54q-53 0 -81 -120q-16 -74 -19 -174z" />
    <glyph glyph-name="c.1" unicode="&#xe003;" horiz-adv-x="1295" 
d="M244 -34l-39 1q-218 10 -218 201l2 35q7 68 33 114t66 46q54 -2 54 -49q0 -36 -18 -36q-14 5 -14 14q1 8 9 12.5t8 7.5l1 6q0 17 -21 27h-1q-15 0 -28 -59t-16 -97q-3 -23 -3 -43q0 -152 145 -164l39 -1q101 0 179.5 22.5t170.5 79.5q-94 71 -158 158.5t-64 178.5
q0 34 10 67q12 42 46 66.5t75 24.5q45 0 82 -32t53 -96q20 60 57.5 90.5t79.5 30.5q48 0 78 -38.5t30 -93.5q0 -67 -44.5 -140.5t-101 -126t-117.5 -90.5q144 -98 288 -98l30 1q111 8 206 85.5t154 186.5q1 4 6 4q8 0 8 -8l-1 -3q-61 -113 -159 -192t-213 -88l-30 -1
q-152 0 -302 104q-96 -60 -176.5 -83.5t-185.5 -23.5zM606 91q61 40 113 88t91.5 116t39.5 134q0 23 -4 43q-7 35 -29.5 55t-51.5 20q-35 0 -68.5 -31t-54.5 -93q-2 -5 -7 -5t-7 6q-14 63 -47.5 96t-73.5 33q-45 0 -74 -41t-29 -99q0 -84 58.5 -172t143.5 -150z" />
    <glyph glyph-name="d.1" unicode="&#xe004;" horiz-adv-x="1446" 
d="M53 104q37 0 83 182q2 9 3 13q-17 28 -53 33q-14 -6 -25 -73.5t-11 -121.5q0 -24 3 -33zM408 -36q-67 0 -116 15q-81 25 -115.5 92t-36.5 172q-43 -154 -87 -154q-32 0 -46 38.5t-14 81.5q2 57 25.5 98t58.5 41q39 -2 64 -27q4 96 20 175t41 107q23 25 66 25
q76 -2 77 -89q0 -68 -43 -143.5t-98 -102.5q-2 -52 -2 -84q0 -75 20 -128.5t76 -77.5q52 -22 128 -22q153 0 318 102q-94 71 -158 158.5t-64 178.5q0 34 10 67q12 42 46 66.5t75 24.5q45 0 82 -32t53 -96q20 60 57.5 90.5t79.5 30.5q36 0 64.5 -22t38.5 -61q6 -24 6 -48
q0 -98 -82 -197.5t-181 -160.5q144 -98 287 -98l30 1q112 8 206.5 85t153.5 187q1 4 6 4q8 0 8 -8l-1 -3q-61 -113 -159 -192t-213 -88l-30 -1q-152 0 -302 104q-175 -109 -349 -109zM758 91q99 64 171 153t72 185q0 23 -4 43q-7 35 -29.5 55t-51.5 20q-35 0 -68.5 -31
t-54.5 -93q-2 -5 -7 -5q-6 0 -7 6q-14 63 -47.5 96t-73.5 33q-44 0 -73.5 -41.5t-29.5 -98.5q0 -85 58.5 -172.5t144.5 -149.5zM205 310q50 28 88 99.5t38 131.5q0 72 -61 72q-28 -1 -44.5 -99t-20.5 -204z" />
    <glyph glyph-name="e.1" unicode="&#xe005;" horiz-adv-x="1290" 
d="M81 252q17 0 31 17.5t14 36.5q0 27 -25 31q-19 -1 -37 -80q7 -5 17 -5zM254 -36q-74 0 -122 17q-73 23 -106 70.5t-36 132.5q0 56 18 103.5t50 59.5q17 5 33 5q50 -1 50 -45q0 -26 -18 -48t-42 -22q-11 0 -20 5q-9 -42 -9 -93q2 -94 59.5 -131.5t158.5 -37.5
q155 0 319 103q-95 69 -159 157t-64 180q0 34 10 67q12 41 46.5 66t74.5 25q45 0 82 -32t53 -96q20 59 57.5 90t79.5 31q48 0 78.5 -38.5t30.5 -93.5q0 -98 -82 -196.5t-181 -160.5q143 -99 287 -99l30 2q112 8 206.5 85t153.5 187q4 4 7 4q7 0 7 -7l-1 -4
q-60 -113 -158 -192t-214 -88l-30 -2q-153 0 -302 105q-174 -109 -347 -109zM602 91q98 62 170.5 151.5t72.5 185.5q0 24 -4 44q-7 35 -29 55t-51 20q-36 0 -69 -31t-54 -93q-3 -6 -8 -6q-6 0 -6 7q-14 63 -48 96t-74 33q-31 0 -56 -20t-37 -56q-10 -30 -10 -63
q0 -85 59 -172.5t144 -150.5z" />
    <glyph glyph-name="f.1" unicode="&#xe006;" horiz-adv-x="1473" 
d="M78 315q55 19 98.5 95t43.5 139q0 62 -45 62q-24 -1 -43.5 -37.5t-30 -92t-16 -94.5t-7.5 -72zM89 -78q-21 0 -35 17q-55 58 -55 263q0 130 25.5 245.5t70.5 157.5q23 21 73 21l14 -1q53 -5 53 -77q0 -18 -3 -31q-11 -69 -56 -135.5t-99 -82.5q-5 -67 -5 -122h7
q25 0 52 -12.5t44 -25t48 -39.5q69 -59 127.5 -89t127.5 -30q129 0 293 102q-94 69 -158 156.5t-64 179.5q0 35 10 68q13 41 46.5 66t74.5 25q45 0 81.5 -32t52.5 -96q20 59 58 90t80 31q48 0 78 -38.5t30 -93.5q0 -98 -82 -196.5t-181 -160.5q143 -99 288 -99l30 2
q111 8 206 85.5t153 186.5q4 4 7 4q8 0 8 -8l-1 -3q-61 -113 -159 -192t-213 -88l-30 -2q-153 0 -302 105q-171 -105 -305 -105q-27 0 -48 4q-58 9 -111.5 39t-86 61t-71 58t-70.5 31q61 -51 61 -147q0 -35 -11 -59.5t-29 -28.5q-12 -4 -24 -4zM784 91q98 63 171 152t73 185
q0 24 -4 44q-7 35 -29.5 55t-51.5 20q-36 0 -69 -31t-54 -93q-2 -6 -7 -6q-7 0 -7 7q-14 63 -48 96t-74 33q-31 0 -56 -20t-37 -56q-10 -30 -10 -63q0 -85 59 -172.5t144 -150.5zM110 -59q28 8 28 73q0 93 -65 143q1 -85 10.5 -149t26.5 -67z" />
    <glyph glyph-name="g.1" unicode="&#xe007;" horiz-adv-x="1420" 
d="M89 -192l-10 1q-66 4 -66 79q0 56 35 97t92 48l2 55q0 88 -1 132q-33 -157 -97 -160q-28 0 -42.5 32t-14.5 80q0 54 17 103.5t44 63.5q12 5 32 5q35 -2 54 -21l-1 10q0 12 12 20t26 8q25 0 29 -22q10 -58 10 -147q0 -90 -7 -164q13 -3 52 -15.5t82 -22t84 -10.5
q64 0 149 31.5t149 71.5q-94 69 -158 156.5t-64 179.5q0 35 10 68q13 41 46.5 66t74.5 25q45 0 81.5 -32t52.5 -96q20 59 58 90t80 31q48 0 78 -38.5t30 -93.5q0 -98 -82 -196.5t-181 -160.5q143 -99 287 -99l30 2q112 8 207 85.5t153 186.5q4 4 7 4q7 0 7 -7l-1 -4
q-60 -113 -158 -192t-213 -88l-30 -2q-155 0 -302 105q-73 -45 -158.5 -76t-159.5 -31q-50 1 -126 23t-87 24q-11 -102 -36 -153.5t-76 -51.5zM79 -177q47 6 60 195q-51 -7 -81.5 -43.5t-30.5 -88.5q0 -58 52 -63zM732 91q98 63 171 152t73 185q0 24 -4 44q-7 35 -29.5 55
t-51.5 20q-36 0 -69 -31t-54 -93q-2 -6 -7 -6q-7 0 -7 7q-14 63 -48 96t-74 33q-31 0 -56 -20t-37 -56q-10 -30 -10 -63q0 -85 59 -172.5t144 -150.5zM53 77q32 10 57.5 86t26.5 125q0 14 -16 26.5t-31 15.5q-17 -3 -29.5 -80t-12.5 -139q0 -34 5 -34z" />
    <glyph glyph-name="h.1" unicode="&#xe008;" horiz-adv-x="1439" 
d="M64 315q48 22 83.5 99t41.5 152q0 47 -27 47q-28 0 -48.5 -35.5t-30.5 -90t-14 -95.5t-5 -77zM380 -38q-172 0 -208 93q-10 29 -10 64q0 27 7 79t7 74t-4 38q-30 -14 -55 -74.5t-38 -126.5v-2q0 -21 -40 -21q-23 0 -24 13q-15 63 -15 174q0 355 162 355q41 -1 41 -63
q-5 -81 -46 -163.5t-92 -102.5l-1 -1v-25q0 -79 8 -128q37 156 96 179q10 4 27 4q22 0 30 -8q9 -10 9 -38q0 -22 -10 -87t-10 -95q1 -20 2 -30t5 -25t11.5 -23.5t21.5 -17.5t35 -15q37 -11 95 -11q187 0 354 105q-95 69 -159 157t-64 180q0 34 10 67q12 41 46.5 66t74.5 25
q45 0 82 -32t53 -96q20 59 57.5 90t79.5 31q48 0 78.5 -38.5t30.5 -93.5q0 -98 -82 -196.5t-181 -160.5q143 -99 287 -99l30 2q112 8 206.5 85t153.5 187q4 4 7 4q7 0 7 -7l-1 -4q-60 -113 -158 -192t-214 -88l-30 -2q-154 0 -301 105q-179 -111 -371 -111zM751 91
q98 62 170.5 151.5t72.5 185.5q0 24 -4 44q-7 35 -29 55t-51 20q-36 0 -69 -31t-54 -93q-3 -6 -8 -6q-6 0 -6 7q-14 63 -48 96t-74 33q-31 0 -56 -20t-37 -56q-10 -30 -10 -63q0 -85 59 -172.5t144 -150.5z" />
    <glyph glyph-name="i.1" unicode="&#xe009;" horiz-adv-x="1298" 
d="M263 -35q-110 0 -168 35q-97 58 -97 212q0 33 5 71q3 24 36 24q31 -2 31 -22q0 -5 -2.5 -30t-4.5 -53.5t-2 -51.5q2 -60 21 -92.5t68 -54.5q55 -23 129 -23q153 0 318 103q-94 69 -158 156.5t-64 179.5q0 35 10 68q13 41 46.5 66t74.5 25q45 0 81.5 -32t52.5 -96
q20 59 58 90t80 31q48 0 78 -38.5t30 -93.5q0 -98 -82 -196.5t-181 -160.5q143 -99 287 -99l30 2q112 8 207 85.5t153 186.5q4 4 7 4q7 0 7 -7l-1 -4q-60 -113 -158 -192t-213 -88l-30 -2q-155 0 -302 105q-174 -108 -347 -108zM610 91q98 63 171 152t73 185q0 24 -4 44
q-7 35 -29.5 55t-51.5 20q-36 0 -69 -31t-54 -93q-2 -6 -7 -6q-7 0 -7 7q-14 63 -48 96t-74 33q-31 0 -56 -20t-37 -56q-10 -30 -10 -63q0 -85 59 -172.5t144 -150.5zM41 345q-10 0 -18 8v1q-7 6 -7 18q0 11 7.5 18.5t18.5 7.5q10 0 17.5 -8t7.5 -19t-7.5 -18.5t-18.5 -7.5z
" />
    <glyph glyph-name="j.1" unicode="&#xe010;" horiz-adv-x="1315" 
d="M30 357q-10 0 -18 8h-1q-7 9 -7 18q0 11 8 18.5t18 7.5q12 0 19 -8t7 -18q0 -11 -7.5 -18.5t-18.5 -7.5zM-35 -169q-35 0 -53.5 22.5t-18.5 57.5q10 122 106 127q3 54 3 115q0 51 -4 143q0 21 39 23q27 0 28 -22q4 -64 4 -145q0 -70 -4 -123q26 -7 60.5 -18t54 -17
t47.5 -10.5t58 -4.5q71 0 158 26t171 78q-95 69 -159 157t-64 180q0 34 10 67q12 41 46.5 66t74.5 25q45 0 82 -32t53 -96q20 59 57.5 90t79.5 31q48 0 78.5 -38.5t30.5 -93.5q0 -98 -82 -196.5t-181 -160.5q143 -99 287 -99l30 2q112 8 206.5 85t153.5 187q4 4 7 4
q7 0 7 -7l-1 -4q-60 -113 -158 -192t-214 -88l-30 -2q-154 0 -301 105q-87 -55 -177.5 -82t-163.5 -27q-38 0 -68.5 6t-78.5 21.5t-75 22.5q-15 -146 -63 -174q-15 -9 -36 -9zM-49 -153q36 3 47 175q-80 -6 -90 -110q0 -57 43 -65zM627 91q98 62 170.5 151.5t72.5 185.5
q0 24 -4 44q-7 35 -29 55t-51 20q-36 0 -69 -31t-54 -93q-1 -6 -7 -6q-7 0 -7 7q-14 63 -48 96t-74 33q-31 0 -56 -20t-37 -56q-10 -30 -10 -63q0 -85 59 -172.5t144 -150.5z" />
    <glyph glyph-name="k.1" unicode="&#xe011;" horiz-adv-x="1440" 
d="M399 -36q-162 0 -215 71q-19 24 -39.5 102t-41.5 90q-21 -65 -32 -130q-1 -18 -32 -20q-25 0 -26 18q-13 50 -13 163q0 131 22 236.5t71 127.5q17 7 43 7q31 0 46.5 -20.5t15.5 -53.5q-1 -63 -44 -141t-91 -108l-1 -55q0 -60 4 -103q9 39 22 78t33.5 86t49 77t59.5 31
q26 0 39.5 -18.5t13.5 -47.5q0 -45 -30 -86t-80 -48q19 -19 28 -83q1 -6 4.5 -29.5t5 -30t7.5 -23.5t12.5 -24.5t18.5 -17t29 -16.5q44 -18 116 -18q176 0 345 105q-94 69 -158 156.5t-64 179.5q0 35 10 68q13 41 46.5 66t74.5 25q45 0 81.5 -32t52.5 -96q20 59 58 90t80 31
q48 0 78 -38.5t30 -93.5q0 -98 -82 -196.5t-181 -160.5q143 -99 288 -99l30 2q111 8 206 85.5t153 186.5q4 4 7 4q7 0 7 -7l-1 -4q-60 -113 -158 -192t-213 -88l-30 -2q-155 0 -302 105q-175 -109 -353 -109zM752 91q98 62 171 152t73 186q0 23 -4 43q-7 35 -29.5 55
t-51.5 20q-36 0 -69 -31t-54 -93q-2 -6 -7 -6q-7 0 -7 7q-14 63 -48 96t-74 33q-31 0 -56 -20t-37 -56q-10 -30 -10 -63q0 -85 59 -172.5t144 -150.5zM121 239q29 0 55.5 26t39.5 59q16 37 16 63q0 16 -11 16q-60 -9 -113 -162zM63 324q43 32 81.5 103.5t38.5 127.5
q0 58 -47 59q-30 -6 -49 -89.5t-24 -200.5z" />
    <glyph glyph-name="l.1" unicode="&#xe012;" horiz-adv-x="1305" 
d="M69 289q51 41 90.5 123t39.5 143t-44 64q-23 0 -40.5 -41.5t-26.5 -103.5t-13.5 -107t-5.5 -78zM254 -37q-108 0 -159 36q-95 67 -95 262q1 127 24 230t62 131q16 12 58 12q37 -2 53 -19.5t16 -59.5q0 -69 -44 -157t-101 -128v-29q0 -208 86 -245q40 -18 106 -18
q176 0 344 105q-94 69 -158 156.5t-64 179.5q0 35 10 68q13 41 46.5 66t74.5 25q45 0 81.5 -32t52.5 -96q20 59 57.5 90t79.5 31q48 0 78.5 -38.5t30.5 -93.5q0 -98 -82 -196.5t-181 -160.5q143 -99 287 -99l30 2q112 8 206.5 85t153.5 187q4 4 7 4q7 0 7 -7l-1 -4
q-60 -113 -158 -192t-214 -88l-30 -2q-154 0 -301 105q-87 -54 -172.5 -82t-190.5 -28zM617 91q98 62 170.5 151.5t72.5 185.5q0 24 -4 44q-7 35 -29 55t-51 20q-36 0 -69 -31t-54 -93q-1 -6 -7 -6q-7 0 -7 7q-14 63 -48 96t-74 33q-31 0 -56 -20t-37 -56q-10 -30 -10 -63
q0 -85 59 -172.5t144 -150.5z" />
    <glyph glyph-name="m.1" unicode="&#xe013;" horiz-adv-x="1618" 
d="M580 -35q-80 0 -129 12q-73 16 -102 57t-30 117q0 19 6.5 78t6.5 82q0 18 -2 25q-36 -26 -100 -178q-4 -15 -23 -15q-8 0 -14 3q-15 4 -15 87q0 38 3.5 103t3.5 74l-1 9q-36 -14 -77 -134q-30 -93 -49 -214q-3 -26 -28 -26t-28 23q-5 32 -5 108q0 75 5 108
q2 12 11.5 18.5t21.5 6.5q12 -1 21.5 -8.5t9.5 -20.5l-6 -118q5 28 15 65t27 88.5t42 86t51 34.5q10 0 22 -6q25 -15 25 -99q0 -42 -8 -126q63 152 115 152q20 -1 27.5 -16t7.5 -50q0 -26 -5 -77.5t-6 -83.5q0 -115 77 -135q53 -15 136 -15q166 0 330 103q-94 70 -158 157.5
t-64 179.5q0 34 10 67q13 41 46.5 66t74.5 25q45 0 82 -32t53 -96q20 59 57.5 90t79.5 31q48 0 78.5 -38.5t30.5 -93.5q0 -98 -82 -196.5t-181 -160.5q143 -99 287 -99l30 2q112 8 206.5 85t153.5 187q2 4 6 4q8 0 8 -8l-1 -3q-60 -113 -158 -192t-214 -88l-30 -2
q-153 0 -302 105q-139 -87 -273 -104q-28 -4 -76 -4zM930 91q98 62 170.5 151.5t72.5 185.5q0 24 -4 44q-7 35 -29 55t-51 20q-36 0 -69 -31t-54 -93q-3 -6 -8 -6q-6 0 -7 7q-14 63 -47.5 96t-73.5 33q-45 0 -74 -41.5t-29 -98.5q0 -85 58.5 -172.5t144.5 -149.5z" />
    <glyph glyph-name="n.1" unicode="&#xe014;" horiz-adv-x="1456" 
d="M399 -36q-105 0 -158 32q-44 27 -62 59.5t-18 82.5q0 46 13 135.5t13 104.5q0 14 -4 15q-63 -13 -124 -313l-4.5 -18t-8 -11t-17.5 -5q-25 0 -28 22q-4 38 -4 109q0 76 5 108q3 24 32 24q13 0 22 -7t9 -20l-6 -131q58 258 130 258q28 0 40 -29q9 -24 9 -61
q0 -34 -12 -104.5t-12 -101.5q0 -85 68 -115q45 -19 129 -19q175 0 344 104q-95 70 -158.5 157.5t-63.5 179.5q0 34 10 67q12 42 46 66.5t75 24.5q45 0 81.5 -32t52.5 -96q21 60 58.5 90.5t79.5 30.5q48 0 78 -38t30 -93q0 -98 -82.5 -197.5t-180.5 -159.5q141 -99 291 -99
l27 1q111 8 206 85.5t153 187.5q4 4 6 4q8 0 8 -7l-1 -4q-60 -113 -158 -192.5t-213 -87.5l-30 -1q-154 0 -302 104q-177 -110 -369 -110zM768 92q99 64 171.5 153t72.5 185q0 23 -4 43q-7 35 -29.5 55t-51.5 20q-36 0 -69 -31.5t-54 -93.5q-2 -5 -6 -5q-6 0 -8 6
q-14 64 -48 97t-73 33q-31 0 -56.5 -20t-37.5 -56q-10 -30 -10 -63q0 -85 59 -173t144 -150z" />
    <glyph glyph-name="o.1" unicode="&#xe015;" horiz-adv-x="1367" 
d="M94 117q20 58 20 114q0 44 -16 65t-40 21q-22 0 -39.5 -15t-18.5 -36q2 7 4 10t7 5.5t14 2.5q12 -2 17 -3.5t9.5 -6t4.5 -13.5q-10 -65 -11 -81q16 -25 49 -63zM343 -34q-70 0 -125 28t-119 96q-19 -36 -52 -37q-24 0 -34 10q-27 28 -27 98q0 16 1.5 33t2.5 28l2 10l-3 6
q-3 6 -6.5 16t-3.5 20q0 26 21.5 46t49.5 20q32 0 55.5 -28t23.5 -81q0 -68 -24 -127q62 -66 118 -95.5t129 -29.5q143 0 313 104q-95 70 -158.5 157.5t-63.5 179.5q0 34 10 67q12 42 46 66.5t75 24.5q45 0 82 -32t53 -96q20 60 57.5 90.5t79.5 30.5q48 0 78 -38t30 -93
q0 -98 -82.5 -197.5t-180.5 -159.5q141 -99 291 -99l27 1q111 8 206 85.5t154 187.5q2 4 6 4q8 0 8 -8l-1 -3q-61 -113 -159 -192.5t-213 -87.5l-30 -1q-152 0 -302 104q-174 -108 -335 -108zM678 92q99 64 171.5 153t72.5 185q0 23 -4 43q-7 35 -29.5 55t-51.5 20
q-36 0 -69 -31.5t-54 -93.5q-2 -5 -6 -5q-6 0 -8 6q-14 64 -47.5 97t-73.5 33q-31 0 -56 -20t-37 -56q-10 -30 -10 -64q0 -85 58.5 -172.5t143.5 -149.5zM55 68q18 1 32 34q-19 22 -44 54v-29q0 -50 12 -59z" />
    <glyph glyph-name="p.1" unicode="&#xe016;" horiz-adv-x="1517" 
d="M24 -167q-23 0 -24 16q-6 57 -6 203q2 159 9 241q1 11 10.5 18t22.5 7q34 0 34 -24l-4 -48q37 116 99 116q35 -1 50 -37t15 -85q0 -80 -39 -138q13 -8 52.5 -32.5t51.5 -31.5t43.5 -23t50 -21t47 -10t58.5 -5q151 0 322 104q-95 70 -158.5 157.5t-63.5 179.5q0 34 10 67
q12 42 46 66.5t75 24.5q45 0 81.5 -32t52.5 -96q21 60 58.5 90.5t79.5 30.5q48 0 78 -38t30 -93q0 -98 -82.5 -197.5t-180.5 -159.5q141 -99 291 -99l27 1q111 8 206 85.5t154 187.5q2 4 6 4q7 0 7 -7l-1 -4q-60 -113 -158 -192.5t-213 -87.5l-30 -1q-154 0 -302 104
q-174 -108 -336 -108q-30 0 -59 5.5t-48 10t-51.5 21t-44 22.5t-53.5 31.5t-54 32.5q-35 -44 -65 -44q-16 0 -26 10t-10 25q0 18 14 31.5t33 13.5q11 0 22 -3q19 69 19 146q0 76 -21 77q-27 -11 -52.5 -61t-37.5 -129q-9 -58 -9 -217l1 -84q0 -21 -27 -21zM829 92
q99 64 171.5 153t72.5 185q0 23 -4 43q-7 35 -29.5 55t-51.5 20q-36 0 -69 -31.5t-54 -93.5q-2 -5 -6 -5q-7 0 -8 6q-14 64 -48 97t-73 33q-31 0 -56.5 -20t-37.5 -56q-10 -30 -10 -63q0 -85 59 -173t144 -150zM117 59q14 1 30 48q-12 3 -20 3q-11 0 -20 -8t-9 -21
q0 -9 5 -15.5t14 -6.5z" />
    <glyph glyph-name="q.1" unicode="&#xe017;" horiz-adv-x="1548" 
d="M192 -168q-23 0 -33 6q-43 23 -43 197q0 90 10 195q-48 -144 -78 -148h-7q-28 0 -42 25.5t-14 66.5q0 63 28 119.5t70 56.5q20 -2 30.5 -8t21.5 -22q2 19 8.5 26.5t22.5 7.5q32 0 32 -22v-3q-19 -178 -19 -238v-9h3q29 0 103 -36q129 -66 233 -66q161 0 328 103
q-94 71 -158 158.5t-64 178.5q0 34 10 67q12 42 46 66.5t75 24.5q45 0 82 -32t53 -96q21 60 58.5 90.5t79.5 30.5q36 0 64 -21.5t38 -60.5q6 -24 6 -49q0 -98 -82.5 -197.5t-180.5 -159.5q141 -99 290 -99q126 4 224 78t163 196q4 4 6 4q8 0 8 -7l-1 -4
q-60 -113 -158.5 -192.5t-213.5 -87.5l-30 -1q-152 0 -302 104q-173 -108 -340 -108q-111 0 -241 66q-55 29 -83 34q26 -13 40 -54t15 -93q0 -78 -32 -85q-14 -2 -26 -2zM860 92q61 40 112.5 87.5t91 115.5t39.5 134q0 24 -4 44q-7 35 -29 55t-51 20q-36 0 -69 -31.5
t-54 -93.5q-2 -5 -7 -5q-7 0 -8 6q-14 64 -47.5 97t-73.5 33q-31 0 -56 -20t-37 -56q-10 -30 -10 -63q0 -85 59 -173t144 -150zM44 97q15 1 32 38t35.5 94.5t20.5 63.5q-10 31 -36 40q-16 -9 -35.5 -88.5t-19.5 -126.5q0 -15 3 -21zM216 -151q19 4 19 68q-3 130 -57 139
l-1 -41q0 -166 36 -166h3z" />
    <glyph glyph-name="r.1" unicode="&#xe018;" horiz-adv-x="1369" 
d="M309 -38q-52 0 -103 9q-70 12 -101 41.5t-31 87.5q0 30 7.5 69t7.5 41q-1 7 -18.5 13t-37.5 11t-37 26t-17 56q0 12 3 29q6 33 22.5 50.5t35.5 17.5q32 0 32 -40q-5 -63 -35 -95q12 -5 37.5 -7t44 -8t26.5 -21q5 -9 5 -21t-8 -42q-2 -11 -8 -36t-8.5 -41t-2.5 -30
q0 -34 20 -56t70 -31q47 -9 95 -9q185 0 359 107q-94 71 -158 158.5t-64 178.5q0 34 10 67q12 42 46 66.5t75 24.5q45 0 82 -32t53 -96q21 60 58.5 90.5t79.5 30.5q36 0 64 -21.5t38 -60.5q6 -24 6 -48q0 -98 -82 -198t-181 -160q141 -99 290 -99q125 4 223.5 78t163.5 196
q2 4 6 4q8 0 8 -8l-1 -3q-60 -113 -158.5 -192.5t-213.5 -87.5l-30 -1q-152 0 -302 104q-178 -112 -371 -112zM681 92q61 40 112.5 87.5t91 115.5t39.5 134q0 24 -4 44q-7 35 -29 55t-51 20q-36 0 -69 -31.5t-54 -93.5q-2 -5 -7 -5q-6 0 -8 6q-14 64 -47.5 97t-73.5 33
q-31 0 -56 -20t-37 -56q-10 -30 -10 -63q0 -86 58.5 -174t144.5 -149zM24 286q29 26 35 88q0 22 -14 24q-32 0 -37 -74q0 -26 16 -38z" />
    <glyph glyph-name="s.1" unicode="&#xe019;" horiz-adv-x="1420" 
d="M68 -89q-26 0 -43 18t-17 45q1 46 34 69t81 23h12q-1 40 -27 75q-12 15 -54.5 50t-51.5 62q-3 11 -3 22q0 35 29 61t65 26q58 -5 58 -45q0 -13 -6.5 -25.5t-16.5 -12.5q-13 2 -13 13l1 5q2 7 11 9t9 10q0 14 -13 22.5t-32 8.5q-21 0 -36.5 -11.5t-15.5 -32.5
q0 -22 17 -40.5t47.5 -41.5t46.5 -41q39 -48 39 -101l-2 -24q22 -8 63.5 -29.5t78 -32.5t84.5 -11q141 0 305 101q-94 71 -158 158.5t-64 178.5q0 34 10 67q13 42 47 66.5t74 24.5q45 0 82 -32t53 -96q21 60 58.5 90.5t79.5 30.5q36 0 64 -21.5t38 -60.5q6 -24 6 -49
q0 -98 -82.5 -197.5t-180.5 -159.5q141 -99 290 -99q126 4 224 78t163 196q4 4 6 4q8 0 8 -7l-1 -4q-60 -113 -158.5 -192.5t-213.5 -87.5l-30 -1q-152 0 -302 104q-171 -107 -324 -107q-50 0 -89 12t-78.5 33.5t-55.5 27.5q-11 -54 -42 -90t-74 -39zM732 92
q61 40 112.5 87.5t91 115.5t39.5 134q0 24 -4 44q-7 35 -29 55t-51 20q-36 0 -69 -31.5t-54 -93.5q-2 -5 -7 -5t-7 6q-14 64 -48 97t-73 33q-31 0 -56.5 -20t-37.5 -56q-10 -30 -10 -63q0 -85 59 -173t144 -150zM69 -73q30 0 47 40.5t18 83.5l-13 1q-41 0 -69 -19.5
t-29 -60.5q0 -20 13 -32.5t33 -12.5z" />
    <glyph glyph-name="t.1" unicode="&#xe020;" horiz-adv-x="1310" 
d="M272 -35h-18q-94 0 -160 37t-82 120q-11 55 -11 135t13 212q-70 8 -124 8q-82 0 -127 -21q-5 -1 -5 -10v-3q0 -14 -7 -21q-8 -4 -15 -4q-14 0 -19 18q0 18 39 33q49 23 135 23q55 0 124 -8q9 82 17 126q3 19 34 19q36 0 36 -22v-4q-9 -45 -18 -126q123 -12 158 -12
q38 0 61.5 7t23.5 18q0 2 -1.5 7t-1.5 8q0 6 6.5 12t13.5 6t12.5 -6t5.5 -14q-2 -21 -36.5 -36.5t-89.5 -15.5q-47 0 -154 11q-13 -124 -13 -232q0 -67 5 -108q10 -81 57.5 -111.5t134.5 -30.5q175 1 342 103q-94 71 -158 158.5t-64 178.5q0 36 10 67q12 42 46 66.5t75 24.5
q45 0 82 -32t53 -96q20 60 57.5 91t79.5 31q35 0 63.5 -22t39.5 -61q6 -24 6 -48q0 -98 -82 -197t-181 -161q143 -99 289 -99q126 5 224.5 78.5t163.5 195.5q1 4 6 4q8 0 8 -7l-1 -4q-60 -113 -158.5 -192.5t-213.5 -87.5l-30 -1q-154 0 -302 104q-166 -105 -349 -109z
M622 92q44 29 84.5 64t77.5 78t59 94.5t22 101.5q0 24 -4 43q-7 35 -29 55.5t-51 20.5q-35 0 -68.5 -31.5t-54.5 -94.5q-3 -4 -8 -4t-7 5q-14 64 -47.5 97t-73.5 33q-31 0 -56.5 -20t-36.5 -56q-10 -29 -10 -63q0 -85 58.5 -173t144.5 -150z" />
    <glyph glyph-name="u.1" unicode="&#xe021;" horiz-adv-x="1424" 
d="M386 -34q-106 0 -165 35q-52 31 -71 73t-19 101q0 28 3 58q-45 -148 -74 -163q-8 -3 -18 -3q-17 0 -24 5q-22 15 -22 102q0 59 6 107q1 23 29 23q18 0 24.5 -5.5t6.5 -18.5q-9 -126 -9 -163q0 -29 3 -33q27 23 85 221q4 19 27 19q32 -2 32 -24q0 -2 -2.5 -20.5t-4.5 -35
t-4 -44t-2 -54.5q2 -59 19 -93t61 -53q45 -20 122 -20q162 0 333 103q-94 71 -158 158.5t-64 178.5q0 36 10 67q12 42 46 66.5t75 24.5q45 0 82 -32t53 -96q20 60 57.5 91t79.5 31q35 0 63.5 -22t39.5 -61q6 -24 6 -48q0 -98 -82 -197t-181 -161q143 -99 289 -99
q126 5 224.5 78.5t163.5 195.5q1 4 5 4q9 0 9 -7l-1 -4q-60 -113 -158.5 -192.5t-213.5 -87.5l-30 -1q-154 0 -302 104q-172 -108 -349 -108zM736 92q44 29 84.5 64t77.5 78t59 94.5t22 101.5q0 24 -4 43q-7 35 -29 55.5t-51 20.5q-35 0 -68.5 -31.5t-54.5 -94.5
q-3 -4 -8 -4t-7 5q-14 64 -47.5 97t-73.5 33q-31 0 -56.5 -20t-36.5 -56q-10 -29 -10 -63q0 -85 58.5 -173t144.5 -150z" />
    <glyph glyph-name="v.1" unicode="&#xe022;" horiz-adv-x="1491" 
d="M469 -34q-90 0 -155 41.5t-118 131.5q-47 -148 -100 -148q-25 0 -37 8q-31 21 -45 97.5t-14 154.5l1 33q2 22 32 22q35 0 35 -27q-2 -18 -2 -58q0 -214 31 -215q44 0 89 151q-59 108 -59 211q0 92 56 98q49 0 49 -114q-1 -85 -27 -186q86 -186 267 -186q70 0 154.5 27.5
t163.5 75.5q-94 71 -158 158.5t-64 178.5q0 36 10 67q12 42 46 66.5t74 24.5q45 0 82.5 -32t53.5 -96q20 60 57.5 91t79.5 31q48 0 78 -38.5t30 -93.5q0 -97 -81.5 -196.5t-180.5 -160.5q143 -99 289 -99q126 5 224.5 79t163.5 195q1 4 5 4q8 0 8 -8v-3
q-61 -113 -159 -192.5t-213 -87.5l-30 -1q-154 0 -302 104q-176 -108 -334 -108zM195 190q21 87 22 162q0 100 -33 100q-28 -3 -28 -74q2 -57 10.5 -96.5t28.5 -91.5zM804 92q44 29 84.5 64t77.5 78t59 94.5t22 101.5q0 24 -4 43q-7 35 -29.5 55.5t-51.5 20.5
q-35 0 -68.5 -32t-54.5 -94q-1 -4 -7 -4q-5 0 -7 5q-14 64 -47.5 97t-73.5 33q-31 0 -56.5 -20t-36.5 -56q-11 -33 -11 -64q0 -85 59 -172t145 -150z" />
    <glyph glyph-name="w.1" unicode="&#xe023;" horiz-adv-x="1604" 
d="M594 -33q-88 0 -159 38.5t-111 99.5q-40 -123 -97 -123q-25 2 -38 9q-23 13 -34.5 50t-13.5 65t-2 71q-34 -126 -72 -132q-18 0 -23 2q-47 18 -47 171q0 46 5 69q3 22 32 22q14 0 24.5 -6.5t10.5 -16.5q-10 -100 -10 -142q2 -74 11 -82q17 8 32 46t27 88t14 56
q0 19 31 19q36 0 36 -24q-9 -54 -9 -152q0 -93 20 -98h7q50 0 85 124q-76 116 -76 236q0 42 14 73t46 31q59 -1 59 -142q0 -35 -7 -105q-7 -48 -20 -90q41 -66 111 -104t155 -38q141 0 307 101q-94 71 -158 158.5t-64 178.5q0 36 10 67q12 42 46 66.5t75 24.5q45 0 82 -32
t53 -96q20 60 57.5 91t79.5 31q35 0 63.5 -22t39.5 -61q6 -24 6 -49q0 -97 -82 -196t-181 -161q143 -99 289 -99q126 5 224.5 78.5t163.5 195.5q1 4 6 4q8 0 8 -7l-1 -4q-60 -113 -158.5 -192.5t-213.5 -87.5l-30 -1q-154 0 -301 104q-175 -107 -322 -107zM319 142
q23 105 23 178q0 126 -43 126q-31 0 -33 -104q0 -106 53 -200zM916 92q44 29 84.5 64t77.5 78t59 94.5t22 101.5q0 24 -4 43q-7 35 -29 55.5t-51 20.5q-35 0 -68.5 -31.5t-54.5 -94.5q-3 -4 -8 -4q-6 0 -6 5q-15 64 -48.5 97t-73.5 33q-31 0 -56.5 -20t-36.5 -56
q-10 -29 -10 -63q0 -85 58.5 -173t144.5 -150z" />
    <glyph glyph-name="x.1" unicode="&#xe024;" horiz-adv-x="1349" 
d="M-61 -40q-11 0 -11 14q0 12 11 12l9 -1q5 0 9 4q25 31 85 141q-30 78 -54 183l-1 8q0 13 12.5 22t26.5 9q19 0 25 -16q7 -22 17.5 -66.5t15.5 -62.5q4 7 13.5 25t15.5 30t16 30t17 29.5t15 23t14.5 17t11.5 5.5q6 0 10.5 -4t4.5 -10q0 -5 -4 -9.5t-9 -4.5h-7q-6 0 -9 -5
q-22 -32 -83 -147q9 -36 16.5 -58.5t22.5 -52t34 -47t49.5 -31.5t70.5 -18q10 -1 30 -1q163 0 335 104q-95 70 -158.5 157.5t-63.5 179.5q0 36 10 67q12 42 46 66.5t74 24.5q45 0 82 -32t53 -96q20 60 57.5 91t79.5 31q48 0 78.5 -38.5t30.5 -93.5q0 -97 -82 -196t-181 -161
q143 -99 290 -99l28 1q111 8 206 85.5t154 187.5q1 4 5 4q8 0 8 -8v-3q-61 -113 -159 -192.5t-213 -87.5l-30 -1q-154 0 -302 104q-175 -108 -349 -108q-110 2 -168 31t-94 115q-63 -111 -86 -136q-16 -16 -25 -16zM661 92q61 40 112.5 87.5t91.5 116t40 134.5q0 24 -4 43
q-7 35 -29.5 55.5t-51.5 20.5q-35 0 -68.5 -31.5t-54.5 -94.5q-1 -4 -7 -4q-5 0 -7 5q-15 64 -48.5 97t-73.5 33q-31 0 -56 -20t-36 -56q-11 -33 -11 -64q0 -85 58.5 -172t144.5 -150z" />
    <glyph glyph-name="y.1" unicode="&#xe025;" horiz-adv-x="1462" 
d="M96 -176q47 5 60 191q-48 -8 -80 -45t-32 -82q0 -59 52 -64zM104 -191h-8q-67 6 -67 79q0 53 36 93.5t92 47.5q2 72 2 108q0 99 -4 149q-7 -23 -16 -48.5t-23.5 -59t-31.5 -55.5t-33 -23q-26 0 -37 13q-20 21 -20 77q0 63 19 133q1 15 29 15q15 0 27 -7t12 -19
q-2 -16 -13.5 -74.5t-11.5 -91.5q0 -16 3 -29q25 15 58.5 104t33.5 113q0 12 11.5 20t25.5 8q26 0 30 -23q10 -58 10 -153q0 -77 -8 -160q35 -7 76.5 -19.5t73.5 -19t69 -6.5q153 0 322 102q-95 70 -158.5 157.5t-63.5 179.5q0 36 10 67q12 42 46 66.5t74 24.5q45 0 82 -32
t53 -96q20 60 57.5 91t79.5 31q48 0 78.5 -38.5t30.5 -93.5q0 -97 -82 -196t-181 -161q143 -99 290 -99l28 1q111 8 206 85.5t153 187.5q1 4 6 4q8 0 8 -8v-3q-61 -113 -159 -192.5t-213 -87.5l-30 -1q-154 0 -302 104q-142 -89 -274 -104q-35 -4 -66 -4q-34 0 -61 5.5
t-72.5 18.5t-82.5 21q-12 -105 -38 -153.5t-76 -48.5zM774 92q61 40 112.5 87.5t91.5 116t40 134.5q0 24 -4 43q-7 35 -29.5 55.5t-51.5 20.5q-35 0 -68.5 -31.5t-54.5 -94.5q-1 -4 -7 -4q-5 0 -7 5q-15 64 -48.5 97t-73.5 33q-31 0 -56.5 -20t-36.5 -56q-10 -29 -10 -63
q0 -85 58.5 -173t144.5 -150z" />
    <glyph glyph-name="z.1" unicode="&#xe026;" horiz-adv-x="1434" 
d="M75 -178h-10q-19 0 -29 2q-37 12 -37 64q5 106 135 117q8 48 8 86q0 88 -38 88q-25 -2 -60 -20l-4 -1q-7 0 -7 8q0 4 4 5q25 20 45 68t20 83q0 32 -19 32q-26 -3 -47 -28.5t-23 -53.5q0 -2 5 -7t5 -10q-1 -12 -14 -12t-13 12q0 43 28.5 79t67.5 36q65 -4 65 -69
q-1 -55 -71 -111q15 5 34 5q43 0 64 -33t21 -87q0 -27 -7 -69q34 -2 107 -13.5t115 -11.5q145 0 313 102q-95 70 -159 157.5t-64 179.5q0 36 10 67q12 42 46 66.5t75 24.5q45 0 82 -32t53 -96q20 60 57.5 91t79.5 31q35 0 63.5 -22t39.5 -61q6 -24 6 -49q0 -97 -82 -196
t-181 -161q143 -99 289 -99q126 5 224.5 78.5t163.5 195.5q1 4 6 4q8 0 8 -7l-1 -4q-60 -113 -158.5 -192.5t-213.5 -87.5l-30 -1q-154 0 -302 104q-172 -107 -328 -107q-42 0 -115.5 11t-106.5 13q-16 -66 -49 -114.5t-71 -54.5zM746 92q44 29 84.5 64t77.5 78t59 94.5
t22 101.5q0 24 -4 43q-7 35 -29 55.5t-51 20.5q-35 0 -68.5 -31.5t-54.5 -94.5q-1 -4 -7 -4q-7 0 -7 5q-15 64 -48.5 97t-73.5 33q-31 0 -56.5 -20t-36.5 -56q-10 -29 -10 -63q0 -85 58.5 -173t144.5 -150zM49 -163q24 1 46 45.5t36 107.5q-113 -10 -117 -105q0 -45 35 -48z
" />
    <glyph glyph-name="a.2" unicode="&#xe027;" horiz-adv-x="1411" 
d="M1276 4q-13 0 -23 7q-30 19 -30 132q0 22 3 79q-42 -135 -73 -139l-8 -1q-31 0 -44.5 30t-13.5 70q3 52 16 91q-88 -51 -224 -51q-104 0 -323 40.5t-306 40.5q-127 0 -192 -75q-6 -7 -14 -7q-14 0 -14 15q0 8 7 16q56 66 208 66q91 0 311 -40.5t324 -40.5q146 0 232 59
q1 0 1 1q28 53 67 53q38 -4 56 -32q3 15 5 20.5t9.5 11t20.5 5.5q29 0 29 -25q0 -5 -5.5 -45t-10 -94t-4.5 -101q0 -69 10 -69q16 5 40.5 51t51 110.5t31.5 75.5q1 4 6 4q8 0 8 -7q0 -2 -1 -4q-6 -11 -33.5 -78t-53 -113.5t-45.5 -52.5q-9 -3 -18 -3zM1152 97q12 0 28 38.5
t33.5 97t18.5 60.5q-4 14 -14.5 25.5t-23.5 14.5q-16 -9 -32 -84.5t-16 -124.5q0 -18 3 -26z" />
    <glyph glyph-name="b.2" unicode="&#xe028;" horiz-adv-x="1474" 
d="M1249 -34l-8 1q-31 3 -31 38q2 63 86 144l1 29q0 122 -23 134q-29 -6 -58 -60q-26 -56 -36 -146q-4 -16 -32 -18q-17 0 -21 15q-20 67 -21 171q-88 -52 -225 -52q-102 0 -323 40.5t-307 40.5q-127 0 -192 -75q-6 -7 -14 -7q-15 0 -15 15q0 8 7 16q57 66 209 66
q92 0 310 -40.5t323 -40.5q142 0 227 54v16q0 103 24 189t73 118q15 10 49 10l20 -1q44 0 44 -69q-2 -69 -45 -148.5t-100 -107.5v-35q0 -31 2 -93q12 52 30 88q19 37 37.5 52.5t48.5 17.5q27 0 45 -21t24.5 -46.5t7.5 -55.5q53 35 114 57h2q5 0 8 -8q0 -4 -5 -6
q-64 -23 -119 -60q0 -88 -30 -151q-13 -27 -37.5 -49t-49.5 -22zM1241 -19q43 8 54 146q-68 -70 -70 -123q0 -21 16 -23zM1172 315q50 28 88.5 102.5t40.5 137.5q0 53 -29 54q-56 0 -81 -120q-15 -68 -19 -174z" />
    <glyph glyph-name="c.2" unicode="&#xe029;" horiz-adv-x="1328" 
d="M1173 -12l-18 1q-75 18 -75 157q0 70 22 126q-86 -50 -223 -50q-104 0 -323 40.5t-306 40.5q-127 0 -192 -75q-6 -7 -14 -7q-14 0 -14 15q0 8 7 16q56 66 208 66q91 0 311 -40.5t324 -40.5q146 0 232 58q32 69 80 69q51 -2 51 -46q-3 -39 -20 -39q-12 3 -12 13q0 5 1 7
q2 5 9 8t8 6l1 6q0 9 -6 17.5t-14 9.5q-8 0 -17.5 -20t-17 -49.5t-12.5 -51t-7 -35.5q-8 -40 -8 -96q0 -90 32 -91q33 0 65.5 56t56.5 125t28 75q3 3 7 3q7 0 7 -7l-1 -4q-3 -4 -27.5 -73t-58.5 -126.5t-70 -62.5z" />
    <glyph glyph-name="d.2" unicode="&#xe030;" horiz-adv-x="1459" 
d="M1146 104q8 0 16.5 7.5t16 22.5t13.5 29.5t12.5 36.5t10.5 36.5t9.5 36t7.5 27.5q-20 28 -54 33q-13 -6 -24.5 -73t-11.5 -121q0 -23 4 -35zM1312 1q-20 0 -31 12q-44 52 -48 231q-41 -154 -88 -154q-31 0 -45 37.5t-14 79.5q1 35 9 61q-84 -46 -215 -46
q-103 0 -323 40.5t-306 40.5q-127 0 -192 -75q-6 -7 -14 -7q-15 0 -15 15q0 8 7 16q57 66 209 66q90 0 310 -40.5t324 -40.5q139 0 223 53q24 58 66 58q39 -2 65 -26q4 96 20 175t41 107q21 25 68 25q74 -2 75 -89q0 -68 -43 -143.5t-98 -103.5v-33q0 -243 36 -243
q25 1 116 216q7 17 11 25q1 4 7 4q8 -2 8 -7l-1 -3q-75 -176 -103 -217q-21 -32 -37 -33zM1297 310q50 28 88.5 100t38.5 131q0 72 -59 72q-29 0 -45.5 -93.5t-22.5 -209.5z" />
    <glyph glyph-name="e.2" unicode="&#xe031;" horiz-adv-x="1307" 
d="M1174 253q18 0 31.5 18t13.5 37q0 25 -26 29q-18 0 -36 -79q10 -5 17 -5zM1183 60h-8q-47 0 -70.5 40.5t-23.5 93.5q0 39 10 72q-84 -44 -211 -44q-103 0 -323 40.5t-306 40.5q-128 0 -192 -75q-6 -7 -14 -7q-15 0 -15 15q0 8 7 16q57 66 209 66q92 0 309.5 -40.5
t323.5 -40.5q136 0 220 50q28 66 80 66q30 -2 42.5 -12t12.5 -34q0 -25 -18 -47t-42 -22q-8 0 -20 5q-9 -42 -9 -95q0 -73 32 -74q65 0 132 183q2 5 7 5q7 -1 7 -8v-2q-69 -190 -140 -192z" />
    <glyph glyph-name="f.2" unicode="&#xe032;" horiz-adv-x="1388" 
d="M1182 316q56 19 99 95t43 139q0 62 -45 62q-24 -1 -43.5 -36.5t-30 -93t-15.5 -93t-8 -73.5zM1194 -77q-18 0 -35 17q-55 56 -55 264q0 24 2 70q-88 -52 -226 -52q-104 0 -323.5 40.5t-306.5 40.5q-127 0 -192 -75q-6 -7 -14 -7q-14 0 -14 15q0 8 7 16q56 66 208 66
q90 0 310.5 -40.5t323.5 -40.5q144 0 228 56q8 107 32 193.5t60 120.5q23 20 73 20l14 -1q53 -4 53 -75q0 -18 -3 -33q-11 -69 -56 -135.5t-99 -82.5q-4 -80 -4 -121l13 -1q52 0 110 25.5t92 57.5l4 2q8 0 8 -8q0 -4 -2 -5q-36 -32 -95.5 -58.5t-112.5 -27.5
q31 -27 47 -67.5t16 -81.5q0 -34 -11 -59t-29 -29t-23 -4zM1215 -58q27 10 27 73q0 40 -16 80t-49 64q4 -212 38 -217z" />
    <glyph glyph-name="g.2" unicode="&#xe033;" horiz-adv-x="1412" 
d="M1187 -191h-8q-67 7 -67 80q3 64 35 112t95 108q0 77 -2 111q-33 -155 -96 -158q-28 0 -42.5 31.5t-14.5 79.5q0 54 15 99q-86 -50 -222 -50q-104 0 -324 40.5t-305 40.5q-128 0 -193 -75q-6 -7 -13 -7q-15 0 -15 15q0 8 7 16q56 66 208 66q91 0 310.5 -40.5t324.5 -40.5
q146 0 232 58q22 51 67 51q35 -3 55 -23l-1 12q0 12 11.5 19.5t25.5 7.5q26 0 30 -23q10 -53 10 -169q6 5 47 39.5t59 50.5q2 2 5 2q7 0 7 -8q0 -3 -2 -5q-20 -17 -61 -52t-55 -47q-5 -218 -47 -293q-28 -48 -76 -48zM1152 78q33 11 55 78.5t30 131.5q0 14 -16 27t-32 15
q-17 -3 -29.5 -80t-12.5 -138q0 -34 5 -34zM1178 -176q57 7 63 264q-55 -53 -83.5 -98.5t-30.5 -100.5q0 -60 51 -65z" />
    <glyph glyph-name="h.2" unicode="&#xe034;" horiz-adv-x="1454" 
d="M1174 315q47 23 83.5 100t41.5 151q0 47 -26 47q-29 -1 -50 -35t-30.5 -87.5t-13.5 -94.5t-5 -81zM1334 -29h-1q-28 1 -44.5 6.5t-23.5 24.5q-9 24 -9 61q0 44 13.5 129.5t13.5 104.5q0 10 -1 14q-55 -24 -94 -201v-1q0 -22 -39 -22q-23 0 -24 12q-15 69 -15 163v14
q-88 -54 -229 -54q-103 0 -324 40.5t-306 40.5q-127 0 -192 -75q-6 -7 -14 -7q-15 0 -15 15q0 8 7 16q57 66 209 66q89 0 309 -40.5t325 -40.5q143 0 230 57q6 280 108 324q24 10 53 10q42 0 42 -64q-4 -79 -46 -162t-93 -103h-1v-20q0 -72 8 -133q38 156 97 179q10 4 26 4
q22 0 30 -9q12 -12 12 -50q0 -27 -13 -120q-12 -102 -12 -117q0 -47 16 -48q13 0 38 55t52.5 134.5t28.5 81.5q2 6 7 6q7 -1 7 -7v-3q-2 -4 -30.5 -86.5t-56.5 -138.5t-49 -56z" />
    <glyph glyph-name="i.2" unicode="&#xe035;" horiz-adv-x="1271" 
d="M1172 68q-17 0 -28 4q-42 14 -42 136q0 21 3 66q-87 -53 -225 -53q-103 0 -322.5 41t-306.5 41q-129 -2 -193 -75q-6 -7 -13 -7q-15 0 -15 14q0 9 7 17q56 66 208 66q91 0 312 -41t323 -41q146 0 230 59q10 12 29 12q34 -2 34 -21q0 -6 -4 -55.5t-4 -79.5q0 -68 20 -68
q11 0 21 12t20.5 35.5t17 41t16 48t12.5 37.5q3 5 7 5q8 -3 8 -8l-1 -2q-2 -6 -13.5 -41t-18 -51.5t-18.5 -41.5t-24.5 -36.5t-26.5 -12.5zM1145 346q-11 0 -18.5 8t-7.5 18q0 11 7.5 18.5t18.5 7.5t18.5 -7.5t7.5 -18.5t-7.5 -18.5t-18.5 -7.5z" />
    <glyph glyph-name="j.2" unicode="&#xe036;" horiz-adv-x="1291" 
d="M1144 358q-11 0 -18.5 7.5t-7.5 18.5t7.5 18.5t18.5 7.5q10 0 18 -8t8 -18t-8 -18t-18 -8zM1080 -168q-35 0 -54 22.5t-19 57.5q0 26 11 56t27 54.5t32 45.5t27 34l11 12l1 34q0 66 -4 130q-88 -57 -232 -57q-103 0 -322.5 41t-305.5 41q-129 -2 -193 -75q-6 -7 -14 -7
q-15 0 -15 15q0 8 7 16q57 66 209 66q90 0 310 -41t324 -41q147 0 231 59v3q0 9 11 15.5t26 7.5q29 0 30 -22q4 -46 5 -122q53 44 112 84q2 1 4 1q8 0 8 -8q0 -4 -4 -5q-64 -43 -120 -92q0 -41 -0.5 -67t-3.5 -69.5t-9.5 -72t-17.5 -58t-29.5 -44t-42.5 -14.5zM1065 -151
q15 1 25.5 31t15 76t6.5 77t3 58q-86 -96 -94 -177q0 -58 44 -65z" />
    <glyph glyph-name="k.2" unicode="&#xe037;" horiz-adv-x="1483" 
d="M1343 -29q-26 0 -39 8q-24 14 -35.5 70t-22.5 111.5t-34 67.5q-20 -61 -33 -130q0 -18 -32 -20q-25 0 -26 18q-12 53 -12 160v20q-86 -54 -229 -54q-104 0 -324.5 40.5t-304.5 40.5q-129 -2 -193 -75q-6 -7 -13 -7q-15 0 -15 14q0 9 7 17q56 66 208 66q93 0 311 -41
t323 -41q145 0 230 58q3 119 26 214t67 115q17 7 42 7q31 -1 46.5 -20t15.5 -51q-1 -65 -42.5 -143t-92.5 -109l-1 -46q0 -43 4 -113q9 39 22.5 78.5t34 86.5t49 77t59.5 31q26 0 39.5 -18.5t13.5 -47.5q0 -45 -29.5 -86t-81.5 -48q20 -20 29.5 -79.5t16.5 -107.5t22 -48
l1 1q15 6 30.5 26.5t30.5 54.5t26 61.5t26 70.5t21 58q4 4 7 4q1 0 3.5 -1t3.5 -2t1 -4l-1 -3q-6 -17 -22 -61t-27 -72t-27 -62.5t-32.5 -55.5t-33.5 -28q-3 -2 -13 -2zM1230 240q28 0 54.5 26t39.5 59q17 40 17 62q0 17 -11 17q-59 -9 -113 -162zM1172 326q46 32 82 103
t37 130q0 55 -47 56q-28 -7 -49 -94.5t-23 -194.5z" />
    <glyph glyph-name="l.2" unicode="&#xe038;" horiz-adv-x="1362" 
d="M1176 290q51 41 90.5 122t39.5 142q0 63 -43 66q-36 0 -59 -99.5t-28 -230.5zM1193 -30q-34 0 -48 23q-39 65 -39 236v22q-81 -39 -193 -39q-101 0 -333.5 45.5t-328.5 45.5q-129 -2 -193 -75q-6 -7 -13 -7q-15 0 -15 14q0 9 7 17q56 66 208 66q93 0 329 -44t341 -44
q118 0 191 38q3 123 26.5 225.5t60.5 129.5q17 12 58 12q37 -2 53 -19.5t16 -59.5q0 -69 -44 -157.5t-101 -127.5v-29q0 -246 29 -255q24 4 53.5 53.5t63.5 125.5t43 93q3 3 6 3q8 -3 8 -7l-1 -4q-9 -17 -43.5 -94t-65.5 -127.5t-58 -57.5q-5 -2 -17 -2z" />
    <glyph glyph-name="m.2" unicode="&#xe039;" horiz-adv-x="1601" 
d="M1471 -10q-17 0 -27 6q-27 14 -27 98q0 43 8.5 124.5t8.5 99.5q0 10 -2 18q-41 -29 -100 -178q-5 -14 -24 -14q-13 1 -17.5 4.5t-7.5 21.5t-3 61q0 38 3.5 104.5t3.5 75.5l-1 9q-38 -15 -78 -135q-28 -89 -49 -213q-2 -25 -29 -27q-24 0 -27 23q-4 38 -4 108q0 62 3 96
q-85 -50 -222 -50q-104 0 -323 40.5t-306 40.5q-129 -2 -193 -75q-6 -7 -13 -7q-15 0 -15 14q0 9 7 17q56 66 208 66q91 0 310.5 -41t323.5 -41q140 0 227 55q8 18 28 18q33 -2 33 -28l-6 -118q1 2 5.5 21.5t8 32.5t10 37.5t13 42.5t15 40.5t18 38.5t20 30.5t22.5 22t24 7.5
q10 0 22 -6q25 -14 25 -97q0 -33 -9 -128q1 2 9 19t13 27.5t14.5 28.5t18 29.5t18.5 24t21 18.5t22 6q23 -1 32 -25.5t9 -75.5q0 -37 -6.5 -111t-6.5 -97q0 -42 13 -42q9 1 22 22.5t26.5 55t25 65.5t23 65t14.5 42q3 4 7 4q7 -2 7 -6l-1 -3q-5 -12 -18.5 -51t-24 -67.5
t-25 -62t-28 -54t-24.5 -23.5q-12 -4 -25 -4z" />
    <glyph glyph-name="n.2" unicode="&#xe040;" horiz-adv-x="1447" 
d="M1326 -10q-24 0 -35 6q-28 19 -28 108q0 57 12.5 160t12.5 117q0 11 -2 12q-63 -13 -124 -313q-2 -12 -4 -18t-8 -11t-17 -5q-26 0 -29 22q-4 38 -4 109q0 65 4 96q-86 -51 -225 -51q-108 0 -326.5 40.5t-301.5 40.5q-128 0 -192 -75q-6 -7 -14 -7q-15 0 -15 15q0 8 7 16
q57 66 208 66q91 0 311 -40.5t324 -40.5q142 0 227 55q9 17 30 17q32 -2 32 -27l-7 -131q62 258 131 258q12 0 23.5 -8.5t15.5 -20.5q7 -21 7 -61q0 -41 -9.5 -134.5t-9.5 -125.5q0 -54 18 -54q11 2 23 20t25 50t22.5 59.5t22 68t17.5 54.5q2 5 7 5q8 -2 8 -7l-1 -3
q-4 -12 -16.5 -51.5t-22.5 -68t-23.5 -62.5t-26.5 -54.5t-25 -23.5q-5 -2 -22 -2z" />
    <glyph glyph-name="o.2" unicode="&#xe041;" horiz-adv-x="1312" 
d="M1176 211q19 0 46 5v13q0 45 -16.5 67t-40.5 22q-19 0 -35.5 -12.5t-20.5 -31.5q17 10 23 10q12 -2 17 -3.5t10 -6t5 -12.5q0 -3 -3 -19t-5 -31q6 -1 20 -1zM1161 53h-6q-24 0 -34 10q-27 27 -27 99q0 10 0.5 21t1.5 19.5t2 15t2 10.5v4l-1 2l-3 6t-3 7q-73 -36 -179 -36
q-101 0 -334.5 46t-329.5 46q-127 0 -192 -75q-6 -7 -14 -7q-14 0 -14 14q0 9 7 17q56 66 208 66q101 0 334.5 -46.5t333.5 -46.5q105 0 175 37l-1 12q0 26 22 46.5t49 20.5q32 0 55.5 -29t23.5 -84v-8q46 13 78 40l5 2q5 0 8 -8q0 -2 -3 -5q-37 -31 -89 -45
q-2 -20 -7 -42.5t-13.5 -48.5t-23 -43t-31.5 -17zM1162 68q20 2 36.5 42.5t22.5 90.5q-25 -5 -44 -5q-9 0 -23 2q-3 -28 -3 -58q2 -64 11 -72z" />
    <glyph glyph-name="p.2" unicode="&#xe042;" horiz-adv-x="1435" 
d="M1133 -167q-23 0 -24 16q-7 55 -7 203q2 153 8 224q-88 -54 -230 -54q-108 0 -327.5 40.5t-301.5 40.5q-127 0 -192 -75q-6 -7 -14 -7q-15 0 -15 15q0 8 7 16q57 66 209 66q90 0 310.5 -40.5t323.5 -40.5q145 0 231 58q3 23 33 23q34 0 34 -24l-4 -48q37 116 99 116
q35 -1 50 -37t15 -85q0 -16 -2 -36q89 47 104 56q1 1 4 1q7 0 7 -7q0 -3 -3 -6q-18 -11 -115 -62q-10 -50 -41.5 -96t-66.5 -46q-13 0 -23.5 11t-10.5 25q0 36 79 87q8 48 8 103q0 74 -21 75q-27 -11 -52.5 -61t-37.5 -129q-9 -58 -9 -217l1 -84q0 -21 -26 -21zM1225 59
q20 1 41 87q-60 -38 -60 -65q0 -9 5.5 -15.5t13.5 -6.5z" />
    <glyph glyph-name="q.2" unicode="&#xe043;" horiz-adv-x="1398" 
d="M1285 -168q-20 0 -32 6q-43 23 -43 197q0 93 10 195q-45 -143 -78 -147l-8 -1q-28 0 -41.5 26t-13.5 66q0 53 17 94q-84 -46 -216 -46q-109 0 -327.5 40.5t-302.5 40.5q-127 0 -192 -75q-6 -7 -14 -7q-14 0 -14 14q0 9 7 17q56 66 208 66q91 0 311 -41t324 -41
q139 0 226 55q29 59 71 59q34 -4 52 -29q3 34 34 34q29 -2 29 -22q-16 -173 -19 -249q17 19 36 43.5t31.5 42t32.5 47.5l28 42q3 3 5 3q8 0 8 -8l-1 -3q-10 -14 -29.5 -43.5t-32.5 -49t-33 -44.5t-38 -44q30 -8 46.5 -51t17.5 -99q0 -79 -31 -85q-12 -3 -28 -3zM1138 97
q15 1 32 38t35.5 95.5t20.5 63.5q-9 28 -36 39q-16 -9 -35.5 -89.5t-19.5 -125.5q0 -15 3 -21zM1310 -151q19 4 19 69q-3 130 -57 139l-1 -41q0 -167 36 -167h3z" />
    <glyph glyph-name="r.2" unicode="&#xe044;" horiz-adv-x="1391" 
d="M1245 -24q-21 0 -30 13q-16 20 -16 68q0 34 9 90t9 61l-1 5q-3 6 -36.5 15t-49.5 25q-74 -47 -195 -47q-105 0 -344 48.5t-340 48.5q-127 0 -192 -75q-6 -7 -14 -7q-15 0 -15 15q0 8 7 16q57 66 209 66q92 0 301 -39q29 -5 95.5 -18.5t104.5 -20.5t91.5 -13.5t95.5 -6.5
q115 0 186 45q-13 19 -13 50q0 13 3 30q6 34 22.5 51.5t35.5 17.5q14 0 23 -10.5t9 -29.5q-5 -62 -35 -96q12 -5 37.5 -7t44 -7.5t26.5 -20.5q5 -12 5 -20q0 -1 -8 -44q-26 -116 -26 -157q0 -30 12 -30t27.5 22t32 57.5t30 69t27.5 70t19 47.5q1 4 7 4q8 -2 8 -7l-1 -3
q-5 -11 -20 -50t-29 -72.5t-31.5 -70.5t-35.5 -59t-33 -23zM1151 286q33 28 35 87q0 23 -14 25q-31 0 -36 -74q0 -26 15 -38z" />
    <glyph glyph-name="s.2" unicode="&#xe045;" horiz-adv-x="1369" 
d="M1173 -89q-25 0 -42.5 17.5t-17.5 45.5q0 67 100 167q-11 13 -54 48.5t-52 62.5q-3 10 -3 21q-86 -51 -225 -51q-109 0 -326 40.5t-303 40.5q-127 0 -192 -75q-6 -7 -14 -7q-14 0 -14 14q0 9 7 17q56 66 208 66q92 0 311.5 -41t322.5 -41q139 0 226 55q7 30 34 50.5
t58 20.5q59 -5 59 -45q0 -13 -6.5 -25.5t-16.5 -12.5q-13 2 -13 13l1 5q2 7 11 9t9 10q0 28 -44 31q-21 0 -37 -11.5t-16 -32.5q0 -22 17 -40.5t47.5 -41.5t46.5 -41q64 54 119 81l3 1q6 0 8 -8q0 -5 -4 -6q-56 -27 -117 -79q29 -37 29 -93q0 -63 -35.5 -112t-84.5 -53z
M1172 -74l14 2q51 20 53 130q0 41 -18 71q-94 -98 -94 -155q0 -21 12.5 -34.5t32.5 -13.5z" />
    <glyph glyph-name="t.2" unicode="&#xe046;" horiz-adv-x="1331" 
d="M1190 -28q-16 0 -28 8q-57 36 -57 293q-86 -51 -225 -51q-107 0 -326 40.5t-303 40.5q-127 0 -192 -75q-6 -7 -14 -7q-15 0 -15 15q0 8 7 16q57 66 209 66q90 0 309.5 -40.5t323.5 -40.5q141 0 226 54q2 96 10 178q-86 8 -122 8q-80 0 -129 -21q-4 -1 -4 -9v-6
q0 -12 -7 -19q-8 -5 -16 -5t-13 5.5t-5 12.5q0 18 38 34q48 22 137 22q48 0 123 -7q6 61 17 125q3 20 35 20q34 0 34 -22v-4q-11 -66 -18 -126q126 -14 184 -14q125 0 186 45q8 5 8 12q0 2 -1.5 6.5t-1.5 7.5q0 6 6 12t14 6q6 0 11.5 -4.5t5.5 -11.5q0 -5 -5 -13
q-57 -74 -222 -74q-69 0 -186 13q-12 -117 -12 -231q3 -231 38 -241q22 7 46 57.5t48.5 123t30.5 86.5q1 4 6 4q8 -2 8 -6l-1 -4q-7 -16 -33 -94.5t-51 -127t-52 -54.5q-10 -3 -22 -3z" />
    <glyph glyph-name="u.2" unicode="&#xe047;" horiz-adv-x="1415" 
d="M1285 -25q-12 0 -21 4q-31 12 -31 141q0 18 5 113q-47 -149 -75 -163q-6 -3 -17 -3q-17 0 -24 5q-22 15 -22 104q0 55 5 97q-86 -51 -225 -51q-108 0 -326.5 40.5t-302.5 40.5q-127 0 -192 -75q-6 -7 -14 -7q-15 0 -15 15q0 8 7 16q57 66 209 66q91 0 310.5 -40.5
t324.5 -40.5q145 0 230 57q8 11 27 11q17 -1 22.5 -7t5.5 -19q0 -4 -3 -33t-5 -62t-2 -70q0 -24 3 -29q27 21 85 221q6 18 26 18q33 -4 33 -24q-13 -176 -13 -246q0 -58 6 -64q38 3 111 237q10 35 16 35q8 -2 8 -7q0 -1 -10 -33q-59 -187 -97 -229q-15 -17 -28 -17z" />
    <glyph glyph-name="v.2" unicode="&#xe048;" horiz-adv-x="1422" 
d="M1202 -9h-1q-26 0 -37 7q-31 21 -44.5 97t-13.5 154v25q-85 -52 -226 -52q-107 0 -327 40.5t-302 40.5q-127 0 -192 -75q-6 -7 -14 -7q-15 0 -15 15q0 8 7 16q57 66 209 66q89 0 309 -40.5t325 -40.5q143 0 230 57q9 12 28 12q35 -2 35 -27l-2 -64q0 -208 32 -209
q26 0 53 56t47 138q-30 17 -50 59t-21 108q0 93 56 99q49 0 49 -115q0 -60 -17 -142q4 -1 11 -1q23 0 50.5 17t43.5 34q3 3 5 3q8 0 8 -8l-2 -5q-19 -20 -49 -38t-57 -18l-14 2q-19 -85 -50.5 -144.5t-63.5 -59.5zM1306 216q15 63 16 135q0 101 -33 101q-27 -4 -27 -81
q0 -49 11.5 -94.5t32.5 -60.5z" />
    <glyph glyph-name="w.2" unicode="&#xe049;" horiz-adv-x="1554" 
d="M1333 -18h-4q-20 2 -34 9q-23 13 -34.5 50t-13.5 65t-2 72q-32 -129 -77 -132q-10 0 -18 2q-25 10 -36 60.5t-11 111.5q0 33 3 54q-85 -52 -226 -52q-107 0 -327 40.5t-302 40.5q-127 0 -192 -75q-6 -7 -14 -7q-15 0 -15 15q0 8 7 16q57 66 208 66q91 0 311.5 -40.5
t324.5 -40.5q146 0 230 57q7 15 32 15q13 0 22.5 -6t9.5 -16q-9 -94 -9 -151q0 -64 10 -74q17 8 31.5 45.5t27 88.5t14.5 57q3 18 32 18q35 0 35 -23q0 -1 -2 -22t-4 -57t-2 -74q0 -93 19 -97l8 -1q35 0 62 59.5t41 144.5q-40 5 -66 49t-29 114q0 43 15.5 70.5t46.5 27.5
q56 -1 58 -141q0 -48 -8 -107q58 2 102 46l4 2q9 0 9 -8l-2 -5q-51 -49 -112 -49h-3q-16 -93 -47 -155.5t-73 -62.5zM1440 215q8 60 8 108v14q-4 108 -44 110q-32 0 -32 -75l1 -29q4 -48 22 -86t45 -42z" />
    <glyph glyph-name="x.2" unicode="&#xe050;" horiz-adv-x="1408" 
d="M1058 -41q-11 0 -11 14q0 5 3.5 9t7.5 4l9 -1q4 0 8 4q24 29 86 141q-26 66 -46 150q-89 -58 -237 -58q-108 0 -325 40.5t-302 40.5q-129 0 -193 -75q-7 -7 -14 -7q-14 0 -14 15q0 8 7 16q56 66 208 66q90 0 310.5 -40.5t324.5 -40.5q146 0 231 58q-5 15 -5 27
q0 24 38 29q21 0 25 -15q8 -23 19 -70.5t14 -58.5q4 7 13.5 25t15.5 30t16 30t17 29.5t15 23t14.5 17t11.5 5.5q6 0 11 -4t5 -10q0 -5 -4.5 -9.5t-9.5 -4.5h-6q-6 0 -10 -5q-21 -32 -83 -147q0 -17 29 -86.5t51 -71.5q10 0 21 12.5t23 37.5t23 50t27 63.5t28 64.5q2 5 7 5
q7 -1 7 -7l-34 -80q-48 -116 -70 -141q-15 -19 -30 -19h-9q-35 0 -55 10q-28 17 -58 87q-58 -106 -86 -137q-16 -16 -24 -16z" />
    <glyph glyph-name="y.2" unicode="&#xe051;" horiz-adv-x="1433" 
d="M1207 -191h-8q-66 7 -66 79q4 66 35 114t94 107l1 35q0 75 -5 142q-57 -182 -100 -185h-7q-21 0 -35 12q-18 21 -18 75q0 36 8 86q-88 -52 -226 -52q-107 0 -327 40.5t-302 40.5q-129 0 -193 -75q-7 -7 -14 -7q-14 0 -14 15q0 8 7 16q56 66 208 66q92 0 311 -40.5
t324 -40.5q143 0 230 57q2 12 6 29q3 15 30 15q39 -2 39 -26q-2 -16 -14 -74t-12 -91q0 -17 3 -30q25 15 58.5 104t33.5 113t37 28q26 0 30 -23q9 -50 9 -148v-21q6 5 47 39.5t59 50.5l5 2q8 0 8 -7q0 -3 -3 -6q-19 -17 -116 -99q-5 -218 -46 -293q-27 -48 -77 -48z
M1199 -176q18 2 30.5 31t19 74t9.5 82.5t4 76.5q-54 -52 -83 -98t-31 -101q0 -60 51 -65z" />
    <glyph glyph-name="z.2" unicode="&#xe052;" horiz-adv-x="1389" 
d="M1198 -178h-9q-39 0 -52.5 17.5t-13.5 47.5q4 91 140 242q-7 50 -35 50q-22 -1 -61 -20l-3 -1q-8 0 -8 8q0 4 3 5q25 20 46 68t21 83q0 32 -19 32q-17 -2 -32 -13.5t-35 -32.5t-38 -33q-79 -53 -223 -53q-28 0 -61 2.5t-56.5 4.5t-62 8t-53 8.5t-56 10t-46.5 8.5
q-203 39 -293 39q-129 0 -193 -75q-7 -7 -13 -7q-15 0 -15 15q0 8 7 16q56 66 208 66q91 0 302 -39q231 -42 332 -42q141 0 215 51q16 11 50 43t56 37l17 2q28 0 45.5 -19.5t17.5 -50.5q0 -52 -71 -110q21 6 39 6q34 0 54 -24q49 50 90 88l5 2q8 0 8 -7q0 -3 -3 -6
q-53 -49 -91 -89q16 -28 16 -82q0 -85 -36.5 -166.5t-92.5 -89.5zM1171 -163q40 1 67.5 96.5t27.5 165.5l-1 10q-125 -142 -128 -222q0 -47 34 -50z" />
    <glyph glyph-name="a.3" unicode="&#xe053;" horiz-adv-x="1437" 
d="M176 5q-12 0 -24 6q-30 19 -30 135q0 22 3 76q-40 -134 -72 -139l-8 -1q-31 0 -44.5 30t-13.5 71l1 24q6 52 29.5 97.5t63.5 45.5q31 0 55 -32q4 21 10 29t25 8q28 0 28 -24q0 -5 -5 -47t-9.5 -96.5t-4.5 -97.5q0 -30 3 -49t6 -19q5 2 11.5 7.5t13 16t12 20t12.5 24
t11.5 24t11 23.5t8.5 19q39 85 81 117q57 44 195 44q127 0 348 -42q208 -38 292 -38q129 0 193 74q6 7 14 7q15 0 15 -14q0 -8 -7 -16q-57 -66 -208 -66q-93 0 -302 39q-231 42 -345 42q-129 0 -184 -40q-40 -29 -79 -114q-1 -3 -6.5 -15t-8.5 -18t-9 -19t-10 -20.5
t-10 -18.5t-11.5 -18.5t-11 -14.5t-11.5 -11.5t-11 -5.5q-9 -3 -17 -3zM51 97q12 0 28.5 38.5t34.5 98t18 60.5q-11 31 -39 40q-15 -9 -31 -84.5t-16 -125.5q0 -18 3 -26z" />
    <glyph glyph-name="b.3" unicode="&#xe054;" horiz-adv-x="1377" 
d="M141 -34l-7 1q-31 3 -31 36q5 66 86 147l1 29q0 121 -23 133q-30 -7 -58 -60q-26 -54 -36 -145q-1 -8 -10 -13.5t-19 -5.5q-19 0 -24 15q-21 75 -21 194q0 109 23 197t74 121q14 9 53 9h16q44 -1 44 -69q-2 -69 -45 -149t-100 -108v-34q0 -31 2 -93q12 52 30 88
q18 37 36.5 52.5t48.5 17.5q71 0 78 -122q125 104 294 104q94 0 280 -36q208 -38 293 -38q129 0 193 74q6 7 14 7q14 0 14 -14q0 -8 -7 -16q-56 -66 -208 -66q-91 0 -302 39q-196 36 -276 36q-88 0 -158.5 -26t-136.5 -83q0 -86 -30 -150q-13 -27 -37.5 -49.5t-50.5 -22.5z
M134 -18q43 8 54 145q-69 -71 -70 -123q0 -21 16 -22zM65 315q51 29 89 103t40 137q0 54 -29 54q-56 0 -81 -120q-17 -75 -19 -174z" />
    <glyph glyph-name="c.3" unicode="&#xe055;" horiz-adv-x="1361" 
d="M75 -12l-18 2q-75 17 -75 156q0 26 4 58q11 68 40.5 114.5t69.5 46.5q21 -1 35 -13t14 -33q-3 -40 -20 -40q-12 5 -12 14q0 6 8 12t9 8q1 3 1 7q0 18 -19 27h-1q-26 0 -53 -156q-8 -43 -8 -97q0 -90 32 -91q47 1 98 122q46 112 94 148q57 44 195 44q127 0 348 -42
q208 -38 292 -38q130 0 194 74q6 7 14 7q14 0 14 -14q0 -8 -7 -16q-56 -66 -208 -66q-91 0 -302 39q-231 42 -345 42q-129 0 -184 -40q-21 -16 -41 -45.5t-27 -45t-25 -55.5q-51 -121 -103 -128z" />
    <glyph glyph-name="d.3" unicode="&#xe056;" horiz-adv-x="1490" 
d="M52 105q8 0 16.5 7.5t15.5 22t13.5 29.5t13 37t10.5 36.5t9.5 35t7.5 27.5q-19 28 -54 33q-13 -6 -24 -73.5t-11 -120.5q0 -25 3 -34zM218 1q-19 0 -31 13q-45 52 -48 230q-43 -154 -87 -154q-32 0 -46 37.5t-14 79.5q3 59 25.5 100.5t58.5 41.5q39 -2 64 -27
q4 96 20 175t41 108q24 24 66 24q76 -2 77 -89q0 -67 -43 -143t-98 -103v-33q0 -243 36 -243q22 1 78 126q44 97 86 129q59 44 196 44q126 0 347 -42q208 -38 293 -38q129 0 193 74q6 7 14 7q14 0 14 -14q0 -8 -7 -16q-56 -66 -208 -66q-92 0 -301 39q-231 42 -345 42
q-130 0 -185 -40q-15 -11 -27 -24t-23.5 -34t-15.5 -29t-17 -36q-61 -135 -91 -137q-14 -2 -22 -2zM204 311q50 29 88 100.5t38 130.5q0 72 -61 72q-28 -1 -44.5 -99t-20.5 -204z" />
    <glyph glyph-name="e.3" unicode="&#xe057;" horiz-adv-x="1345" 
d="M83 253q17 0 31.5 18t14.5 37q0 26 -26 30q-18 -2 -36 -80q8 -5 16 -5zM93 60q-102 0 -102 134q0 52 19.5 97t50.5 57q12 5 33 5q50 -1 50 -45q0 -25 -18 -47.5t-42 -22.5q-8 0 -20 5q-10 -47 -10 -95q0 -72 33 -73q19 0 37.5 15t28 29.5t22.5 38.5q51 90 83 115
q59 44 196 44q126 0 347 -42q208 -38 293 -38q129 0 193 74q6 7 14 7q14 0 14 -14q0 -8 -7 -16q-56 -66 -208 -66q-91 0 -302 39q-228 42 -344 42q-130 0 -185 -40q-34 -25 -79 -110q-50 -91 -97 -93z" />
    <glyph glyph-name="f.3" unicode="&#xe058;" horiz-adv-x="1191" 
d="M77 317q56 18 99 94t43 139q0 62 -44 62q-70 -2 -98 -295zM88 -76q-40 0 -64.5 78.5t-24.5 204.5q0 129 25.5 244t69.5 156q21 21 75 21q36 -2 50.5 -21.5t14.5 -56.5q0 -17 -3 -32q-11 -69 -56 -135.5t-99 -81.5q-4 -74 -4 -110q140 119 309 119q80 0 266 -35
q208 -38 292 -38q130 0 194 74q6 7 14 7q14 0 14 -14q0 -8 -7 -16q-57 -66 -208 -66q-91 0 -302 39l-49.5 9t-56.5 10t-49 7.5t-57.5 6.5t-51.5 2q-80 0 -143 -22q-78 -27 -160 -99q75 -68 75 -161q0 -34 -11 -58t-29 -28t-24 -4zM110 -58q27 10 27 74q0 95 -65 143
q4 -210 38 -217z" />
    <glyph glyph-name="g.3" unicode="&#xe059;" horiz-adv-x="1419" 
d="M89 -191l-10 1q-66 5 -66 79q3 63 35 112t94 109l1 47l-2 64q-35 -155 -97 -158q-28 0 -42 31.5t-14 79.5q0 54 17 103t44 63q10 6 33 6q30 0 53 -22l-1 11q0 12 11.5 19.5t26.5 7.5q25 0 29 -22q10 -56 10 -166q137 126 316 140l48 2q24 0 51.5 -2t46.5 -4t54 -8
t46.5 -8t53.5 -10t48 -9q208 -38 293 -38q129 0 193 74q6 7 14 7q14 0 14 -14q0 -8 -7 -16q-56 -66 -208 -66q-92 0 -301 39q-7 1 -56 10.5t-65 12t-53.5 8t-65.5 7.5t-56 2q-103 0 -198.5 -37.5t-167.5 -110.5q-6 -224 -47 -295q-28 -49 -75 -49zM53 79q33 9 55.5 79
t29.5 130q0 15 -16 27.5t-32 15.5q-17 -3 -29.5 -80.5t-12.5 -138.5q0 -33 5 -33zM79 -175q57 6 63 264q-56 -55 -84 -99.5t-30 -99.5q0 -60 51 -65z" />
    <glyph glyph-name="h.3" unicode="&#xe060;" horiz-adv-x="1480" 
d="M64 315q47 23 83 100.5t41 152.5q0 46 -26 46q-28 0 -48.5 -35.5t-30.5 -90t-14 -95.5t-5 -78zM225 -29h-1q-21 1 -30.5 2.5t-21 8.5t-16.5 21q-9 21 -9 62q0 44 13 128.5t13 103.5q0 11 -1 14q-31 -14 -55.5 -73.5t-37.5 -127.5v-1q0 -21 -40 -21q-23 0 -24 12
q-15 65 -15 175q0 88 13 165q16 94 52 141.5t97 47.5q41 -1 41 -64q-5 -80 -46.5 -162.5t-91.5 -102.5l-1 -1v-25q0 -79 8 -128q37 156 96 179q8 5 27 5q21 0 30 -9q11 -12 11 -52q0 -33 -12 -119q-13 -74 -13 -118q0 -45 15 -46q15 0 37.5 56.5t57 129t72.5 101.5
q59 45 196 45q121 0 347 -43q208 -38 293 -38q130 2 193 74q6 7 14 7q14 0 14 -14q0 -8 -7 -16q-56 -66 -208 -66q-91 0 -302 39q-231 42 -345 42q-129 0 -184 -40q-46 -34 -89 -138q-2 -5 -9.5 -23.5t-12 -28.5t-12.5 -28t-14 -29t-13.5 -22.5t-15 -17t-13.5 -5.5z" />
    <glyph glyph-name="i.3" unicode="&#xe061;" horiz-adv-x="1301" 
d="M81 69h-14q-20 0 -28 3q-42 15 -42 135q0 33 5 78q3 23 36 23q31 -2 31 -21q0 -5 -2.5 -29.5t-4.5 -53t-2 -51.5q0 -69 20 -69q13 0 31.5 30.5t39.5 73t34 58.5q33 41 88 56t138 15q125 0 346 -42q208 -38 293 -38q130 2 193 74q6 7 14 7q14 0 14 -14q0 -8 -7 -16
q-56 -66 -208 -66q-91 0 -302 39q-216 42 -344 42q-159 0 -214 -67q-12 -14 -33 -58t-42 -76t-40 -33zM40 347q-11 0 -18 7v1q-7 7 -7 18t7.5 18.5t18.5 7.5q10 0 17.5 -7.5t7.5 -18.5t-7.5 -18.5t-18.5 -7.5z" />
    <glyph glyph-name="j.3" unicode="&#xe062;" horiz-adv-x="1278" 
d="M31 359q-11 0 -18 7v1q-7 7 -7 18t7.5 18.5t18.5 7.5q10 0 17.5 -7.5t7.5 -18.5t-7.5 -18.5t-18.5 -7.5zM-32 -167q-35 0 -54 22t-19 57q0 19 6 40.5t15.5 40.5t21 37.5t23 33.5t21 26t15.5 18l6 6v40q0 37 -2 85t-2 59q0 10 11.5 16.5t25.5 6.5q29 0 30 -22
q4 -51 5 -124q81 76 166 107.5t189 32.5q96 0 304.5 -39t296.5 -39q130 2 193 74q6 7 14 7q14 0 14 -14q0 -9 -6 -16q-57 -66 -209 -66q-91 0 -299 39t-303 39q-112 -2 -197 -33.5t-163 -112.5q0 -66 -3.5 -115.5t-13.5 -100t-31.5 -78t-54.5 -27.5zM-47 -151q15 1 25.5 31
t15 76.5t6.5 77.5t3 58q-87 -95 -94 -178q0 -57 44 -65z" />
    <glyph glyph-name="k.3" unicode="&#xe063;" horiz-adv-x="1508" 
d="M233 -28q-24 0 -36 7q-24 14 -36 70t-23 111.5t-34 67.5q-20 -61 -32 -129q-1 -18 -33 -20q-25 0 -26 17q-13 50 -13 160q0 133 22.5 240t71.5 127q14 7 37 7q68 -1 68 -74q-1 -62 -44 -140t-92 -108l-1 -39q0 -57 5 -120q9 39 22 79.5t33.5 86.5t49 75.5t60.5 30.5
q25 0 38.5 -18.5t13.5 -46.5q0 -44 -30.5 -85t-79.5 -49q20 -20 29 -79.5t16 -107.5t22 -48h2q21 9 42.5 47t37.5 81t42.5 89.5t55.5 68.5q59 45 196 45q121 0 347 -43q208 -38 292 -38q131 2 193 74q6 7 14 7q15 0 15 -14q0 -8 -7 -16q-57 -66 -208 -66q-93 0 -302 39
q-231 42 -345 42q-131 0 -184 -40q-35 -26 -66.5 -93t-59.5 -125.5t-58 -70.5q-8 -2 -15 -2zM123 241q28 0 53.5 26t39.5 58q16 37 16 64q0 16 -10 16q-59 -10 -113 -162zM64 326q43 32 81 103.5t39 127.5q0 58 -47 59q-30 -6 -49.5 -91t-23.5 -199z" />
    <glyph glyph-name="l.3" unicode="&#xe064;" horiz-adv-x="1377" 
d="M70 291q51 41 90 122.5t39 142.5q0 64 -43 65q-36 0 -58.5 -99.5t-27.5 -230.5zM85 -29q-34 0 -46 23q-39 64 -39 241q0 131 23.5 245.5t63.5 143.5q16 12 54 12q39 0 56 -19t17 -61q0 -69 -44 -157t-101 -127l-1 -28q0 -247 31 -257q26 5 55.5 62t65 127t70.5 97
q57 45 195 45q122 0 348 -43q208 -38 293 -38q130 2 193 74q6 7 14 7q14 0 14 -14q0 -8 -7 -16q-56 -66 -208 -66q-91 0 -302 39q-231 42 -345 42q-129 0 -184 -40q-32 -24 -67.5 -94.5t-67.5 -129.5t-62 -66q-12 -2 -19 -2z" />
    <glyph glyph-name="m.3" unicode="&#xe065;" horiz-adv-x="1634" 
d="M370 -9q-15 0 -27 5q-27 14 -27 101q0 43 7.5 123t7.5 99q0 14 -1 18q-40 -29 -99 -178q-5 -14 -24 -14q-6 0 -14 2q-15 4 -15 85q0 38 3.5 104.5t3.5 75.5v8q-37 -14 -78 -134q-30 -93 -49 -214q-3 -26 -27 -26q-26 0 -29 23q-4 28 -4 114q0 78 4 102q6 25 34 25
q30 -2 30 -28l-6 -119q62 274 135 274q11 0 23 -6q24 -14 24 -97q0 -23 -1.5 -49.5t-4 -49.5t-2.5 -29q67 154 116 154q22 -2 31 -26.5t9 -75.5q0 -37 -6 -111t-6 -97q0 -41 12 -41q15 1 50 85q14 36 26.5 62t32 58t45.5 54t57 32q51 17 141 17q127 0 348 -42
q210 -38 293 -38q130 2 193 74q6 7 14 7q14 0 14 -14q0 -8 -7 -16q-56 -66 -208 -66q-92 0 -301 39q-234 42 -346 42q-82 0 -136 -17q-43 -14 -79 -60t-55 -94t-40 -90t-37 -48q-11 -3 -25 -3z" />
    <glyph glyph-name="n.3" unicode="&#xe066;" horiz-adv-x="1482" 
d="M222 -10q-24 0 -35 6q-27 18 -27 106q0 57 12.5 161t12.5 118q0 11 -2 12q-62 -13 -124 -313l-4.5 -18t-8 -11t-17.5 -5q-25 0 -28 22q-4 38 -4 109q0 76 5 108q3 24 32 24q13 0 22 -7t9 -19l-6 -132q59 258 130 258q13 0 24.5 -8t15.5 -21q7 -21 7 -61t-9.5 -133.5
t-9.5 -126.5q0 -54 18 -54q16 2 39 55.5t55 120t65 92.5q59 44 196 44q126 0 347 -42q211 -39 300 -39q121 0 186 75q6 7 14 7q15 0 15 -14q0 -8 -7 -16q-57 -65 -209 -67q-92 0 -301 39q-231 42 -346 42q-129 0 -184 -40q-34 -25 -65 -91t-54.5 -120t-41.5 -59
q-5 -2 -22 -2z" />
    <glyph glyph-name="o.3" unicode="&#xe067;" horiz-adv-x="1306" 
d="M68 211q20 0 47 5v12q0 46 -17 68t-41 22q-21 0 -38 -15.5t-19 -36.5q2 4 2 6q3 12 23 12q12 -2 17 -3.5t10 -6.5t5 -13l-4 -20t-5 -29q6 -1 20 -1zM53 53h-5q-24 0 -34 10q-27 27 -27 98q0 11 0.5 22t1.5 19.5t2 15t1 10.5l1 4q-13 26 -13 41q0 26 21.5 47t48.5 21
q37 0 58.5 -35t21.5 -80v-5q16 5 107 43.5t154 46.5q31 4 71 4q89 0 300 -40q209 -39 300 -39q122 0 186 75q6 7 14 7q14 0 14 -14q0 -8 -7 -16q-56 -65 -208 -67q-91 0 -302 39q-9 2 -46 9t-52.5 9.5t-49 8t-54.5 8t-49 4.5t-52 2q-23 0 -63 -4q-62 -8 -151 -46t-113 -46
q-6 -55 -26 -103.5t-50 -48.5zM55 68q19 2 36 43.5t22 89.5q-25 -5 -44 -5q-9 0 -23 2q-3 -34 -3 -71q2 -51 12 -59z" />
    <glyph glyph-name="p.3" unicode="&#xe068;" horiz-adv-x="1368" 
d="M24 -167q-23 0 -24 16q-7 55 -7 203q2 159 9 241q1 12 11.5 18.5t23.5 6.5q32 0 32 -24l-4 -48q36 116 99 116q35 -1 50.5 -37t15.5 -84l-2 -31q85 54 157.5 77t169.5 25q93 0 281 -38t283 -38q128 0 190 75q6 7 14 7q15 0 15 -14q0 -8 -7 -16q-57 -65 -209 -67
q-95 0 -286.5 38t-283.5 38q-94 -1 -168.5 -26.5t-158.5 -80.5q-10 -50 -40.5 -98t-68.5 -48q-13 0 -23.5 11.5t-10.5 25.5q0 36 79 85q8 35 8 104q0 74 -20 75q-27 -10 -53 -60.5t-38 -129.5q-9 -58 -9 -217l1 -85q0 -20 -26 -20zM116 59q20 1 41 87q-59 -38 -59 -65
q0 -22 18 -22z" />
    <glyph glyph-name="q.3" unicode="&#xe069;" horiz-adv-x="1332" 
d="M191 -168q-19 0 -31 6q-43 23 -43 197q0 93 10 195q-48 -143 -78 -147l-8 -1q-28 0 -42 26t-14 67q0 62 28.5 118.5t69.5 56.5q35 -4 53 -30q2 19 9 27t24 8q12 0 21 -6t9 -17v-3q-14 -134 -19 -233q83 105 174 157t215 52q85 0 259 -34.5t258 -34.5q123 0 188 75
q6 7 14 7q14 0 14 -14q0 -8 -7 -16q-56 -65 -208 -67q-85 0 -260 34.5t-259 34.5q-118 0 -206 -49q-92 -53 -182 -168q35 -11 53 -54t18 -99q0 -79 -32 -85q-12 -3 -28 -3zM45 97q9 1 19.5 17t21 42.5t18.5 51t16.5 51.5t11.5 35q-9 30 -36 39q-16 -9 -35 -89.5t-19 -126.5
q0 -14 3 -20zM216 -151q20 3 20 68q0 49 -15 92t-42 47l-1 -45q0 -162 35 -162h3z" />
    <glyph glyph-name="r.3" unicode="&#xe070;" horiz-adv-x="1390" 
d="M115 -24q-21 0 -30 13q-16 20 -16 68q0 35 9.5 91.5t9.5 60.5q-1 8 -19 14t-38 11.5t-37 26t-17 55.5q0 12 3 29q6 34 22.5 51.5t35.5 17.5q14 0 23 -10.5t9 -29.5q-5 -64 -35 -96q12 -5 37.5 -7t44 -7.5t26.5 -20.5q5 -9 5 -21q0 -11 -8 -43q-26 -116 -26 -157
q0 -30 12 -30q19 1 47 58t63.5 128t66.5 95q59 44 196 44q126 0 347 -42q209 -39 300 -39q122 0 186 75q6 7 14 7q14 0 14 -14q0 -8 -7 -16q-56 -65 -208 -67q-91 0 -302 39q-231 42 -345 42q-129 0 -184 -40q-25 -19 -53 -67.5t-47 -95t-43 -84t-44 -38.5zM22 286
q29 26 35 88q0 22 -15 24q-31 0 -36 -74q0 -26 16 -38z" />
    <glyph glyph-name="s.3" unicode="&#xe071;" horiz-adv-x="1292" 
d="M77 -88h-8q-26 0 -43.5 17.5t-17.5 45.5q0 66 100 166q-11 13 -54 48.5t-52 62.5q-3 10 -3 22q0 35 29 61.5t65 26.5q58 -5 58 -45q0 -13 -6.5 -25.5t-16.5 -12.5q-13 2 -13 13l1 5q2 7 11 9t9 10q0 28 -44 31q-21 0 -37 -11.5t-16 -32.5q0 -22 17 -40.5t47.5 -41.5
t46.5 -41q151 130 337 130q76 0 261 -35q211 -39 300 -39q122 0 186 75q6 7 14 7q14 0 14 -14q0 -8 -7 -16q-56 -65 -208 -67q-92 0 -301 39q-179 35 -257 35q-181 0 -330 -126q29 -39 29 -91q0 -59 -32.5 -109.5t-78.5 -56.5zM68 -73q8 0 13 1q51 20 53 130q0 41 -18 71
q-94 -98 -94 -155q0 -21 12.5 -34t33.5 -13z" />
    <glyph glyph-name="t.3" unicode="&#xe072;" horiz-adv-x="1363" 
d="M86 -28q-15 0 -29 8q-30 20 -42 90.5t-15 195.5q0 91 10 203q-69 8 -122 8q-83 0 -129 -21q-4 -1 -4 -10v-3q0 -14 -7 -21q-7 -4 -15 -4t-13.5 5t-5.5 12q0 17 38 34q51 23 137 23q54 0 123 -8q5 60 17 126q4 19 35 19q35 0 35 -22l-1 -4q-11 -66 -18 -126
q117 -13 184 -13q125 0 185 44q8 6 8 13q0 2 -0.5 6t-0.5 7q0 6 5 11.5t13 5.5q18 0 18 -15q0 -7 -5 -13q-58 -74 -222 -74q-69 0 -186 13q-13 -130 -13 -237q5 -225 39 -235q18 5 37.5 42.5t36 81.5t43 91t54.5 68q59 44 196 44q129 0 347 -42q209 -39 299 -39
q122 0 186 75q7 7 15 7q14 0 14 -14q0 -8 -7 -16q-57 -65 -208 -67q-93 0 -302 39q-216 42 -345 42t-184 -40q-36 -26 -67.5 -95.5t-58 -127.5t-54.5 -64q-2 0 -6.5 -1t-8 -1.5t-6.5 -0.5z" />
    <glyph glyph-name="u.3" unicode="&#xe073;" horiz-adv-x="1450" 
d="M192 -23h-10q-13 0 -22 3q-31 14 -31 147q0 35 4 107q-46 -148 -74 -163q-6 -3 -17 -3q-17 0 -24 5q-22 16 -22 105q0 21 1 45.5t2.5 40.5t1.5 18q3 24 30 24q18 0 24.5 -5.5t6.5 -18.5q-9 -126 -9 -165q0 -27 2 -31q27 22 85 221q5 19 27 19q32 -2 32 -25
q0 -6 -3.5 -49.5t-6.5 -97.5t-3 -97q0 -58 6 -65q6 0 13 5.5t14 15.5t12.5 20t12.5 26t11 26t11 27t9 23q41 102 87 138q59 44 197 44q128 0 346 -42q211 -39 300 -39q121 0 186 75q7 7 15 7q14 0 14 -14q0 -8 -7 -16q-57 -65 -209 -67q-92 0 -301 39q-216 42 -345 42
q-130 0 -185 -40q-34 -25 -67.5 -97t-60.5 -129.5t-53 -58.5z" />
    <glyph glyph-name="v.3" unicode="&#xe074;" horiz-adv-x="1390" 
d="M97 -9h-1q-27 0 -37 8q-30 22 -44.5 97t-14.5 151l1 37q2 22 32 22q34 0 34 -26l-1 -56q0 -217 31 -218q26 0 53.5 56.5t46.5 137.5q-28 17 -49 60t-22 108q0 92 57 98q49 0 49 -108q-3 -79 -18 -149h8q27 0 85 30q82 41 142 55.5t135 16.5q74 0 270.5 -37.5t290.5 -37.5
q121 0 186 75q7 7 14 7q15 0 15 -14q0 -6 -8 -16q-56 -65 -208 -67q-94 0 -289.5 37t-270.5 37q-73 -2 -131.5 -16t-138.5 -54q-65 -31 -91 -31q-8 0 -12 1q-20 -86 -51 -145t-63 -59zM200 216q14 65 17 142q0 94 -32 94q-29 -4 -29 -82q0 -48 12 -93.5t32 -60.5z" />
    <glyph glyph-name="w.3" unicode="&#xe075;" horiz-adv-x="1514" 
d="M227 -18h-4q-20 2 -34 9q-23 13 -35 50t-13.5 64.5t-1.5 72.5q-34 -127 -72 -132h-5q-10 0 -18 2q-46 18 -46 170q0 42 4 70q4 21 33 21q14 0 24.5 -6t10.5 -16q-10 -95 -10 -141q2 -75 10 -84q17 8 31.5 45.5t27 88.5t14.5 57q1 18 32 18q35 0 35 -23q0 -1 -2 -21.5
t-4 -56t-2 -72.5q0 -96 19 -100h8q35 0 62 59.5t40 143.5q-39 5 -64.5 49t-29.5 114q0 43 15.5 70.5t46.5 27.5q53 -1 58 -127v-14q0 -58 -8 -107q27 1 77 27q44 21 72.5 32.5t86 24t123.5 13.5q25 0 50.5 -2t55.5 -6.5t48.5 -7.5t56 -10.5t50.5 -9.5q209 -39 299 -39
q122 0 187 75q7 7 14 7q15 0 15 -14q0 -6 -8 -16q-56 -65 -208 -67q-91 0 -302 39q-11 2 -48 9l-55.5 10.5t-49 8t-56.5 6.5t-50 2q-72 -1 -135.5 -16.5t-99 -33.5t-69.5 -32.5t-54 -14.5h-3q-15 -90 -46.5 -153.5t-72.5 -63.5zM334 215q8 48 8 109v13q-4 109 -43 110
q-33 0 -33 -75l1 -29q4 -48 22 -86t45 -42z" />
    <glyph glyph-name="x.3" unicode="&#xe076;" horiz-adv-x="1416" 
d="M-60 -41q-5 0 -9 4.5t-4 10.5q0 4 4 8t9 4l7 -1q4 0 8 4q27 31 86 141q-29 74 -54 183l-1 7q0 26 39 31q21 0 25 -15q7 -22 17.5 -66.5t15.5 -62.5q4 7 13.5 25t15.5 30t16 30t17 29.5t15 23t14.5 17t11.5 5.5q6 0 11 -4t5 -10t-4.5 -10t-9.5 -4h-7q-5 0 -9 -5
q-16 -24 -83 -147q0 -17 29 -86.5t51 -71.5q8 0 16.5 8t18 25.5t15 28.5t15 33t10.5 24q38 89 84 125q59 44 197 44q128 0 346 -42q209 -39 300 -39q121 0 186 75q7 7 14 7q15 0 15 -14q0 -6 -8 -16q-56 -65 -208 -67q-91 0 -302 39q-213 42 -345 42q-129 0 -184 -40
q-42 -30 -83 -123l-8 -17q-7 -17 -10 -23t-10.5 -22.5t-13.5 -24t-13.5 -18t-15.5 -15t-15 -4.5h-9q-35 0 -54 9q-29 18 -59 88q-58 -106 -86 -137q-13 -16 -22 -16z" />
    <glyph glyph-name="y.3" unicode="&#xe077;" horiz-adv-x="1374" 
d="M103 -191h-8q-66 7 -66 81q3 64 34.5 111.5t94.5 107.5l1 35q0 75 -5 142q-16 -55 -44.5 -118.5t-55.5 -66.5h-7q-53 0 -53 89q0 34 18 133q3 15 29 15q16 0 28 -7t12 -19q-2 -16 -13.5 -74.5t-11.5 -91.5q0 -11 2 -29q25 15 58.5 104t33.5 113q0 12 12 20t26 8
q25 0 29 -23q10 -53 10 -169q156 140 344 140q75 0 258 -35q211 -39 300 -39q121 0 186 75q7 7 14 7q15 0 15 -14q0 -8 -7 -16q-57 -65 -209 -67q-92 0 -301 39q-8 2 -42 8.5t-46 8.5t-40.5 7t-45 6.5t-39.5 3.5t-43 2q-102 0 -187 -39q-71 -32 -158 -107q-5 -220 -46 -293
q-27 -48 -77 -48zM95 -176q57 7 63 264q-54 -52 -83 -98t-31 -101q0 -60 51 -65z" />
    <glyph glyph-name="z.3" unicode="&#xe078;" horiz-adv-x="1288" 
d="M76 -178h-9q-66 0 -66 65q4 91 140 242q-7 50 -35 50q-23 -2 -61 -20l-3 -1q-8 0 -8 8q0 4 3 5q25 20 46 68t21 83q0 32 -19 32q-27 -3 -48.5 -28.5t-23.5 -53.5q0 -3 5 -7t5 -9q0 -13 -12 -13q-14 1 -14 12q0 44 30 81q29 35 68 35q28 -2 45.5 -20t17.5 -50
q0 -54 -71 -111q19 6 38 6q37 0 55 -24q69 73 142 107q68 32 162 32q76 0 260 -36q209 -39 299 -39q123 0 186 75q7 7 15 7q14 0 14 -14q0 -8 -7 -16q-57 -65 -208 -67q-93 0 -302 39q-12 2 -47.5 9t-54 10.5t-48.5 8t-56 6.5t-51 2q-87 0 -157.5 -31.5t-137.5 -104.5
q16 -28 16 -82q0 -85 -36.5 -166.5t-92.5 -89.5zM49 -163q40 1 67.5 96.5t27.5 165.5l-1 10q-122 -139 -127 -224q0 -45 33 -48z" />
    <glyph glyph-name="r.calt" unicode="&#xe079;" horiz-adv-x="340" 
d="M206 -25h-6q-26 0 -36 12q-16 20 -16 69q0 35 9.5 91.5t9.5 61.5l-1 4q-3 5 -14 8.5t-28 8t-29 11.5q-20 -67 -49 -134q-27 -66 -50 -97q-3 -3 -6 -3l-5 2q-2 1 -2 5t1 5q20 27 49 93q27 66 49 138q-26 21 -26 64q0 14 3 31q6 35 22.5 52.5t35.5 17.5q4 0 12 -2
q20 -9 20 -38l-1 -15q-7 -54 -34 -81q6 -3 51.5 -9.5t56.5 -26.5q5 -9 5 -22q0 -7 -7 -42q-26 -118 -26 -159q0 -30 12 -30q12 1 27.5 22.5t32 58t30 69.5t28 70.5t18.5 47.5q1 4 7 4l4 -1q4 -2 4 -6l-1 -3q-5 -11 -20 -51t-29 -73t-32 -70t-36 -59.5t-33 -23.5zM100 286
q13 11 23 34t12 45l1 10q0 21 -12 24h-3q-11 0 -22 -16t-14 -42v-12q0 -30 15 -43z" />
    <glyph glyph-name="_289" horiz-adv-x="0" 
 />
    </font>
</defs>
</svg>
