<?xml version="1.0" encoding="utf-8"?>
<!-- Generator: Adobe Illustrator 21.0.0, SVG Export Plug-In . SVG Version: 6.00 Build 0)  -->
<svg version="1.1" id="Capa_1" xmlns="http://www.w3.org/2000/svg" xmlns:xlink="http://www.w3.org/1999/xlink" x="0px" y="0px"
	 viewBox="0 0 512 512" style="enable-background:new 0 0 512 512;" xml:space="preserve">
<style type="text/css">
	.st0{fill:#FFFFFF;}
</style>
<path class="st0" d="M471,222.3c-4.6-19.4-16.5-28.7-36.5-28.8c-1.6,0-3.1-0.1-4.6,0c-3.1,0.4-4.4-0.8-4.7-4
	c-1.4-14.2-2.7-28.4-4.7-42.5c-1.5-10.5,0.9-18.9,9.9-25c2.7-1.8,4.9-4.3,7.3-6.5c15.2-13.9,22.5-31.5,23.8-51.8
	c0.6-9.1-4.4-13.3-13.4-11c-7.2,1.8-14.5,3.5-21.5,5.8c-17.6,5.8-33.9,3-49.2-7.1c-0.6-0.4-1.3-0.8-2-1.2
	c-16.3-10-33-18.9-51.1-25.2c-36.8-12.8-73.2-13-108.1,5.2c-15.5,8.1-29.6,19-44.2,28.9c-2.4,1.6-4.4,1.9-7.2,1.7
	c-7.3-0.5-15-1.6-22.1-0.3c-24.9,4.4-44.1,25.2-48.7,51.2c-4.4,25-5.3,50.2-5.3,75.5c0,1.9,0,3.9,0,6.3c-4.2,0-7.8,0-11.3,0
	c-14,0.1-23.7,7-29.8,19.3c-3.9,7.9-5.2,16.5-4.7,25.3c1.4,22.7,15.6,47.4,45.4,46.4c2.8-0.1,3.6,1.2,4.2,3.7
	c4.4,17.9,12,34.5,21.9,49.9c4.6,7.1,9.6,14,15,21.8c-1.4,1.1-3.1,2.2-4.5,3.6c-14,13.7-26.3,28.9-35.9,46
	c-4.2,7.6-0.1,14.7,8.5,14.7c7.4,0.1,14.9,0,22.3,0c4.9-0.1,8.6,2,11.3,6.1c4.1,6.2,8.1,12.5,12.3,18.6c6.1,8.9,14.7,13.5,25.6,13.5
	c7.3,0,14.6,0,21.9-0.1c4.9,0,8.6,1.9,11.3,6c3.4,5.3,6.8,10.7,10.5,15.9c2,2.8,4.6,5.2,7,7.8h5.6c2.4-2.5,5.4-4.7,7.1-7.6
	c9.6-16.6,18.9-33.4,28.2-50.2c1.4-2.5,3-3.4,5.8-3.6c25.6-2.4,48.4-12.4,69.7-26.1c5.2-3.3,5.4-10.5,1-14.5
	c-3.2-2.9-7.4-2.9-12-0.5c-10.1,5.3-20.2,10.7-30.7,15.3c-6.3,2.8-13.2,4.2-21,6.6c5-10.1,9.5-18.7,13.6-27.5
	c7.2-15.1,13.6-30.5,16-47.3c3.2-22-7.7-36.8-29.7-40.1c-10.6-1.6-21.1-0.6-31.4,1.7c-32.5,7-61.4,21.8-88.2,41
	c-3.4,2.4-6.6,4.9-10.5,7.8c-4.7-6.9-9.5-13.4-13.7-20.2c-14.7-23.7-23.3-49.1-22.2-77.4c0.5-12.8,0.2-25.7,0-38.6
	c0-3.1,1-5.1,3.2-7.2c17.1-16.3,37.5-26.5,60.3-32.4c8-2.1,15.9-2.1,23.8,0.2c68.4,20.3,138.4,31.8,209.2,38.7
	c3.8,0.4,4.5,1.8,4.5,5.2c-0.1,14.3,0.2,28.5-0.2,42.8c-0.1,6.8-0.9,13.6-2.1,20.3c-3.8,19.4-12.3,36.9-23,53.4
	c-3.8,5.8-3.1,11,1.7,14.3c4.7,3.2,10,1.6,13.8-4c10.9-16.5,19.5-34.1,24.2-53.4c0.8-3.4,2.3-4.3,5.6-4.3
	c15.1,0.2,27.1-5.9,35.2-18.7C472.1,252.5,474.7,237.8,471,222.3z M88.6,265.8c-8.5,0.6-15.5-1.9-20.2-8.9
	c-6.9-10.2-8.6-21.4-4.9-33.2c2.7-8.6,7.1-11.6,16.1-11.6c2.9,0,5.8,0,9.1,0V265.8z M244.2,317c9.5-2.3,19.2-3.5,29-1.5
	c8.3,1.7,11.6,5.7,11.6,14.2c0,10.9-3.2,21.3-7.9,30.8c-13.6,27.4-27.9,54.5-42,81.7c-3.9,7.5-8.3,14.8-12.7,22.6
	c-1.9-2.8-3.4-5.1-4.9-7.3c-6.2-8.9-14.8-13.4-25.6-13.6c-7.3-0.1-14.6-0.1-21.8,0.1c-5.2,0.1-8.9-2-11.6-6.3
	c-3.3-5.2-6.9-10.3-10.1-15.6c-6.9-11.3-16.8-16.9-30.2-16.4c-1.1,0-2.2-0.1-3.2-0.1c-0.1,0-0.2-0.2-0.8-0.8c3.6-4.5,7-9.4,11-13.9
	C157.2,354.3,196.5,328.8,244.2,317z M402.1,149.1c1.8,12.6,2.9,25.2,4.3,37.8c0.2,1.5,0,3,0,5c-9.1-1-17.9-2-26.8-3
	c-37.1-4.3-74-9.2-110.4-17.7c-22.7-5.3-45.4-11.1-67.9-17.2c-12.8-3.5-25.2-3.6-37.9,0c-20,5.8-38.7,13.8-55,27.2
	c-0.4-0.7-0.8-1.1-0.8-1.4c0-22.2,0.7-44.4,5.3-66.1c3.7-17.4,13.7-30,31.6-34.7c7-1.9,14.2-1.4,21,1.1c4.7,1.8,8.5,0.8,12.5-2.2
	c12.1-8.8,24-18.1,36.8-26c34.8-21.4,71.5-22.4,108.6-7.3c15,6.1,29.1,14.3,43.4,22c10.1,5.4,20.2,10.8,31.7,12.7
	c12.9,2.2,25.2-1.2,37.5-4.2c1.5-0.4,3-0.8,5-1.3c-0.2,1.5-0.2,2.7-0.5,3.8C438.2,86,434,93.1,428,99.2c-3.4,3.4-6.8,6.9-10.6,9.7
	C403.6,119.1,399.8,132.8,402.1,149.1z M444,260.7c-4.8,4.2-10.5,5.6-17,5.2v-53.5c4.9,0,9.7-0.8,14,0.3c3.2,0.8,6.8,3.3,8.7,6.1
	C457.5,230.1,454.3,251.5,444,260.7z M157.3,284.8c2.5,5.1,7.9,6.6,13.9,3.5c12.1-6.3,24.1-12.7,36.2-18.9c3.7-1.9,6.3-4.6,6.4-8.9
	c0.1-4.3-2.4-7.1-6.2-9c-12.2-6.4-24.3-12.8-36.6-19.2c-5.7-3-11-1.5-13.6,3.4c-2.6,5-0.7,9.9,5.1,13c7.1,3.8,14.2,7.5,21.9,11.6
	c-7.6,4-14.7,7.7-21.7,11.5C156.8,275,154.8,279.9,157.3,284.8z M359,279.3c-0.6-2.7-3.2-5.7-5.7-7.2c-6.8-4.1-14.1-7.6-22-11.7
	c8.3-4.4,15.9-8.2,23.3-12.4c4.6-2.6,5.9-7.6,3.8-12c-2.1-4.4-7.2-6.8-11.7-4.5c-13.7,6.9-27.3,13.9-40.6,21.3
	c-5.8,3.2-5.7,11.9,0.1,15.1c13.2,7.4,26.6,14.5,40.2,21.2C353.1,292.5,360.7,286.6,359,279.3z M363.1,361.9c-5.3-0.1-9.5,4-9.5,9.2
	c0,4.9,4.2,9.1,9.1,9.2c5.1,0.1,9.5-4.2,9.4-9.4C372.1,366,368.2,362,363.1,361.9z M200.5,378.2c4.6-2.6,8.9-5.7,13.8-7.7
	c12-5,24.1-9.6,36.2-14.1c5.7-2.1,8.4-4.8,8.4-9.6c-0.1-6.6-5.7-10.4-12.8-8.5c-19.6,5-37.9,13.4-55.1,24c-5.1,3.1-6.6,8.5-3.9,13.1
	C189.9,380,195.2,381.1,200.5,378.2z"/>
</svg>
