<?xml version="1.0" encoding="utf-8"?>
<!-- Generator: Adobe Illustrator 21.0.0, SVG Export Plug-In . SVG Version: 6.00 Build 0)  -->
<svg version="1.1" id="Capa_1" xmlns="http://www.w3.org/2000/svg" xmlns:xlink="http://www.w3.org/1999/xlink" x="0px" y="0px"
	 viewBox="0 0 512 512" style="enable-background:new 0 0 512 512;" xml:space="preserve">
<style type="text/css">
	.st0{fill:#FFFFFF;}
</style>
<path class="st0" d="M495.2,159.4c0-3.5-0.3-7.1-1-10.6c-3.8-21.4-22-37.8-42.8-38.7c-22.1-1-41.1,12.7-47.3,34.2
	c-0.3,1-0.7,1.9-1.4,3.5c-9.5-0.7-18.9-0.9-28.2-2.1c-20.5-2.6-39.1-11-57.5-20c-25.3-12.4-51.9-16.3-79.8-12.2
	c-17.7,2.6-33.8,9.3-49.7,17.2c-22.6,11.3-46.5,17.3-72,16.6c-2.8-0.1-3.9-0.8-4.7-3.6c-5.7-19.7-23.2-33.3-43-33.7
	c-20.6-0.5-38.4,12.2-45.1,32.1c-1.1,3.2-1.9,6.5-2.8,9.7v85.6c0.3,1.5,0.7,3,0.9,4.4c6.4,64.9,63.1,117.6,128.2,119.3
	c2.7,0.1,5.8,1.1,7.9,2.7c60.4,46,141.4,45.9,201.7-0.2c1.9-1.5,4.7-2.4,7.1-2.5c24.6-1.1,47.4-8,68.2-21.4
	c5.8-3.7,7.3-8.9,4.3-13.7c-3-4.7-8.3-5.2-14.3-2c-7.4,4-15,8-22.8,11.3c-5.3,2.3-11,3.4-16.6,5c0-1.6,0.4-2.2,0.8-2.7
	c24.4-30.2,36.4-64.6,35.8-103.5c-0.4-25.6-0.1-51.1-0.1-76.7c0-9.2,3.3-17,10.6-22.7c8.6-6.7,18.4-8.3,28.3-3.7
	c10.8,5,16.1,14.3,16.6,26c0.5,10.5,0.3,21.1,0.1,31.6c-0.5,25,2.4,50.2-5.5,74.8c-1.7,5.3,2.1,10.1,7.2,11.1
	c4.8,0.9,9-1.9,10.7-7.4c4-12.6,6.1-25.6,6.1-38.9C495.3,205.3,495.3,182.3,495.2,159.4z M130.9,340c-2.4-0.5-4.8-0.8-7.1-1.5
	C74.3,325.3,39,279.8,38.6,228.4c-0.2-23.4-0.2-46.8,0-70.2c0.1-16.5,12.2-29.3,27.2-29.5c15.8-0.2,28.3,12,28.4,28.1
	c0.1,26,0.3,52.1,0,78.1c-0.5,38.4,11.4,72.4,35.4,102.3c0.5,0.6,0.9,1.2,1.3,1.9C131,339.1,130.9,339.3,130.9,340z M311.8,369.1
	c-77.3,30.7-164.8-8.9-191.9-86.7c-4.5-12.8-6.9-26-7-39.6c-0.1-25.4,0-50.8,0-76.4c10-0.7,19.6-0.9,29-2.1
	c20.9-2.6,40.5-9.7,59.1-19.4c19-10,39.1-15.1,60.7-14.3c16.4,0.6,32.2,4.2,46.9,11.6c18.8,9.6,38.1,18,59.1,21.2
	c11.3,1.7,22.7,2.2,34.8,3.3v4.2c0,21.7-0.4,43.4,0.1,65.1C403.8,297.6,363.8,348.4,311.8,369.1z M461,293.3c-5.1,0-9.4,4.3-9.3,9.5
	c0.1,5,4.3,9.1,9.2,9.1c5.1,0,9.4-4.4,9.3-9.5C470.1,297.4,465.9,293.3,461,293.3z M352.8,287.2c-2.4-0.5-5.2,0.1-7.6,1
	c-29.5,10.3-59.5,17.7-91,17.1c-29.3-0.6-57.4-7.6-84.9-17.4c-6-2.2-11-0.2-13,5c-2,5.1,0.4,10.2,6.4,12.4
	c30.7,11.2,62.1,18.4,93.9,18.8c22.8-0.2,44.2-3.4,65.1-9.2c10.7-2.9,21.2-6.5,31.8-10c4.2-1.4,6.5-4.7,6.3-9.3
	C359.4,291.2,357,288,352.8,287.2z M352.7,193.9c-30.6-11.3-62.1-18.4-92.9-18.8c-22.4,0.2-42.4,2.9-62,8.1
	c-12.1,3.2-23.9,7.1-35.8,11c-4.6,1.5-6.9,5.5-6.3,9.7c0.6,4.3,3.1,7.3,7.2,8c2.3,0.4,4.9-0.2,7.2-1c26.8-9.4,54.2-16.3,82.7-17.1
	c32.3-0.9,63.1,6.6,93.3,17.4c6,2.2,11,0.3,13.1-4.9C361.1,201.2,358.7,196.1,352.7,193.9z M350.9,240.3c-1.4-0.1-2.8,0-4.2,0
	c-29.7,0-59.3,0-89,0c-29.8,0-59.7,0-89.5,0c-1.5,0-3.1-0.1-4.6,0.1c-4.5,0.6-7.9,4.4-8,8.9c-0.2,4.6,3.2,8.7,7.9,9.4
	c1.5,0.2,3.1,0.2,4.6,0.2c59.7,0,119.3,0,179,0c1.2,0,2.5,0,3.7-0.1c5.2-0.4,9-4.4,8.9-9.4C359.6,244.5,356,240.7,350.9,240.3z"/>
</svg>
