<svg width="1001" height="122" viewBox="0 0 1001 122" fill="none" xmlns="http://www.w3.org/2000/svg">
<path d="M178.107 87.7816C170.505 86.0173 167.156 77.3081 167.156 68.3102C167.156 58.4302 171.092 48.1011 177.377 45.583C178.737 45.1147 180.162 44.8657 181.599 44.8451L183.789 44.9895C184.587 45.0323 185.369 45.235 186.089 45.5858C186.809 45.9366 187.452 46.4285 187.983 47.0329C188.513 47.6373 188.919 48.3421 189.177 49.1065C189.435 49.8708 189.541 50.6795 189.487 51.4853C189.497 52.4383 189.352 53.3865 189.058 54.2921C188.027 58.1255 184.678 61.8144 180.726 61.8144C179.714 61.7643 178.722 61.5136 177.806 61.0766C176.974 65.6546 176.534 70.2962 176.488 74.9504C176.488 80.548 177.377 85.7125 180.583 86.0173H181.313C185.694 86.0173 189.058 82.184 192.423 76.7147C195.607 71.0831 198.294 65.1793 200.454 59.0717C200.53 58.8599 200.668 58.6763 200.849 58.5447C201.03 58.4131 201.247 58.3396 201.47 58.3339L202.057 58.4944C202.501 58.6387 202.501 59.0717 202.501 59.3765V59.8096C200.36 66.0665 197.622 72.0987 194.328 77.8214C190.963 83.419 186.884 87.9901 182.059 88.2949C180.727 88.2768 179.401 88.1046 178.107 87.7816V87.7816ZM187.011 53.9713C187.237 53.2019 187.334 52.3994 187.297 51.5976C187.345 51.0647 187.288 50.5274 187.131 50.0165C186.973 49.5056 186.718 49.031 186.379 48.6199C186.04 48.2088 185.624 47.8693 185.155 47.6206C184.686 47.372 184.174 47.2192 183.646 47.1708C181.758 47.3312 179.71 52.3354 178.25 58.8312C178.982 59.3266 179.845 59.5839 180.726 59.5689C183.503 59.601 185.916 56.7942 187.011 53.9713Z" fill="#B78F54"/>
<path d="M208.755 98.5598C200.152 96.6351 197.819 85.1351 197.819 75.3834C197.842 72.5249 198.033 69.6703 198.391 66.8347C200.295 54.4365 205.993 43.2252 214.167 43.2252H215.04C216.784 43.2983 218.434 44.0409 219.655 45.3016C220.876 46.5623 221.575 48.2461 221.61 50.0097V50.7635C221.512 52.0482 221.167 53.3012 220.595 54.4525C220.44 54.8378 220.177 55.1691 219.839 55.4056C219.501 55.6421 219.101 55.7736 218.69 55.7837L217.817 55.4951C217.497 55.3751 217.225 55.1544 217.039 54.8655C216.853 54.5766 216.764 54.235 216.785 53.8912C216.76 53.5412 216.814 53.19 216.944 52.8646C217.516 51.389 219.134 51.6778 219.42 50.7956L219.563 49.9134C219.492 49.0607 219.197 48.2427 218.709 47.5435C218.22 46.8443 217.557 46.2893 216.785 45.9358H216.643C213.135 45.9358 209.342 65.4072 208.707 68.9518C208.084 73.6475 207.745 78.3769 207.691 83.1142C207.691 89.8987 208.564 96.3945 212.215 96.5389C223.166 96.3945 231.498 63.1938 234.26 58.767C234.487 58.5058 234.806 58.3446 235.149 58.3179C235.419 58.3313 235.677 58.439 235.879 58.6227C236.061 58.8246 236.162 59.0873 236.164 59.3604C236.164 59.6491 236.164 59.7935 236.021 59.9539C233.53 63.9315 225.356 96.988 213.246 98.608C212.469 98.7279 211.683 98.7762 210.897 98.7523C210.179 98.7571 209.461 98.6927 208.755 98.5598Z" fill="#B78F54"/>
<path d="M239.719 86.4504C234.752 84.6861 233.577 74.8061 233.577 66.5299C233.527 62.6833 233.771 58.8385 234.307 55.0299C234.466 52.6721 236.799 51.6296 239.069 51.6296H239.513C241.703 51.6296 243.894 52.8166 243.894 54.5808V54.7412C243.894 57.532 242.719 66.979 242.719 74.5013C242.719 80.115 243.306 84.6861 245.639 84.6861C251.036 84.5418 255.575 67.2678 258.336 59.0237C258.432 58.8223 258.577 58.6488 258.758 58.5197C258.938 58.3906 259.148 58.3101 259.368 58.2859L259.955 58.4462C260.093 58.5463 260.204 58.6792 260.279 58.8331C260.354 58.987 260.39 59.1571 260.384 59.3284V59.7614C257.21 69.0641 252.797 86.4665 245.639 86.7712L243.449 86.9155C242.191 86.924 240.938 86.7677 239.719 86.4504V86.4504ZM236.069 42.0383C236.08 40.9908 236.496 39.9891 237.228 39.2475C237.961 38.6041 238.892 38.2359 239.862 38.205C240.876 38.2348 241.852 38.6012 242.64 39.2475C243.296 40.0261 243.656 41.0155 243.656 42.0383C243.656 43.055 243.256 44.03 242.545 44.7489C241.833 45.4678 240.868 45.8717 239.862 45.8717C238.856 45.8717 237.891 45.4678 237.18 44.7489C236.469 44.03 236.069 43.055 236.069 42.0383V42.0383Z" fill="#B78F54"/>
<path d="M263.812 97.9665C259.86 91.5509 258.114 77.4525 258.114 62.2636C258.114 38.205 262.638 11.067 270.811 5.00421C273.421 3.62449 276.344 2.96614 279.286 3.09566L281.62 3.23995C287.174 3.97775 289.365 8.5489 289.365 14.9004C289.367 16.9306 289.171 18.956 288.777 20.947C286.587 33.7782 277.826 50.1541 268.145 56.9547V61.0767C268.145 71.8549 268.732 97.6778 272.525 98.993C280.255 97.3891 290.19 68.9038 295.729 58.8954C295.831 58.7105 295.981 58.5574 296.163 58.4527C296.345 58.3481 296.551 58.2959 296.761 58.302C296.968 58.2965 297.172 58.3522 297.348 58.4623C297.498 58.5498 297.619 58.6805 297.695 58.8376C297.771 58.9946 297.8 59.171 297.776 59.3445C297.796 59.5529 297.746 59.762 297.634 59.9379C291.936 70.251 282.159 98.8807 273.255 101.094C272.436 101.276 271.602 101.378 270.764 101.399C269.413 101.465 268.067 101.184 266.852 100.584C265.637 99.9844 264.591 99.0839 263.812 97.9665V97.9665ZM286.73 20.2895C287.059 18.435 287.256 16.5589 287.317 14.6758C287.317 9.52726 285.556 5.83832 281.334 5.38923H281.032C275.779 5.38923 272.129 18.5252 270.24 32.6556C269.203 39.7452 268.567 46.8888 268.335 54.0516C277.096 47.2029 284.683 32.014 286.73 20.2895Z" fill="#B78F54"/>
<path d="M301.189 86.4504C296.221 84.6861 295.062 74.8061 295.062 66.5299C295.004 62.6831 295.248 58.8376 295.792 55.0299C295.935 52.6721 298.268 51.6296 300.554 51.6296H300.998C303.188 51.6296 305.379 52.8166 305.379 54.5808V54.7412C305.379 57.532 304.204 66.979 304.204 74.5013C304.204 80.115 304.791 84.6861 307.125 84.6861C312.537 84.5418 317.06 67.2678 319.822 59.0237C319.917 58.8223 320.062 58.6488 320.243 58.5197C320.423 58.3906 320.633 58.3101 320.853 58.2859L321.44 58.4462C321.578 58.5463 321.689 58.6792 321.764 58.8331C321.839 58.987 321.875 59.1571 321.869 59.3284V59.7614C318.695 69.0641 314.282 86.4665 307.125 86.7712L304.934 86.9155C303.671 86.9254 302.412 86.7691 301.189 86.4504V86.4504ZM297.538 42.0383C297.555 40.9889 297.976 39.9875 298.713 39.2475C299.44 38.6041 300.366 38.2356 301.332 38.205C302.346 38.2324 303.323 38.5991 304.109 39.2475C304.765 40.0261 305.126 41.0155 305.125 42.0383C305.125 43.055 304.725 44.03 304.014 44.7489C303.302 45.4678 302.338 45.8717 301.332 45.8717C300.326 45.8717 299.361 45.4678 298.649 44.7489C297.938 44.03 297.538 43.055 297.538 42.0383V42.0383Z" fill="#B78F54"/>
<path d="M350.834 96.9399C340.47 90.5242 337.693 81.4462 337.693 70.6679L337.978 64.3326C335.201 73.3305 331.55 84.253 327.329 84.8304L326.154 84.9748C319.441 84.9748 317.679 76.5703 317.679 69.7858L317.838 66.578C318.711 58.767 322.599 45.4867 331.408 45.4867C333.024 45.5575 334.599 46.0236 335.998 46.8449C337.396 47.6662 338.577 48.8183 339.438 50.2022C340.169 46.6736 340.613 44.7489 344.692 44.7489C346.739 44.7489 348.787 45.7754 348.787 48.2936C348.787 50.8117 345.723 60.6917 345.723 72.9295C345.723 74.9985 345.866 76.9072 346.009 78.9762C347.596 94.6143 361.484 99.827 377.545 99.827C393.909 99.827 409.97 93.6359 423.985 84.7823C408.209 72.8333 391.56 54.6771 391.56 35.0614C391.556 31.7076 392.048 28.372 393.02 25.1652C394.137 21.2982 396.463 17.9008 399.65 15.4809C402.837 13.061 406.714 11.7488 410.7 11.7405C418.731 11.7405 427.048 17.3542 430.397 30.6346C434.491 18.2364 442.808 12.7831 450.41 12.7831C459.933 12.7831 466.17 21.6367 466.17 32.2545C466.17 53.3619 443.84 74.9022 427.778 84.9266C440.046 93.3471 455.076 99.3618 469.821 99.3618L474.201 99.2175C497.135 97.4371 516.26 78.8479 526.767 59.1199C526.836 58.9444 526.956 58.7946 527.113 58.6912C527.269 58.5878 527.453 58.5358 527.64 58.5424C527.794 58.5381 527.947 58.5653 528.091 58.6224C528.234 58.6795 528.364 58.7653 528.474 58.8747C528.584 58.9841 528.671 59.1148 528.729 59.2589C528.787 59.403 528.816 59.5576 528.814 59.7133L528.671 60.1624C517.72 80.6603 498.151 99.5543 474.36 101.479L469.98 101.623C454.489 101.623 438.729 95.2077 425.873 86.274C410.256 96.154 394.051 102.217 375.355 102.217C366.594 102.088 357.325 100.918 350.834 96.9399ZM338.851 53.843C338.446 52.4689 337.717 51.2144 336.728 50.1865C335.738 49.1587 334.517 48.3881 333.169 47.9406C330.09 49.721 326.297 69.7858 326.297 78.7837C326.229 80.0777 326.379 81.374 326.741 82.617L327.17 82.7614C331.122 82.8416 337.105 58.783 338.851 53.843V53.843ZM461.504 33.6339C461.527 31.4806 461.33 29.3307 460.917 27.2182C459.457 20.2894 454.648 16.1513 449.093 16.1513C442.665 16.1513 435.364 21.6206 431.127 34.4519C431.054 34.6662 430.917 34.8524 430.735 34.9846C430.553 35.1168 430.335 35.1885 430.111 35.1896C429.866 35.1856 429.631 35.0951 429.445 34.934C429.26 34.7729 429.136 34.5512 429.095 34.3075C426.175 21.1715 418.573 15.2691 411.43 15.2691C402.511 15.2691 396.384 24.8926 396.384 35.9274C396.384 53.5704 410.542 72.0794 425.873 83.4511C441.935 73.0257 461.504 54.2921 461.504 33.6339V33.6339Z" fill="#B78F54"/>
<path d="M612.853 108.745C611.265 104.751 610.662 97.5173 610.662 88.6637C610.662 64.0278 615.186 26.705 615.186 10.4735C615.186 4.57111 614.757 2.45396 613.44 2.45396C597.68 6.88073 576.349 92.1602 576.206 93.0424C575.92 94.8227 573.428 95.7049 571.095 95.7049C567.159 95.4162 566.858 93.4915 566.858 89.8026V88.3269C566.858 71.8067 569.048 54.6449 569.048 38.3012C569.048 30.0411 568.477 21.0431 565.699 21.0431L565.112 21.1875C554.748 25.47 542.479 73.122 537.813 108.841C537.512 111.343 535.036 111.936 532.846 111.936C531.385 111.936 528.608 111.487 528.465 109.867C527.08 97.622 526.444 85.302 526.561 72.9775C526.719 51.7419 527.735 36.2482 529.338 19.1185C529.64 16.3277 532.846 14.9965 536.052 14.9965C538.829 15.1408 541.606 16.3278 541.606 18.8298L541.464 19.5676C538.289 38.1568 537.083 61.1729 537.083 82.2802C537.083 87.4448 537.083 92.6093 537.226 97.4692C542.622 65.3911 553.732 20.8988 565.398 18.8779C566.026 18.7633 566.664 18.715 567.302 18.7336C575.92 18.7336 578.253 32.7516 578.253 50.3144C578.253 61.5417 577.237 73.4748 576.666 82.7614C579.729 71.6945 597.838 3.52861 613.313 0.288728L615.36 -6.10352e-05C624.121 -6.10352e-05 626.311 10.9065 626.311 28.6136C626.311 38.654 625.438 50.3144 624.55 61.3813C624.264 64.7656 622.074 84.6861 622.074 98.2711C622.074 105.649 622.661 111.263 624.708 111.263C631.85 110.814 641.199 72.6087 647.626 59.0236C647.912 58.5906 648.214 58.2858 648.642 58.2858C648.91 58.3045 649.161 58.4204 649.351 58.612C649.541 58.8036 649.655 59.0581 649.674 59.3284L649.515 59.9218C642.802 74.8221 633.453 112.145 624.994 113.476L622.661 113.62C618.757 113.604 614.44 112.434 612.853 108.745Z" fill="#B78F54"/>
<path d="M669.719 95.304C666.228 93.0906 665.355 83.8039 665.355 75.3834C665.355 70.9567 665.64 66.8346 665.783 64.1561C663.006 73.154 659.355 84.0767 655.276 84.6701L654.102 84.8144C647.388 84.8144 645.643 76.7949 645.643 70.2029L645.785 66.5139C646.515 58.7029 650.547 45.4225 659.355 45.4225L661.26 45.5669C663.741 46.2159 665.882 47.7999 667.243 49.9937L667.831 47.1869C668.223 46.3285 668.868 45.6134 669.677 45.1397C670.487 44.666 671.422 44.4566 672.354 44.5404C674.544 44.5404 676.734 45.7112 676.734 48.2294L676.591 48.8228C676.29 51.6136 673.814 71.1011 673.814 83.788C673.783 86.207 673.932 88.6249 674.258 91.0215C674.401 92.6254 674.83 93.8124 675.131 93.8124C680.528 92.0481 689.59 65.9364 693.082 58.8472C693.183 58.6623 693.333 58.5092 693.515 58.4045C693.697 58.2999 693.904 58.2477 694.113 58.2538C694.379 58.2729 694.629 58.3893 694.816 58.5812C695.003 58.7731 695.114 59.0274 695.129 59.2963C695.12 59.5016 695.071 59.703 694.986 59.8898C691.193 67.7008 682.432 93.8123 675.719 95.8814C674.871 96.1769 673.981 96.3286 673.084 96.3304C671.884 96.354 670.706 95.9949 669.719 95.304V95.304ZM666.656 53.6987C666.26 52.2536 665.506 50.9343 664.466 49.8654C663.497 48.9572 662.359 48.2538 661.117 47.7964C658.054 49.5767 654.118 70.0104 654.118 78.9281C654.046 80.1273 654.196 81.3296 654.562 82.4728L654.991 82.6171C658.879 82.6171 665.053 58.5746 666.656 53.6987V53.6987Z" fill="#B78F54"/>
<path d="M704.906 98.5599C703.144 96.3465 702.573 92.6575 702.573 88.5194C702.573 79.8102 705.334 68.9037 705.334 66.0648L705.191 65.4713C703.731 62.3758 689.32 65.0383 689.32 50.4267C689.333 48.9404 689.482 47.4586 689.765 46C690.923 38.7664 695.018 35.8152 698.24 35.8152C698.831 35.842 699.417 35.9388 699.986 36.1038C701.89 37.002 702.906 38.9107 702.906 41.7175L702.763 43.9309C702.062 48.2537 700.359 52.3479 697.796 55.88C702.906 57.8047 710.794 56.0243 713.413 61.0445C713.982 62.0158 714.283 63.1235 714.286 64.2523C714.055 66.3426 713.667 68.4123 713.127 70.4435C711.54 77.6771 709.334 87.8458 709.334 93.6038C709.334 96.2663 709.762 98.0305 711.08 98.0305C717.063 97.8862 727.586 66.6101 730.935 58.7831C731.021 58.5858 731.168 58.4217 731.354 58.3149C731.539 58.2081 731.754 58.1642 731.966 58.1896L732.395 58.35C732.572 58.4553 732.719 58.6051 732.822 58.785C732.925 58.9649 732.98 59.1687 732.982 59.3765V59.6652C729.189 68.5187 718.968 99.7628 711.223 100.244L709.477 100.388C708.627 100.458 707.773 100.33 706.98 100.013C706.188 99.6958 705.478 99.1986 704.906 98.5599ZM700.811 43.2252V41.8939C700.811 39.6805 700.224 38.5097 699.224 38.205H698.78C696.732 38.205 694.113 41.3005 693.669 46.7698L693.526 49.1275C693.432 50.1711 693.581 51.2226 693.961 52.1975C694.341 53.1724 694.943 54.0436 695.716 54.7412C698.351 52.5278 700.398 47.2029 700.827 43.2252H700.811Z" fill="#B78F54"/>
<path d="M739.077 99.8911C734.125 96.6833 731.49 83.5152 730.903 66.979L730.76 57.6924C730.747 47.687 731.234 37.6872 732.22 27.7315C725.872 27.1381 719.952 26.5446 714.254 26.5446C707.112 26.5446 700.541 27.4428 695.574 29.6562C694.986 29.9449 694.986 30.394 694.986 31.1318V31.7092C695.044 32.2464 694.983 32.79 694.808 33.3004C694.632 33.8109 694.346 34.2755 693.971 34.6604C693.27 35.1073 692.466 35.3616 691.638 35.3981C691.113 35.4046 690.598 35.2564 690.155 34.9715C689.713 34.6866 689.362 34.2775 689.146 33.7942C689.018 33.4683 688.969 33.1166 689.003 32.7678C689.003 30.2497 692.796 28.4854 694.558 27.7476C699.954 25.2455 706.81 24.5398 714.413 24.5398C720.095 24.5398 726.094 24.9727 732.363 25.5662C733.093 19.0757 733.971 12.8794 734.998 6.977C735.283 5.05231 737.617 4.17017 740.108 4.17017H740.696C743.029 4.31452 745.076 5.50141 745.076 7.37797V7.95535C744.044 14.1625 743.171 20.2092 742.441 26.5446C751.354 27.7244 760.324 28.415 769.311 28.6136C780.104 28.6136 789.754 27.0097 796.467 21.9735C796.796 21.808 797.077 21.558 797.28 21.2482C797.484 20.9385 797.603 20.5802 797.626 20.2092C797.626 19.6158 797.197 18.8779 797.197 18.1401C797.298 17.4739 797.603 16.8567 798.07 16.3758C798.316 16.1206 798.613 15.9224 798.942 15.795C799.271 15.6676 799.623 15.6141 799.975 15.638C800.611 15.5887 801.24 15.7926 801.73 16.2061C802.219 16.6196 802.529 17.2101 802.593 17.8514C802.523 18.5422 802.271 19.2013 801.863 19.7601C800.857 20.9989 799.736 22.1375 798.514 23.1603C791.357 29.0627 781.056 30.6826 769.454 30.6826C760.374 30.5403 751.309 29.8978 742.299 28.758C741.124 41.0118 740.537 53.6987 740.537 64.91V71.3256C741.124 86.5306 742.886 97.4371 746.092 98.3353C753.393 96.2662 760.55 67.6366 764.201 58.9274C764.312 58.7413 764.459 58.58 764.634 58.4531C764.808 58.3263 765.007 58.2366 765.217 58.1896L765.804 58.35C765.979 58.4575 766.125 58.608 766.227 58.7874C766.33 58.9667 766.386 59.1693 766.391 59.3765L766.248 59.8256C761.566 70.7322 755.297 98.4796 746.377 100.549C745.345 100.842 744.276 100.988 743.203 100.982C741.751 101.039 740.315 100.66 739.077 99.8911V99.8911Z" fill="#B78F54"/>
<path d="M769.597 86.4504C764.629 84.6861 763.471 74.8061 763.471 66.5299C763.412 62.6831 763.656 58.8376 764.201 55.0299C764.344 52.6721 766.677 51.6296 768.962 51.6296H769.407C771.597 51.6296 773.787 52.8165 773.787 54.5808V54.7412C773.787 57.532 772.613 66.979 772.613 74.5013C772.613 80.115 773.2 84.6861 775.533 84.6861C780.945 84.5418 785.468 67.2677 788.23 59.0237C788.323 58.8235 788.465 58.6506 788.643 58.5215C788.821 58.3924 789.028 58.3113 789.246 58.2859L789.833 58.4462C789.972 58.5455 790.086 58.6779 790.163 58.8316C790.241 58.9854 790.28 59.1559 790.277 59.3284V59.7614C787.103 69.0641 782.675 86.4665 775.517 86.7712L773.327 86.9155C772.069 86.922 770.815 86.7657 769.597 86.4504V86.4504ZM763.899 44.5564C763.941 44.3333 764.045 44.1271 764.201 43.963L772.374 34.3396C772.595 34.0793 772.909 33.9179 773.247 33.8904C773.965 33.9867 774.634 34.3102 775.159 34.8145C775.683 35.3187 776.037 35.9777 776.168 36.6973C776.159 36.8675 776.115 37.0341 776.038 37.1861C775.962 37.338 775.854 37.472 775.723 37.5795C772.819 40.5307 768.867 43.6423 766.2 46L765.47 46.1443C765.055 46.1401 764.658 45.9715 764.364 45.6746C764.07 45.3777 763.903 44.9763 763.899 44.5564Z" fill="#B78F54"/>
<path d="M815.306 97.5173C812.227 95.4644 811.354 89.4016 811.354 81.8793C811.354 67.1234 815.005 46.9141 815.005 40.7231C815.005 39.6805 815.005 39.1192 814.719 38.9428C805.371 40.8675 798.514 75.8325 796.61 85.1352C796.023 87.926 795.594 90.1393 792.229 90.1393C791.275 90.2209 790.325 89.936 789.569 89.3415C788.813 88.747 788.307 87.8865 788.151 86.9315C787.849 84.1247 787.563 77.4845 787.563 70.8925C787.492 65.5736 787.735 60.2552 788.293 54.9657C788.494 53.8936 789.084 52.9359 789.947 52.2802C790.81 51.6245 791.885 51.3181 792.96 51.4211C795.293 51.4211 797.483 52.7523 797.483 55.2544L796.61 74.7258C799.673 61.1568 806.244 36.6653 815.655 36.6653C816.944 36.6955 818.193 37.1213 819.236 37.8863C820.28 38.6513 821.068 39.719 821.496 40.9476C822.281 43.8781 822.624 46.9116 822.512 49.9455C822.512 61.4615 819.75 78.2704 819.75 88.3109C819.75 93.0263 820.322 96.3304 822.369 96.3304C828.067 95.4322 834.05 65.7761 845.589 56.7782C851.937 51.9665 862.523 50.3626 874.157 50.3626C892.409 50.3626 913.295 54.3563 924.818 56.5696C940.594 59.5208 955.783 62.3277 968.622 62.3277C980.452 62.3277 989.504 58.6387 995.778 51.2607C996.016 50.9387 996.325 50.677 996.681 50.4961C997.036 50.3152 997.428 50.22 997.826 50.2182C998.104 50.2074 998.382 50.2526 998.643 50.351C998.904 50.4494 999.144 50.5992 999.347 50.7915C999.551 50.9839 999.715 51.2151 999.83 51.4718C999.944 51.7285 1000.01 52.0057 1000.02 52.2873C999.974 53.1722 999.612 54.0109 999 54.6449C992.128 62.6645 980.891 64.3807 968.48 64.5411C955.481 64.5411 940.15 61.7342 924.532 58.783C913.279 56.5055 892.187 52.3674 873.998 52.3674C863.047 52.3674 853.112 53.843 847.128 58.2698C835.447 67.1233 830.051 96.3465 823.623 98.1108C822.589 98.389 821.516 98.4919 820.448 98.4155C818.69 98.4928 816.937 98.1864 815.306 97.5173V97.5173Z" fill="#B78F54"/>
<path d="M168.108 69.1924C167.273 67.7389 166.938 66.0468 167.156 64.3807C166.886 65.5034 166.632 66.6902 166.378 67.9573C161.855 86.0333 154.729 116.074 139.397 118.817C127.462 118.224 121.352 90.1554 121.352 68.5348C121.356 60.3394 122.03 52.1584 123.367 44.0753C134.842 42.5676 145.158 39.4079 153.523 33.265C153.523 33.265 154.792 32.0139 155.237 31.4846C157.79 27.7803 159.128 23.3596 159.062 18.8458C159.062 9.14221 154.697 1.79633 146.269 1.79633C128.51 2.22938 119.288 19.1506 114.257 38.2531C113.908 39.7127 113.591 41.2203 113.273 42.744C85.8 44.2196 53.6925 38.7182 29.6793 41.7657C17.4108 43.3696 6.50723 46.4972 0.857065 55.2064C0.353453 55.9271 0.0970471 56.7946 0.126987 57.6764C0.152862 57.9555 0.232937 58.2267 0.362632 58.4746C0.492328 58.7224 0.6691 58.942 0.882839 59.1208C1.09658 59.2995 1.34309 59.434 1.60828 59.5164C1.87346 59.5988 2.15212 59.6276 2.42832 59.6011C2.81985 59.5558 3.19518 59.4174 3.5235 59.1971C3.85182 58.9769 4.12376 58.681 4.317 58.3339C10.1259 49.5926 18.4107 45.4225 30.6791 43.8988C53.7401 40.9636 85.5778 46.3528 112.845 45.0215C111.386 52.9568 110.643 61.0092 110.623 69.0801C110.623 82.1679 112.654 95.5445 117.749 106.275C121.685 114.294 127.637 121.271 136.366 121.271C137.43 121.248 138.491 121.146 139.54 120.966C155.84 118.176 163.474 89.0968 167.362 73.1059L168.108 69.1924ZM146.238 3.9456C153.935 4.10599 156.856 11.1631 156.856 18.6534C156.848 21.4611 156.354 24.2458 155.395 26.8814C154.533 29.1225 153.078 31.0811 151.19 32.5432C143.508 37.9003 134.144 40.29 123.621 41.7336C123.748 41.092 123.859 40.4504 123.97 39.8249C127.383 23.0641 134.223 3.9456 146.238 3.9456Z" fill="#B78F54"/>
</svg>
