<svg width="316" height="201" viewBox="0 0 316 201" fill="none" xmlns="http://www.w3.org/2000/svg">
<g clip-path="url(#clip0_44_563)">
<path d="M74.9702 28.5492C74.0004 33.7942 73.5057 39.1166 73.4923 44.4511C73.4923 53.1018 74.8435 61.9432 78.232 69.0355C80.85 74.3361 84.8085 78.9476 90.6144 78.9476C91.3222 78.9326 92.0278 78.8652 92.7257 78.7462C103.577 76.8274 108.655 57.6815 111.294 47.1438C111.927 51.872 114.155 55.9747 118.303 56.9394C119.156 57.1288 120.027 57.2248 120.9 57.2256C124.067 57.0348 126.759 54.0452 128.965 50.3772C129.859 48.9118 130.669 47.397 131.393 45.8399C131.319 46.794 131.277 47.8117 131.277 48.8295C131.277 55.1902 132.808 62.7277 138.476 63.9786C138.954 64.058 139.438 64.0899 139.923 64.074C140.435 64.0898 140.947 64.0579 141.453 63.9786C147.66 63.1517 152.284 49.9002 154.807 42.7761V42.9881C154.807 48.3948 155.577 54.8615 158.839 56.0171C159.658 56.2173 160.498 56.3135 161.341 56.3033L162.777 56.2079C166.461 56.0595 169.026 49.0627 170.979 43.1047C171.19 51.8932 172.351 59.7169 174.695 63.544C175.214 64.2756 175.909 64.8627 176.716 65.2503C177.523 65.6379 178.415 65.8131 179.308 65.7596C179.854 65.749 180.399 65.6852 180.933 65.5688C185.979 64.3179 191.49 50.303 195.258 42.1082C195.258 42.4051 195.258 42.6913 195.258 42.9881C195.258 48.3948 196.029 54.8615 199.291 56.0171C200.109 56.2173 200.95 56.3135 201.792 56.3033L203.228 56.2079C206.184 56.0913 208.411 51.5751 210.185 46.7304C210.417 50.7376 211.747 54.957 215.716 54.957L216.487 54.8616C219.178 54.4693 221.575 47.3347 223.401 41.451C223.306 43.1896 223.116 45.8823 223.116 48.7764C223.116 54.2785 223.697 60.353 225.998 61.8054C226.645 62.2564 227.416 62.4935 228.204 62.4838C228.794 62.4843 229.379 62.3839 229.935 62.187C234.358 60.8407 240.122 43.762 242.603 38.6522C242.667 38.5312 242.703 38.3971 242.708 38.26C242.698 38.0844 242.623 37.9189 242.498 37.7955C242.374 37.6721 242.208 37.5996 242.033 37.5921C241.896 37.5854 241.76 37.6177 241.64 37.6852C241.521 37.7527 241.423 37.8527 241.357 37.9737C239.056 42.6065 233.092 59.6851 229.545 60.8406C229.355 60.8406 229.059 60.0668 228.964 59.0066C228.756 57.4395 228.661 55.8593 228.679 54.2785C228.679 45.9777 230.315 33.2455 230.505 31.4115L230.6 31.0299C230.6 29.3867 229.154 28.6128 227.718 28.6128C227.104 28.5587 226.488 28.6967 225.955 29.008C225.423 29.3193 224.998 29.7885 224.742 30.3514L224.351 32.1855C223.457 30.7494 222.047 29.7132 220.414 29.2913L219.168 29.1959C213.89 29.1959 211.135 36.6168 210.385 41.7796C208.569 47.4513 206.078 54.7768 203.218 54.8616C201.687 54.8616 201.296 51.872 201.296 48.204C201.296 43.285 202.067 37.1044 202.067 35.2704V35.175C202.067 34.0195 200.631 33.2456 199.185 33.2456H198.9C197.359 33.2456 195.828 33.924 195.733 35.4718C195.554 36.5237 195.441 37.586 195.395 38.6522C191.69 45.702 185.399 63.2365 180.458 64.2754C177.957 63.4061 177.576 46.5184 177.576 39.4791V36.7758C183.91 32.3338 189.674 21.6266 191.12 13.2304C191.379 11.9285 191.507 10.6037 191.5 9.27614C191.5 5.13104 190.064 2.14148 186.412 1.65382L184.871 1.55838C182.938 1.47222 181.017 1.90785 179.308 2.81994C174.103 6.63639 171.148 23.3546 170.958 38.6734C169.121 44.2603 166.218 54.8192 162.777 54.9146C161.246 54.9146 160.855 51.925 160.855 48.2569C160.855 43.338 161.626 37.1574 161.626 35.3234V35.228C161.626 34.0725 160.19 33.2986 158.744 33.2986H158.459C156.918 33.2986 155.387 33.977 155.292 35.5248C155.115 36.5343 155.002 37.5541 154.955 38.578C152.843 43.1365 147.565 62.5368 140.778 62.6323C138.381 62.5368 137.801 58.2858 137.801 53.8544C137.836 50.755 138.062 47.6606 138.476 44.5889C138.867 42.2779 141.358 29.5351 143.659 29.5351H143.765C144.276 29.7635 144.715 30.1266 145.037 30.5858C145.358 31.045 145.55 31.5832 145.591 32.143L145.486 32.7261C145.296 33.2986 144.24 33.1077 143.86 34.0724C143.782 34.2896 143.75 34.5206 143.765 34.7509C143.749 34.9757 143.805 35.1996 143.925 35.3902C144.044 35.5809 144.221 35.7283 144.43 35.8111L145.011 36.0019C145.281 35.9988 145.544 35.9143 145.766 35.7594C145.988 35.6044 146.159 35.386 146.256 35.1326C146.635 34.3822 146.865 33.5648 146.932 32.7261V32.2384C146.906 31.0858 146.444 29.9863 145.64 29.1633C144.837 28.3402 143.751 27.8553 142.604 27.8071H142.034C137.4 27.8071 133.99 33.2349 132.333 39.9031C131.06 43.2877 129.517 46.5636 127.72 49.6987C125.513 53.2713 123.296 55.7839 120.415 55.7839H119.94C117.828 55.5825 117.248 52.2112 117.248 48.5432C117.276 45.5024 117.565 42.4698 118.113 39.4791C118.717 39.7609 119.37 39.9228 120.035 39.9561C122.631 39.9561 124.838 37.5497 125.513 35.0372C125.708 34.4459 125.805 33.8261 125.798 33.2031C125.834 32.6766 125.765 32.1482 125.595 31.6488C125.426 31.1493 125.158 30.6888 124.81 30.2941C124.461 29.8994 124.037 29.5784 123.564 29.3498C123.09 29.1212 122.576 28.9896 122.051 28.9626L120.615 28.8673C119.667 28.8783 118.727 29.0393 117.828 29.3443C114.134 30.8073 111.685 36.3517 111.199 42.1188C111.199 41.8856 111.199 41.6418 111.199 41.398C111.03 42.14 110.851 42.9245 110.682 43.762C107.684 55.7096 102.944 75.5658 92.7363 77.3787C84.798 76.9864 80.7339 58.4342 80.7339 44.1437C80.7417 38.727 81.1901 33.3201 82.0745 27.9767C89.7066 26.9802 96.5682 24.8918 102.131 20.8315C102.131 20.8315 102.986 20.0046 103.271 19.6548C104.974 17.2086 105.864 14.2851 105.815 11.301C105.815 4.94019 102.912 0.0317993 97.3071 0.0317993C85.4947 0.318033 79.3616 11.5023 76.0153 24.1285C75.783 25.0932 75.5719 26.0897 75.3713 27.0969C57.0879 28.0722 35.7327 24.4359 19.7612 26.4501C11.6013 27.5103 4.34919 29.5775 0.591178 35.3446C0.253362 35.8151 0.0857475 36.3874 0.116136 36.9666C0.132033 37.1507 0.184064 37.3297 0.269221 37.4935C0.354379 37.6572 0.470992 37.8024 0.612311 37.9207C0.753629 38.039 0.916831 38.128 1.09257 38.1826C1.26831 38.2372 1.4531 38.2562 1.63623 38.2387C1.89715 38.2105 2.14746 38.1197 2.36609 37.974C2.58472 37.8282 2.76526 37.6318 2.89242 37.4013C6.75599 31.6236 12.2663 28.9202 20.4263 27.8601C35.6589 25.8671 56.8347 29.4291 74.9702 28.5492ZM220.266 30.7649C221.085 31.0568 221.836 31.5151 222.472 32.1112C223.155 32.8149 223.652 33.6785 223.918 34.6237C222.863 37.8041 218.83 53.5258 216.233 53.5258L215.948 53.4304C215.703 52.6862 215.603 51.9016 215.653 51.1193C215.653 45.331 218.25 31.9204 220.266 30.7649ZM178.854 20.9163C180.099 11.6614 182.506 3.07436 185.969 3.07436H186.159C188.945 3.36059 190.096 5.77766 190.096 9.14886C190.06 10.3798 189.93 11.6062 189.706 12.8169C188.365 20.4392 183.372 30.3726 177.608 34.91C177.761 30.2256 178.177 25.5536 178.854 20.9163ZM121.85 30.3726C122.551 30.4372 123.198 30.778 123.649 31.3205C124.1 31.8629 124.319 32.5627 124.257 33.2667C124.284 33.7906 124.216 34.3149 124.057 34.8145C123.392 36.6486 121.755 38.4826 119.929 38.4826C119.347 38.491 118.776 38.3209 118.293 37.9949C119.306 33.7544 120.657 30.468 121.903 30.3726H121.85ZM82.4334 25.1674C84.6607 14.0891 89.2105 1.4524 97.2121 1.4524C102.342 1.55841 104.274 6.22295 104.274 11.1737C104.269 13.0296 103.94 14.8702 103.303 16.6122C102.73 18.0906 101.766 19.3843 100.516 20.3544C95.3964 23.8952 89.1788 25.4749 82.18 26.429L82.4334 25.1674ZM158.829 29.5033C159.487 29.4925 160.116 29.2257 160.582 28.7591C161.049 28.2926 161.317 27.6625 161.331 27.0014C161.333 26.3282 161.093 25.6768 160.655 25.1674C160.139 24.7421 159.496 24.5031 158.829 24.4889C158.194 24.5058 157.585 24.7459 157.108 25.1674C156.866 25.4072 156.673 25.6926 156.541 26.0074C156.409 26.3221 156.339 26.6598 156.337 27.0014C156.348 27.6707 156.622 28.3085 157.098 28.7769C157.574 29.2452 158.215 29.5062 158.881 29.5033H158.829ZM199.27 29.5033C199.928 29.4925 200.556 29.2257 201.023 28.7591C201.489 28.2926 201.758 27.6625 201.771 27.0014C201.774 26.3282 201.534 25.6768 201.096 25.1674C200.58 24.7421 199.937 24.5031 199.27 24.4889C198.635 24.5058 198.026 24.7459 197.549 25.1674C197.067 25.6552 196.798 26.3146 196.799 27.0014C196.81 27.667 197.081 28.3018 197.552 28.7695C198.024 29.2372 198.659 29.5006 199.322 29.5033H199.27ZM176.225 98.3268C177.472 96.8036 178.151 94.8918 178.147 92.9201C178.147 89.0612 175.645 85.4992 171.897 85.4992C170.557 85.4992 168.055 85.8914 168.055 87.6194C168.076 87.9363 168.217 88.2331 168.448 88.4497C168.68 88.6662 168.984 88.7864 169.3 88.7856C170.557 88.6796 170.557 87.047 171.032 87.047L171.897 86.9516C174.874 86.9516 176.7 89.9412 176.7 93.0261C176.7 98.5282 170.842 101.327 165.363 102.769C160.465 104.221 154.321 105.949 154.321 111.737C154.306 112.816 154.467 113.891 154.796 114.918C154.906 115.146 155.068 115.344 155.27 115.496C155.473 115.647 155.708 115.747 155.957 115.787C156.296 115.758 156.612 115.602 156.843 115.351C157.073 115.1 157.202 114.772 157.203 114.43C157.013 113.465 155.852 113.37 155.757 112.797V111.928C155.757 108.069 159.029 106.331 162.576 105.08C163.167 104.892 163.782 104.792 164.402 104.783C169.596 104.783 171.327 112.024 171.327 116.656C171.327 125.72 165.078 131.413 155.567 131.413L154.131 131.318C146.341 130.83 143.659 122.243 143.659 115.299L143.754 112.893C144.525 105.748 146.921 96.991 155.366 96.991H155.746C155.937 96.9999 156.124 96.9342 156.268 96.8077C156.411 96.6812 156.501 96.5037 156.517 96.3125C156.525 96.1517 156.484 95.9922 156.399 95.8556C156.314 95.7191 156.189 95.6121 156.042 95.5492C151.133 93.4289 149.022 89.5595 149.022 84.5451C149.212 78.3752 151.809 73.0639 157.002 73.0639C160.169 73.0639 164.012 75.9581 164.202 79.6261C164.202 80.4 162.861 80.1138 162.671 81.9372C162.671 82.1186 162.71 82.298 162.784 82.4632C162.859 82.6285 162.968 82.7758 163.104 82.8953C163.24 83.0148 163.4 83.1037 163.573 83.156C163.746 83.2084 163.928 83.2229 164.107 83.1987C165.162 83.1987 165.447 82.6157 165.542 81.7464L165.648 80.5908C165.648 75.1842 161.51 71.6221 155.841 71.5267C148.737 71.5267 143.839 76.1489 143.744 83.485C143.744 89.3687 146.721 93.323 152.294 95.7401C142.393 97.0864 137.885 104.613 137.59 115.13C137.59 125.159 144.314 132.685 155.366 132.781H155.63C168.213 132.781 172.826 124.3 172.826 116.476C172.826 110.783 170.43 105.387 166.873 103.839C170.409 102.758 173.871 101.412 176.278 98.3268H176.225ZM210.512 149.213L205.244 155.468C205.138 155.569 205.067 155.703 205.044 155.849C205.044 156.13 205.155 156.4 205.353 156.599C205.551 156.798 205.819 156.909 206.099 156.909L206.585 156.803C208.316 155.266 210.902 153.241 212.824 151.312C212.91 151.24 212.981 151.152 213.032 151.051C213.083 150.951 213.113 150.841 213.119 150.729C213.034 150.258 212.802 149.827 212.456 149.497C212.111 149.168 211.67 148.957 211.198 148.895C211.069 148.888 210.94 148.912 210.823 148.965C210.705 149.019 210.602 149.1 210.522 149.202L210.512 149.213ZM314.501 158.372C314.24 158.371 313.982 158.431 313.749 158.549C313.516 158.667 313.314 158.839 313.16 159.051C309.022 163.878 303.065 166.288 295.289 166.281C286.844 166.281 263.398 164.765 258.638 169.08C251.048 174.963 247.11 189.052 243.363 189.635C242.022 189.635 241.631 187.515 241.631 184.42C241.631 177.857 243.458 166.864 243.458 159.337C243.53 157.353 243.305 155.37 242.793 153.453C242.505 152.654 241.985 151.959 241.3 151.46C240.615 150.961 239.796 150.681 238.95 150.655C232.796 150.655 228.478 166.673 226.462 175.546L227.032 162.825C227.032 161.182 225.597 160.312 224.055 160.312C223.348 160.247 222.641 160.449 222.073 160.878C221.505 161.307 221.117 161.933 220.984 162.634C220.857 163.429 220.751 164.754 220.667 166.291C218.82 171.953 215.98 182.024 212.623 182.119C211.092 182.119 210.702 179.13 210.702 175.462C210.702 170.543 211.472 164.362 211.472 162.528V162.433C211.472 161.277 210.037 160.503 208.591 160.503H208.411C206.87 160.503 205.339 161.182 205.244 162.729C205.05 163.89 204.926 165.062 204.875 166.238C202.384 172.779 197.897 189.805 193.326 191.088C191.215 190.515 190.064 183.37 189.674 173.437V169.196C189.674 161.871 190.064 153.57 190.835 145.566C196.745 146.293 202.69 146.703 208.643 146.796C216.233 146.796 223.053 145.736 227.761 141.877C228.568 141.214 229.307 140.472 229.967 139.661C230.24 139.293 230.407 138.856 230.452 138.4C230.389 138.086 230.244 137.795 230.032 137.557C229.82 137.319 229.548 137.141 229.245 137.043C228.942 136.945 228.618 136.929 228.307 136.998C227.997 137.067 227.709 137.218 227.476 137.435C227.168 137.755 226.966 138.162 226.895 138.601C226.895 139.078 227.191 139.566 227.191 139.947C227.173 140.19 227.092 140.425 226.957 140.627C226.822 140.83 226.637 140.994 226.42 141.103C221.997 144.389 215.653 145.449 208.548 145.449C202.638 145.317 196.739 144.864 190.877 144.092C191.352 139.947 191.933 135.993 192.598 131.943V131.551C192.598 130.3 191.257 129.526 189.716 129.431H189.336C187.7 129.431 186.169 130.014 185.969 131.265C185.307 135.124 184.734 139.173 184.248 143.414C180.11 143.032 176.172 142.746 172.425 142.746C167.432 142.746 162.924 143.223 159.367 144.866C158.216 145.354 155.715 146.51 155.715 148.142C155.692 148.373 155.724 148.605 155.81 148.821C155.948 149.139 156.178 149.41 156.469 149.598C156.76 149.787 157.1 149.885 157.446 149.881C157.988 149.856 158.515 149.692 158.976 149.404C159.224 149.152 159.414 148.849 159.531 148.515C159.647 148.182 159.689 147.826 159.652 147.474V147.082C159.652 146.605 159.652 146.319 160.032 146.117C163.304 144.675 167.622 144.092 172.33 144.092C176.077 144.092 180.015 144.485 184.153 144.866C183.501 151.372 183.18 157.908 183.192 164.447V165.422C180.902 170.818 174.103 190.791 170.208 190.865C169.343 190.865 169.058 189.71 169.058 187.971C169.058 184.208 170.504 177.55 171.559 172.822C171.915 171.493 172.169 170.139 172.319 168.772C172.323 168.027 172.126 167.294 171.749 166.652C170.018 163.365 164.835 164.532 161.468 163.27C163.157 160.961 164.278 158.284 164.74 155.457L164.835 154.015C164.835 152.181 164.16 150.92 162.914 150.347C162.536 150.234 162.146 150.166 161.753 150.146C159.641 150.146 156.95 152.086 156.19 156.803C156.002 157.757 155.904 158.726 155.894 159.697C155.816 160.813 155.973 161.932 156.355 162.983C156.737 164.033 157.335 164.991 158.111 165.793C155.641 171.094 150.004 186.996 146.583 188.056C146.383 188.056 146.098 187.282 146.003 186.222C145.795 184.655 145.699 183.075 145.718 181.494C145.718 173.193 147.344 160.461 147.544 158.627L147.639 158.245C147.639 156.602 146.193 155.828 144.757 155.828C144.143 155.774 143.527 155.912 142.994 156.223C142.461 156.534 142.037 157.004 141.78 157.567L141.39 159.401C140.495 157.965 139.086 156.928 137.452 156.506L136.207 156.411C131.741 156.411 129.124 161.616 127.952 166.344C123.729 175.992 117.881 199.208 113.342 199.442C112.001 199.442 111.621 195.774 111.621 190.961C111.621 182.087 113.057 169.058 113.247 166.843C113.828 159.602 114.398 152.001 114.398 145.428C114.398 133.852 112.962 126.706 107.198 126.706L105.858 126.897C95.6709 129.017 83.7529 173.543 81.7367 180.826C82.1273 174.751 82.7923 166.938 82.7923 159.623C82.7923 148.142 81.2617 138.983 75.593 138.983C75.1756 138.97 74.758 139.002 74.3474 139.078C66.6624 140.424 59.3575 169.472 55.8001 190.505C55.7051 187.324 55.7051 183.943 55.7051 180.561C55.7051 166.779 56.4757 151.715 58.587 139.566L58.6819 139.078C58.6819 137.435 56.8557 136.661 55.0295 136.565C52.9183 136.565 50.8071 137.435 50.617 139.269C49.5614 150.464 48.8858 160.588 48.7908 174.486C48.7226 182.541 49.1492 190.592 50.0681 198.593C50.1631 199.654 51.9893 199.94 52.9499 199.94C54.3961 199.94 56.0218 199.558 56.2224 197.915C59.2942 174.592 67.3592 143.403 74.1679 140.615L74.5585 140.52C76.3847 140.52 76.7647 146.403 76.7647 151.799C76.7647 162.507 75.3291 173.702 75.3291 184.504V185.469C75.3291 187.886 75.5191 189.137 78.1054 189.328C79.6466 189.328 81.2722 188.756 81.4728 187.589C81.5678 187.017 95.597 131.254 105.974 128.36C106.839 128.36 107.124 129.706 107.124 133.565C107.124 144.167 104.148 168.55 104.148 184.695C104.148 190.494 104.528 195.212 105.583 197.82C106.639 200.237 109.521 201 112.022 201L113.564 200.905C118.145 200.194 123.128 183.508 127.213 172.196V172.642C127.213 176.978 128.374 182.183 132.786 182.183L133.557 182.087C136.249 181.695 138.645 174.56 140.471 168.677C140.376 170.415 140.186 173.108 140.186 176.002C140.186 181.504 140.767 187.579 143.068 189.031C143.716 189.482 144.487 189.719 145.274 189.71C145.864 189.708 146.449 189.608 147.006 189.413C151.228 188.13 156.644 172.567 159.314 166.684C162.143 168.465 165.827 168.327 166.408 169.546L166.503 169.928C166.503 171.762 164.677 178.896 164.677 184.589C164.677 187.293 165.067 189.71 166.218 191.151C166.586 191.575 167.046 191.909 167.561 192.127C168.077 192.346 168.636 192.444 169.195 192.413L170.345 192.307C174.684 192.063 180.216 177.179 183.298 169.207V170.511C183.678 181.313 185.409 189.9 188.671 192.021C189.471 192.543 190.409 192.812 191.363 192.795C192.077 192.801 192.787 192.704 193.474 192.508C198.256 191.448 201.919 179.161 204.716 170.797C204.78 176.098 205.603 182.13 208.749 183.243C209.568 183.443 210.408 183.539 211.251 183.529L212.686 183.434C216.18 183.296 218.661 177.009 220.572 171.285C220.572 171.857 220.572 172.44 220.572 173.013C220.572 177.359 220.772 181.695 220.962 183.529C221.062 184.159 221.394 184.727 221.894 185.12C222.393 185.514 223.022 185.703 223.654 185.649C225.861 185.649 226.146 184.208 226.536 182.374C227.782 176.299 232.3 153.432 238.444 152.181C238.634 152.277 238.634 152.658 238.634 153.337C238.634 157.386 236.237 170.606 236.237 180.253C236.237 185.172 236.807 189.127 238.824 190.484C239.894 190.908 241.041 191.103 242.191 191.056C242.9 191.107 243.613 191.042 244.302 190.865C248.525 189.71 252.082 175.907 259.767 170.118C263.673 166.397 286.717 167.712 295.268 167.712C303.428 167.617 310.827 166.461 315.324 161.245C315.724 160.831 315.96 160.284 315.989 159.708C315.976 159.339 315.817 158.99 315.548 158.738C315.279 158.485 314.922 158.35 314.554 158.362L314.501 158.372ZM133.335 180.72L133.05 180.624C132.805 179.88 132.705 179.096 132.755 178.313C132.755 172.525 135.352 159.114 137.368 157.959C138.188 158.251 138.939 158.709 139.574 159.305C140.257 160.009 140.754 160.872 141.02 161.818C139.965 165.019 135.932 180.72 133.335 180.72ZM158.67 158.828L158.765 157.28C159.061 153.708 160.782 151.683 162.133 151.683H162.418C163.093 151.874 163.473 152.648 163.473 154.1V154.969C163.188 157.567 161.837 161.044 160.117 162.486C159.614 162.032 159.224 161.468 158.976 160.836C158.729 160.205 158.632 159.525 158.691 158.849L158.67 158.828Z" fill="#B78F54"/>
</g>
<defs>
<clipPath id="clip0_44_563">
<rect width="316" height="201" fill="white"/>
</clipPath>
</defs>
</svg>
