<?xml version="1.0" encoding="utf-8"?>
<!-- Generator: Adobe Illustrator 21.0.0, SVG Export Plug-In . SVG Version: 6.00 Build 0)  -->
<svg version="1.1" id="Capa_1" xmlns="http://www.w3.org/2000/svg" xmlns:xlink="http://www.w3.org/1999/xlink" x="0px" y="0px"
	 viewBox="0 0 512 512" style="enable-background:new 0 0 512 512;" xml:space="preserve">
<style type="text/css">
	.st0{fill:#FFFFFF;}
</style>
<path class="st0" d="M65.4,268.4c5,1.2,9.8,2.7,14.7,3.3c7.8,0.9,13.6,3.4,13.2,12.6c0,0.3,0.1,0.6,0.2,0.9c1.3,4.1,4.6,6.3,8.4,5.4
	c3.5-0.9,5.7-4.2,5.1-8.2c-0.6-3.8-1.6-7.6-2.1-11.4c-0.7-5.7-3.9-8.8-9.3-10c-9.8-2.2-19.6-4.5-29.4-6.7
	c-12.4-2.8-13.2-2.3-14.6,10c0,0.3-0.1,0.6-0.1,0.9c-0.9,4.6-4.9,7.8-9.2,7.6c-4.5-0.3-8-3.8-8.1-8.6c-0.1-9-0.1-18,0.2-27
	c0.2-5.3,3.7-8.8,8.3-9c5-0.2,8.2,2.8,9.2,8.5c0.9,5.6,3.9,8,9.4,6.8c11.9-2.6,23.8-5.5,35.7-8.3c4.6-1.1,7.2-4.1,7.8-8.7
	c2.8-19.7,9-38.2,18.8-55.5c2.7-4.8,2.3-9.1-1.3-13.2c-5.1-5.8-10.1-11.8-15.1-17.7c-5-5.9-8.5-5.9-13.6-0.1c-3,3.4-6.8,4.1-9.8,1.9
	c-3.2-2.3-3.6-6.5-0.9-10.3c3.5-4.9,7.2-9.7,10.9-14.5c2.5-3.3,5.8-4.3,9.4-2.1c3.4,2.1,4,5.2,2.5,8.9c-2.4,6-1.2,8.8,4.7,11.4
	c7.1,3.1,14.2,6.2,21.3,9.2c5.8,2.4,9.1,1.8,13.4-2.7c10.8-11.5,22.9-21.3,36.6-29.2c5-2.9,6.6-7,5.7-12.5
	c-1.6-10.1-3.1-20.2-4.6-30.3c-1.7-11.6-3.8-12.9-14.8-9.2c-0.4,0.2-0.9,0.4-1.3,0.5c-4.2,1-7.6-0.7-9.1-4.4
	c-1.4-3.5-0.1-7.7,3.8-9.3c9.4-3.9,19-7.6,28.6-11.1c4-1.4,7.7,0.6,9.1,4.3c1.5,4-0.1,6.9-3.3,9.2c-0.6,0.5-1.4,0.7-2.1,1.1
	c-4.6,2.6-5.7,6.5-2.8,10.9c7,10.3,14,20.4,21.2,30.6c2.6,3.6,6.2,4.6,10.6,4c11.9-1.6,23.9-3.1,35.9-4.3c5.8-0.6,8.7-2.3,10.8-7.9
	c2-5.5,4-11.1,5.9-16.6c2.2-6.2,1.2-8.6-4.6-11.5c-5.4-2.7-7.9-7.6-6.7-12.9c1.2-5.2,6.4-9,12.2-8.7c3.4,0.2,6.8,0.6,10.2,1.2
	c6,1,9.9,4.9,10.6,10.2c0.7,5.1-2.2,9.5-8.2,12c-3.8,1.5-5.8,4.1-5.3,8.2c0.8,7.1,1.7,14.2,2.5,21.2c0.6,4.6,3.4,7.3,7.7,8.3
	c15.5,3.5,30.2,9.2,44,17.1c3.7,2.1,7.6,2.2,10.9-0.5c10.1-8,20.1-16.1,29.9-24.3c3.8-3.2,3.4-7.5-0.3-10.9c-1-0.9-2.2-1.7-3.3-2.6
	c-4.2-3.5-5-7.8-2.2-11.3c2.7-3.4,7.4-3.6,11.6-0.3c7.2,5.6,14.4,11.3,21.5,17.1c3.7,3,4.5,7.3,2.1,10.7c-2.3,3.3-6.6,3.9-10.8,1.5
	c-6.2-3.6-9.5-2.6-12.5,3.9c-4.6,10-9,20-13.9,29.9c-4.1,8.5-1.1,12.5,5.2,17.4c1.7,1.3,6.1,1.1,7.9-0.2c1.8-1.4,3.2-6.3,2.2-7.5
	c-3.6-4.3-0.8-7.5,0.7-10.9c2-4.7,4.4-9.2,6.3-14c1.2-2.8,2.5-3.9,5.9-3.4c9.5,1.5,18.1-3.3,22.2-11.7c4-8.3,2.5-18.6-4.6-24.7
	c-8.4-7.3-17.1-14.4-26.2-20.8c-13.1-9.1-30.5-1-33,14.7c-1.1,6.7,1.3,12.4,5.5,18c-6,4.9-12,9.5-17.7,14.5
	c-2.2,1.9-3.7,1.6-6.1,0.6c-10.2-4.4-20.4-8.8-30.9-12.6c-9.3-3.3-9.5-2.9-9.9-12.6c-0.1-1.6,0.9-3.8,2.2-4.9
	c8.6-7.1,12.4-16,9.5-26.8c-2.8-10.5-10.1-16.8-20.9-18.7c-2.9-0.5-5.8-0.8-8.7-1.2c-12.2-1.8-23.3,3.7-28.3,14.1
	c-4.9,10.1-2.5,21.2,6.3,30.1c1,1,1.3,3.1,1.2,4.7c-0.2,1.9-1,3.9-2.1,5.6c-0.7,1.2-2.2,2.6-3.5,2.7c-9.8,1.4-19.6,2.5-29.5,3.6
	c-1.3,0.1-3.2-0.4-3.9-1.3c-4.9-6.7-9.6-13.6-14.3-20.5c1.2-1.6,2.4-2.9,3.3-4.3c5.2-7.4,5.1-17.1,0-24.4c-5.1-7.2-14.6-11.1-23-8.3
	c-10.8,3.7-21.6,7.7-32,12.4c-9.1,4.1-13.5,14.4-11.2,23.7c2.5,10.2,10.8,16.7,21.3,16.6c1.5,0,3,0,4.6,0c1.2,8.1,2.4,15.7,3.3,23.4
	c0.1,1.2-0.6,3-1.5,3.7c-12,9.2-24.1,18.3-36.8,27.9c-2.5-1.1-6.3-2.9-10.2-4.3c-2.9-1-3.8-2.6-3.8-5.8c0-8.8-5.6-16.3-13.7-19.2
	c-7.7-2.8-16.8-0.9-22.1,5.4c-5.1,6-9.9,12.3-14.3,18.9c-4.5,6.9-4.6,14.4-0.4,21.6c4.2,7.1,10.7,10.8,19.1,10
	c3.8-0.4,7.6-1.9,11.6-3c2.6,3,5.2,6.2,8,9.3c1.7,1.8,1.7,3.2,0.5,5.3c-8.6,15.9-14.2,32.9-17.4,50.7c-0.2,1.3-1.3,3.1-2.4,3.4
	c-8.3,2.2-16.8,4-25,5.9c-5.4-10.2-13.3-15.5-24.5-13.9c-10.7,1.5-16.8,8.5-19.2,18.8c-0.1,0.3-0.4,0.5-0.6,0.7v34.4
	c0.3,0.7,0.7,1.4,0.9,2.1c3.4,9.9,11.6,16.1,21.5,16.3c9.5,0.1,18.1-5.9,21.8-15.3C64.5,270.4,64.9,269.5,65.4,268.4z M483.7,250.9
	c-8.9-4.1-19.5-1.6-25.6,6c-1.5,1.9-2.7,4.1-4.1,6.3c-7-3-13.7-6.1-20.6-8.9c-2.5-1-3.2-2.4-3.4-5.1c-1-12.2-2.1-24.4-3.6-36.5
	c-1-7.7-1.3-7.5,4.9-12c2.8-2,4.8-2.6,8.1-0.5c8.5,5.5,19.2,4.7,27-1.2c8-6,11.7-16.5,8.9-26.1c-1.9-6.4-4.2-12.6-7-18.7
	c-4.2-9.2-13.6-14.5-23.3-13.9c-10.2,0.6-18.8,7.2-21.8,16.8c-0.7,2.3-1.1,4.8-1.6,6.9c-8.5,4-14,1.9-17.6-6.5
	c-1.7-4.1-6-4.8-9.5-2.9c-3.6,2.1-4.5,6-2.3,10.1c1.9,3.5,4.1,7,6,10.5c2.4,4.3,6.1,6,10.9,5.4c6.8-0.9,13.5-1.8,20.2-2.8
	c6.1-0.9,8.2-4.1,7-10.1c-1.2-5.9,1.4-11.1,6.4-12.8c5.3-1.8,10.9,0.7,13.3,6.4c1.8,4.1,3.2,8.4,4.8,12.6c2.4,6.6,0.8,11.9-4.1,14.7
	c-4.9,2.7-9.5,1.5-14.1-3.9c-2.9-3.4-6.2-4.1-9.9-1.7c-6.4,4.1-12.7,8.4-18.8,12.8c-3.3,2.4-4.6,5.8-3.6,9.8
	c4.2,16.3,6.2,32.8,5.6,49.7c-0.2,4.1,1.9,7.3,5.5,8.9c11.6,5.2,23.2,10.3,34.9,15.2c4.7,2,8.6-0.3,9.9-5.2c0.4-1.5,0.6-3,1-4.5
	c1.2-4.9,4.8-7.6,9-6.6c4.3,1,6.6,4.8,5.7,9.6c-1.7,9-3.5,17.9-5.3,26.9c-1,5.1-4.4,8-8.5,7.4c-4.2-0.6-6.5-4-6.4-9.3
	c0.2-6.8-2.1-9.3-9.1-9c-11.6,0.5-23.2,1.1-34.8,1.6c-5.2,0.2-8.1,2.8-10.1,7.5c-4.1,9.6-8.5,19.2-13,28.7
	c-2.6,5.4-2.5,8.5,1.4,13.2c4.5,5.4,9,10.7,13.5,16c5.4,6.4,6.8,6.6,13.9,2.2c4.2-2.6,9.4-2.1,12.9,1.1c3.4,3.3,4.3,8.6,1.8,12.8
	c-1.3,2.1-2.9,4-4.4,6c-4.1,5.3-8.8,7-13.6,5c-5-2-6.9-6.1-5.9-13.1c0.6-4-0.6-7-4.5-8.7c-7.8-3.4-15.6-6.9-23.4-10.2
	c-4.1-1.8-8-1.1-11.1,2.2c-11,11.8-23.3,21.8-37.1,30c-3.5,2.1-5.3,5.4-4.7,9.5c2,12.7,4.1,25.4,6.3,38c0.8,4.5,4.7,6.6,9.1,5.3
	c1.5-0.4,2.9-1.1,4.4-1.6c5.1-1.9,9.1-0.6,10.9,3.6c1.7,4.1-0.2,8.1-5.3,10.2c-8.4,3.5-16.9,6.9-25.4,10.2c-5,1.9-8.8,0.5-10.5-3.7
	c-1.6-3.8-0.1-7.4,4.4-9.9c5.8-3.3,6.7-6.9,2.8-12.5c-6.3-9-12.8-17.9-19.2-26.9c-4.5-6.3-7-6.8-14.6-5.6c-11.6,1.8-23.3,3.8-35,4.2
	c-10.1,0.3-20.4-1.3-30.5-2.5c-5.4-0.6-10.1-0.5-13.4,4.7c-6.9,11-14,21.9-20.9,32.9c-3.1,5-2,8.8,3.5,11.3c4,1.9,6.8,4.5,7,9
	c0.1,2.3-0.5,4.6-0.8,6.9c-1,6.6-3,7.9-9.4,5.6c-8.2-2.9-16.3-5.9-24.4-8.9c-6.7-2.5-9.8-7.9-7.9-13.7c1.8-5.5,7.4-8.2,14-6.7
	c6.2,1.4,9.4-0.4,10.2-6.6c1.6-12.9,2.9-25.9,4.3-38.8c0.5-4.9-1.5-8.4-5.8-10.7c-15.9-8.4-30-19.1-42.3-32.3
	c-3.5-3.7-7.6-4.5-12.3-2.6c-10.3,4.2-20.6,8.4-30.9,12.6c-5.1,2.1-6.4,5.2-4.6,10.4c1.7,5,0.4,9.1-3.4,11.3c-4,2.2-8.5,1-11.7-3.4
	c-2.7-3.6-5.2-7.3-7.7-11.1c-3.1-4.7-2.7-9.1,0.8-12.2c3.6-3.1,8.1-2.7,12.4,1.2c4.1,3.7,7.6,3.8,11.3-0.3
	c7.6-8.4,15.1-16.9,22.5-25.4c2.9-3.4,3.5-7.2,1.5-11.2c-2.2-4.6-4.5-9.2-6.8-13.8c-2.2-4.2-5.8-5.7-9.5-4c-3.7,1.7-4.9,5.5-3.1,9.9
	c1.3,3.1,3.1,6.1,4.2,9.3c0.5,1.3,0.4,3.4-0.4,4.4c-4.7,5.7-9.7,11.2-14.8,16.9c-0.8-0.4-1.3-0.6-1.8-0.9
	c-10.2-4.3-20.5-2.2-27.1,5.5c-6.9,8.1-7.2,18.9-0.8,28.4c2.4,3.6,4.9,7.2,7.4,10.7c6.4,9,16.2,12.8,25.9,9.9
	c9.5-2.8,15.3-11,16-22.1c0.1-1.3,1.2-3.1,2.4-3.6c6.2-2.8,12.5-5.4,18.9-7.8c1.3-0.5,3.8-0.1,4.7,0.9
	c11.5,11.4,24.2,21.2,38.4,29.1c0.9,0.5,2.2,1.8,2.2,2.5c-0.9,9.5-2.1,19-3.1,28.6c-1.5,0.2-2.6,0.3-3.7,0.4
	c-10.9,1.2-19.8,9.5-21.6,20c-1.8,10.7,3.6,22,13.5,26.2c10.5,4.4,21.3,8.4,32.3,11.7c11.5,3.5,21.6-3.9,23.9-15.7
	c2.2-11.2,1.4-21.3-8.2-29.3c5.3-8.3,10.3-16.2,15.5-24.1c0.5-0.8,2.4-1.3,3.4-1.1c22.1,3.6,44.1,3,66.1-1.6
	c1.3-0.3,3.6,0.6,4.4,1.7c4,5.1,7.5,10.6,11.5,15.8c2.1,2.7,2.4,4.5,0,7.5c-5.8,7.3-5.8,17.1-0.6,24.7c5.1,7.4,14.8,11.4,23.3,8.4
	c10.8-3.8,21.5-8,31.9-12.8c8.3-3.8,12.8-13.5,11.4-22c-1.6-9.5-8.5-16.5-18.2-18c-2.7-0.4-5.4-0.1-8.3-0.1
	c-1.3-7.8-2.5-15.2-3.9-22.7c-0.5-2.5,0.5-3.8,2.5-5.3c8.3-6.1,16.7-12.3,24.6-19c8.6-7.4,8.2-7.5,18.9-3.1c3.4,1.4,5.3,3,5.8,7.1
	c1.2,10.2,7.1,17.1,16.9,20c9.8,2.9,18.4,0.2,25.3-7.3c2.7-2.9,5.2-6.2,7.3-9.6c5.4-8.7,5.4-17.7-0.1-26.3
	c-5.4-8.4-13.8-13.1-23.4-10.5c-7.6,2-10.9-1.1-14.5-6.2c-1.1-1.6-2.5-3.1-3.5-4.3c3.9-8.8,7.5-17.3,11.4-25.8
	c0.5-1.1,2.1-2.3,3.3-2.4c8.2-0.6,16.4-0.8,24.5-1.2c0.4,0.8,0.6,1.4,0.9,1.9c3.7,10.7,11.9,16.8,21.7,16.2
	c10.4-0.6,18.2-7.8,20.4-19c1.8-9.3,3.7-18.5,5.4-27.8C497.6,264.7,492.5,254.9,483.7,250.9z M224.6,230.2c3.8-2,5-6,3.3-9.4
	c-1.7-3.3-5.2-4.5-9.1-3.1c-0.9,0.3-1.7,0.8-2.5,1.2c-7.2,3.3-14.7,4.6-22.6,4c-16.9-1.4-28.4-15.8-26.1-32.6
	c3-21.2,22.5-39,43.8-40c15.8-0.7,28.5,7.9,31.6,21.7c2.1,9.5-0.1,18.4-4.7,26.8c-2.7,4.8-1.9,8.7,2,10.8c3.8,2.1,7.7,0.6,10.2-4.2
	c2.1-4.1,4.1-8.4,5.4-12.8c8.6-30-11.8-56.6-42.9-56.4c-25.2,0.2-49.6,18.4-57.2,42.8c-9.5,30.7,10.1,57.6,42.2,57.8
	C207.4,237.1,216.3,234.7,224.6,230.2z M279.5,287.5c0-17.7-14.6-32.1-32.3-32.1c-17.7,0-32,14.5-32,32.3c0,17.8,14.3,32,32.2,32
	C265.2,319.6,279.5,305.2,279.5,287.5z M229.2,287.3c0.1-9.9,8.2-17.9,18.1-18c10,0,18.3,8.2,18.3,18.3c0,10.1-8.2,18.2-18.4,18.1
	C237,305.6,229.1,297.5,229.2,287.3z M352.8,185c4.9-4.7,7.7-10.4,7.7-18.4c0.1-6.2-2.8-12.2-8-17.1c-11.8-11.1-31.8-11.1-43.7-0.2
	c-11,10.1-11,26,0,36.1C320.8,196.6,341.1,196.4,352.8,185z M314.6,167.4c0-6.7,7.1-12.3,15.8-12.4c8.9-0.1,16.2,5.7,16.1,12.5
	c-0.1,6.7-7.4,12.2-16.1,12.1C321.8,179.7,314.6,174.2,314.6,167.4z M169.1,345.7c13.9,0,25.1-11,25.2-24.9
	c0.1-14.1-11.1-25.5-25.2-25.5c-13.8,0-25.2,11.2-25.3,25C143.6,334.3,155,345.7,169.1,345.7z M169,309.3c6.2,0,11.2,5,11.2,11.2
	c0,6.3-4.8,11.2-11.1,11.2c-6.2,0-11.3-5-11.3-11.2C157.8,314.5,162.9,309.3,169,309.3z M370.6,274.2c-0.1-13.8-11.4-24.9-25.4-24.7
	c-13.7,0.1-24.7,11.3-24.7,24.9c0,13.8,11.4,25,25.2,25C359.6,299.3,370.8,288,370.6,274.2z M334.5,274.3c0.1-6,5.1-10.8,11.1-10.8
	c6.1,0,11,4.8,11,10.8c0,6.2-5,11.1-11.3,11C339.3,285.2,334.4,280.2,334.5,274.3z M278.9,387.1c13.4,0,24.6-11.2,24.6-24.5
	c0-13.5-11-24.5-24.6-24.5c-13.6,0-24.5,10.9-24.6,24.4C254.4,376,265.5,387.1,278.9,387.1z M278.8,352c5.8-0.1,10.7,4.7,10.7,10.5
	c0,5.7-4.9,10.6-10.7,10.6c-5.6-0.1-10.3-4.7-10.4-10.3C268.2,357,273,352.1,278.8,352z M325.9,326c-3.5,0.4-5.3,3.2-5.2,6.7
	c0.1,3.4,2,5.9,5.5,6.5c2,0.4,4,0.3,6,0.4c0-0.1,0-0.2,0-0.2c1.9,0,3.7,0.2,5.6,0c3.7-0.5,5.9-2.7,6-6.5c0.2-3.8-1.7-6.5-5.4-6.9
	C334.2,325.4,330,325.4,325.9,326z M281.6,138c3.9-0.4,6.1-2.7,6.3-6.7c0.2-3.8-2.5-6.7-6.5-7.1c-1.5-0.2-3.1,0-4.6,0c0,0,0,0,0,0
	c-1.4,0-2.8-0.1-4.2,0c-4.2,0.3-7.1,3.2-7.1,7c0,3.8,2.9,6.7,7.2,6.9C275.7,138.2,278.7,138.3,281.6,138z M218.6,362.5
	c0-0.1,0-0.2,0-0.3c0.9,0,1.9,0,2.8,0c4.6-0.2,7.7-3,7.7-6.9c0-4-3-6.8-7.6-7c-2.3-0.1-5-0.7-6.8,0.3c-2.3,1.2-5.1,3.6-5.5,5.8
	c-0.3,2.2,1.9,5.1,3.7,7C214.1,362.5,216.7,362.2,218.6,362.5z M153.6,260.5c1.4-0.1,2.6-0.1,3.8-0.2c4-0.5,6.3-2.9,6.4-6.8
	c0.1-3.9-2.1-6.5-6.1-6.9c-2.6-0.3-5.3-0.3-7.9,0c-3.7,0.5-5.9,3-5.9,6.6c0,3.9,2.2,6.3,6.1,7C151.2,260.5,152.5,260.5,153.6,260.5z
	 M310.9,234.1c0.2-2.2-1.5-5.1-3.2-6.8c-1.3-1.2-4-1-6.1-1.5c0,0.1-0.1,0.3-0.1,0.4c-1.1,0-2.2-0.1-3.2,0c-4.1,0.3-6.6,2.3-6.9,6.6
	c-0.2,4,2.3,6.9,6.7,7.2c2.7,0.2,5.8,0.5,8.2-0.5C308.3,238.6,310.8,236,310.9,234.1z"/>
</svg>
