<?xml version="1.0" encoding="utf-8"?>
<!-- Generator: Adobe Illustrator 21.0.0, SVG Export Plug-In . SVG Version: 6.00 Build 0)  -->
<svg version="1.1" id="Capa_1" xmlns="http://www.w3.org/2000/svg" xmlns:xlink="http://www.w3.org/1999/xlink" x="0px" y="0px"
	 viewBox="0 0 512 512" style="enable-background:new 0 0 512 512;" xml:space="preserve">
<style type="text/css">
	.st0{clip-path:url(#SVGID_2_);}
	.st1{fill:#FFFFFF;}
</style>
<g>
	<defs>
		<rect id="SVGID_1_" x="72" y="24" width="367.9" height="464.1"/>
	</defs>
	<clipPath id="SVGID_2_">
		<use xlink:href="#SVGID_1_"  style="overflow:visible;"/>
	</clipPath>
	<g class="st0">
		<path class="st1" d="M297.7,488.1c-8.7-0.9-17.4-1.7-26-2.7c-20.3-2.2-40-7.9-58.3-17c-3.1-1.5-6.4-2.3-9.9-2.4
			c-26-0.6-52-1.6-77.4-7.1c-11.9-2.7-23.5-6.4-34.8-11c-5.6-2.2-10.6-6.5-14.7-10.9c-5.4-5.8-5.9-13-2.1-20.1
			c11.5-21.1,24.7-41.1,39.7-59.9c2.8-3.5,6.8-4.2,9.9-1.9c3.1,2.3,3.4,6.4,0.6,10.4c-8.5,12-17.1,24.1-25.6,36.2
			c-0.9,1.3-1.6,2.8-2.5,4.4c33.9,0.9,62.3,16.4,90.6,31.9c13.2,7.2,26.1,15.2,39.7,21.7c19.9,9.5,41.4,13.2,63.2,13.8
			c22,0.6,44-0.1,66.1-0.3c4.7-0.1,8.1,2.4,8.3,6.4c0.2,3.8-2.5,6.6-7.2,7.1c-5.4,0.6-10.8,1-16.1,1.5L297.7,488.1z M182.3,451.3
			c-20.7-12.4-42-23.3-65.4-29.3c-8.6-2.2-17.5-3.3-26.4-1c-5.5,1.4-6.6,5.2-2.3,8.8c4.1,3.5,8.8,6.3,13.8,8.3
			C127.8,448.2,155,450,182.3,451.3z"/>
		<path class="st1" d="M288,207.9l-19.4,21.6l-1.8-1.4c2.8,1.6,5.8,3.1,8.5,4.9c8.9,5.9,12.5,15.1,9.4,24.2
			c-3.1,9.3-11.6,14.5-22.5,13.5c-4.5-0.4-9.1-0.7-13.4-2c-5.2-1.6-9.6-0.3-14.1,2c-32.2,16.5-59.6,39.3-84.5,65.4
			c-1.4,1.4-2.6,2.9-4.1,4.3c-3.3,3.3-7.1,3.5-10,0.8c-2.9-2.7-3.1-6.7,0.2-10c9.3-9.4,18.6-19,28.4-28
			c17.7-16.3,37.3-30.3,58.5-41.7c0.6-0.3,1.1-0.7,1.6-1.1c-0.2-0.3-0.5-0.7-0.8-0.9c-19.4-12.7-22.4-29.9-13.2-51.4
			c1.5-3.5,1.4-6.2,0.6-9.8c-2-8.3-3.7-16.8-4-25.3c-0.7-14.9-0.2-29.9-0.3-44.8c0-0.3-0.1-0.7-0.2-1c-3.9-1.7-8-3.1-11.8-5.1
			c-18.9-10.1-23.3-33.2-8.9-47.5c7.6-7.6,16.9-10.1,27.5-7.7c1.4,0.3,3.6,0.4,4.4-0.4c9.7-10,21.7-13.1,35.1-12.8
			c0.4,0,0.9-0.1,1.3-0.1c0.2-0.2,0.6-0.4,0.7-0.6c4.5-16.2,16.2-24,31.8-27.2c12.5-2.6,24.9-2.4,37,2s19.9,12.3,22.4,25.4
			c2.2,11.8,5.1,23.6,7.8,35.3c1.9,7.9,6.2,14,13.6,17.8c10.9,5.6,21.5,11.7,32.8,16.3c11,4.6,18.5,11.8,21.8,23.1
			c6,20.4,12.4,40.7,17.2,61.3c4,17.2-14.5,32.7-31.9,27.7c-1.7-0.5-3.4-1.2-5.6-2c-0.1,1.8-0.2,3.4-0.3,4.9
			c-0.7,20.8-1.5,41.6-2.2,62.5c-0.1,3.3-1.2,6.3-4.5,7c-2.1,0.4-5.4,0.1-6.5-1.2c-1.6-2.2-2.5-4.9-2.4-7.7
			c0.6-24.2,1.3-48.3,2.2-72.4c0.1-3.5-1.1-5.8-3.5-8.2c-4.1-4.1-7.8-8.8-11.7-13.2c-13.6,12.6-20.3,31-40.9,32.6
			c0.2,0.6,0.4,1.2,0.8,1.8c29.5,44.5,51.6,92.7,69.8,142.7c9.4,25.8,17.1,52.1,25.4,78.2c1.9,6.1,0.5,9.9-4.9,13
			c-10.5,6.1-22.3,8.3-34.1,10c-3.8,0.6-6.3-1.8-7-5.6c-0.7-3.8,1.7-6.8,5.9-7.8c6.9-1.7,13.8-3.2,20.7-4.9c2.2-0.7,4.5-1.5,6.6-2.5
			c-6.9-21.3-13.3-42.3-20.6-63c-17.8-50.3-39.2-99-67.8-144.2c-6.4-10.1-13.4-19.8-20.9-29C300.6,219.1,294,213.6,288,207.9z
			 M220.9,129.5c0,16.6-0.6,32.9,0.1,49.1c0.8,17.8,8.1,31.9,25.3,39.6c4,1.8,6.9,1.8,10.3-0.5c8.9-5.8,15.9-13.4,22-21.9
			c3.5-4.8,6.8-5.4,11.5-1.9c10.7,7.9,21.4,15.8,31.8,23.9c8.7,6.8,14.6,7,21.8-1.4c11.1-12.9,21.8-26.2,32.4-39.6
			c2.1-2.7,3.6-5.9,4.4-9.3c0.4-1.8-0.8-5.1-2.3-6c-1.8-1-4.7-0.4-7.1-0.1c-0.9,0.1-1.6,1.3-2.4,2c-10.5,9.5-21,19.1-31.6,28.6
			c-4.4,4-6.8,4.1-11.6,0.6c-8.6-6.3-17.5-12.4-25.8-19.2c-9.1-7.5-19.5-10.4-31-10.7c-3-0.1-6.1,0.1-9-0.2c-4.9-0.5-8-5.6-5.4-9.6
			c1.4-2,4.5-3.2,7-3.9c5.6-1.5,11.5-2.1,17-3.9c3.8-1.2,7-4.3,7.1-8.6c0.3-10.6,0.1-21.3,0.1-32.2
			C261.8,125.3,257.5,127.1,220.9,129.5z M299.6,121.8c0.9-0.2,1.7-0.4,2.6-0.7c14.9-6.1,26.4-16.8,37.3-28.1c0.3-0.5,0.6-1,0.7-1.6
			s0.1-1.1,0-1.7c-2.5-11.9-5.3-23.8-7.8-35.8c-1.1-5.1-3.8-9-8.4-11.2c-15.6-7.3-31.2-7.1-46.6,0.7c-2.3,1.2-4.3,2.9-5.8,5
			c-1.5,2.1-2.5,4.5-2.9,7.1l4.4,1.7c17.1,6.4,26.4,19.8,26.4,38.1C299.5,104,299.5,112.6,299.6,121.8L299.6,121.8z M221.2,115.6
			c16.7,1.2,32.3-2,46-12.3c6.3-4.7,10.9-11.5,12.8-19.2c1.1-4.3,0-7.1-3.5-9.6c-8.9-6.3-18.8-7.6-29.3-7
			c-14.1,0.9-23.7,8.7-25.8,22.7C220.3,98.3,221.2,106.7,221.2,115.6z M330.8,179.6c10.5-9.4,20.5-18.6,30.7-27.6
			c8.2-7.2,19.4-7.1,27.5,0.3c2.5,2.2,4.7,4.6,7.2,6.9c7.1,6.6,14.3,13.2,21.5,19.8c-2.9-13.2-6-26.1-12.9-37.6
			c-0.7-1.1-1.8-2-3-2.6c-13.8-6.7-27.6-13.4-41.6-20.2c-9,20.5-21.3,39.4-36.5,55.8L330.8,179.6z M394,207.7c2.7,2.4,6,5.5,9.3,8.5
			c1.4,1.3,3,2.6,4.5,3.7c4.5,3.2,11,2.5,15.2-1.8c3.5-3.6,4.5-8.8,1.5-12.2c-4.7-5.6-9.9-10.7-14.2-15.4
			C404.7,196.4,399.5,201.9,394,207.7z M323.1,154.1c1.4-1.5,2.6-3.2,3.8-4.9c7-12.1,13.9-24.3,20.9-36.3c1.8-3,1.4-5.2-1.2-6.9
			c-7.4,6.1-14.6,12-21.7,18c-1,1-1.7,2.3-1.8,3.7C323,136.1,323.1,144.4,323.1,154.1z M208.6,80.1c-7.5-1.8-15.6,3.6-17.1,11.9
			c-1.7,9.4,5.1,18.4,15,19.8C207.1,101.3,207.8,90.9,208.6,80.1z M234.9,249.5c2.1-6.2,4.2-12.3,6.4-18.6c-3.3-1.9-6.8-3.6-10-5.8
			c-3.2-2.2-6.3-4.9-9.5-7.4C215.7,231.2,221.5,244.9,234.9,249.5z M247.7,255.4c6.8,0.8,12.3,1.9,17.8,1.8c2.2-0.1,5.4-2.5,6.2-4.6
			c0.7-1.8-0.7-5.6-2.4-6.9c-4.5-3.3-9.7-5.7-15.6-9C251.5,243.2,249.7,248.7,247.7,255.4L247.7,255.4z M309.3,163.1v-30
			c-2.8,0.9-5.2,1.5-7.6,2.4c-0.9,0.3-1.6,1-2.1,1.8c-2.2,5.3-4.2,10.6-6.2,15.8L309.3,163.1z M380.6,194.7c6.6,1,13-3.1,15.8-9.9
			c2.2-5.2,1.8-6.3-2.9-9C389.2,182.1,385,188.2,380.6,194.7L380.6,194.7z"/>
	</g>
</g>
</svg>
