<?xml version="1.0" encoding="utf-8"?>
<!-- Generator: Adobe Illustrator 21.0.0, SVG Export Plug-In . SVG Version: 6.00 Build 0)  -->
<svg version="1.1" id="Capa_1" xmlns="http://www.w3.org/2000/svg" xmlns:xlink="http://www.w3.org/1999/xlink" x="0px" y="0px"
	 viewBox="0 0 512 512" style="enable-background:new 0 0 512 512;" xml:space="preserve">
<style type="text/css">
	.st0{fill:#FFFFFF;}
</style>
<path class="st0" d="M488.5,426.2c-1.8-0.3-3.7-0.4-5.5-0.3c-5.8,0-11.7,0-17.5,0V282.5c1.7,0.6,3.2,1,4.6,1.5
	c1.6,0.6,3.2,1.3,4.8,1.7c4.1,1.1,7.7-0.7,9.1-4.4c1.3-3.7-0.2-7.3-4.2-9.2c-1-0.5-2-0.8-3-1.1l-79.5-28.9
	c-7.7-2.8-15.4-5.7-23.2-8.4c-4.4-1.5-8.1,0.3-9.5,4.1c-1.4,3.9,0.3,7.4,4.6,9.3c1,0.4,2,0.8,3,1.1c24.6,8.9,49.2,17.9,73.9,26.7
	c3.3,1.2,4.8,2.6,4.8,6.5c-0.2,46.4-0.1,92.9-0.1,139.3c0,1.5-0.2,3-0.3,4.5H349.9V210.6c2.1,1.9,3.7,3.3,5.2,4.8
	c2.6,2.4,5.3,4.3,9.1,2.8c4-1.7,4.6-5,4.6-8.8c0-10.9-0.2-21.8,0.1-32.6c0.1-4.9-1.5-8.4-5.2-11.7c-32.6-29.4-65.1-59-97.6-88.7
	l-3.9-2.4c-2.1-1.3-4.4-1.9-6.9-1.9c-2.4,0-4.8,0.8-6.8,2.1l-4.1,2.8c-32.7,29.6-65.3,59.3-97.8,89c-2.1,1.9-4.1,5.1-4.2,7.7
	c-0.4,12.4-0.4,24.8,0.1,37.2c0.1,2.4,2.2,5.9,4.3,6.8c2.1,0.9,5.5-0.3,7.9-1.5c2.4-1.2,4-3.4,6.3-5.5v214.8H60.6
	c-0.1-1.7-0.2-3-0.2-4.4c0-46.6,0-93.2-0.1-139.8c0-3.3,1-4.8,4.2-5.9c25.4-9.1,50.7-18.3,76-27.6c5.5-2,7.6-5.4,6.1-9.8
	s-5.5-5.8-11.2-3.8s-11.1,4-16.6,6c-28.5,10.4-57.1,20.8-85.6,31.2c-5.5,2-7.6,5.4-6.1,9.7c1.5,4.3,5.5,5.8,11.2,3.8
	c2.4-0.8,4.8-1.7,7.4-2.6v143.4c-6.2,0-12.3,0.2-18.3-0.1c-4.4-0.2-7.9,1-10.4,4.6c0,1.9,0,3.7,0,5.6c2.9,3.9,6.9,4.5,11.5,4.5
	c151.4-0.1,302.8-0.1,454.2-0.1c2,0.1,4-0.1,6-0.5c1.6-0.3,3-1.1,3.9-2.3c1-1.2,1.5-2.8,1.4-4.4
	C494.1,429.5,492.1,427.1,488.5,426.2z M248,425.6h-23.2c-0.2-0.5-0.5-0.8-0.5-1.1c0-23.6-0.5-47.1,0.2-70.7
	c0.4-13.3,8.1-22.4,20.5-27.2c1-0.3,1.9-0.5,2.9-0.6L248,425.6z M286.9,423c0,0.8-0.1,1.7-0.2,2.5h-23.5v-99.3
	c10.5,1.1,21.1,12,23.1,23.8c0.4,2.1,0.6,4.3,0.6,6.5C287,378.7,287,400.9,286.9,423L286.9,423z M335,421.6c0,1.2-0.1,2.4-0.2,4
	h-33.5v-5c0-21.7,0.2-43.5-0.1-65.2c-0.1-6-1.3-12-3.7-17.5c-2.4-5.5-5.9-10.5-10.2-14.7c-4.3-4.2-9.5-7.5-15.1-9.7
	c-5.6-2.2-11.6-3.2-17.6-3.1c-24.1,0.4-44.3,20.2-44.6,44.2c-0.3,21.9-0.1,43.8-0.1,65.7v5.5h-33.5c-0.1-1.8-0.2-3.5-0.2-5.1
	c0-73,0-145.9,0.1-218.9c0-2.2,0.8-5.1,2.3-6.5c25-23,50.1-45.9,75.4-68.7c0.5-0.4,1.1-0.8,1.7-1.2c0.9,0.7,1.8,1.2,2.5,1.9
	c24.7,22.5,49.4,44.9,74,67.4c1.7,1.7,2.7,3.9,2.8,6.3C335,274.4,335,348,335,421.6L335,421.6z M262.1,111.2
	c-5.1-4.7-8-4.6-13.2,0.2l-87.9,79.9c-1.1,1-2.3,1.9-3.9,3.3c-0.2-1.1-0.2-1.4-0.3-1.7c-2-11.7,2.4-19.8,11.6-27.8
	c29.4-25.5,57.9-52.2,87-78.7c1.1,0.9,2.2,1.7,3.2,2.6c30.8,28,61.6,56,92.4,83.9c1.2,0.9,2.1,2.2,2.7,3.6c0.6,1.4,0.8,2.9,0.7,4.4
	c-0.2,4.3-0.1,8.6-0.1,14c-3.5-3.2-6.4-5.7-9.2-8.2L262.1,111.2z M137.5,318.4c-0.1-15.7-11.2-27.4-26.1-27.6
	c-14.7-0.2-26.5,11.5-26.8,27.1c-0.3,18.6-0.1,37.3,0,55.9c0,6,2.6,8.6,8.6,8.7c12,0.1,23.9,0.1,35.9,0c6-0.1,8.5-2.6,8.5-8.6
	c0.1-9.6,0-19.2,0-28.9C137.5,336.1,137.5,327.3,137.5,318.4z M123.2,367.8H99.4c-0.1-1.3-0.3-2.5-0.3-3.7c0-15.1,0-30.1,0-45.2
	c0-8.2,4.8-13.5,12.1-13.5c7,0,12,5.3,12,13.2C123.2,334.9,123.2,351.2,123.2,367.8z M373.8,374.2c0.1,5.5,2.5,8.2,7.9,8.3
	c12.4,0.2,24.8,0.2,37.3,0c4.9-0.1,7.7-2.7,7.7-7.5c0.1-19.7,0.5-39.5-0.2-59.1c-0.1-3.4-0.9-6.7-2.3-9.8c-1.4-3.1-3.4-5.9-5.9-8.2
	c-2.5-2.3-5.4-4.1-8.6-5.3c-3.2-1.2-6.6-1.7-10-1.6c-14.7,0.4-25.6,11.8-25.8,26.9c-0.1,9,0,18,0,27
	C373.8,354.6,373.7,364.4,373.8,374.2z M388.1,318.1c0.1-7.5,5.2-12.6,12.1-12.6c6.9,0,11.9,5.2,12,12.7c0.1,16.4,0,32.9,0,49.7
	h-23.6c-0.3-0.6-0.4-1.2-0.5-1.8C388.1,350.1,388,334.1,388.1,318.1z M271.1,191.8c-5.2,0.2-10.4,3.7-15.6,3.6
	c-5.1-0.2-10.2-3-15.3-4.7c-12.4,0.8-23,7.4-27.7,18.3c-5.1,11.8-3.6,23,5.2,32.4c10.4,11.1,21.3,21.7,32.2,32.3
	c3.7,3.7,7.4,3.8,11.1,0.2c11-10.9,22.3-21.6,32.8-33c8.6-9.3,10-20.5,4.7-32C293.3,197.5,283.8,191.3,271.1,191.8L271.1,191.8z
	 M283.1,231.2c-8.9,9.3-18.2,18.1-27.7,27.5c-9.1-9.1-18.1-17.8-26.8-26.9c-2.7-2.8-4.3-6.6-4.3-10.5s1.5-7.7,4.3-10.5
	c5.7-6,14.2-6.5,21-1.2c5.1,3.9,7,3.9,12.2-0.1c6.6-5.1,15-4.6,20.7,1.1C288.3,216.4,288.8,225.3,283.1,231.2L283.1,231.2z"/>
</svg>
