<?xml version="1.0" encoding="utf-8"?>
<!-- Generator: Adobe Illustrator 21.0.0, SVG Export Plug-In . SVG Version: 6.00 Build 0)  -->
<svg version="1.1" id="Capa_1" xmlns="http://www.w3.org/2000/svg" xmlns:xlink="http://www.w3.org/1999/xlink" x="0px" y="0px"
	 viewBox="0 0 512 512" style="enable-background:new 0 0 512 512;" xml:space="preserve">
<style type="text/css">
	.st0{fill:#888683;}
</style>
<path class="st0" d="M494.2,114.6c-0.1-56-42.7-98.5-98.8-98.5C302.6,16,209.8,16,117,16.1c-56.5,0-98.8,42.6-98.9,99.2
	c0,92.4,0,184.7,0,277.1c0,57.9,42.2,100,100.3,100c91.9,0,183.7,0,275.6,0c58.3,0,100.3-42.1,100.3-100.6c0-45.6,0-91.2,0-136.8
	C494.2,208.1,494.3,161.3,494.2,114.6z M393.8,469.6c-91.8,0-183.7,0-275.5,0c-45.6,0-77.5-32-77.5-77.6c0-91.9,0-183.7,0-275.6
	c0-45.9,31.9-77.7,78.1-77.7c45.8,0,91.6,0,137.4,0s91.6,0,137.4,0c46,0,77.9,31.9,77.9,77.9c0,91.6,0,183.3,0,274.9
	C471.5,437.6,439.7,469.6,393.8,469.6z M257,129.4c-68.9-0.2-125.3,55.1-125.6,123.2c-0.4,69.6,55,125.9,124.1,126.2
	c68.9,0.2,124.9-55.2,125.3-124.3C381.2,186.4,325.1,129.7,257,129.4z M255.9,356.2c-56.2-0.2-101.9-46-101.8-101.9
	C154.2,197.5,200,152,257,152.1c55.7,0.2,101.2,46.3,101.1,102.6C358,310.5,311.7,356.4,255.9,356.2z M392.4,84.1
	c-18.9,0-34.2,15.3-34.2,34.2c0.1,18.5,15.3,33.7,33.8,33.8c18.8,0.1,34.1-15.2,34.2-34.2C426.1,99.5,410.8,84.1,392.4,84.1z
	 M392.4,129.4c-6.3,0.2-11.7-5.2-11.6-11.5c0.1-6.1,5.3-11.1,11.3-11.1c6.1,0,11.2,5.1,11.2,11.2S398.5,129.2,392.4,129.4z"/>
</svg>
