<?xml version="1.0" encoding="utf-8"?>
<!-- Generator: Adobe Illustrator 21.0.0, SVG Export Plug-In . SVG Version: 6.00 Build 0)  -->
<svg version="1.1" id="Capa_1" xmlns="http://www.w3.org/2000/svg" xmlns:xlink="http://www.w3.org/1999/xlink" x="0px" y="0px"
	 viewBox="0 0 512 512" style="enable-background:new 0 0 512 512;" xml:space="preserve">
<style type="text/css">
	.st0{fill:#888683;}
	.st1{fill:#FFFFFF;}
</style>
<path class="st0" d="M19,228.4c4.1-4.3,7.8-5.6,10.7-2.9c1.8,1.7,3.1,4.7,3.2,7.2c0.3,13.4,0.1,26.8,0.2,40.1c0,3.6,0.3,7.4-3.8,9.2
	c-4.2,1.9-7.4-0.1-10.2-3.2C19,262,19,245.2,19,228.4z"/>
<path class="st0" d="M235.9,122.3c5.3-0.6,9.9-1.1,15-1.6c0-2,0-3.8,0-5.7c0-30.4,0-60.7,0-91.1c0-5.8,1.9-8.4,6.2-8.8
	c4.5-0.4,7.5,2.1,7.8,6.6c0.1,1.4,0,2.8,0,4.2c0,29.6,0,59.2,0,88.8c0,1.8,0,3.7,0,5.9c5.2,0.6,10.1,1.1,15.6,1.6c0-2.1,0-3.8,0-5.4
	c0-23.7,0-47.3,0-71c0-2,0-4.7,1.1-5.7c1.9-1.6,4.8-2.9,7.2-2.9c3.2,0,5.3,2.6,5.5,6c0.2,4.2,0.1,8.4,0.1,12.6c0,21.5,0,43,0,64.5
	c0,1.7,0,3.4,0,5.2c5,1.7,9.6,3.3,15,5.1c0-5.6,0-10.6,0-15.7c0-10,0-19.9,0-29.9c0-5.7,2.4-8.5,7-8.4s7,3,7,8.6
	c0,15.6,0.1,31.1-0.1,46.7c-0.1,4,0.7,6.7,4.6,8.5c3.5,1.6,6.5,4.1,10.5,6.7c0-2.3,0-3.9,0-5.6c0-25.2,0-50.5,0-75.7
	c0-4,0.9-7.1,5.2-8.2c4.6-1.2,8.7,2,8.8,7c0.2,7,0.1,14,0.1,21c0,23.4-0.1,46.7,0.1,70.1c0,2.2,1.2,4.7,2.5,6.5
	c3.7,4.8,7.7,9.2,12.3,14.5c0-7.6,0-14.4,0-21.2c0-9.3,0-18.7,0-28c0-6.2,2.2-8.9,7.1-8.8c4.7,0.1,6.9,3,6.9,9c0,23.7,0,47.4,0.1,71
	c0,2.6,0.5,5.3,1.4,7.7c11.5,31.4,11.5,62.7,0,94.1c-0.9,2.4-1.4,5.1-1.4,7.7c-0.1,23.8,0,47.7-0.1,71.5c0,5.8-1.9,8.3-6.3,8.7
	c-4.8,0.4-7.7-2.4-7.7-7.7c-0.1-15,0-29.9,0-44.9c0-1.5,0-3,0-5.3c-5.1,5.9-9.8,11-14.1,16.4c-0.9,1.1-0.8,3.2-0.8,4.8
	c0,29.3,0,58.6,0,87.9c0,1.6,0.1,3.1-0.2,4.6c-0.8,3.7-3.3,5.6-7.1,5.4c-3.6-0.2-6.2-2-6.6-5.9c-0.2-1.4-0.1-2.8-0.1-4.2
	c0-24.6,0-49.2,0-73.8c0-1.6,0-3.3,0-5.6c-5,3.1-9.4,5.7-13.5,8.7c-1,0.8-1.4,2.9-1.5,4.5c-0.1,16.2,0.1,32.4-0.2,48.6
	c-0.1,2.6-1.3,6.1-3.3,7.6c-4.6,3.5-10.5-0.2-10.6-6.2c-0.1-13.5,0-27.1,0-40.6c0-1.7,0-3.4,0-5.8c-5.1,1.7-9.9,3.3-15,5
	c0,1.8,0,3.4,0,5.1c0,24.8,0.1,49.5-0.1,74.3c0,2.6-0.9,5.9-2.7,7.4c-1.5,1.4-4.9,1.4-7.3,0.9c-3.3-0.8-4-3.9-4-7.1
	c0-23.8,0-47.7,0-71.5c0-1.8,0-3.6,0-5.9c-5.4,0.5-10.1,1-15.6,1.6c0,1.8,0,3.6,0,5.4c0,30.5,0,61.1,0,91.6c0,3.6-0.4,7-4.5,8.2
	c-5.1,1.6-9.3-1.5-9.5-7.1c-0.2-6.2-0.1-12.5-0.1-18.7c0-24.8,0-49.5,0-74.3c0-1.7,0-3.4,0-5.2c-5.1-0.5-9.7-1-15-1.6
	c0,2.2,0,4,0,5.8c0,23.8,0,47.7,0,71.5c0,6-3.7,9.2-8.7,7.9c-4.4-1.2-5.4-4.6-5.3-8.7c0.1-19.3,0-38.6,0-57.9
	c0-6.2-0.1-12.5,0.1-18.7c0.1-2.4-0.7-3.6-3.1-4.3c-3.8-1-7.6-2.5-11.9-4c0,12.3,0,23.9,0,35.6c0,3.7,0.1,7.5,0,11.2
	c-0.1,4.7-2.4,7.2-6.7,7.3c-4.4,0.1-7.1-2.6-7.3-7.3c-0.1-5,0-10,0-14.9c0-11.7-0.1-23.4,0.1-35.1c0-2.9-0.9-4.5-3.4-5.9
	c-3.8-2.1-7.3-4.7-11.7-7.5c0,2.3,0,3.9,0,5.5c0,25.4,0,50.8,0,76.2c0,5.4-2.3,8.2-6.7,8.3c-4.4,0.1-7.3-2.8-7.3-7.8
	c-0.1-10,0-19.9,0-29.9c0-21.2,0-42.4,0-63.6c0-3.9,0.1-7.6,4.3-9.5s7.3-0.1,10.5,2.8c66.6,59.8,172,28.3,195-58.2
	c18.2-68.5-29.1-139.2-99.1-148c-65.2-8.2-123,34.7-133.8,99.6c-2.8,16.5-2.1,32.9,3.8,48.8c3.2,8.7,4.5,17.7,4.4,27
	c-0.2,23.1-0.1,46.1-0.1,69.2c0,5.5-2.2,8.1-6.7,8.1c-4.7,0.1-7.2-2.7-7.2-8.2c0-21.8-0.1-43.6,0.1-65.4c0.1-7.2-1-14-3.3-21
	c-9.2-28.7-8.4-57.3,1.6-85.7c1-2.7,1.5-5.7,1.5-8.6c0.1-24.1,0.1-48.3,0.1-72.4c0-4.1,1-7.5,5.7-8.2c5-0.8,8.2,2.1,8.3,7.5
	c0.1,15.7,0,31.5,0,47.2c0,0.9,0,1.8,0,3.7c5.3-6.2,10.1-11.5,14.5-17.2c0.8-1,0.4-3,0.4-4.5c0-29.6,0-59.2,0.1-88.8
	c0-2.5,0.5-5.8,2.1-7.2c1.7-1.5,5.1-1.9,7.6-1.5c3.3,0.6,4.3,3.6,4.3,6.9c0,21.3,0,42.7,0,64c0,5.9,0,11.7,0,18.3
	c5-3.2,9.5-5.8,13.7-8.9c1-0.8,1.2-3,1.2-4.6c0.1-16.3,0-32.7,0.1-49.1c0-5.6,2.6-8.4,7.3-8.2c4.3,0.2,6.6,2.8,6.7,7.8
	c0.1,13.6,0,27.1,0,40.6c0,1.7,0,3.3,0,5.6c4.8-1.6,9.1-2.8,13.2-4.6c1.1-0.5,1.7-3,1.7-4.6c0.1-24.9,0.1-49.8,0.1-74.8
	c0-1.7,0-3.5,0.4-5.1c1-3.5,3.7-5,7.1-4.7c3.4,0.3,5.9,2.1,6.3,5.8c0.2,1.5,0.1,3.1,0.1,4.7c0,23,0,46.1,0,69.2
	C235.9,118.2,235.9,119.9,235.9,122.3z"/>
<path class="st0" d="M299.4,249.9c0-10.7,0-21.1,0-32.1c-5.4,1.9-10.5,3.7-15.6,5.5c-13.8,4.9-27.5,9.9-41.3,14.6
	c-2.9,1-4,2.3-4,5.6c0.2,18.7,0.2,37.4,0,56.1c-0.2,20-20.2,32.5-37.5,23.7c-11.8-6-17.2-19.9-12.4-32.2
	c4.8-12.5,18.4-19.2,31.2-15.5c1.5,0.4,2.9,0.9,4.7,1.5c0-20.6,0-40.9,0-61.1c0-10.5,0-10.5,9.8-14c14.7-5.2,29.3-10.5,43.9-15.7
	c4.7-1.7,8.1-0.3,9.6,3.6c1.7,4.4-0.1,7.8-5.3,9.7c-12.4,4.5-24.9,8.9-37.3,13.3c-7.5,2.7-7.5,2.7-6.2,11.5
	c6.2-2.2,12.3-4.3,18.4-6.5c12.7-4.5,25.4-9.2,38.2-13.6c3.1-1,4.1-2.5,3.9-5.7c-0.3-4.7-0.1-9.3,0-14c0.1-5.1,2.5-7.6,6.8-7.7
	c4.6-0.1,7.1,2.6,7.1,7.8c0,29.8,0.1,59.5,0,89.3c-0.1,11.4-7.3,20.8-18,24.1c-10.6,3.3-22.1-0.6-28.6-9.6
	c-6.5-9.1-6.5-21.1,0.1-30.1c6.5-9,17.8-12.7,28.6-9.4C296.8,249.2,297.9,249.5,299.4,249.9z M299.5,273.4c0-6.5-4.9-11.6-11.4-11.7
	c-6.6-0.1-12,5.1-12,11.7c0,6.3,5.2,11.6,11.5,11.8C294,285.4,299.5,280,299.5,273.4z M212.7,311.9c6.4,0,11.6-5.2,11.7-11.5
	c0.1-6.4-5.5-12-11.9-12c-6.5,0.1-11.7,5.5-11.6,12.1C201.1,307,206.2,311.9,212.7,311.9z"/>
<path class="st0" d="M106,253.1c0-31.9,0-63.8,0-95.7c0-1.7-0.2-3.5,0.2-5.1c0.9-3.5,3.3-5.6,7.1-5.4c3.8,0.2,5.9,2.4,6.6,6.1
	c0.1,0.8,0.1,1.6,0.1,2.3c0,65.5,0,131,0,196.5c0,0.6,0,1.2,0,1.9c-0.3,4.1-2.5,6.2-6.6,6.5c-4,0.2-7-2.2-7.3-6.2
	c-0.3-3.6-0.1-7.1-0.1-10.7C106,313.2,106,283.1,106,253.1z"/>
<path class="st0" d="M396.5,253.6c0-32.1,0-64.1,0-96.2c0-1.6-0.1-3.1,0.1-4.7c0.6-3.4,2.6-5.6,6.2-5.9c3.8-0.3,6.3,1.6,7.4,5.1
	c0.4,1.4,0.3,3.1,0.3,4.6c0,64.7,0,129.5-0.1,194.2c0,2.8-1.2,6.2-3.2,8.1c-1.3,1.3-5.3,1.2-7.2,0.1c-1.8-1.1-3.3-4.2-3.4-6.4
	c-0.3-13.5-0.2-27.1-0.2-40.6C396.5,292.5,396.5,273.1,396.5,253.6z"/>
<path class="st0" d="M468.5,254.1c0,21.8,0,43.6-0.1,65.3c0,2.2-0.3,5.2-1.7,6.5c-1.7,1.5-4.9,2.6-7,2.1c-2-0.5-3.6-3.2-5.1-5.2
	c-0.5-0.7-0.2-2.1-0.2-3.2c0-43.9,0-87.7,0-131.6c0-0.8,0-1.6,0-2.3c0.3-4.2,2.9-6.8,6.7-7c4-0.1,7.1,2.6,7.2,6.9
	c0.2,5.3,0.1,10.6,0.1,15.9C468.5,219,468.5,236.5,468.5,254.1z"/>
<path class="st0" d="M62,254.1c0,22.1,0,44.2,0,66.3c0,5.6-3,8.5-7.8,8c-4-0.5-6.1-3.1-6.1-7.9c0-11.8,0-23.7,0-35.5
	c0-31.9,0-63.8,0-95.7c0-1.4-0.1-2.8,0.1-4.2c0.4-4,3.3-6.7,7.1-6.5c4,0.2,6.2,2.5,6.7,6.4c0.2,1.4,0.1,2.8,0.1,4.2
	C62,210.9,62,232.5,62,254.1z"/>
<path class="st0" d="M425.5,253.6c0-16.5,0-33,0-49.5c0-1.2-0.1-2.5,0-3.7c0.5-3.9,2.7-6.2,6.6-6.5c3.8-0.3,6.8,2.4,7.2,6.4
	c0.2,1.9,0.1,3.7,0.1,5.6c0,33,0,66,0,99c0,6.7-5.1,10.6-10.2,7.3c-2-1.3-3.6-4.7-3.7-7.2C425.4,287.9,425.5,270.8,425.5,253.6z"/>
<path class="st0" d="M91,254.1c0,16.8,0,33.6,0,50.5c0,5.7-2.3,8.6-6.8,8.7c-4.6,0.1-7.2-3-7.2-8.8c0-33.9,0-67.9,0-101.8
	c0-5.6,2.5-8.7,6.8-8.8c4.4-0.1,7.1,3,7.1,8.4C91,219.5,91,236.8,91,254.1z"/>
<path class="st1" d="M483.5,253.1c0-6.8,0-13.7,0-20.5c0-5.4,2.8-8.5,7.2-8.4c4.2,0.1,6.8,3.2,6.8,8.3c0.1,14.1,0.1,28.3,0,42.4
	c0,5.1-2.3,7.6-6.7,7.7c-4.6,0.1-7.2-2.6-7.3-7.7C483.4,267.7,483.5,260.4,483.5,253.1z"/>
</svg>
