<?xml version="1.0" encoding="utf-8"?>
<!-- Generator: Adobe Illustrator 21.0.0, SVG Export Plug-In . SVG Version: 6.00 Build 0)  -->
<svg version="1.1" id="Capa_1" xmlns="http://www.w3.org/2000/svg" xmlns:xlink="http://www.w3.org/1999/xlink" x="0px" y="0px"
	 viewBox="0 0 512 512" style="enable-background:new 0 0 512 512;" xml:space="preserve">
<style type="text/css">
	.st0{fill:#FFFFFF;}
</style>
<path class="st0" d="M17,287.1c2.7-3.4,6.4-4.2,10.6-4.2c39.4,0.1,78.9,0.1,118.3,0.1c2,0,4,0,6.4,0c0-13.3,0-26,0-38.7
	c0-2.5-0.1-5,0.1-7.4c0.4-4.3,3.3-7.1,7.2-7c3.9,0.1,6.6,2.9,6.7,7.4c0.1,13.8,0,27.6,0.1,41.5c0,1.2,0.1,2.4,0.2,4
	c26.5,0,52.8,0,79.3,0c0-41.2,0-82.2,0-123.5c-26.4,0-52.6,0-79.5,0c0,2.3,0,4.4,0,6.5c0,12.6,0,25.1,0,37.7c0,5.6-2.5,8.6-6.9,8.5
	c-4.4,0-7-3.1-7-8.6c-0.1-12.9,0-25.8,0-38.7c0-1.7,0-3.4,0-5.9c-4.3,0-8.2,0.1-12.2,0c-5.8-0.1-8.2-2.5-8.3-8.3
	c-0.1-16.3-0.1-32.6,0-48.9c0-6,2.6-8.3,8.7-8.3c13.5,0,27,0,40.5,0c1.5,0,3,0,5.3,0c-5.7-8.3-8.1-16.7-7.4-26
	c1.9-24.9,30.6-42.3,53.5-28c11.7,7.3,20.5,17.5,28.8,28.2c5.2,6.8,10.2,13.7,15.6,21c1.2-1.5,2.1-2.9,3.2-4.1
	c9.8-12,19.3-24.3,29.5-35.9c6.1-6.9,13.9-12.1,23.3-13.7c14.5-2.5,26.4,2.8,35,14.5c8.9,12.2,9.5,25.5,2.5,39.1
	c-0.7,1.4-1.5,2.7-2.2,4.1c0,0.1,0,0.3,0.2,1c3.8,0,7.8,0,11.8,0c11.2,0,22.4,0,33.5,0c5.6,0,8.1,2.4,8.1,7.9
	c0.1,16.6,0.1,33.2,0,49.8c0,5.3-2.5,7.6-7.7,7.8c-4,0.1-8,0-12.4,0c0,49.1,0,97.7,0,146.8c1.6,0.1,3.3,0.2,4.9,0.2
	c25.8,0,51.6,0,77.3,0c8.2,0,10.3,2,10.3,10c0,31.1,0,62.1,0,93.2c0,0.8,0,1.5,0,2.3c-0.2,4.6-3,7.5-7.2,7.4
	c-3.9-0.1-6.7-2.9-6.7-7.4c-0.1-8.7,0-17.4,0-26.1c0-2.3,0-4.6,0-7.4c-64.8,0-129.4,0-194.4,0c0,33,0,66.2,0,99.6
	c64.6,0,129.2,0,194.4,0c0-10.2,0-20.2,0-30.3c0-7.2,2.1-10.6,6.8-10.7c4.9-0.2,7.2,3.3,7.2,10.8c0,11.6,0,23.3,0,34.9
	c0,7.2-2.3,9.6-9.3,9.6c-145.3,0-290.6,0-436,0c-6.9,0-9.3-2.4-9.3-9.2c0-17.2,0-34.5,0-51.7c0-5.8,2.6-9,7.2-8.8
	c4.3,0.1,6.8,3.2,6.8,8.8c0,15.4,0,30.7,0,46.5c72.6,0,145,0,217.7,0c0-42.8,0-85.5,0-128.6c-17.7,0-35.3,0-53.4,0
	c-1.3,9.6-7.4,16.2-14.1,22.7c-10.8,10.5-21.3,21.3-32,31.9c-6.6,6.6-11.8,6.6-18.4,0c-12.2-12.2-24.3-24.4-36.6-36.5
	c-5-5-8.2-10.9-9.6-18c-17.7,0-35.3,0-53.7,0c0,1.5,0,3.1,0,4.8c0,14.3,0,28.6,0,42.9c0,4.7-2.9,7.8-6.8,7.8c-4,0.1-6.9-3-7.1-7.6
	c0-1.1,0-2.2,0-3.3c0-13.2,0-26.4,0-39.6c0-1.5,0-3.1,0-5.3c-4.3,0-8.5-0.2-12.6,0.1c-4.3,0.3-7.6-1-9.8-4.8C17,325,17,306,17,287.1
	z M386.8,305.6c0-49.1,0-97.7,0-146.6c-26.5,0-52.6,0-78.8,0c0,49,0,97.8,0,146.6C334.4,305.6,360.4,305.6,386.8,305.6z
	 M285.5,363.2c65,0,129.7,0,194.3,0c0-14.6,0-28.8,0-43.2c-57.4,0-114.6,0-172.1,0c0,6.7,0,13.2,0,19.7c0,6.5-2.4,8.9-9.1,8.9
	c-4.3,0-8.6,0-13.1,0C285.5,353.7,285.5,358.3,285.5,363.2z M293.5,297.3c-87.7,0-175,0-262.3,0c0,12.6,0,24.8,0,37.1
	c25.7,0,51.1,0,76.5,0c7.8-21.8,34.6-31,54.6-12c20.7-19.6,47.6-8.7,54.5,11.9c25.6,0,51.1,0,76.8,0
	C293.5,321.9,293.5,309.9,293.5,297.3z M293.4,282.7c0-41.4,0-82.5,0-123.6c-11.2,0-22.1,0-33.1,0c0,41.3,0,82.4,0,123.6
	C271.4,282.7,282.2,282.7,293.4,282.7z M146.1,107.4c0,12.4,0,24.7,0,37.1c30.8,0,61.2,0,91.8,0c0-12.5,0-24.7,0-37.1
	C207.4,107.4,177.1,107.4,146.1,107.4z M407.3,144.5c0-12.8,0-24.9,0-37c-30.9,0-61.3,0-91.7,0c0,12.6,0,24.8,0,37
	C346.4,144.5,376.7,144.5,407.3,144.5z M161.9,392.4c13-12.8,26-25,38.3-37.9c6-6.3,4.9-16.7-1.2-22.9c-6.1-6.3-15.8-7.3-22.9-2.2
	c-1.6,1.2-3.1,2.6-4.5,4c-6.8,6.6-11.9,6.6-18.8-0.2c-1.1-1.1-2.2-2.2-3.4-3.2c-7.4-5.8-17.7-5.1-24.1,1.7c-6.4,6.8-6.6,17.3-0.1,24
	C137.4,368.2,149.7,380.2,161.9,392.4z M290.7,93.2c16.9,0,32.6,0.2,48.2-0.1c10.1-0.2,18.3-6.8,21-16.2c2.7-9.3-0.7-19.2-8.5-24.7
	c-8.3-5.9-16.8-5.8-25.9,0.7C311.1,63.4,301.6,78.2,290.7,93.2z M262.8,93.1c-9.6-13.4-18.3-26.3-30.1-36.5
	c-3.1-2.7-6.7-5.1-10.4-6.8c-2.8-1.3-6.4-1.9-9.4-1.6C201,49.5,192.8,59,192.8,70.6c0,11.7,8.6,21.8,20.6,22.3
	C229.4,93.6,245.5,93.1,262.8,93.1z M252.5,144.5c16.4,0,32.4,0,48.5,0c0-12.5,0-24.7,0-37c-16.3,0-32.3,0-48.5,0
	C252.5,119.8,252.5,131.9,252.5,144.5z"/>
</svg>
