<?xml version="1.0" encoding="utf-8"?>
<!-- Generator: Adobe Illustrator 21.0.0, SVG Export Plug-In . SVG Version: 6.00 Build 0)  -->
<svg version="1.1" id="Capa_1" xmlns="http://www.w3.org/2000/svg" xmlns:xlink="http://www.w3.org/1999/xlink" x="0px" y="0px"
	 viewBox="0 0 512 512" style="enable-background:new 0 0 512 512;" xml:space="preserve">
<style type="text/css">
	.st0{fill:#FFFFFF;}
</style>
<path class="st0" d="M486.5,119.5c-7.7-8.9-16.3-17-24.7-25.2c-4.2-4.1-9.7-4-13.3-0.3c-3.8,3.8-3.7,9.2,0.6,13.7
	c6.6,6.8,13.4,13.4,20,20.1c1.4,1.4,2.8,2.9,3.8,4.7c4.2,7.1-0.9,16.7-9.1,16.3c-3.3-0.2-7.2-2.2-9.6-4.6
	c-29.9-29.5-59.5-59.3-89.2-89c-1.2-1.2-2.5-2.5-3-4c-0.8-2.2-1.5-4.8-1.2-7.1c0.5-4.3,3.2-7.2,7.4-8.6c4.7-1.6,8.6,0.1,11.8,3.3
	c5.9,5.7,11.6,11.7,17.5,17.3c4.4,4.2,10,4.2,13.7,0.5c3.6-3.6,3.7-9.2-0.4-13.3c-6.8-7-13.6-14-21-20.4c-9.6-8.4-23.9-8.8-34.7-1.9
	c-10.6,6.9-16.2,20.4-12.2,32.4c1.8,5.5,5.4,10.7,9.3,15.2c5.9,6.8,12.7,12.9,18.6,18.8c-12.4,12.4-24.3,24.3-36.6,36.7
	c-4.9-5-10.1-10.4-15.3-15.6c-5.4-5.5-10.8-11.1-16.5-16.4c-4.6-4.3-9.9-4.3-13.7-0.3c-3.6,3.7-3.4,8.9,0.5,13.4
	c1.1,1.2,2.2,2.4,3.8,4c-1.8,1.6-3.2,2.7-4.5,4c-49.9,49.8-99.8,99.7-149.6,149.6c-22.8,22.9-29.8,49.9-20.1,80.9
	c0.9,2.8,0.6,4.5-1.5,6.5c-10.8,10.6-21.5,21.4-32.3,32.2c-9.2,9.3-12.4,20.1-7.9,32.6c1,2.8,0,4.2-1.7,6
	c-16.4,16.3-32.7,32.6-49,49C23,473,20.1,476.6,17,480v12.1h12.1c2.6-2.2,5.3-4.2,7.6-6.6C54,468.4,71.1,451.1,88.4,434
	c1.2-1.2,3.9-2.3,5.4-1.8c13,4.4,24,1.2,33.5-8.3c10.5-10.5,21.1-21,31.5-31.6c2.3-2.4,4.2-2.7,7.3-1.6c11.3,4.1,23,4.9,34.8,3.4
	c18.4-2.4,33.4-11.2,46.4-24.3c49.7-49.8,99.5-99.5,149.2-149.3c1.3-1.3,2.1-3.1,3.1-4.7c3.1,2.7,4.7,5,6.9,5.6
	c2.9,0.8,6.7,1.4,9,0.1c2.4-1.3,4.6-5,4.7-7.7c0-2.8-2.1-6.1-4.2-8.3c-9.1-9.5-18.5-18.7-27.8-28.1c-1-1-2-2.2-2.7-2.9
	c12.2-12.2,24.1-24.1,36.9-36.9c1.1,1.5,2.2,3.4,3.8,4.9c6.2,6.2,12.3,12.7,19,18.4c11.4,9.7,28.8,8.5,39.3-2.2
	C495.1,148.1,496.4,130.8,486.5,119.5z M143.4,381.5c-9.8,9.9-19.7,19.8-29.6,29.6c-4.7,4.7-9.6,5.6-14.2,3.1
	c-7.2-3.8-8-12.2-1.7-18.7c8.8-9,17.8-17.7,26.6-26.7c1.5-1.5,2.5-3.5,3-4.2c5.9,6,10.9,11,15.9,16c0.4-0.3,0.9-0.5,1.3-0.8
	C144.2,380.4,143.9,381,143.4,381.5z M386.4,203.3c-8.3,8.3-17,17-26.1,26.1c-5.5-5.6-11.2-11.4-16.9-17.2
	c-2.8-2.8-6.6-4.5-10.1-2.5c-2.6,1.5-5.5,4.7-5.8,7.4c-0.4,2.8,1.6,6.5,3.6,8.9c5.1,5.8,10.9,10.9,16.1,16.1
	c-10.5,10.4-20.6,20.5-31.1,30.9c-5.1-5.2-10.6-11-16.4-16.7c-4.2-4.2-9.5-4.5-13.3-1.2c-4.4,3.8-4.4,9.5,0.3,14.3
	c5.6,5.8,11.4,11.3,16.8,16.6c-10.5,10.5-20.5,20.5-30.9,30.9c-5.1-5.2-10.7-10.9-16.4-16.5c-4.8-4.6-10.6-4.8-14.4-0.7
	c-3.6,4-3.3,9.1,1.1,13.7c5.6,5.8,11.4,11.3,16.9,16.8c-10.4,10.4-20.5,20.5-30.8,30.8c-4.9-4.9-10-10-15.1-15.2
	c-1.3-1.3-2.7-2.6-4.2-3.6c-3.8-2.5-8.4-2-11.5,1.1c-3.1,3.1-3.7,7.9-1,11.4c2.8,3.6,6.2,6.9,9.5,10.2c2.1,2,4.4,3.8,7.3,6.4
	c-18.3,7.1-35.1,6.7-50.9-2.1c-34.1-19.1-40.7-63.2-13.3-91c51.4-52,103.4-103.5,155.1-155.2c0.2-0.2,0.5-0.4,0.6-0.5
	C332.7,149.6,359.7,176.6,386.4,203.3z M371.5,159.4c-6.9-6.9-14.7-14.7-22.1-22c11.5-11.5,23.5-23.5,35.2-35.2
	c7.3,7.3,15,14.9,22.4,22.3C395.3,136,383.2,147.8,371.5,159.4z M431.9,86.6c4.8,0,9.2-4.4,9.2-9.2c0-4.9-4.4-9.2-9.2-9.2
	c-4.9,0-9.2,4.4-9.2,9.2C422.6,82.2,427,86.6,431.9,86.6z M256.9,208.3c-4.1-2.3-8-0.2-11.2,3c-23.1,23.1-46.3,46.2-69.3,69.4
	c-4.9,4.9-5.2,10.3-1,14.4c4,3.9,9.2,3.7,14-1.1c23.3-23.2,46.5-46.4,69.7-69.7c1.9-2,2.9-4.8,5-8.3
	C261.5,213,259.6,209.8,256.9,208.3z M276.6,184.3c-5,0-9.2,4.3-9.2,9.2c0,4.8,4.5,9.2,9.3,9.2c4.9,0,9.1-4.4,9.1-9.3
	C285.8,188.3,281.7,184.2,276.6,184.3z"/>
</svg>
