<svg width="53" height="64" viewBox="0 0 53 64" fill="none" xmlns="http://www.w3.org/2000/svg">
<g clip-path="url(#clip0_13_1285)">
<path d="M26.5 63.996C41.1355 63.996 53 49.67 53 31.998C53 14.326 41.1355 0 26.5 0C11.8645 0 0 14.326 0 31.998C0 49.67 11.8645 63.996 26.5 63.996Z" fill="white"/>
<path d="M49.3775 31.99C49.2974 38.8398 47.5342 45.1628 43.3666 50.6834C40.2329 54.8189 36.2618 57.8486 31.1205 59.0422C24.1518 60.6628 18.0768 58.8466 12.8273 54.0565C8.56571 50.189 5.65061 45.0706 4.50423 39.4426C2.47655 30.014 3.89913 21.1882 9.71366 13.3125C12.8353 9.07723 16.9267 6.10735 22.1362 4.92978C28.2312 3.53266 33.7572 4.90184 38.7022 8.65011C43.6471 12.3984 46.6045 17.4639 48.2475 23.3518C49.026 26.1647 49.4063 29.0722 49.3775 31.99ZM19.0065 39.7579C19.808 38.1413 20.5292 36.6643 21.2265 35.1754C21.3697 34.8594 21.4526 34.5197 21.4709 34.1735C21.527 32.9759 21.5431 31.7784 21.5751 30.5809H21.8116L21.9438 33.3751H22.048L23.691 30.018C23.8272 30.3813 23.8473 30.6048 23.9715 30.7365C24.4965 31.2914 25.0495 31.8223 25.5744 32.3612L25.3981 32.6127L23.3263 31.6427C22.4808 33.2154 21.7234 34.6605 21.9639 36.4328C22.1162 37.5465 22.0761 38.6882 22.1202 39.8098H23.699V35.9777L26.5041 36.9198L26.472 37.1872L24.0476 37.3389V39.8058C24.224 39.7993 24.4004 39.8154 24.5726 39.8537C24.82 39.9576 25.0608 40.0763 25.2939 40.209C25.1456 40.4565 25.0214 40.724 24.8491 40.9555C24.6768 41.187 24.4484 41.2988 24.3242 41.5223C23.7987 42.5205 22.9717 43.329 21.9599 43.8335C21.5591 44.0291 21.1584 44.1928 20.6214 44.4443L31.4009 45.9771L31.437 45.8174C31.2478 45.7453 31.0676 45.6515 30.9 45.538C30.2629 44.9872 29.6338 44.4283 29.0247 43.8495C28.7087 43.5461 28.4179 43.2177 28.1551 42.8675C27.9975 42.6893 27.9068 42.4622 27.8986 42.2249C27.8986 42.0971 28.2192 41.9175 28.4035 41.9095C28.6088 41.8904 28.8076 41.8278 28.9866 41.7259C29.1656 41.624 29.3206 41.4852 29.4414 41.3187C31.1044 39.4665 32.7834 37.6263 34.4545 35.7781C34.6148 35.6025 34.7631 35.4109 34.9394 35.1954C34.3623 34.9199 33.8534 34.6844 33.3365 34.4329C32.7274 34.1295 32.7153 33.9819 33.2523 33.5987C33.7893 33.2154 34.2862 32.9001 34.7671 32.5049C34.9624 32.3415 35.0919 32.1132 35.1317 31.8622C35.284 30.2935 35.272 30.2895 33.8213 29.6189C33.0199 29.2556 33.0199 29.1438 33.7572 28.6289C33.9006 28.5092 34.0534 28.4011 34.214 28.3056C35.0476 27.9064 35.304 27.2797 35.2479 26.3576C35.1597 24.9645 35.2239 23.5633 35.2239 22.0026C35.5405 22.294 35.6567 22.4856 35.817 22.5335C36.5543 22.761 37.2997 22.9326 38.041 23.1522V23.4516L36.9029 23.5394L35.7288 23.6432C35.7288 24.9126 35.7288 26.0382 35.7288 27.1839C35.7645 27.4525 35.8986 27.6985 36.1055 27.8745C36.5274 28.2116 36.966 28.5274 37.4199 28.8205C37.7605 29.06 37.7364 29.2796 37.3838 29.4752C37.2586 29.551 37.1238 29.61 36.9831 29.6508C35.861 29.9063 35.5485 30.6128 35.7168 31.6946C35.719 31.8746 35.7654 32.0512 35.8521 32.2092C35.9387 32.3672 36.0628 32.5016 36.2137 32.6007C36.7226 32.9201 37.2115 33.2793 37.6964 33.6346C38.1212 33.9499 38.0971 34.1495 37.6323 34.385C37.0793 34.6605 36.5142 34.9199 35.8891 35.2193L37.6403 40.5164L41.0665 32.2295C40.5696 32.0019 40.1208 31.8023 39.6759 31.5908C39.1029 31.3193 39.0428 31.0838 39.5998 30.8164C41.0264 30.1298 41.4031 29.0201 41.2308 27.5431C41.1966 26.8161 41.218 26.0875 41.2949 25.3636L44.0198 26.3296V26.5452C43.7165 26.607 43.4102 26.6537 43.1022 26.6849C42.8337 26.6849 42.5612 26.633 42.3007 26.645C41.9 26.6689 41.6235 26.8087 41.6996 27.3396C41.7566 27.8703 41.7566 28.4056 41.6996 28.9363C41.6619 29.1587 41.6968 29.3873 41.7992 29.5885C41.9017 29.7897 42.0662 29.9529 42.2686 30.054C42.7896 30.3613 43.2625 30.7525 43.9076 31.2235L41.7958 32.2374C43.1222 35.371 44.4245 38.4367 45.767 41.5981C45.8591 41.3347 45.9193 41.199 45.9593 41.0632C47.6712 35.5061 47.778 29.5813 46.2679 23.9665C45.434 20.7321 43.9971 17.6827 42.0322 14.9771C41.9545 14.8727 41.8545 14.7867 41.7395 14.7253C41.6245 14.6639 41.4973 14.6285 41.367 14.6218C39.7115 14.9512 38.0062 14.9431 36.3539 14.5978C34.5631 14.2047 32.7222 14.0889 30.896 14.2545C30.0465 14.3583 30.0505 14.3783 29.9423 13.4242C30.2268 13.3444 30.5194 13.2526 30.8159 13.1848C32.6554 12.8252 34.5395 12.7498 36.402 12.9612C37.6014 13.1247 38.8224 12.9273 39.9083 12.3944C39.3914 11.9114 38.8985 11.4962 38.4657 11.0252C37.9769 10.4943 37.5561 10.4704 36.8628 10.7897C35.9572 11.1493 35.0174 11.4168 34.0578 11.588C32.5751 11.9433 31.0844 12.2667 29.5376 12.6179L29.1128 11.9593C31.0123 10.5103 33.7091 10.7338 35.4283 8.82575L32.8276 7.56434L28.4196 11.3366L27.8265 10.9853C28.2272 9.29677 29.7139 8.33476 30.5795 6.82188L27.4818 6.38279L26.9569 10.7737H25.9992L25.4662 6.38279L22.3445 6.87777C23.3424 8.35871 24.7489 9.37262 25.1737 11.0172L24.5646 11.3486L20.0925 7.59228L17.4357 8.91755C17.64 9.06525 17.7602 9.14508 17.8684 9.23689C18.9063 10.0911 20.1807 10.4344 21.4149 10.8536C22.2564 11.1489 23.0619 11.5362 23.9234 11.8954L23.3904 12.6938C22.2123 12.3784 21.1063 12.0231 19.9722 11.7996C18.4254 11.5002 16.8386 11.3805 15.4481 10.5223C15.3813 10.4969 15.3089 10.4899 15.2384 10.5018C15.168 10.5137 15.102 10.5442 15.0473 10.5901C14.3741 11.1689 13.7169 11.7637 13.0037 12.4024C13.8262 12.8366 14.7505 13.0434 15.6805 13.0011C16.9868 13.0011 18.2972 12.8494 19.6036 12.9053C20.7657 12.9572 21.9198 13.2007 23.1059 13.3644L22.8455 14.3942C20.7336 13.9951 18.6899 14.2346 16.6622 14.6098C15.0812 14.9638 13.4435 14.9856 11.8535 14.6737C11.6661 14.6029 11.4589 14.6046 11.2727 14.6785C11.0865 14.7524 10.9349 14.8931 10.8477 15.0729C9.5868 16.8505 8.54416 18.7723 7.74212 20.7971C5.99063 25.2264 5.31505 30.0054 5.77053 34.7443C5.91479 36.341 6.27946 37.8858 6.57199 39.4506C6.6013 39.5445 6.65309 39.6299 6.72289 39.6994C6.7927 39.769 6.87844 39.8205 6.97271 39.8498C7.14903 39.8857 7.49367 39.7859 7.53775 39.6622C7.73811 39.1033 7.8583 38.5205 8.00657 37.9457L7.00475 37.7142V37.5146C7.20915 37.446 7.4224 37.407 7.63793 37.3988C7.71816 37.4195 7.80215 37.4212 7.88315 37.4036C7.96415 37.3861 8.03986 37.3498 8.1042 37.2978C8.16855 37.2457 8.21969 37.1794 8.25355 37.104C8.2874 37.0286 8.303 36.9464 8.29909 36.8639C8.36721 36.333 8.39528 35.7981 8.47142 35.2672C8.53153 34.868 8.35519 34.6764 8.00255 34.5287C7.50565 34.3172 7.02883 34.0537 6.53593 33.8102C6.6281 33.6386 6.64414 33.5667 6.69222 33.5348C7.17309 33.1755 7.66193 32.8242 8.14681 32.469C8.29822 32.3838 8.42228 32.2576 8.50444 32.1049C8.5866 31.9523 8.62353 31.7795 8.61093 31.6067C8.59834 31.434 8.53671 31.2684 8.43327 31.1291C8.32982 30.9899 8.1888 30.8828 8.02662 30.8204L6.65211 30.1258C7.22916 29.6987 7.65394 29.3275 8.12279 29.048C8.28219 28.9583 8.41227 28.8248 8.49754 28.6634C8.58281 28.502 8.61964 28.3196 8.60364 28.1379C8.60364 27.2398 8.65978 26.3416 8.69184 25.4874L11.1443 26.3177L11.1162 26.5652C10.7435 26.5652 10.3708 26.5651 10.0062 26.625C9.64152 26.6849 9.28893 26.6689 9.09658 26.8605C8.75596 27.2038 9.12461 28.7447 9.52934 29.044C9.93408 29.3434 10.427 29.7226 10.98 30.1418C10.451 30.4052 10.0863 30.5928 9.71767 30.7725C8.85211 31.1717 8.79599 31.97 9.60145 32.5368C9.906 32.7524 10.2226 32.936 10.5111 33.1875C10.7032 33.3609 10.8826 33.5476 11.0481 33.7463C10.8488 33.9119 10.6356 34.0601 10.4109 34.1894C9.0204 34.8321 9.0164 34.8281 9.20874 36.2931C9.20874 36.4328 9.2929 36.5685 9.30893 36.6923C9.36102 37.1633 9.53333 37.4667 10.1104 37.3828C10.2999 37.3939 10.4852 37.4428 10.6554 37.5265V37.6942L9.67761 37.9297L10.0783 39.3867C10.1905 39.1752 10.2426 39.0953 10.2787 39.0075C11.2324 36.7827 12.1821 34.5567 13.1279 32.3293C13.2013 32.139 13.2433 31.9381 13.2521 31.7345C13.3803 30.1737 13.3803 30.1697 11.9898 29.4712C11.5891 29.2716 11.4167 29.0121 11.9056 28.7926C13.2761 28.1858 13.5326 27.108 13.3803 25.7628C13.3262 24.996 13.3262 24.2264 13.3803 23.4596C13.3803 23.0085 13.4644 22.5574 13.5085 22.0784C13.6969 22.262 13.8091 22.4536 13.9654 22.5055C14.6947 22.737 15.44 22.9287 16.1814 23.1362V23.4316L15.0393 23.5154L13.8692 23.6232C13.8692 24.8727 13.9012 25.9903 13.8692 27.104C13.8441 27.3264 13.8879 27.5511 13.9946 27.748C14.1013 27.9449 14.2659 28.1046 14.4663 28.2058C14.891 28.4612 15.2678 28.7886 15.8047 29.1798C15.1876 29.4672 14.7708 29.6867 14.334 29.8623C14.1874 29.9081 14.0618 30.0043 13.9796 30.1337C13.8974 30.263 13.864 30.4173 13.8852 30.5689C13.8482 31.4581 14.0283 32.343 14.4102 33.1476C14.8469 34.0218 15.2116 34.9359 15.6123 35.8779C16.8706 34.0697 16.0892 32.0219 16.6583 30.1777C16.7553 30.8919 16.7928 31.6129 16.7704 32.3332C16.7704 33.4949 16.8025 34.6325 17.3595 35.7183C17.8444 36.6524 18.161 37.6623 18.5617 38.6403C18.69 39.0035 18.8222 39.3149 19.0065 39.7579ZM9.64156 47.0429C10.0824 47.7135 10.3668 48.1965 10.7075 48.6396C10.779 48.7108 10.865 48.7657 10.9598 48.8009C11.0545 48.836 11.1556 48.8504 11.2564 48.8432C12.6029 48.7314 13.9413 48.5199 15.2918 48.468C19.1949 48.3243 23.0418 48.939 26.8848 49.5018C29.4574 49.8771 32.0221 50.3681 34.6348 50.1046C36.8669 49.8771 39.0869 49.5817 41.3109 49.3062C41.5775 49.2952 41.8316 49.1906 42.0282 49.0109C42.5451 48.3283 42.998 47.5938 43.555 46.7595C43.2064 46.8274 43.026 46.8553 42.8457 46.8992C39.8167 47.647 36.7095 48.0356 33.5889 48.0568C30.3831 48.0568 27.2615 47.5219 24.1198 47.0269C21.2225 46.5719 18.3092 46.1967 15.3679 46.4242C13.5125 46.5599 11.6772 46.8154 9.64156 47.0429ZM12.4987 50.6675L12.3945 50.9229C13.0077 51.5057 13.5967 52.0965 14.2499 52.6593C14.4024 52.7553 14.5844 52.7935 14.7628 52.7671C18.193 52.4398 21.5751 52.9747 24.9332 53.4776C28.2913 53.9806 31.6254 54.4836 35.0315 54.4397C35.599 54.4612 36.1648 54.3659 36.6936 54.1599C37.2224 53.9538 37.7029 53.6414 38.1051 53.2421C38.618 52.7312 39.175 52.2642 39.708 51.7811C39.5695 51.7157 39.4136 51.6961 39.2632 51.7253C35.933 52.2598 32.5432 52.3162 29.197 51.8929C25.0214 51.3181 20.8739 50.5038 16.6382 50.4998C15.2597 50.5038 13.8772 50.6076 12.4987 50.6675ZM32.535 56.4196C27.2735 56.1921 22.2684 54.7909 17.043 54.7111C21.3347 57.7448 27.7824 58.4394 32.535 56.4196ZM29.5416 41.8576C30.7197 41.8576 31.7456 41.8576 32.7755 41.8376C32.9077 41.8376 33.092 41.6181 33.1441 41.4664C33.3645 40.8197 33.5449 40.1611 33.7372 39.5065C34.0444 38.442 34.3503 37.3775 34.6548 36.3131L34.5266 36.2452L29.5416 41.8576ZM40.9984 35.83C40.3812 38.5804 39.7521 41.3746 39.0909 44.3085C39.696 44.2207 40.2049 44.1688 40.6938 44.0571C40.7724 44.021 40.8403 43.9653 40.8908 43.8954C40.9414 43.8254 40.9729 43.7436 40.9823 43.6579C41.0023 41.0513 40.9984 38.4247 40.9984 35.83ZM40.9262 34.1974L40.814 34.1655C39.8549 36.4488 38.9012 38.732 37.9528 41.0153C37.9129 41.087 37.8987 41.1701 37.9127 41.2509C38.1812 42.0013 38.4618 42.7478 38.7944 43.6459L40.9262 34.1974ZM45.3983 41.8217L42.0923 34.1894L41.9601 34.2373C42.5652 36.7601 43.1623 39.2829 43.7754 41.8217H45.3983ZM13.1399 33.898L13.0517 33.8461C12.9716 34.0098 12.8834 34.1695 12.8113 34.3371C12.0098 36.1999 11.2084 38.0628 10.4069 39.9256C10.2637 40.3165 10.2742 40.7468 10.4362 41.1303C10.5982 41.5138 10.8998 41.8221 11.2805 41.9933C11.9097 39.2789 12.5268 36.5925 13.1399 33.898ZM41.928 43.3545L42.1164 43.4144C42.4397 43.1009 42.7461 42.7705 43.034 42.4244C43.2053 42.2261 43.2967 41.9715 43.2905 41.7099C42.8697 39.7779 42.4089 37.8579 41.928 35.7901V43.3545ZM13.1679 35.6225C12.7271 37.5745 12.2943 39.4586 11.8776 41.3467C11.6251 42.4683 11.6732 42.5442 12.7953 42.8436C12.9182 42.8717 13.0426 42.893 13.1679 42.9075V35.6225ZM36.6946 43.0631C36.947 42.2648 37.4399 41.5702 37.3197 40.9834C36.9534 39.5125 36.5066 38.0626 35.9813 36.6404C35.8891 38.1892 35.9212 39.71 35.8771 41.2309C35.8702 41.5773 35.9398 41.921 36.0811 42.2377C36.2223 42.5543 36.4318 42.8361 36.6946 43.0631ZM17.9566 41.167C18.6739 40.3687 18.714 40.1771 18.3253 39.219C18.0808 38.6083 17.8404 37.9936 17.5919 37.3828C17.3876 36.8879 17.1912 36.3929 16.9027 35.7302C16.8386 37.7461 16.7424 39.5743 17.9566 41.167ZM14.883 39.1193C14.4864 39.7036 14.2197 40.3655 14.1009 41.0609C13.982 41.7562 14.0137 42.4688 14.1938 43.151L15.7967 42.8556L14.883 39.1193ZM35.0396 41.8376V36.4448L33.5007 41.8376H35.0396ZM21.3387 35.8979L19.4994 39.8298H21.3387V35.8979ZM15.6004 37.1713C15.432 37.6742 15.1355 38.0854 15.1996 38.4367C15.424 39.718 15.7646 40.9794 16.0611 42.2448C16.3376 38.776 16.3096 38.4566 15.5843 37.1713H15.6004ZM38.3776 44.1569L38.4898 44.0132C38.2293 43.3106 37.9689 42.6081 37.6483 41.7578C37.3878 42.3845 37.1834 42.8635 36.955 43.4104L38.3776 44.1569ZM14.0495 39.6262C14.3887 39.0602 14.5678 38.4133 14.5678 37.7541C14.5678 37.0949 14.3887 36.448 14.0495 35.8819V39.6262ZM14.9271 37.3868L15.0954 37.4267C15.1796 37.0914 15.408 36.7042 15.3118 36.4248C15.0193 35.5506 14.6065 34.7163 14.2379 33.8701L14.1257 33.906L14.9271 37.3868ZM36.6625 34.425H34.214C35.0436 35.0716 35.837 35.1435 36.6465 34.425H36.6625ZM36.9791 33.7104L37.0352 33.6026L35.833 32.7644V33.7104H36.9791ZM36.4942 29.4831H34.4425C35.4964 30.0979 35.5365 30.0979 36.4782 29.4831H36.4942ZM35.1117 32.7524L33.7612 33.7024H35.1117V32.7524ZM7.77015 34.0297C8.87615 34.6764 9.18872 34.6644 9.86995 34.0297H7.77015ZM42.4971 31.5668H40.4654C41.1506 32.1137 41.7998 32.1377 42.481 31.5668H42.4971ZM12.7632 29.4592C13.5366 30.034 13.761 30.03 14.4422 29.4592H12.7632ZM9.20473 33.451H10.3789L9.20473 32.6526V33.451ZM8.65173 32.5887L7.53775 33.3871C7.69032 33.4798 7.86853 33.5218 8.04663 33.5068C8.20291 33.5068 8.36321 33.4829 8.55155 33.4669L8.65173 32.5887ZM7.99458 39.8298C8.53556 39.8537 8.67179 39.251 8.42735 38.1373L7.99458 39.8298ZM34.0738 28.8724H35.2078V28.074L34.0738 28.8724ZM9.33299 38.1173C9.18472 39.714 9.24484 39.9256 9.79384 39.7779L9.33299 38.1173ZM35.7809 28.8564H36.8789L35.7809 28.098V28.8564ZM7.98255 30.4092C8.91223 30.988 9.06048 30.9841 9.66959 30.4092H7.98255ZM17.047 41.9854C17.6761 41.5862 17.6761 41.4185 17.047 40.5802V41.9854ZM42.8858 30.8962L41.7838 30.1218V30.8962H42.8858ZM8.61167 29.1838L7.73811 29.7346L7.7862 29.8384H8.61167V29.1838ZM9.12461 29.1838L9.16066 29.8384H10.1465L9.12461 29.1838ZM40.0406 30.9042H41.1145V30.1538L40.0406 30.9042Z" fill="black"/>
<path d="M19.0065 39.7579C18.8222 39.3149 18.6899 39.0035 18.5617 38.6882C18.161 37.7102 17.8284 36.6923 17.3595 35.7662C16.8025 34.6804 16.7664 33.5427 16.7704 32.3811C16.7928 31.6608 16.7553 30.9398 16.6582 30.2256C16.0892 32.0698 16.8706 34.1176 15.6123 35.9258C15.2116 34.9838 14.8509 34.0697 14.4101 33.1955C14.0283 32.3909 13.8482 31.506 13.8852 30.6168C13.8639 30.4652 13.8974 30.3109 13.9796 30.1816C14.0617 30.0522 14.1873 29.956 14.334 29.9103C14.7708 29.7346 15.1876 29.5111 15.8047 29.2277C15.2717 28.8285 14.891 28.5091 14.4662 28.2537C14.2658 28.1525 14.1013 27.9928 13.9946 27.7959C13.8879 27.599 13.8441 27.3743 13.8692 27.1519C13.9132 26.0382 13.8692 24.9206 13.8692 23.6711L15.0393 23.5633L16.1813 23.4795V23.1841C15.44 22.9766 14.6946 22.7849 13.9653 22.5534C13.809 22.5015 13.6968 22.3099 13.5085 22.1263C13.4644 22.6053 13.3923 23.0564 13.3803 23.5075C13.3262 24.2743 13.3262 25.0439 13.3803 25.8107C13.5326 27.1559 13.2761 28.2337 11.9056 28.8404C11.4167 29.06 11.589 29.3195 11.9898 29.5191C13.3803 30.2176 13.3803 30.2216 13.2521 31.7824C13.2432 31.986 13.2013 32.1869 13.1278 32.3772C12.1848 34.6072 11.2351 36.8333 10.2787 39.0554C10.2426 39.1432 10.1905 39.223 10.0783 39.4346L9.67758 37.9776L10.6553 37.7421V37.5744C10.4851 37.4907 10.2998 37.4418 10.1103 37.4307C9.54933 37.5146 9.37702 37.2112 9.30889 36.7402C9.30889 36.5965 9.22474 36.4607 9.20871 36.341C9.01636 34.876 9.02037 34.88 10.4109 34.2373C10.6356 34.108 10.8488 33.9598 11.0481 33.7942C10.8826 33.5955 10.7031 33.4088 10.5111 33.2354C10.2225 32.9999 9.90597 32.8003 9.60141 32.5847C8.79996 32.0139 8.85207 31.2395 9.71764 30.8204C10.0863 30.6407 10.451 30.4531 10.9799 30.1897C10.4269 29.7905 9.98213 29.4272 9.52931 29.0919C9.07649 28.7566 8.75593 27.2517 9.09654 26.9084C9.28889 26.7168 9.69358 26.7128 10.0062 26.6729C10.3187 26.633 10.7435 26.633 11.1162 26.6131L11.1442 26.3656L8.69181 25.5353C8.65975 26.3895 8.5996 27.2877 8.60361 28.1858C8.61961 28.3675 8.58278 28.5499 8.49751 28.7113C8.41224 28.8727 8.28215 29.0062 8.12276 29.0959C7.65391 29.3873 7.22912 29.7466 6.65208 30.1737L8.02659 30.8683C8.18877 30.9307 8.32979 31.0378 8.43323 31.177C8.53668 31.3163 8.5983 31.4819 8.6109 31.6546C8.6235 31.8274 8.58657 32.0002 8.50441 32.1528C8.42225 32.3055 8.29819 32.4317 8.14678 32.5169C7.6619 32.8721 7.17306 33.2234 6.69219 33.5827C6.6441 33.6146 6.62807 33.6865 6.5359 33.8581C7.02879 34.1016 7.50562 34.3651 8.00252 34.5766C8.35516 34.7243 8.5315 34.9119 8.47139 35.3151C8.39525 35.846 8.36718 36.3809 8.29905 36.9118C8.30297 36.9943 8.28737 37.0765 8.25351 37.1519C8.21966 37.2273 8.16851 37.2937 8.10417 37.3457C8.03983 37.3978 7.96411 37.434 7.88312 37.4516C7.80212 37.4691 7.71813 37.4674 7.6379 37.4467C7.42237 37.4549 7.20911 37.4939 7.00472 37.5625V37.7621L8.00653 37.9936C7.85826 38.5684 7.73808 39.1512 7.53771 39.71C7.49363 39.8338 7.13698 39.9336 6.97268 39.8976C6.87841 39.8684 6.79267 39.8169 6.72286 39.7473C6.65305 39.6778 6.60127 39.5924 6.57195 39.4985C6.27942 37.9337 5.91476 36.3729 5.7705 34.7922C5.31502 30.0533 5.9906 25.2743 7.74209 20.845C8.54413 18.8202 9.58676 16.8984 10.8477 15.1207C10.9349 14.941 11.0865 14.8003 11.2727 14.7264C11.4589 14.6525 11.6661 14.6508 11.8535 14.7216C13.4434 15.0335 15.0812 15.0117 16.6622 14.6577C18.6899 14.2825 20.7336 14.059 22.8454 14.4422L23.1059 13.4123C21.9037 13.2486 20.7657 13.0131 19.6036 12.9532C18.2972 12.8973 16.9868 13.0331 15.6804 13.049C14.7505 13.0913 13.8262 12.8845 13.0036 12.4503C13.7169 11.8116 14.3741 11.2168 15.0473 10.638C15.102 10.5921 15.1679 10.5616 15.2384 10.5497C15.3088 10.5378 15.3812 10.5448 15.448 10.5701C16.8386 11.4284 18.4254 11.5481 19.9722 11.8475C21.1063 12.0711 22.2123 12.4263 23.3904 12.7417L23.9234 11.9433C23.0618 11.5841 22.2564 11.1968 21.4149 10.9014C20.1806 10.4663 18.9063 10.139 17.8684 9.28479C17.7602 9.19298 17.64 9.11315 17.4356 8.96545L20.0924 7.64018L24.5646 11.3964L25.1737 11.0651C24.7289 9.42052 23.3423 8.40661 22.3445 6.92566L25.4662 6.43069L25.9991 10.8216H26.9569L27.4818 6.43069L30.5795 6.86977C29.7139 8.38265 28.2352 9.34466 27.8265 11.0332L28.4195 11.3845L32.8275 7.61223L35.4282 8.87365C33.7091 10.7817 31.0202 10.5582 29.1128 12.0072L29.5375 12.6658C31.0843 12.3145 32.575 11.9912 34.0577 11.6359C35.0174 11.4647 35.9572 11.1972 36.8628 10.8376C37.548 10.5182 37.9688 10.5422 38.4657 11.0731C38.8985 11.5441 39.3914 11.9593 39.9083 12.4423C38.8224 12.9752 37.6013 13.1726 36.402 13.0091C34.5394 12.7977 32.6554 12.8731 30.8159 13.2326C30.5193 13.3005 30.2268 13.3923 29.9423 13.4721C30.0505 14.4262 30.0465 14.4062 30.896 14.3024C32.7222 14.1368 34.5631 14.2526 36.3539 14.6457C38.0061 14.991 39.7115 14.9991 41.367 14.6697C41.4973 14.6764 41.6245 14.7118 41.7395 14.7732C41.8545 14.8346 41.9544 14.9206 42.0322 15.0249C43.9971 17.7306 45.4339 20.78 46.2678 24.0144C47.778 29.6292 47.6711 35.5541 45.9593 41.1112C45.9192 41.2469 45.8591 41.3826 45.7669 41.646C44.4245 38.4846 43.1222 35.4189 41.7958 32.2853L43.9076 31.2714C43.2624 30.8004 42.7895 30.4092 42.2686 30.1019C42.0661 30.0008 41.9016 29.8376 41.7992 29.6364C41.6968 29.4352 41.6619 29.2066 41.6996 28.9842C41.7566 28.4534 41.7566 27.9182 41.6996 27.3875C41.6235 26.8566 41.8799 26.7168 42.3007 26.6929C42.5692 26.6929 42.8417 26.7528 43.1021 26.7328C43.4102 26.7016 43.7164 26.6549 44.0198 26.5931V26.3775L41.2949 25.4115C41.218 26.1354 41.1966 26.864 41.2307 27.591C41.403 29.068 41.0264 30.1777 39.5998 30.8643C39.0428 31.1317 39.1029 31.3672 39.6759 31.6387C40.1207 31.8502 40.5695 32.0379 41.0664 32.2774L37.6402 40.5643L35.8891 35.2672C36.5142 34.9678 37.0912 34.7083 37.6322 34.4329C38.1051 34.1974 38.1211 33.9978 37.6963 33.6825C37.2115 33.3272 36.7226 32.968 36.2136 32.6486C36.0628 32.5495 35.9387 32.4151 35.852 32.2571C35.7654 32.0991 35.719 31.9224 35.7167 31.7425C35.5484 30.6607 35.861 29.9542 36.983 29.6987C37.1238 29.6579 37.2585 29.5989 37.3838 29.523C37.7364 29.3275 37.7604 29.1239 37.4198 28.8684C36.966 28.5752 36.5273 28.2595 36.1054 27.9223C35.8986 27.7464 35.7645 27.5004 35.7288 27.2318C35.6887 26.0981 35.7288 24.9605 35.7288 23.6911L36.9029 23.5873L38.041 23.4995V23.2001C37.2996 22.9965 36.5543 22.8009 35.8169 22.5814C35.6566 22.5335 35.5404 22.3419 35.2239 22.0505C35.2239 23.6073 35.1597 25.0124 35.2479 26.4055C35.304 27.3276 35.0475 27.9543 34.214 28.3535C34.0533 28.449 33.9006 28.5571 33.7572 28.6768C33.0319 29.1917 33.0359 29.3035 33.8213 29.6667C35.2719 30.3374 35.284 30.3414 35.1317 31.9101C35.0919 32.1611 34.9624 32.3894 34.767 32.5528C34.2861 32.952 33.7572 33.2833 33.2523 33.6466C32.7473 34.0098 32.7273 34.1774 33.3364 34.4808C33.8333 34.7323 34.3423 34.9678 34.9394 35.2433C34.763 35.4588 34.6147 35.6424 34.4544 35.826C32.7834 37.6742 31.1044 39.5144 29.4414 41.3666C29.3206 41.5331 29.1656 41.6719 28.9866 41.7738C28.8076 41.8757 28.6088 41.9383 28.4035 41.9574C28.2192 41.9574 27.9106 42.145 27.8986 42.2728C27.9068 42.5101 27.9975 42.7372 28.155 42.9154C28.4178 43.2656 28.7087 43.594 29.0246 43.8974C29.6337 44.4762 30.2628 45.035 30.9 45.5859C31.0675 45.6994 31.2478 45.7932 31.437 45.8653L31.4009 46.025L20.6214 44.4922C21.1784 44.2407 21.5751 44.093 21.9598 43.8814C22.9716 43.3769 23.7987 42.5684 24.3241 41.5702C24.4363 41.3467 24.6968 41.207 24.8491 41.0034C25.0013 40.7998 25.1456 40.5044 25.2938 40.2569C25.0608 40.1242 24.8199 40.0055 24.5726 39.9016C24.4004 39.8633 24.2239 39.8472 24.0476 39.8537V37.3629L26.472 37.2112L26.5041 36.9438L23.699 36.0017V39.8338H22.1602C22.1161 38.7121 22.1602 37.5704 22.0039 36.4567C21.7595 34.6884 22.5209 33.2633 23.3664 31.6666L25.4381 32.6366L25.6145 32.3851C25.0695 31.8463 24.5165 31.3153 24.0115 30.7605C23.8873 30.6288 23.8673 30.4052 23.731 30.042L22.088 33.3991H21.9839L21.8516 30.6048H21.6152C21.5832 31.8024 21.5671 32.9999 21.511 34.1974C21.4926 34.5436 21.4098 34.8834 21.2666 35.1994C20.5292 36.6643 19.7959 38.1413 19.0065 39.7579ZM25.7346 16.4181C25.1336 16.1347 24.5725 15.8233 23.9795 15.6197C21.9277 14.8653 19.9722 15.2884 18.0688 16.1786C16.5139 16.9051 15.0032 17.7473 13.26 18.0587C13.1752 18.0787 13.0967 18.1195 13.0317 18.1774C12.9666 18.2352 12.917 18.3083 12.8874 18.39C12.8789 18.4869 12.893 18.5845 12.9284 18.6752C12.9638 18.7659 13.0197 18.8472 13.0918 18.9129C13.371 19.1236 13.699 19.2608 14.0455 19.3121C15.2179 19.4211 16.3973 19.4344 17.5719 19.352C19.4753 19.1405 20.1285 19.352 21.0943 20.9487C21.2666 21.2322 21.4549 21.5076 21.6192 21.795C21.9959 22.4616 21.9358 22.7051 21.2986 23.1322C20.6615 23.5593 20.0604 23.9026 19.4954 24.3537C18.738 24.9565 18.5697 25.5512 18.9143 26.1141C19.259 26.6769 19.832 26.7168 20.7496 26.2578C21.2426 25.9787 21.8115 25.8621 22.375 25.9244C22.9386 25.9868 23.4678 26.225 23.8873 26.6051C24.1591 26.8887 24.4554 27.1478 24.7729 27.3795C25.0869 27.5556 25.4492 27.6269 25.8068 27.5831C25.9511 27.5511 26.0673 27.0721 26.0953 26.7847C26.1634 26.1261 26.1194 25.4554 26.2035 24.7888C26.2877 24.1222 26.512 23.9905 27.1853 24.1182C27.5953 24.2202 28.0282 24.1786 28.4112 24.0006C28.7942 23.8225 29.1041 23.5188 29.2891 23.1402C29.6417 22.4975 29.9222 21.8549 30.7077 21.6313C30.8414 21.5689 30.9501 21.4634 31.0162 21.3319C31.8177 20.0306 33.0559 19.847 34.4023 20.1105C36.6584 20.5535 38.4096 19.6155 40.0125 18.1944C40.0825 18.1269 40.1359 18.0443 40.1685 17.9529C40.2012 17.8615 40.2123 17.7638 40.2009 17.6675C40.1484 17.5847 40.0793 17.5136 39.9979 17.4586C39.9166 17.4037 39.8247 17.3661 39.728 17.3482C39.4275 17.2763 39.0948 17.3242 38.8063 17.2364C37.2595 16.7614 35.7328 16.2384 34.186 15.7754C32.4068 15.2405 30.6115 14.8254 28.7722 15.6078C28.729 15.3821 28.6714 15.1595 28.5998 14.9411C28.3701 14.2128 28.0819 13.5039 27.7383 12.8215C27.1452 11.8036 26.0913 11.7477 25.3099 12.6299C25.0596 12.9326 24.8294 13.2513 24.6207 13.5839C24.3842 13.9272 24.4403 14.2506 24.817 14.4102C25.7908 14.8294 25.7026 15.6437 25.7346 16.4181Z" fill="white"/>
<path d="M9.64156 47.0429C11.6452 46.8154 13.5125 46.5599 15.3679 46.4162C18.3092 46.1887 21.2225 46.5639 24.1198 47.019C27.2615 47.5139 30.3992 48.0368 33.5889 48.0488C36.7095 48.0276 39.8167 47.639 42.8457 46.8912C43.026 46.8473 43.2063 46.8194 43.555 46.7515C42.998 47.5858 42.5451 48.3203 42.0282 49.0029C41.8316 49.1826 41.5775 49.2872 41.3109 49.2982C39.0868 49.5777 36.8669 49.8731 34.6348 50.0966C32.0221 50.3601 29.4574 49.8691 26.8847 49.4939C23.0418 48.931 19.1948 48.2963 15.2918 48.46C13.9413 48.5119 12.6029 48.7234 11.2564 48.8352C11.1556 48.8424 11.0545 48.828 10.9598 48.7929C10.865 48.7578 10.779 48.7028 10.7074 48.6316C10.3668 48.1965 10.0743 47.7135 9.64156 47.0429Z" fill="white"/>
<path d="M12.4987 50.6675C13.8772 50.6076 15.2597 50.5038 16.6422 50.5038C20.8779 50.5038 25.0254 51.3021 29.201 51.8969C32.5472 52.3202 35.937 52.2638 39.2672 51.7293C39.4176 51.7001 39.5735 51.7197 39.712 51.7851C39.175 52.2681 38.618 52.7352 38.1091 53.2461C37.7069 53.6454 37.2264 53.9578 36.6976 54.1639C36.1688 54.3699 35.603 54.4652 35.0355 54.4436C31.6294 54.4876 28.2873 53.9806 24.9372 53.4816C21.5872 52.9827 18.197 52.4438 14.7668 52.7711C14.5884 52.7975 14.4064 52.7593 14.2539 52.6633C13.6208 52.1005 13.0117 51.5097 12.3985 50.9269L12.4987 50.6675Z" fill="white"/>
<path d="M32.535 56.4196C27.7824 58.4434 21.3147 57.7448 17.043 54.7111C22.2684 54.7909 27.2735 56.1921 32.535 56.4196Z" fill="white"/>
<path d="M29.5416 41.8576L34.5266 36.2691L34.6548 36.337C34.3503 37.4015 34.0444 38.4659 33.7372 39.5304C33.5448 40.1851 33.3645 40.8437 33.1441 41.4904C33.092 41.642 32.9077 41.8576 32.7754 41.8616C31.7456 41.8696 30.7197 41.8576 29.5416 41.8576Z" fill="white"/>
<path d="M40.9984 35.83C40.9984 38.4247 40.9983 41.0513 40.9983 43.6739C40.989 43.7596 40.9574 43.8414 40.9069 43.9113C40.8563 43.9813 40.7884 44.037 40.7098 44.073C40.2169 44.1848 39.708 44.2367 39.1069 44.3245C39.752 41.3746 40.3812 38.5804 40.9984 35.83Z" fill="white"/>
<path d="M40.9302 34.1974L38.7943 43.6699C38.4617 42.7677 38.1812 42.0213 37.9127 41.2748C37.8987 41.194 37.9128 41.1109 37.9528 41.0393C38.9038 38.756 39.8576 36.4727 40.814 34.1894L40.9302 34.1974Z" fill="white"/>
<path d="M45.3983 41.8217H43.7754C43.1703 39.2829 42.5732 36.7601 41.9601 34.2373L42.0923 34.1894L45.3983 41.8217Z" fill="white"/>
<path d="M13.1399 33.898C12.5268 36.5925 11.9097 39.2829 11.2926 41.9893C10.9119 41.8181 10.6103 41.5098 10.4482 41.1263C10.2862 40.7428 10.2757 40.3125 10.4189 39.9216C11.2204 38.0588 12.0219 36.1959 12.8233 34.3331C12.8954 34.1655 12.9836 34.0058 13.0637 33.8421L13.1399 33.898Z" fill="white"/>
<path d="M41.928 43.3545L41.928 35.7702C42.4089 37.8379 42.8697 39.7619 43.2905 41.6899C43.2966 41.9515 43.2053 42.2061 43.034 42.4045C42.7461 42.7505 42.4397 43.081 42.1163 43.3944L41.928 43.3545Z" fill="white"/>
<path d="M13.1679 35.6225V42.9075C13.0426 42.893 12.9182 42.8717 12.7953 42.8436C11.6732 42.5402 11.6251 42.4683 11.8776 41.3467C12.2943 39.4586 12.7271 37.5745 13.1679 35.6225Z" fill="white"/>
<path d="M36.6946 43.0631C36.4347 42.8346 36.2283 42.5521 36.0898 42.2356C35.9513 41.919 35.8842 41.5761 35.8931 41.2309C35.9372 39.71 35.8931 38.1892 35.9972 36.6404C36.5226 38.0626 36.9695 39.5125 37.3357 40.9834C37.4399 41.5702 36.947 42.2847 36.6946 43.0631Z" fill="white"/>
<path d="M17.9566 41.167C16.7544 39.5703 16.8386 37.7461 16.9027 35.7302C17.1792 36.3929 17.3876 36.8879 17.5919 37.3828C17.8404 37.9936 18.0808 38.6083 18.3253 39.219C18.714 40.1771 18.6739 40.3846 17.9566 41.167Z" fill="white"/>
<path d="M14.883 39.1193L15.8007 42.8556L14.1978 43.1509C14.0171 42.4691 13.9848 41.7566 14.103 41.0613C14.2211 40.366 14.4871 39.7039 14.883 39.1193Z" fill="white"/>
<path d="M35.0235 41.8376H33.4847L35.0235 36.4448V41.8376Z" fill="white"/>
<path d="M21.3227 35.8979V39.8298H19.4833L21.3227 35.8979Z" fill="white"/>
<path d="M15.5843 37.1713C16.3096 38.4566 16.3377 38.768 16.0411 42.2448C15.7446 40.9794 15.404 39.718 15.1795 38.4367C15.1194 38.0814 15.416 37.6822 15.5843 37.1713Z" fill="white"/>
<path d="M38.3615 44.1569L36.939 43.4104C37.1674 42.8635 37.3718 42.3845 37.6322 41.7578C37.9528 42.6081 38.2133 43.3106 38.4738 44.0132L38.3615 44.1569Z" fill="white"/>
<path d="M14.0335 39.6262V35.8819C14.3727 36.448 14.5518 37.0949 14.5518 37.7541C14.5518 38.4133 14.3727 39.0602 14.0335 39.6262Z" fill="white"/>
<path d="M14.9111 37.3868L14.1096 33.906L14.2218 33.8701C14.5905 34.7163 15.0233 35.5506 15.2958 36.4248C15.392 36.7042 15.1635 37.0914 15.0794 37.4267L14.9111 37.3868Z" fill="white"/>
<path d="M36.6465 34.425C35.845 35.1435 35.0435 35.0716 34.198 34.425H36.6465Z" fill="white"/>
<path d="M36.963 33.7104H35.8129V32.7644L37.0151 33.6026L36.963 33.7104Z" fill="white"/>
<path d="M36.4782 29.4831C35.5365 30.1019 35.4964 30.1059 34.4264 29.4831L36.4782 29.4831Z" fill="white"/>
<path d="M35.0956 32.7524V33.6905H33.7452L35.0956 32.7524Z" fill="white"/>
<path d="M7.7541 34.0297H9.85389C9.17266 34.6644 8.87212 34.6764 7.7541 34.0297Z" fill="white"/>
<path d="M42.481 31.5668C41.7998 32.1377 41.1506 32.1137 40.4494 31.5668L42.481 31.5668Z" fill="white"/>
<path d="M12.7472 29.4592H14.4262C13.745 30.03 13.5206 30.034 12.7472 29.4592Z" fill="white"/>
<path d="M9.18872 33.443V32.6446L10.3628 33.443H9.18872Z" fill="white"/>
<path d="M8.63572 32.5807L8.53554 33.447C8.3472 33.447 8.1869 33.4789 8.03062 33.4869C7.85252 33.5018 7.67426 33.4599 7.52169 33.3671L8.63572 32.5807Z" fill="white"/>
<path d="M7.97853 39.8218L8.41129 38.1293C8.65574 39.243 8.51951 39.8458 7.97853 39.8218Z" fill="white"/>
<path d="M34.0577 28.8644L35.1918 28.066V28.8644H34.0577Z" fill="white"/>
<path d="M9.31694 38.1093L9.77779 39.7699C9.22879 39.9176 9.16867 39.714 9.31694 38.1093Z" fill="white"/>
<path d="M35.7608 28.8484V28.102L36.8588 28.8604L35.7608 28.8484Z" fill="white"/>
<path d="M7.96248 30.4012H9.64952C9.04042 30.9761 8.89216 30.98 7.96248 30.4012Z" fill="white"/>
<path d="M17.0269 41.9933V40.5882C17.656 41.4265 17.656 41.6101 17.0269 41.9933Z" fill="white"/>
<path d="M42.8858 30.8962H41.7838V30.1218L42.8858 30.8962Z" fill="white"/>
<path d="M8.61166 29.1917V29.8464H7.78619L7.7381 29.7426L8.61166 29.1917Z" fill="white"/>
<path d="M9.12461 29.1838L10.1465 29.8384H9.16066L9.12461 29.1838Z" fill="white"/>
<path d="M40.0406 30.8962L41.1145 30.1458V30.8962H40.0406Z" fill="white"/>
<path d="M25.7346 16.4181C25.7106 15.6437 25.7908 14.8214 24.829 14.4222C24.4523 14.2625 24.3962 13.9392 24.6327 13.5959C24.8414 13.2633 25.0716 12.9446 25.3219 12.6419C26.1234 11.7597 27.1572 11.8156 27.7503 12.8335C28.094 13.5159 28.3821 14.2247 28.6119 14.9531C28.6834 15.1714 28.741 15.3941 28.7842 15.6197C30.6235 14.8214 32.4188 15.2525 34.198 15.7874C35.7448 16.2504 37.2716 16.7733 38.8184 17.2484C39.1069 17.3362 39.4395 17.2883 39.7401 17.3601C39.8367 17.378 39.9286 17.4156 40.01 17.4706C40.0914 17.5255 40.1604 17.5967 40.2129 17.6795C40.2243 17.7758 40.2132 17.8735 40.1806 17.9648C40.1479 18.0562 40.0945 18.1389 40.0246 18.2064C38.4217 19.6275 36.6745 20.5655 34.4144 20.1224C33.068 19.859 31.8377 20.0426 31.0283 21.3439C30.9621 21.4754 30.8534 21.5809 30.7197 21.6433C29.9183 21.8668 29.6538 22.5095 29.3011 23.1522C29.1162 23.5307 28.8062 23.8345 28.4232 24.0126C28.0402 24.1906 27.6074 24.2321 27.1973 24.1302C26.5241 24.0024 26.2997 24.1302 26.2156 24.8008C26.1314 25.4714 26.1755 26.122 26.1074 26.7967C26.0793 27.0841 25.9631 27.5631 25.8188 27.595C25.4612 27.6389 25.0989 27.5675 24.7849 27.3914C24.4674 27.1597 24.1711 26.9006 23.8994 26.617C23.4799 26.237 22.9506 25.9988 22.387 25.9364C21.8235 25.874 21.2546 25.9907 20.7617 26.2697C19.844 26.7288 19.2669 26.6689 18.9263 26.126C18.5857 25.5832 18.75 24.9684 19.5074 24.3657C20.0724 23.9146 20.7096 23.5673 21.3107 23.1442C21.9118 22.7211 22.0079 22.4736 21.6312 21.8069C21.4669 21.5195 21.2786 21.2441 21.1063 20.9607C20.1406 19.364 19.5034 19.1484 17.5839 19.364C16.4093 19.4464 15.2299 19.4331 14.0575 19.3241C13.711 19.2728 13.3831 19.1356 13.1038 18.9249C13.0318 18.8592 12.9759 18.7778 12.9404 18.6872C12.905 18.5965 12.891 18.4989 12.8994 18.402C12.929 18.3203 12.9786 18.2472 13.0437 18.1893C13.1087 18.1315 13.1872 18.0907 13.2721 18.0707C14.9992 17.7593 16.51 16.917 18.0808 16.1905C19.9883 15.3004 21.9398 14.8772 23.9915 15.6317C24.5726 15.8233 25.1336 16.1267 25.7346 16.4181ZM25.0815 26.4534C25.1857 25.655 25.2257 24.9365 25.378 24.2619C25.3923 24.1157 25.4361 23.9738 25.5066 23.8448C25.5772 23.7158 25.6731 23.6022 25.7887 23.511C25.9042 23.4197 26.0371 23.3525 26.1793 23.3135C26.3215 23.2745 26.4701 23.2644 26.6163 23.2839C28.2553 23.252 28.8603 22.6173 28.8844 20.9527C28.9204 18.8012 28.2472 16.7933 27.6221 14.7814C27.4584 14.2703 27.2351 13.7799 26.9569 13.3204C26.6924 12.8694 26.3518 12.8534 25.9911 13.2326C25.8442 13.4147 25.7103 13.6067 25.5904 13.8075L25.8148 13.7715C26.0793 14.2785 26.5081 14.7655 26.5842 15.2964C26.9248 17.6914 26.3959 19.9109 24.5365 21.5874C23.2341 22.7849 21.7875 23.7909 20.409 24.8846C20.1726 25.0762 19.9562 25.2838 19.7318 25.4914L19.808 25.7069C21.7314 24.6172 23.4986 24.705 25.0815 26.4534ZM15.2517 18.4698L15.2797 18.6375C16.2535 18.5576 17.2233 18.4698 18.193 18.406C19.6436 18.3062 20.8658 18.6934 21.6352 20.0386C21.8763 20.4737 22.144 20.8936 22.4367 21.296C22.8134 21.795 23.0979 21.8429 23.4986 21.3679C24.1382 20.6385 24.7122 19.8544 25.2137 19.0247C25.7828 18.0347 25.5584 17.428 24.5525 16.8731C23.8228 16.4493 23.0052 16.1976 22.1626 16.1374C21.32 16.0772 20.4748 16.2101 19.6917 16.5258C18.177 17.1047 16.7264 17.8152 15.2517 18.4618V18.4698ZM38.4617 18.2463C36.8588 17.6874 35.312 17.1366 33.7652 16.6256C32.5426 16.209 31.2413 16.0725 29.9583 16.2265C29.3212 16.3063 29.0968 16.5897 29.213 17.1805C29.4534 18.4459 29.7139 19.7113 29.9904 21.0804C30.2413 20.8457 30.4781 20.5964 30.6997 20.334C31.0179 19.9094 31.4406 19.5736 31.927 19.3589C32.4134 19.1443 32.9471 19.058 33.4767 19.1085C33.9345 19.1156 34.3906 19.165 34.8392 19.2562C36.2177 19.5436 37.3557 19.0486 38.4617 18.2383V18.2463Z" fill="black"/>
<path d="M25.0815 26.4534C23.4786 24.705 21.7314 24.6172 19.7959 25.7069L19.7198 25.4914C19.9442 25.2918 20.1606 25.0922 20.397 24.8846C21.7755 23.7909 23.2021 22.765 24.5245 21.5874C26.3839 19.9109 26.9289 17.7034 26.5722 15.2964C26.4961 14.7655 26.0673 14.2785 25.8028 13.7715L25.5784 13.8075C25.6983 13.6068 25.8322 13.4147 25.9791 13.2326C26.3398 12.8335 26.6804 12.8694 26.9449 13.3205C27.2231 13.7799 27.4464 14.2703 27.6101 14.7815C28.2352 16.7773 28.9084 18.8012 28.8724 20.9527C28.8483 22.6173 28.2432 23.252 26.6043 23.2839C26.4581 23.2645 26.3094 23.2745 26.1672 23.3135C26.025 23.3526 25.8922 23.4197 25.7766 23.511C25.6611 23.6023 25.5652 23.7158 25.4946 23.8448C25.4241 23.9738 25.3803 24.1157 25.366 24.2619C25.2258 24.9365 25.1857 25.6351 25.0815 26.4534Z" fill="white"/>
<path d="M15.2517 18.4618C16.7264 17.8152 18.177 17.1047 19.6837 16.5338C20.4666 16.2144 21.3127 16.0781 22.1568 16.1355C23.0009 16.193 23.8205 16.4426 24.5525 16.8651C25.5584 17.432 25.7828 18.0268 25.2137 19.0167C24.7122 19.8464 24.1383 20.6305 23.4986 21.3599C23.0979 21.8349 22.8134 21.787 22.4367 21.288C22.144 20.8856 21.8763 20.4657 21.6352 20.0306C20.8659 18.6854 19.6316 18.2982 18.193 18.398C17.2233 18.4619 16.2535 18.5497 15.2797 18.6295L15.2517 18.4618Z" fill="white"/>
<path d="M38.4617 18.2383C37.3557 19.0367 36.2176 19.5436 34.8552 19.2443C34.4066 19.1531 33.9505 19.1036 33.4927 19.0966C32.9631 19.0461 32.4295 19.1323 31.9431 19.347C31.4567 19.5616 31.034 19.8974 30.7157 20.322C30.4942 20.5845 30.2573 20.8337 30.0064 21.0685C29.7299 19.6993 29.4694 18.4339 29.229 17.1685C29.1128 16.5778 29.3372 16.2943 29.9744 16.2145C31.2573 16.0605 32.5586 16.197 33.7813 16.6137C35.32 17.1286 36.8468 17.6795 38.4617 18.2383Z" fill="white"/>
</g>
<defs>
<clipPath id="clip0_13_1285">
<rect width="53" height="64" fill="white"/>
</clipPath>
</defs>
</svg>
