<svg width="50" height="63" viewBox="0 0 50 63" fill="none" xmlns="http://www.w3.org/2000/svg">
<g clip-path="url(#clip0_13_1263)">
<path d="M49.5903 29.1939C49.5903 29.1939 49.3958 33.3614 49.0535 35.3273C48.3309 38.9838 43.4689 53.9931 25.1119 62.3167C25.0488 62.34 24.9799 62.344 24.9144 62.3281C6.53549 54.0059 1.6676 38.9866 0.945019 35.3273C0.601283 33.3614 0.409668 29.1939 0.409668 29.1939V0L49.5903 0.0099372V29.1939Z" fill="#1D1D1B"/>
<path d="M48.0867 29.1712C48.0867 29.1712 47.9083 33.1229 47.5835 34.9909C46.9034 38.4601 42.347 52.5254 25.0491 60.5893C24.9897 60.6117 24.9245 60.6147 24.8633 60.5978C7.63114 52.4587 2.98558 38.4558 2.30395 34.9867C1.9807 33.1229 1.80225 29.1669 1.80225 29.1669V1.47485L48.1277 1.48905L48.0867 29.1712Z" fill="#FDEB18"/>
<path d="M46.7601 2.802H3.16406V13.7502H46.7601V2.802Z" fill="#1D1D1B"/>
<path d="M46.7308 28.1945C46.7308 28.1945 46.5641 32.0739 46.2583 33.9021C45.6191 37.3088 41.3319 51.1045 25.0491 59.0136C24.994 59.0368 24.9322 59.0398 24.875 59.0222C8.64628 51.0392 4.27278 37.306 3.62919 33.9021C3.32787 32.0739 3.15381 28.1945 3.15381 28.1945V15.313L46.7674 15.3243L46.7308 28.1945Z" fill="#1D1D1B"/>
<path d="M26.7721 29.756L28.3665 55.8966C28.3665 55.8966 26.0261 57.2323 25.09 57.6312C25.0409 57.6526 24.9885 57.666 24.9349 57.6709C24.8843 57.6653 24.8349 57.6519 24.7887 57.6312C23.8584 57.2323 21.5107 55.8966 21.5107 55.8966L23.1095 29.756H26.7721Z" fill="#FDEB18"/>
<path d="M35.0523 50.8817C31.8227 48.7156 32.6286 47.617 32.6286 47.617H34.1513V46.4615C37.8988 46.4615 38.5716 44.3565 38.6272 44.0768C38.6886 43.7631 38.4634 43.7007 38.2703 43.7007H28.4292L28.517 44.6943H37.2844C37.2844 44.6943 36.9568 45.668 33.322 45.6879V46.7H32.2732C32.2183 46.7011 32.1641 46.7126 32.1138 46.7341C31.8636 46.832 31.4321 47.2692 31.6179 48.2699C31.8037 49.2706 32.2981 50.0101 34.3663 51.5474C34.6084 51.3389 34.8375 51.1166 35.0523 50.8817Z" fill="#FBE91E"/>
<path d="M14.8321 50.8817C18.0647 48.7156 17.2573 47.617 17.2573 47.617H15.7331V46.4615C11.9842 46.4615 11.3143 44.3565 11.2602 44.0768C11.1958 43.7631 11.4225 43.7007 11.6156 43.7007H21.4567L21.369 44.6943H12.5956C12.5956 44.6943 12.9204 45.668 16.5581 45.6879V46.7H17.6039C17.6598 46.7009 17.715 46.7125 17.7663 46.7341C18.0164 46.832 18.4479 47.2692 18.2636 48.2699C18.0793 49.2706 17.5835 50.0045 15.521 51.5417C15.2779 51.3354 15.0478 51.115 14.8321 50.8817Z" fill="#FBE91E"/>
<path d="M16.1058 4.55078V5.94468H12.0278V7.53021H15.7079V8.92411H12.0278V10.5508H16.2301V11.9447H10.3091V4.55078H16.1058Z" fill="white"/>
<path d="M28.0884 4.55077V5.97022H25.7597V11.9489H24.0396V5.96596H21.7197V4.54651L28.0884 4.55077Z" fill="white"/>
<path d="M38.2676 11.9447L37.0594 9.83256H35.3041V11.9447H33.5854V4.55078H36.8941C37.8965 4.55078 38.6679 4.77269 39.2081 5.2165C39.7483 5.66032 40.0184 6.29387 40.0184 7.11715C40.0343 7.62764 39.909 8.13294 39.6557 8.58061C39.4098 8.98813 39.0391 9.31113 38.5952 9.50467L40.2159 11.9447H38.2676ZM35.3056 8.43724H36.8941C37.3739 8.43724 37.7425 8.3322 37.9999 8.12212C38.2573 7.91204 38.3861 7.59645 38.3861 7.17535C38.3861 6.76229 38.2573 6.45285 37.9999 6.24986C37.7425 6.04688 37.3739 5.94468 36.8941 5.94468H35.3056V8.43724Z" fill="white"/>
<path d="M27.8853 32.338L28.1778 35.9334H44.3363C44.3363 35.9334 44.9214 34.7979 45.154 32.3365L27.8853 32.338Z" fill="white"/>
<path d="M21.9391 32.338L21.6466 35.9334H5.49099C5.49099 35.9334 4.90591 34.7979 4.67188 32.3365L21.9391 32.338Z" fill="white"/>
<path d="M29.0815 27.1115C29.0815 27.2819 29.0727 27.4706 29.0567 27.6793C29.0245 28.0512 28.7319 28.4174 28.1205 28.4174H27.8602C27.8602 28.4174 27.8602 28.5154 27.8602 28.6701C27.8602 28.9256 27.828 29.0448 27.7285 29.0959H45.4653C45.4653 29.0959 45.5443 28.0696 45.5297 25.5104H31.8885C31.7714 26.3436 30.6978 27.0718 29.671 27.0945L29.0815 27.1115Z" fill="white"/>
<path d="M20.7356 27.093C20.7356 27.2662 20.7356 27.4521 20.7619 27.6679C20.7985 28.0341 21.0837 28.4046 21.6937 28.4046H21.9569V28.6573C21.9569 28.9099 21.9906 29.0292 22.0886 29.0831H4.35179C4.35179 29.0831 4.27719 28.0597 4.28304 25.4976H17.9301C18.0442 26.3294 19.1193 27.059 20.1461 27.0817L20.7356 27.093Z" fill="white"/>
<path d="M26.9302 28.4387H22.9355V28.812C22.9357 28.8376 22.9411 28.8628 22.9514 28.8863C22.9616 28.9099 22.9765 28.9312 22.9953 28.9491C23.014 28.9671 23.0362 28.9812 23.0606 28.9908C23.085 29.0004 23.1111 29.0053 23.1374 29.0051H26.74C26.7661 29.0051 26.7919 29.0001 26.816 28.9904C26.84 28.9806 26.8618 28.9664 26.8802 28.9485C26.8986 28.9305 26.9131 28.9092 26.9229 28.8858C26.9327 28.8624 26.9377 28.8373 26.9375 28.812L26.9302 28.4387Z" fill="#FBE91E"/>
<path d="M28.0096 27.1044H21.8662V27.5089C21.8689 27.5575 21.891 27.6031 21.9279 27.636C21.9649 27.6689 22.0136 27.6865 22.0637 27.6849H27.8209C27.8702 27.6854 27.9179 27.6673 27.9538 27.6345C27.9898 27.6017 28.0113 27.5567 28.014 27.5089L28.0096 27.1044Z" fill="#FBE91E"/>
<path d="M43.4892 17.4578H32.1473C32.0142 17.4578 31.2609 17.4464 30.9201 17.8836C30.9201 17.8836 29.6666 19.445 28.9762 20.1377C28.6018 20.4658 28.1616 20.7152 27.6831 20.8701C27.1844 21.0376 27.0264 21.3116 26.3667 22.1902C26.1765 22.4372 25.8591 22.8545 25.4364 23.0589C25.277 23.1301 25.1043 23.1688 24.9289 23.1725C24.7536 23.1678 24.581 23.1292 24.4213 23.0589C24.0074 22.8545 23.6899 22.4372 23.4939 22.1902C22.8401 21.3116 22.6792 21.0376 22.1775 20.8701C21.6996 20.7139 21.2597 20.4647 20.8845 20.1377C20.197 19.4507 18.9435 17.8836 18.9435 17.8836C18.6026 17.4479 17.8523 17.4578 17.7133 17.4578H6.38026C5.58162 17.4578 5.77031 18.6785 6.69182 19.4294C7.42198 19.9833 8.31899 20.2899 9.2457 20.3024H16.7055C17.039 20.2825 17.0741 20.5054 16.8518 20.7793C16.6338 20.988 16.3969 21.1498 15.7708 21.1938H9.64064C9.72684 21.4654 9.8556 21.7225 10.0224 21.956C10.1972 22.1762 10.4216 22.3546 10.6784 22.4777C10.9353 22.6007 11.2177 22.665 11.5041 22.6658H18.8849C19.2097 22.6587 19.2653 22.8332 19.04 23.0916C18.8133 23.3059 18.4886 23.489 17.921 23.489H15.4812C15.5479 23.7272 15.6644 23.9495 15.8235 24.142C16.0162 24.3458 16.2504 24.5085 16.5112 24.6199C16.772 24.7313 17.0539 24.789 17.3389 24.7893H20.7353C20.7813 24.7856 20.8272 24.7967 20.8661 24.8209C20.905 24.8451 20.9346 24.881 20.9503 24.9231C20.9661 24.9652 20.9672 25.0111 20.9535 25.0539C20.9397 25.0966 20.9119 25.1338 20.8742 25.1597C20.6709 25.3301 20.4354 25.5018 19.8503 25.5018H19.1775C19.2127 25.6667 19.3058 25.8147 19.4408 25.9206C19.6046 26.0625 19.8664 26.3123 20.6314 26.3123H29.2497C30.0118 26.3123 30.2736 26.0682 30.4403 25.9206C30.5734 25.8138 30.6647 25.666 30.6992 25.5018H30.0205C29.4355 25.5018 29.2073 25.3301 28.9966 25.1597C28.9604 25.1334 28.9337 25.0965 28.9206 25.0544C28.9075 25.0123 28.9086 24.9672 28.9239 24.9258C28.9391 24.8844 28.9675 24.8488 29.0051 24.8242C29.0427 24.7996 29.0874 24.7874 29.1327 24.7893H32.5379C32.8221 24.7884 33.1031 24.7304 33.3631 24.619C33.6232 24.5076 33.8567 24.3452 34.0488 24.142C34.2079 23.9438 34.3356 23.7238 34.4277 23.489H31.9879C31.4174 23.489 31.0561 23.3059 30.8294 23.0916C30.6042 22.8318 30.6583 22.6572 30.9859 22.6658H38.3638C38.6503 22.6644 38.9328 22.5998 39.1897 22.4768C39.4467 22.3539 39.6715 22.1758 39.847 21.956C40.015 21.7236 40.143 21.4661 40.2259 21.1938H34.1088C33.4798 21.1498 33.2414 20.988 33.0249 20.7793C32.7938 20.5054 32.8333 20.2825 33.1712 20.3024H40.631C41.558 20.2888 42.4551 19.9823 43.1864 19.4294C44.0962 18.6757 44.2849 17.4578 43.4892 17.4578Z" fill="#FDEB18"/>
<path d="M41.6081 18.5422H32.1721C31.8822 18.5369 31.5981 18.6216 31.3613 18.784C31.1245 18.9464 30.9473 19.178 30.8557 19.445C30.6641 19.9958 30.4842 20.3279 30.3394 20.4798C30.1946 20.6317 29.6197 20.8034 29.6197 20.8034C29.3855 20.86 29.1622 20.953 28.9586 21.0788C28.5958 21.3698 28.2916 21.9063 28.0166 22.3151C27.1185 23.6409 26.5904 24.3932 24.9347 24.396C23.2789 24.3989 22.7567 23.6409 21.863 22.3151C21.5865 21.9063 21.2867 21.3698 20.9181 21.0788C20.7159 20.9522 20.4935 20.8591 20.2598 20.8034C20.2598 20.8034 19.6748 20.6331 19.5387 20.4798C19.4027 20.3265 19.2169 19.9958 19.0268 19.445C18.9338 19.1789 18.7563 18.9481 18.5198 18.7859C18.2833 18.6238 17.9999 18.5384 17.7103 18.5422H8.26272C7.94238 18.5422 7.94238 18.6728 7.94238 18.8375C7.94729 18.9159 7.98347 18.9894 8.04327 19.0424C8.10306 19.0954 8.18177 19.1237 8.26272 19.1214H17.4924C18.1887 19.1214 18.332 19.5869 18.4636 19.9972C18.6465 20.5536 18.7752 20.7523 18.9361 20.9028C19.1026 21.0708 19.3128 21.192 19.5446 21.2534C19.8708 21.3456 20.2306 21.4095 20.4222 21.5373C20.8376 21.8212 21.3393 22.7225 21.6436 23.1611C22.4817 24.3719 23.0931 24.9369 24.8805 24.9894H25.0005C26.7835 24.9369 27.3993 24.3719 28.236 23.1611C28.5373 22.7225 29.0419 21.8183 29.4559 21.5373C29.646 21.4109 30.0059 21.3471 30.3335 21.2534C30.5639 21.191 30.773 21.0699 30.9391 20.9028C31.0985 20.7523 31.2316 20.5536 31.413 19.9972C31.5476 19.5869 31.6894 19.1214 32.3828 19.1214H41.6168C41.6971 19.123 41.7749 19.0943 41.8339 19.0413C41.8928 18.9884 41.9283 18.9153 41.9328 18.8375C41.924 18.6757 41.9226 18.5422 41.6081 18.5422Z" fill="#1D1D1B"/>
</g>
<defs>
<clipPath id="clip0_13_1263">
<rect width="50" height="62.3377" fill="white"/>
</clipPath>
</defs>
</svg>
