<svg width="68" height="68" viewBox="0 0 68 68" fill="none" xmlns="http://www.w3.org/2000/svg">
<path d="M33.9998 56.6667C46.4665 56.6667 56.6665 46.4667 56.6665 34C56.6665 21.5333 46.4665 11.3333 33.9998 11.3333C21.5332 11.3333 11.3332 21.5333 11.3332 34C11.3332 46.4667 21.5332 56.6667 33.9998 56.6667ZM33.9998 5.66666C49.5832 5.66666 62.3332 18.4167 62.3332 34C62.3332 49.5833 49.5832 62.3333 33.9998 62.3333C18.4165 62.3333 5.6665 49.5833 5.6665 34C5.6665 18.4167 18.4165 5.66666 33.9998 5.66666ZM35.4165 36.2667L21.8165 44.2L19.8332 40.2333L31.1665 33.7167V19.8333H35.4165V36.2667Z" fill="black"/>
</svg>
