<svg width="68" height="68" viewBox="0 0 68 68" fill="none" xmlns="http://www.w3.org/2000/svg">
<path d="M33.9998 56.6667C46.4665 56.6667 56.6665 46.4667 56.6665 34C56.6665 21.5334 46.4665 11.3334 33.9998 11.3334C21.5332 11.3334 11.3332 21.5334 11.3332 34C11.3332 46.4667 21.5332 56.6667 33.9998 56.6667ZM33.9998 5.66669C49.5832 5.66669 62.3332 18.4167 62.3332 34C62.3332 49.5834 49.5832 62.3334 33.9998 62.3334C18.4165 62.3334 5.6665 49.5834 5.6665 34C5.6665 18.4167 18.4165 5.66669 33.9998 5.66669ZM35.4165 36.2667L21.8165 44.2L19.8332 40.2334L31.1665 33.7167V19.8334H35.4165V36.2667Z" fill="white"/>
</svg>
